%TF.GenerationSoftware,KiCad,Pcbnew,7.0.5*%
%TF.CreationDate,2025-08-15T19:59:52+01:00*%
%TF.ProjectId,smartwatch,736d6172-7477-4617-9463-682e6b696361,rev?*%
%TF.SameCoordinates,Original*%
%TF.FileFunction,Copper,L1,Top*%
%TF.FilePolarity,Positive*%
%FSLAX46Y46*%
G04 Gerber Fmt 4.6, Leading zero omitted, Abs format (unit mm)*
G04 Created by KiCad (PCBNEW 7.0.5) date 2025-08-15 19:59:52*
%MOMM*%
%LPD*%
G01*
G04 APERTURE LIST*
G04 Aperture macros list*
%AMRoundRect*
0 Rectangle with rounded corners*
0 $1 Rounding radius*
0 $2 $3 $4 $5 $6 $7 $8 $9 X,Y pos of 4 corners*
0 Add a 4 corners polygon primitive as box body*
4,1,4,$2,$3,$4,$5,$6,$7,$8,$9,$2,$3,0*
0 Add four circle primitives for the rounded corners*
1,1,$1+$1,$2,$3*
1,1,$1+$1,$4,$5*
1,1,$1+$1,$6,$7*
1,1,$1+$1,$8,$9*
0 Add four rect primitives between the rounded corners*
20,1,$1+$1,$2,$3,$4,$5,0*
20,1,$1+$1,$4,$5,$6,$7,0*
20,1,$1+$1,$6,$7,$8,$9,0*
20,1,$1+$1,$8,$9,$2,$3,0*%
G04 Aperture macros list end*
%TA.AperFunction,SMDPad,CuDef*%
%ADD10R,1.700000X0.600000*%
%TD*%
%TA.AperFunction,SMDPad,CuDef*%
%ADD11R,2.700000X1.000000*%
%TD*%
%TA.AperFunction,SMDPad,CuDef*%
%ADD12RoundRect,0.250000X-0.337500X-0.475000X0.337500X-0.475000X0.337500X0.475000X-0.337500X0.475000X0*%
%TD*%
%TA.AperFunction,SMDPad,CuDef*%
%ADD13RoundRect,0.075000X-0.075000X0.350000X-0.075000X-0.350000X0.075000X-0.350000X0.075000X0.350000X0*%
%TD*%
%TA.AperFunction,SMDPad,CuDef*%
%ADD14RoundRect,0.075000X-0.350000X-0.075000X0.350000X-0.075000X0.350000X0.075000X-0.350000X0.075000X0*%
%TD*%
%TA.AperFunction,SMDPad,CuDef*%
%ADD15RoundRect,0.250000X-0.475000X0.337500X-0.475000X-0.337500X0.475000X-0.337500X0.475000X0.337500X0*%
%TD*%
%TA.AperFunction,SMDPad,CuDef*%
%ADD16R,1.500000X0.900000*%
%TD*%
%TA.AperFunction,SMDPad,CuDef*%
%ADD17R,0.900000X0.900000*%
%TD*%
%TA.AperFunction,SMDPad,CuDef*%
%ADD18RoundRect,0.250000X0.475000X-0.337500X0.475000X0.337500X-0.475000X0.337500X-0.475000X-0.337500X0*%
%TD*%
%TA.AperFunction,ViaPad*%
%ADD19C,0.800000*%
%TD*%
%TA.AperFunction,Conductor*%
%ADD20C,0.250000*%
%TD*%
G04 APERTURE END LIST*
D10*
%TO.P,J4,1,1*%
%TO.N,3V3*%
X56500000Y-52000000D03*
%TO.P,J4,2,2*%
%TO.N,DC_GND*%
X56500000Y-50750000D03*
%TO.P,J4,3,3*%
%TO.N,SCR_MISO*%
X56500000Y-49500000D03*
%TO.P,J4,4,4*%
%TO.N,SCR_MOSI*%
X56500000Y-48250000D03*
%TO.P,J4,5,5*%
%TO.N,SCR_SCLK*%
X56500000Y-47000000D03*
%TO.P,J4,6,6*%
%TO.N,SCR_CS*%
X56500000Y-45750000D03*
%TO.P,J4,7,7*%
%TO.N,SCR_DC*%
X56500000Y-44500000D03*
%TO.P,J4,8,8*%
%TO.N,SCR_RST*%
X56500000Y-43250000D03*
%TO.P,J4,9,9*%
%TO.N,SCR_BL*%
X56500000Y-42000000D03*
%TO.P,J4,10,10*%
%TO.N,TOUCH_SDA*%
X56500000Y-40750000D03*
%TO.P,J4,11,11*%
%TO.N,TOUCH_SCL*%
X56500000Y-39500000D03*
%TO.P,J4,12,12*%
%TO.N,TOUCH_IRQ*%
X56500000Y-38250000D03*
%TO.P,J4,13,13*%
%TO.N,TOUCH_RST*%
X56500000Y-37000000D03*
D11*
%TO.P,J4,SH1,SHIELD*%
%TO.N,DC_GND*%
X59700000Y-53850000D03*
%TO.P,J4,SH2,SHIELD*%
X59700000Y-35150000D03*
%TD*%
D12*
%TO.P,C13,1*%
%TO.N,3V3*%
X55762500Y-56100000D03*
%TO.P,C13,2*%
%TO.N,DC_GND*%
X57837500Y-56100000D03*
%TD*%
D13*
%TO.P,U3,1,CLKIN*%
%TO.N,DC_GND*%
X31330000Y-40470000D03*
%TO.P,U3,2,NC*%
%TO.N,unconnected-(U3-NC-Pad2)*%
X30830000Y-40470000D03*
%TO.P,U3,3,NC*%
%TO.N,unconnected-(U3-NC-Pad3)*%
X30330000Y-40470000D03*
%TO.P,U3,4,NC*%
%TO.N,unconnected-(U3-NC-Pad4)*%
X29830000Y-40470000D03*
%TO.P,U3,5,NC*%
%TO.N,unconnected-(U3-NC-Pad5)*%
X29330000Y-40470000D03*
%TO.P,U3,6,AUX_DA*%
%TO.N,MPU_XDA*%
X28830000Y-40470000D03*
D14*
%TO.P,U3,7,AUX_CL*%
%TO.N,MPU_XCL*%
X28130000Y-41170000D03*
%TO.P,U3,8,VLOGIC*%
%TO.N,MPU_VLOGIC*%
X28130000Y-41670000D03*
%TO.P,U3,9,AD0*%
%TO.N,MPU_AD0*%
X28130000Y-42170000D03*
%TO.P,U3,10,REGOUT*%
%TO.N,Net-(U3-REGOUT)*%
X28130000Y-42670000D03*
%TO.P,U3,11,FSYNC*%
%TO.N,DC_GND*%
X28130000Y-43170000D03*
%TO.P,U3,12,INT*%
%TO.N,MPU_INT*%
X28130000Y-43670000D03*
D13*
%TO.P,U3,13,VDD*%
%TO.N,3V3*%
X28830000Y-44370000D03*
%TO.P,U3,14,NC*%
%TO.N,unconnected-(U3-NC-Pad14)*%
X29330000Y-44370000D03*
%TO.P,U3,15,NC*%
%TO.N,unconnected-(U3-NC-Pad15)*%
X29830000Y-44370000D03*
%TO.P,U3,16,NC*%
%TO.N,unconnected-(U3-NC-Pad16)*%
X30330000Y-44370000D03*
%TO.P,U3,17,NC*%
%TO.N,unconnected-(U3-NC-Pad17)*%
X30830000Y-44370000D03*
%TO.P,U3,18,GND*%
%TO.N,DC_GND*%
X31330000Y-44370000D03*
D14*
%TO.P,U3,19,RESV*%
%TO.N,unconnected-(U3-RESV-Pad19)*%
X32030000Y-43670000D03*
%TO.P,U3,20,CPOUT*%
%TO.N,Net-(U3-CPOUT)*%
X32030000Y-43170000D03*
%TO.P,U3,21,RESV*%
%TO.N,unconnected-(U3-RESV-Pad21)*%
X32030000Y-42670000D03*
%TO.P,U3,22,RESV*%
%TO.N,unconnected-(U3-RESV-Pad22)*%
X32030000Y-42170000D03*
%TO.P,U3,23,SCL*%
%TO.N,MPU_SCL*%
X32030000Y-41670000D03*
%TO.P,U3,24,SDA*%
%TO.N,MPU_SDA*%
X32030000Y-41170000D03*
%TD*%
D15*
%TO.P,C6,1*%
%TO.N,Net-(U3-CPOUT)*%
X32930000Y-46312500D03*
%TO.P,C6,2*%
%TO.N,DC_GND*%
X32930000Y-48387500D03*
%TD*%
%TO.P,C7,1*%
%TO.N,Net-(U3-REGOUT)*%
X27870000Y-46300000D03*
%TO.P,C7,2*%
%TO.N,DC_GND*%
X27870000Y-48375000D03*
%TD*%
D16*
%TO.P,U1,1,GND*%
%TO.N,DC_GND*%
X35870000Y-33970000D03*
%TO.P,U1,2,3V3*%
%TO.N,3V3*%
X35870000Y-35240000D03*
%TO.P,U1,3,EN/CHIP_PU*%
%TO.N,EN*%
X35870000Y-36510000D03*
%TO.P,U1,4,SENSOR_VP/GPIO36/ADC1_CH0*%
%TO.N,BAT_MEASURE*%
X35870000Y-37780000D03*
%TO.P,U1,5,SENSOR_VN/GPIO39/ADC1_CH3*%
%TO.N,unconnected-(U1-SENSOR_VN{slash}GPIO39{slash}ADC1_CH3-Pad5)*%
X35870000Y-39050000D03*
%TO.P,U1,6,GPIO34/ADC1_CH6*%
%TO.N,BTN_INP*%
X35870000Y-40320000D03*
%TO.P,U1,7,GPIO35/ADC1_CH7*%
%TO.N,SCR_MISO*%
X35870000Y-41590000D03*
%TO.P,U1,8,32K_XP/GPIO32/ADC1_CH4*%
%TO.N,MPU_SDA*%
X35870000Y-42860000D03*
%TO.P,U1,9,32K_XN/GPIO33/ADC1_CH5*%
%TO.N,MPU_SCL*%
X35870000Y-44130000D03*
%TO.P,U1,10,DAC_1/ADC2_CH8/GPIO25*%
%TO.N,TOUCH_IRQ*%
X35870000Y-45400000D03*
%TO.P,U1,11,DAC_2/ADC2_CH9/GPIO26*%
%TO.N,TOUCH_RST*%
X35870000Y-46670000D03*
%TO.P,U1,12,ADC2_CH7/GPIO27*%
%TO.N,unconnected-(U1-ADC2_CH7{slash}GPIO27-Pad12)*%
X35870000Y-47940000D03*
%TO.P,U1,13,MTMS/GPIO14/ADC2_CH6*%
%TO.N,unconnected-(U1-MTMS{slash}GPIO14{slash}ADC2_CH6-Pad13)*%
X35870000Y-49210000D03*
%TO.P,U1,14,MTDI/GPIO12/ADC2_CH5*%
%TO.N,unconnected-(U1-MTDI{slash}GPIO12{slash}ADC2_CH5-Pad14)*%
X35870000Y-50480000D03*
%TO.P,U1,15,GND*%
%TO.N,DC_GND*%
X35870000Y-51750000D03*
%TO.P,U1,16,MTCK/GPIO13/ADC2_CH4*%
%TO.N,unconnected-(U1-MTCK{slash}GPIO13{slash}ADC2_CH4-Pad16)*%
X35870000Y-53020000D03*
%TO.P,U1,17*%
%TO.N,N/C*%
X35870000Y-54290000D03*
%TO.P,U1,18*%
X35870000Y-55560000D03*
%TO.P,U1,19*%
X35870000Y-56830000D03*
%TO.P,U1,20*%
X53370000Y-56830000D03*
%TO.P,U1,21*%
X53370000Y-55560000D03*
%TO.P,U1,22*%
X53370000Y-54290000D03*
%TO.P,U1,23,MTDO/GPIO15/ADC2_CH3*%
%TO.N,SCR_BL*%
X53370000Y-53020000D03*
%TO.P,U1,24,ADC2_CH2/GPIO2*%
%TO.N,unconnected-(U1-ADC2_CH2{slash}GPIO2-Pad24)*%
X53370000Y-51750000D03*
%TO.P,U1,25,GPIO0/BOOT/ADC2_CH1*%
%TO.N,IO0*%
X53370000Y-50480000D03*
%TO.P,U1,26,ADC2_CH0/GPIO4*%
%TO.N,SCR_RST*%
X53370000Y-49210000D03*
%TO.P,U1,27*%
%TO.N,N/C*%
X53370000Y-47940000D03*
%TO.P,U1,28*%
X53370000Y-46670000D03*
%TO.P,U1,29,GPIO5*%
%TO.N,SCR_CS*%
X53370000Y-45400000D03*
%TO.P,U1,30,GPIO18*%
%TO.N,SCR_SCLK*%
X53370000Y-44130000D03*
%TO.P,U1,31,GPIO19*%
%TO.N,SCR_DC*%
X53370000Y-42860000D03*
%TO.P,U1,32*%
%TO.N,N/C*%
X53370000Y-41590000D03*
%TO.P,U1,33,GPIO21*%
%TO.N,SCR_MOSI*%
X53370000Y-40320000D03*
%TO.P,U1,34,U0RXD/GPIO3*%
%TO.N,RX*%
X53370000Y-39050000D03*
%TO.P,U1,35,U0TXD/GPIO1*%
%TO.N,TX*%
X53370000Y-37780000D03*
%TO.P,U1,36,GPIO22*%
%TO.N,TOUCH_SCL*%
X53370000Y-36510000D03*
%TO.P,U1,37,GPIO23*%
%TO.N,TOUCH_SDA*%
X53370000Y-35240000D03*
%TO.P,U1,38,GND*%
%TO.N,DC_GND*%
X53370000Y-33970000D03*
D17*
%TO.P,U1,39,GND_THERMAL*%
X41715000Y-40365000D03*
X41720000Y-41765000D03*
X41720000Y-43165000D03*
X43120000Y-40365000D03*
X43120000Y-41765000D03*
X43120000Y-43165000D03*
X44520000Y-40365000D03*
X44520000Y-41765000D03*
X44520000Y-43165000D03*
%TD*%
D18*
%TO.P,C8,1*%
%TO.N,MPU_VLOGIC*%
X30000000Y-38695000D03*
%TO.P,C8,2*%
%TO.N,DC_GND*%
X30000000Y-36620000D03*
%TD*%
D15*
%TO.P,C5,1*%
%TO.N,3V3*%
X30730000Y-46300000D03*
%TO.P,C5,2*%
%TO.N,DC_GND*%
X30730000Y-48375000D03*
%TD*%
D19*
%TO.N,BTN_INP*%
X51548790Y-39337733D03*
%TO.N,DC_GND*%
X53370000Y-33970000D03*
%TO.N,RX*%
X51375500Y-34700000D03*
%TO.N,TX*%
X52035851Y-33385196D03*
%TO.N,DC_GND*%
X43100000Y-49700000D03*
X37800000Y-51300000D03*
X43120000Y-40365000D03*
%TO.N,IO0*%
X53370000Y-50480000D03*
%TO.N,DC_GND*%
X59773912Y-53923912D03*
X50927500Y-45990000D03*
X30750000Y-48350000D03*
X30000000Y-36620000D03*
X27850000Y-48350000D03*
X63950000Y-45400000D03*
X35870000Y-33970000D03*
X35850000Y-51700000D03*
X32258000Y-54102000D03*
%TO.N,3V3*%
X55762500Y-56100000D03*
X61000000Y-49150000D03*
X60174500Y-46100000D03*
X30730000Y-46300000D03*
X35776405Y-35303268D03*
X48852500Y-45990000D03*
%TO.N,EN*%
X35870000Y-36510000D03*
%TO.N,SCR_SCLK*%
X53370000Y-44130000D03*
X56500000Y-46950000D03*
%TO.N,SCR_MISO*%
X56450000Y-49550000D03*
X50150000Y-50400000D03*
%TO.N,SCR_MOSI*%
X56600000Y-48300000D03*
X53370000Y-40320000D03*
%TO.N,BAT_MEASURE*%
X34150000Y-40300000D03*
%TO.N,SCR_RST*%
X54850000Y-51350000D03*
X58200000Y-49750000D03*
%TO.N,TOUCH_RST*%
X38100000Y-43250000D03*
X40000000Y-39050000D03*
X56550000Y-36950000D03*
X49950000Y-38350000D03*
%TO.N,TOUCH_IRQ*%
X37400000Y-42400000D03*
X38150000Y-40865500D03*
X50550000Y-39300000D03*
X56500000Y-38250000D03*
%TO.N,SCR_BL*%
X58650000Y-51000000D03*
X53370000Y-53020000D03*
%TD*%
D20*
%TO.N,DC_GND*%
X32930000Y-48387500D02*
X30742500Y-48387500D01*
X30742500Y-48387500D02*
X30730000Y-48375000D01*
%TO.N,BTN_INP*%
X39270000Y-37500000D02*
X36450000Y-40320000D01*
X50183604Y-37500000D02*
X39270000Y-37500000D01*
X51548790Y-38865186D02*
X50183604Y-37500000D01*
X36450000Y-40320000D02*
X35870000Y-40320000D01*
X51548790Y-39337733D02*
X51548790Y-38865186D01*
%TO.N,RX*%
X51375500Y-38055500D02*
X51375500Y-34700000D01*
X52370000Y-39050000D02*
X51375500Y-38055500D01*
X53370000Y-39050000D02*
X52370000Y-39050000D01*
%TO.N,TX*%
X52370000Y-37780000D02*
X53370000Y-37780000D01*
X52100000Y-37510000D02*
X52370000Y-37780000D01*
X52100000Y-33449345D02*
X52100000Y-37510000D01*
X52035851Y-33385196D02*
X52100000Y-33449345D01*
%TO.N,DC_GND*%
X59700000Y-35150000D02*
X58520000Y-33970000D01*
X58520000Y-33970000D02*
X53370000Y-33970000D01*
X43120000Y-43165000D02*
X43120000Y-41765000D01*
X43120000Y-41765000D02*
X43120000Y-40365000D01*
X44520000Y-41765000D02*
X43120000Y-41765000D01*
X43120000Y-41765000D02*
X41720000Y-41765000D01*
X59773912Y-54163588D02*
X59773912Y-53923912D01*
X35870000Y-51720000D02*
X35850000Y-51700000D01*
X31330000Y-40470000D02*
X31330000Y-37950000D01*
X27639315Y-43170000D02*
X27380000Y-43429315D01*
X31330000Y-44370000D02*
X31780000Y-44820000D01*
X57837500Y-56100000D02*
X59773912Y-54163588D01*
X30730000Y-48370000D02*
X30750000Y-48350000D01*
X35870000Y-51750000D02*
X35870000Y-51720000D01*
X44520000Y-43165000D02*
X44520000Y-41765000D01*
X31780000Y-47320000D02*
X30750000Y-48350000D01*
X31330000Y-37950000D02*
X30000000Y-36620000D01*
X57050000Y-50750000D02*
X59773912Y-53473912D01*
X29650000Y-47295000D02*
X30730000Y-48375000D01*
X41715000Y-40365000D02*
X43120000Y-40365000D01*
X41720000Y-41765000D02*
X41720000Y-40370000D01*
X59773912Y-53473912D02*
X59773912Y-53923912D01*
X43120000Y-43165000D02*
X44520000Y-43165000D01*
X28130000Y-43170000D02*
X27639315Y-43170000D01*
X27380000Y-44184327D02*
X29650000Y-46454327D01*
X27870000Y-48370000D02*
X27850000Y-48350000D01*
X41720000Y-40370000D02*
X41715000Y-40365000D01*
X41720000Y-41765000D02*
X41720000Y-43165000D01*
X41720000Y-43165000D02*
X43120000Y-43165000D01*
X44520000Y-40365000D02*
X44520000Y-41765000D01*
X31780000Y-44820000D02*
X31780000Y-47320000D01*
X43120000Y-40365000D02*
X44520000Y-40365000D01*
X27870000Y-48375000D02*
X27870000Y-48370000D01*
X30730000Y-48375000D02*
X30730000Y-48370000D01*
X27380000Y-43429315D02*
X27380000Y-44184327D01*
X29650000Y-46454327D02*
X29650000Y-47295000D01*
X56500000Y-50750000D02*
X57050000Y-50750000D01*
%TO.N,3V3*%
X35870000Y-35240000D02*
X35839673Y-35240000D01*
X30269315Y-46300000D02*
X28830000Y-44860685D01*
X56500000Y-52000000D02*
X56500000Y-55362500D01*
X30730000Y-46300000D02*
X30269315Y-46300000D01*
X35839673Y-35240000D02*
X35776405Y-35303268D01*
X56500000Y-55362500D02*
X55762500Y-56100000D01*
X28830000Y-44860685D02*
X28830000Y-44370000D01*
%TO.N,Net-(U3-CPOUT)*%
X32520685Y-43170000D02*
X32930000Y-43579315D01*
X32030000Y-43170000D02*
X32520685Y-43170000D01*
X32930000Y-43579315D02*
X32930000Y-46312500D01*
%TO.N,Net-(U3-REGOUT)*%
X28130000Y-42670000D02*
X27502919Y-42670000D01*
X26930000Y-43242919D02*
X26930000Y-45360000D01*
X27502919Y-42670000D02*
X26930000Y-43242919D01*
X26930000Y-45360000D02*
X27870000Y-46300000D01*
%TO.N,MPU_VLOGIC*%
X28130000Y-41670000D02*
X27639315Y-41670000D01*
X27350000Y-40350000D02*
X29005000Y-38695000D01*
X27639315Y-41670000D02*
X27350000Y-41380685D01*
X27350000Y-41380685D02*
X27350000Y-40350000D01*
X29005000Y-38695000D02*
X30000000Y-38695000D01*
%TO.N,TOUCH_SCL*%
X54800000Y-36940000D02*
X54370000Y-36510000D01*
X54800000Y-38350000D02*
X54800000Y-36940000D01*
X54370000Y-36510000D02*
X53370000Y-36510000D01*
X55950000Y-39500000D02*
X54800000Y-38350000D01*
X56500000Y-39500000D02*
X55950000Y-39500000D01*
%TO.N,TOUCH_SDA*%
X57850000Y-40750000D02*
X58600000Y-40000000D01*
X58600000Y-40000000D02*
X58600000Y-36800000D01*
X57040000Y-35240000D02*
X53370000Y-35240000D01*
X58600000Y-36800000D02*
X57040000Y-35240000D01*
X56500000Y-40750000D02*
X57850000Y-40750000D01*
%TO.N,SCR_SCLK*%
X56500000Y-47000000D02*
X56500000Y-46950000D01*
%TO.N,SCR_MISO*%
X56500000Y-49500000D02*
X56450000Y-49550000D01*
X47405000Y-50400000D02*
X38595000Y-41590000D01*
X50150000Y-50400000D02*
X47405000Y-50400000D01*
X38595000Y-41590000D02*
X35870000Y-41590000D01*
%TO.N,SCR_MOSI*%
X56550000Y-48250000D02*
X56600000Y-48300000D01*
X56500000Y-48250000D02*
X56550000Y-48250000D01*
%TO.N,SCR_CS*%
X56500000Y-45750000D02*
X53720000Y-45750000D01*
X53720000Y-45750000D02*
X53370000Y-45400000D01*
%TO.N,SCR_DC*%
X56500000Y-44500000D02*
X55950000Y-44500000D01*
X54310000Y-42860000D02*
X53370000Y-42860000D01*
X55950000Y-44500000D02*
X54310000Y-42860000D01*
%TO.N,BAT_MEASURE*%
X34150000Y-40300000D02*
X34150000Y-38500000D01*
X34870000Y-37780000D02*
X35870000Y-37780000D01*
X34150000Y-38500000D02*
X34870000Y-37780000D01*
%TO.N,SCR_RST*%
X57050000Y-43250000D02*
X58200000Y-44400000D01*
X54370000Y-49210000D02*
X53370000Y-49210000D01*
X56500000Y-43250000D02*
X57050000Y-43250000D01*
X54850000Y-49690000D02*
X54370000Y-49210000D01*
X58200000Y-44400000D02*
X58200000Y-49750000D01*
X54850000Y-51350000D02*
X54850000Y-49690000D01*
%TO.N,MPU_SDA*%
X33600000Y-41170000D02*
X35290000Y-42860000D01*
X35290000Y-42860000D02*
X35870000Y-42860000D01*
X32030000Y-41170000D02*
X33600000Y-41170000D01*
%TO.N,MPU_SCL*%
X32030000Y-41670000D02*
X33070000Y-41670000D01*
X33070000Y-41670000D02*
X34795000Y-43395000D01*
X34795000Y-44055000D02*
X34870000Y-44130000D01*
X34870000Y-44130000D02*
X35870000Y-44130000D01*
X34795000Y-43395000D02*
X34795000Y-44055000D01*
%TO.N,TOUCH_RST*%
X49250000Y-39050000D02*
X40000000Y-39050000D01*
X56500000Y-37000000D02*
X56550000Y-36950000D01*
X38100000Y-43250000D02*
X38100000Y-45440000D01*
X36870000Y-46670000D02*
X35870000Y-46670000D01*
X49950000Y-38350000D02*
X49250000Y-39050000D01*
X38100000Y-45440000D02*
X36870000Y-46670000D01*
%TO.N,TOUCH_IRQ*%
X38150000Y-40900000D02*
X38150000Y-40865500D01*
X39800000Y-40900000D02*
X38150000Y-40900000D01*
X36945000Y-42855000D02*
X36945000Y-45325000D01*
X36870000Y-45400000D02*
X35870000Y-45400000D01*
X36945000Y-45325000D02*
X36870000Y-45400000D01*
X37400000Y-42400000D02*
X36945000Y-42855000D01*
X50350000Y-39500000D02*
X41200000Y-39500000D01*
X41200000Y-39500000D02*
X39800000Y-40900000D01*
X50550000Y-39300000D02*
X50350000Y-39500000D01*
%TO.N,SCR_BL*%
X59450000Y-44400000D02*
X59450000Y-50200000D01*
X57050000Y-42000000D02*
X59450000Y-44400000D01*
X56500000Y-42000000D02*
X57050000Y-42000000D01*
X59450000Y-50200000D02*
X58650000Y-51000000D01*
%TD*%
M02*
