%TF.GenerationSoftware,KiCad,Pcbnew,7.0.5*%
%TF.CreationDate,2024-06-06T18:36:07+01:00*%
%TF.ProjectId,smartwatch,736d6172-7477-4617-9463-682e6b696361,rev?*%
%TF.SameCoordinates,Original*%
%TF.FileFunction,Paste,Bot*%
%TF.FilePolarity,Positive*%
%FSLAX46Y46*%
G04 Gerber Fmt 4.6, Leading zero omitted, Abs format (unit mm)*
G04 Created by KiCad (PCBNEW 7.0.5) date 2024-06-06 18:36:07*
%MOMM*%
%LPD*%
G01*
G04 APERTURE LIST*
G04 Aperture macros list*
%AMRoundRect*
0 Rectangle with rounded corners*
0 $1 Rounding radius*
0 $2 $3 $4 $5 $6 $7 $8 $9 X,Y pos of 4 corners*
0 Add a 4 corners polygon primitive as box body*
4,1,4,$2,$3,$4,$5,$6,$7,$8,$9,$2,$3,0*
0 Add four circle primitives for the rounded corners*
1,1,$1+$1,$2,$3*
1,1,$1+$1,$4,$5*
1,1,$1+$1,$6,$7*
1,1,$1+$1,$8,$9*
0 Add four rect primitives between the rounded corners*
20,1,$1+$1,$2,$3,$4,$5,0*
20,1,$1+$1,$4,$5,$6,$7,0*
20,1,$1+$1,$6,$7,$8,$9,0*
20,1,$1+$1,$8,$9,$2,$3,0*%
G04 Aperture macros list end*
%ADD10R,1.500000X2.000000*%
%ADD11R,3.800000X2.000000*%
%ADD12RoundRect,0.250000X0.350000X0.450000X-0.350000X0.450000X-0.350000X-0.450000X0.350000X-0.450000X0*%
%ADD13RoundRect,0.250000X-0.350000X-0.450000X0.350000X-0.450000X0.350000X0.450000X-0.350000X0.450000X0*%
%ADD14RoundRect,0.150000X0.512500X0.150000X-0.512500X0.150000X-0.512500X-0.150000X0.512500X-0.150000X0*%
%ADD15R,1.600000X1.400000*%
%ADD16RoundRect,0.250000X-0.275000X0.400000X-0.275000X-0.400000X0.275000X-0.400000X0.275000X0.400000X0*%
%ADD17RoundRect,0.250000X0.475000X-0.337500X0.475000X0.337500X-0.475000X0.337500X-0.475000X-0.337500X0*%
%ADD18RoundRect,0.250000X0.325000X0.450000X-0.325000X0.450000X-0.325000X-0.450000X0.325000X-0.450000X0*%
%ADD19RoundRect,0.250000X0.750000X-0.250000X0.750000X0.250000X-0.750000X0.250000X-0.750000X-0.250000X0*%
%ADD20RoundRect,0.250000X-0.400000X-0.275000X0.400000X-0.275000X0.400000X0.275000X-0.400000X0.275000X0*%
%ADD21RoundRect,0.250000X0.250000X0.750000X-0.250000X0.750000X-0.250000X-0.750000X0.250000X-0.750000X0*%
G04 APERTURE END LIST*
D10*
%TO.C,U4*%
X59630000Y-52050000D03*
X57330000Y-52050000D03*
D11*
X57330000Y-45750000D03*
D10*
X55030000Y-52050000D03*
%TD*%
D12*
%TO.C,R1*%
X39890000Y-52760000D03*
X37890000Y-52760000D03*
%TD*%
D13*
%TO.C,R3*%
X44790000Y-44730000D03*
X46790000Y-44730000D03*
%TD*%
D14*
%TO.C,U2*%
X45505000Y-52720000D03*
X45505000Y-53670000D03*
X45505000Y-54620000D03*
X43230000Y-54620000D03*
X43230000Y-52720000D03*
%TD*%
D15*
%TO.C,BOOT/FLASH1*%
X61907500Y-34360000D03*
X53907500Y-34360000D03*
X61907500Y-38860000D03*
X53907500Y-38860000D03*
%TD*%
D16*
%TO.C,C11*%
X49470000Y-55165000D03*
X49470000Y-57115000D03*
%TD*%
D17*
%TO.C,C1*%
X51760000Y-60097500D03*
X51760000Y-58022500D03*
%TD*%
%TO.C,C10*%
X39380000Y-37637500D03*
X39380000Y-35562500D03*
%TD*%
%TO.C,C3*%
X52390000Y-50077500D03*
X52390000Y-48002500D03*
%TD*%
D18*
%TO.C,GREEN1*%
X42130000Y-44760000D03*
X40080000Y-44760000D03*
%TD*%
D15*
%TO.C,RST1*%
X37060000Y-34300000D03*
X29060000Y-34300000D03*
X37060000Y-38800000D03*
X29060000Y-38800000D03*
%TD*%
D19*
%TO.C,J8*%
X33310000Y-49370000D03*
X33310000Y-48110000D03*
X33310000Y-46835000D03*
X33310000Y-45560000D03*
X33310000Y-44300000D03*
X33310000Y-43025000D03*
%TD*%
D17*
%TO.C,C4*%
X48880000Y-50077500D03*
X48880000Y-48002500D03*
%TD*%
D13*
%TO.C,R2*%
X44720000Y-48210000D03*
X46720000Y-48210000D03*
%TD*%
D18*
%TO.C,RED1*%
X42095000Y-48240000D03*
X40045000Y-48240000D03*
%TD*%
D17*
%TO.C,C2*%
X54420000Y-58467500D03*
X54420000Y-56392500D03*
%TD*%
%TO.C,C9*%
X51630000Y-37747500D03*
X51630000Y-35672500D03*
%TD*%
D20*
%TO.C,C12*%
X37190000Y-58900000D03*
X39140000Y-58900000D03*
%TD*%
D21*
%TO.C,J1*%
X48370000Y-60650000D03*
X47110000Y-60650000D03*
%TD*%
%TO.C,J2*%
X43200000Y-60690000D03*
X41940000Y-60690000D03*
%TD*%
M02*
