%TF.GenerationSoftware,KiCad,Pcbnew,7.0.5*%
%TF.CreationDate,2025-08-15T19:59:58+01:00*%
%TF.ProjectId,smartwatch,736d6172-7477-4617-9463-682e6b696361,rev?*%
%TF.SameCoordinates,Original*%
%TF.FileFunction,Drillmap*%
%TF.FilePolarity,Positive*%
%FSLAX45Y45*%
G04 Gerber Fmt 4.5, Leading zero omitted, Abs format (unit mm)*
G04 Created by KiCad (PCBNEW 7.0.5) date 2025-08-15 19:59:58*
%MOMM*%
%LPD*%
G01*
G04 APERTURE LIST*
%ADD10C,0.100000*%
%ADD11C,0.200000*%
%ADD12C,0.075000*%
G04 APERTURE END LIST*
D10*
X2793522Y-3286922D02*
G75*
G03*
X6310000Y-3285000I1758764J-960078D01*
G01*
X2793522Y-3286922D02*
X6310000Y-3285000D01*
D11*
D12*
X6135000Y-4222500D02*
X6210000Y-4297500D01*
X6210000Y-4222500D02*
X6135000Y-4297500D01*
X6410000Y-4222500D02*
X6485000Y-4297500D01*
X6485000Y-4222500D02*
X6410000Y-4297500D01*
D11*
X2804316Y-6567231D02*
X2804316Y-6367231D01*
X2804316Y-6367231D02*
X2851935Y-6367231D01*
X2851935Y-6367231D02*
X2880507Y-6376754D01*
X2880507Y-6376754D02*
X2899554Y-6395802D01*
X2899554Y-6395802D02*
X2909078Y-6414850D01*
X2909078Y-6414850D02*
X2918602Y-6452945D01*
X2918602Y-6452945D02*
X2918602Y-6481516D01*
X2918602Y-6481516D02*
X2909078Y-6519612D01*
X2909078Y-6519612D02*
X2899554Y-6538659D01*
X2899554Y-6538659D02*
X2880507Y-6557707D01*
X2880507Y-6557707D02*
X2851935Y-6567231D01*
X2851935Y-6567231D02*
X2804316Y-6567231D01*
X3004316Y-6567231D02*
X3004316Y-6433897D01*
X3004316Y-6471993D02*
X3013840Y-6452945D01*
X3013840Y-6452945D02*
X3023364Y-6443421D01*
X3023364Y-6443421D02*
X3042411Y-6433897D01*
X3042411Y-6433897D02*
X3061459Y-6433897D01*
X3128126Y-6567231D02*
X3128126Y-6433897D01*
X3128126Y-6367231D02*
X3118602Y-6376754D01*
X3118602Y-6376754D02*
X3128126Y-6386278D01*
X3128126Y-6386278D02*
X3137649Y-6376754D01*
X3137649Y-6376754D02*
X3128126Y-6367231D01*
X3128126Y-6367231D02*
X3128126Y-6386278D01*
X3251935Y-6567231D02*
X3232887Y-6557707D01*
X3232887Y-6557707D02*
X3223364Y-6538659D01*
X3223364Y-6538659D02*
X3223364Y-6367231D01*
X3356697Y-6567231D02*
X3337649Y-6557707D01*
X3337649Y-6557707D02*
X3328126Y-6538659D01*
X3328126Y-6538659D02*
X3328126Y-6367231D01*
X3585268Y-6567231D02*
X3585268Y-6367231D01*
X3585268Y-6367231D02*
X3651935Y-6510088D01*
X3651935Y-6510088D02*
X3718602Y-6367231D01*
X3718602Y-6367231D02*
X3718602Y-6567231D01*
X3899554Y-6567231D02*
X3899554Y-6462469D01*
X3899554Y-6462469D02*
X3890030Y-6443421D01*
X3890030Y-6443421D02*
X3870983Y-6433897D01*
X3870983Y-6433897D02*
X3832887Y-6433897D01*
X3832887Y-6433897D02*
X3813840Y-6443421D01*
X3899554Y-6557707D02*
X3880507Y-6567231D01*
X3880507Y-6567231D02*
X3832887Y-6567231D01*
X3832887Y-6567231D02*
X3813840Y-6557707D01*
X3813840Y-6557707D02*
X3804316Y-6538659D01*
X3804316Y-6538659D02*
X3804316Y-6519612D01*
X3804316Y-6519612D02*
X3813840Y-6500564D01*
X3813840Y-6500564D02*
X3832887Y-6491040D01*
X3832887Y-6491040D02*
X3880507Y-6491040D01*
X3880507Y-6491040D02*
X3899554Y-6481516D01*
X3994792Y-6433897D02*
X3994792Y-6633897D01*
X3994792Y-6443421D02*
X4013840Y-6433897D01*
X4013840Y-6433897D02*
X4051935Y-6433897D01*
X4051935Y-6433897D02*
X4070983Y-6443421D01*
X4070983Y-6443421D02*
X4080507Y-6452945D01*
X4080507Y-6452945D02*
X4090030Y-6471993D01*
X4090030Y-6471993D02*
X4090030Y-6529135D01*
X4090030Y-6529135D02*
X4080507Y-6548183D01*
X4080507Y-6548183D02*
X4070983Y-6557707D01*
X4070983Y-6557707D02*
X4051935Y-6567231D01*
X4051935Y-6567231D02*
X4013840Y-6567231D01*
X4013840Y-6567231D02*
X3994792Y-6557707D01*
X4175745Y-6548183D02*
X4185268Y-6557707D01*
X4185268Y-6557707D02*
X4175745Y-6567231D01*
X4175745Y-6567231D02*
X4166221Y-6557707D01*
X4166221Y-6557707D02*
X4175745Y-6548183D01*
X4175745Y-6548183D02*
X4175745Y-6567231D01*
X4175745Y-6443421D02*
X4185268Y-6452945D01*
X4185268Y-6452945D02*
X4175745Y-6462469D01*
X4175745Y-6462469D02*
X4166221Y-6452945D01*
X4166221Y-6452945D02*
X4175745Y-6443421D01*
X4175745Y-6443421D02*
X4175745Y-6462469D01*
D12*
X2468539Y-6858247D02*
X2543539Y-6933247D01*
X2543539Y-6858247D02*
X2468539Y-6933247D01*
D11*
X2842411Y-6787231D02*
X2861459Y-6787231D01*
X2861459Y-6787231D02*
X2880507Y-6796754D01*
X2880507Y-6796754D02*
X2890030Y-6806278D01*
X2890030Y-6806278D02*
X2899554Y-6825326D01*
X2899554Y-6825326D02*
X2909078Y-6863421D01*
X2909078Y-6863421D02*
X2909078Y-6911040D01*
X2909078Y-6911040D02*
X2899554Y-6949135D01*
X2899554Y-6949135D02*
X2890030Y-6968183D01*
X2890030Y-6968183D02*
X2880507Y-6977707D01*
X2880507Y-6977707D02*
X2861459Y-6987231D01*
X2861459Y-6987231D02*
X2842411Y-6987231D01*
X2842411Y-6987231D02*
X2823364Y-6977707D01*
X2823364Y-6977707D02*
X2813840Y-6968183D01*
X2813840Y-6968183D02*
X2804316Y-6949135D01*
X2804316Y-6949135D02*
X2794792Y-6911040D01*
X2794792Y-6911040D02*
X2794792Y-6863421D01*
X2794792Y-6863421D02*
X2804316Y-6825326D01*
X2804316Y-6825326D02*
X2813840Y-6806278D01*
X2813840Y-6806278D02*
X2823364Y-6796754D01*
X2823364Y-6796754D02*
X2842411Y-6787231D01*
X2994792Y-6968183D02*
X3004316Y-6977707D01*
X3004316Y-6977707D02*
X2994792Y-6987231D01*
X2994792Y-6987231D02*
X2985268Y-6977707D01*
X2985268Y-6977707D02*
X2994792Y-6968183D01*
X2994792Y-6968183D02*
X2994792Y-6987231D01*
X3070983Y-6787231D02*
X3204316Y-6787231D01*
X3204316Y-6787231D02*
X3118602Y-6987231D01*
X3375745Y-6787231D02*
X3280507Y-6787231D01*
X3280507Y-6787231D02*
X3270983Y-6882469D01*
X3270983Y-6882469D02*
X3280507Y-6872945D01*
X3280507Y-6872945D02*
X3299554Y-6863421D01*
X3299554Y-6863421D02*
X3347173Y-6863421D01*
X3347173Y-6863421D02*
X3366221Y-6872945D01*
X3366221Y-6872945D02*
X3375745Y-6882469D01*
X3375745Y-6882469D02*
X3385268Y-6901516D01*
X3385268Y-6901516D02*
X3385268Y-6949135D01*
X3385268Y-6949135D02*
X3375745Y-6968183D01*
X3375745Y-6968183D02*
X3366221Y-6977707D01*
X3366221Y-6977707D02*
X3347173Y-6987231D01*
X3347173Y-6987231D02*
X3299554Y-6987231D01*
X3299554Y-6987231D02*
X3280507Y-6977707D01*
X3280507Y-6977707D02*
X3270983Y-6968183D01*
X3509078Y-6787231D02*
X3528126Y-6787231D01*
X3528126Y-6787231D02*
X3547173Y-6796754D01*
X3547173Y-6796754D02*
X3556697Y-6806278D01*
X3556697Y-6806278D02*
X3566221Y-6825326D01*
X3566221Y-6825326D02*
X3575745Y-6863421D01*
X3575745Y-6863421D02*
X3575745Y-6911040D01*
X3575745Y-6911040D02*
X3566221Y-6949135D01*
X3566221Y-6949135D02*
X3556697Y-6968183D01*
X3556697Y-6968183D02*
X3547173Y-6977707D01*
X3547173Y-6977707D02*
X3528126Y-6987231D01*
X3528126Y-6987231D02*
X3509078Y-6987231D01*
X3509078Y-6987231D02*
X3490030Y-6977707D01*
X3490030Y-6977707D02*
X3480507Y-6968183D01*
X3480507Y-6968183D02*
X3470983Y-6949135D01*
X3470983Y-6949135D02*
X3461459Y-6911040D01*
X3461459Y-6911040D02*
X3461459Y-6863421D01*
X3461459Y-6863421D02*
X3470983Y-6825326D01*
X3470983Y-6825326D02*
X3480507Y-6806278D01*
X3480507Y-6806278D02*
X3490030Y-6796754D01*
X3490030Y-6796754D02*
X3509078Y-6787231D01*
X3661459Y-6987231D02*
X3661459Y-6853897D01*
X3661459Y-6872945D02*
X3670983Y-6863421D01*
X3670983Y-6863421D02*
X3690030Y-6853897D01*
X3690030Y-6853897D02*
X3718602Y-6853897D01*
X3718602Y-6853897D02*
X3737649Y-6863421D01*
X3737649Y-6863421D02*
X3747173Y-6882469D01*
X3747173Y-6882469D02*
X3747173Y-6987231D01*
X3747173Y-6882469D02*
X3756697Y-6863421D01*
X3756697Y-6863421D02*
X3775745Y-6853897D01*
X3775745Y-6853897D02*
X3804316Y-6853897D01*
X3804316Y-6853897D02*
X3823364Y-6863421D01*
X3823364Y-6863421D02*
X3832888Y-6882469D01*
X3832888Y-6882469D02*
X3832888Y-6987231D01*
X3928126Y-6987231D02*
X3928126Y-6853897D01*
X3928126Y-6872945D02*
X3937649Y-6863421D01*
X3937649Y-6863421D02*
X3956697Y-6853897D01*
X3956697Y-6853897D02*
X3985269Y-6853897D01*
X3985269Y-6853897D02*
X4004316Y-6863421D01*
X4004316Y-6863421D02*
X4013840Y-6882469D01*
X4013840Y-6882469D02*
X4013840Y-6987231D01*
X4013840Y-6882469D02*
X4023364Y-6863421D01*
X4023364Y-6863421D02*
X4042411Y-6853897D01*
X4042411Y-6853897D02*
X4070983Y-6853897D01*
X4070983Y-6853897D02*
X4090030Y-6863421D01*
X4090030Y-6863421D02*
X4099554Y-6882469D01*
X4099554Y-6882469D02*
X4099554Y-6987231D01*
X4490031Y-6777707D02*
X4318602Y-7034850D01*
X4747173Y-6787231D02*
X4766221Y-6787231D01*
X4766221Y-6787231D02*
X4785269Y-6796754D01*
X4785269Y-6796754D02*
X4794793Y-6806278D01*
X4794793Y-6806278D02*
X4804316Y-6825326D01*
X4804316Y-6825326D02*
X4813840Y-6863421D01*
X4813840Y-6863421D02*
X4813840Y-6911040D01*
X4813840Y-6911040D02*
X4804316Y-6949135D01*
X4804316Y-6949135D02*
X4794793Y-6968183D01*
X4794793Y-6968183D02*
X4785269Y-6977707D01*
X4785269Y-6977707D02*
X4766221Y-6987231D01*
X4766221Y-6987231D02*
X4747173Y-6987231D01*
X4747173Y-6987231D02*
X4728126Y-6977707D01*
X4728126Y-6977707D02*
X4718602Y-6968183D01*
X4718602Y-6968183D02*
X4709078Y-6949135D01*
X4709078Y-6949135D02*
X4699554Y-6911040D01*
X4699554Y-6911040D02*
X4699554Y-6863421D01*
X4699554Y-6863421D02*
X4709078Y-6825326D01*
X4709078Y-6825326D02*
X4718602Y-6806278D01*
X4718602Y-6806278D02*
X4728126Y-6796754D01*
X4728126Y-6796754D02*
X4747173Y-6787231D01*
X4899554Y-6968183D02*
X4909078Y-6977707D01*
X4909078Y-6977707D02*
X4899554Y-6987231D01*
X4899554Y-6987231D02*
X4890031Y-6977707D01*
X4890031Y-6977707D02*
X4899554Y-6968183D01*
X4899554Y-6968183D02*
X4899554Y-6987231D01*
X5032888Y-6787231D02*
X5051935Y-6787231D01*
X5051935Y-6787231D02*
X5070983Y-6796754D01*
X5070983Y-6796754D02*
X5080507Y-6806278D01*
X5080507Y-6806278D02*
X5090031Y-6825326D01*
X5090031Y-6825326D02*
X5099554Y-6863421D01*
X5099554Y-6863421D02*
X5099554Y-6911040D01*
X5099554Y-6911040D02*
X5090031Y-6949135D01*
X5090031Y-6949135D02*
X5080507Y-6968183D01*
X5080507Y-6968183D02*
X5070983Y-6977707D01*
X5070983Y-6977707D02*
X5051935Y-6987231D01*
X5051935Y-6987231D02*
X5032888Y-6987231D01*
X5032888Y-6987231D02*
X5013840Y-6977707D01*
X5013840Y-6977707D02*
X5004316Y-6968183D01*
X5004316Y-6968183D02*
X4994793Y-6949135D01*
X4994793Y-6949135D02*
X4985269Y-6911040D01*
X4985269Y-6911040D02*
X4985269Y-6863421D01*
X4985269Y-6863421D02*
X4994793Y-6825326D01*
X4994793Y-6825326D02*
X5004316Y-6806278D01*
X5004316Y-6806278D02*
X5013840Y-6796754D01*
X5013840Y-6796754D02*
X5032888Y-6787231D01*
X5175745Y-6806278D02*
X5185269Y-6796754D01*
X5185269Y-6796754D02*
X5204316Y-6787231D01*
X5204316Y-6787231D02*
X5251935Y-6787231D01*
X5251935Y-6787231D02*
X5270983Y-6796754D01*
X5270983Y-6796754D02*
X5280507Y-6806278D01*
X5280507Y-6806278D02*
X5290031Y-6825326D01*
X5290031Y-6825326D02*
X5290031Y-6844373D01*
X5290031Y-6844373D02*
X5280507Y-6872945D01*
X5280507Y-6872945D02*
X5166221Y-6987231D01*
X5166221Y-6987231D02*
X5290031Y-6987231D01*
X5385269Y-6987231D02*
X5423364Y-6987231D01*
X5423364Y-6987231D02*
X5442412Y-6977707D01*
X5442412Y-6977707D02*
X5451935Y-6968183D01*
X5451935Y-6968183D02*
X5470983Y-6939612D01*
X5470983Y-6939612D02*
X5480507Y-6901516D01*
X5480507Y-6901516D02*
X5480507Y-6825326D01*
X5480507Y-6825326D02*
X5470983Y-6806278D01*
X5470983Y-6806278D02*
X5461459Y-6796754D01*
X5461459Y-6796754D02*
X5442412Y-6787231D01*
X5442412Y-6787231D02*
X5404316Y-6787231D01*
X5404316Y-6787231D02*
X5385269Y-6796754D01*
X5385269Y-6796754D02*
X5375745Y-6806278D01*
X5375745Y-6806278D02*
X5366221Y-6825326D01*
X5366221Y-6825326D02*
X5366221Y-6872945D01*
X5366221Y-6872945D02*
X5375745Y-6891993D01*
X5375745Y-6891993D02*
X5385269Y-6901516D01*
X5385269Y-6901516D02*
X5404316Y-6911040D01*
X5404316Y-6911040D02*
X5442412Y-6911040D01*
X5442412Y-6911040D02*
X5461459Y-6901516D01*
X5461459Y-6901516D02*
X5470983Y-6891993D01*
X5470983Y-6891993D02*
X5480507Y-6872945D01*
X5661459Y-6787231D02*
X5566221Y-6787231D01*
X5566221Y-6787231D02*
X5556697Y-6882469D01*
X5556697Y-6882469D02*
X5566221Y-6872945D01*
X5566221Y-6872945D02*
X5585269Y-6863421D01*
X5585269Y-6863421D02*
X5632888Y-6863421D01*
X5632888Y-6863421D02*
X5651935Y-6872945D01*
X5651935Y-6872945D02*
X5661459Y-6882469D01*
X5661459Y-6882469D02*
X5670983Y-6901516D01*
X5670983Y-6901516D02*
X5670983Y-6949135D01*
X5670983Y-6949135D02*
X5661459Y-6968183D01*
X5661459Y-6968183D02*
X5651935Y-6977707D01*
X5651935Y-6977707D02*
X5632888Y-6987231D01*
X5632888Y-6987231D02*
X5585269Y-6987231D01*
X5585269Y-6987231D02*
X5566221Y-6977707D01*
X5566221Y-6977707D02*
X5556697Y-6968183D01*
X5747173Y-6787231D02*
X5747173Y-6825326D01*
X5823364Y-6787231D02*
X5823364Y-6825326D01*
X6118602Y-7063421D02*
X6109078Y-7053897D01*
X6109078Y-7053897D02*
X6090031Y-7025326D01*
X6090031Y-7025326D02*
X6080507Y-7006278D01*
X6080507Y-7006278D02*
X6070983Y-6977707D01*
X6070983Y-6977707D02*
X6061459Y-6930088D01*
X6061459Y-6930088D02*
X6061459Y-6891993D01*
X6061459Y-6891993D02*
X6070983Y-6844373D01*
X6070983Y-6844373D02*
X6080507Y-6815802D01*
X6080507Y-6815802D02*
X6090031Y-6796754D01*
X6090031Y-6796754D02*
X6109078Y-6768183D01*
X6109078Y-6768183D02*
X6118602Y-6758659D01*
X6185269Y-6806278D02*
X6194793Y-6796754D01*
X6194793Y-6796754D02*
X6213840Y-6787231D01*
X6213840Y-6787231D02*
X6261459Y-6787231D01*
X6261459Y-6787231D02*
X6280507Y-6796754D01*
X6280507Y-6796754D02*
X6290031Y-6806278D01*
X6290031Y-6806278D02*
X6299554Y-6825326D01*
X6299554Y-6825326D02*
X6299554Y-6844373D01*
X6299554Y-6844373D02*
X6290031Y-6872945D01*
X6290031Y-6872945D02*
X6175745Y-6987231D01*
X6175745Y-6987231D02*
X6299554Y-6987231D01*
X6537650Y-6987231D02*
X6537650Y-6787231D01*
X6623364Y-6987231D02*
X6623364Y-6882469D01*
X6623364Y-6882469D02*
X6613840Y-6863421D01*
X6613840Y-6863421D02*
X6594793Y-6853897D01*
X6594793Y-6853897D02*
X6566221Y-6853897D01*
X6566221Y-6853897D02*
X6547174Y-6863421D01*
X6547174Y-6863421D02*
X6537650Y-6872945D01*
X6747174Y-6987231D02*
X6728126Y-6977707D01*
X6728126Y-6977707D02*
X6718602Y-6968183D01*
X6718602Y-6968183D02*
X6709078Y-6949135D01*
X6709078Y-6949135D02*
X6709078Y-6891993D01*
X6709078Y-6891993D02*
X6718602Y-6872945D01*
X6718602Y-6872945D02*
X6728126Y-6863421D01*
X6728126Y-6863421D02*
X6747174Y-6853897D01*
X6747174Y-6853897D02*
X6775745Y-6853897D01*
X6775745Y-6853897D02*
X6794793Y-6863421D01*
X6794793Y-6863421D02*
X6804316Y-6872945D01*
X6804316Y-6872945D02*
X6813840Y-6891993D01*
X6813840Y-6891993D02*
X6813840Y-6949135D01*
X6813840Y-6949135D02*
X6804316Y-6968183D01*
X6804316Y-6968183D02*
X6794793Y-6977707D01*
X6794793Y-6977707D02*
X6775745Y-6987231D01*
X6775745Y-6987231D02*
X6747174Y-6987231D01*
X6928126Y-6987231D02*
X6909078Y-6977707D01*
X6909078Y-6977707D02*
X6899555Y-6958659D01*
X6899555Y-6958659D02*
X6899555Y-6787231D01*
X7080507Y-6977707D02*
X7061459Y-6987231D01*
X7061459Y-6987231D02*
X7023364Y-6987231D01*
X7023364Y-6987231D02*
X7004316Y-6977707D01*
X7004316Y-6977707D02*
X6994793Y-6958659D01*
X6994793Y-6958659D02*
X6994793Y-6882469D01*
X6994793Y-6882469D02*
X7004316Y-6863421D01*
X7004316Y-6863421D02*
X7023364Y-6853897D01*
X7023364Y-6853897D02*
X7061459Y-6853897D01*
X7061459Y-6853897D02*
X7080507Y-6863421D01*
X7080507Y-6863421D02*
X7090031Y-6882469D01*
X7090031Y-6882469D02*
X7090031Y-6901516D01*
X7090031Y-6901516D02*
X6994793Y-6920564D01*
X7166221Y-6977707D02*
X7185269Y-6987231D01*
X7185269Y-6987231D02*
X7223364Y-6987231D01*
X7223364Y-6987231D02*
X7242412Y-6977707D01*
X7242412Y-6977707D02*
X7251936Y-6958659D01*
X7251936Y-6958659D02*
X7251936Y-6949135D01*
X7251936Y-6949135D02*
X7242412Y-6930088D01*
X7242412Y-6930088D02*
X7223364Y-6920564D01*
X7223364Y-6920564D02*
X7194793Y-6920564D01*
X7194793Y-6920564D02*
X7175745Y-6911040D01*
X7175745Y-6911040D02*
X7166221Y-6891993D01*
X7166221Y-6891993D02*
X7166221Y-6882469D01*
X7166221Y-6882469D02*
X7175745Y-6863421D01*
X7175745Y-6863421D02*
X7194793Y-6853897D01*
X7194793Y-6853897D02*
X7223364Y-6853897D01*
X7223364Y-6853897D02*
X7242412Y-6863421D01*
X7318602Y-7063421D02*
X7328126Y-7053897D01*
X7328126Y-7053897D02*
X7347174Y-7025326D01*
X7347174Y-7025326D02*
X7356697Y-7006278D01*
X7356697Y-7006278D02*
X7366221Y-6977707D01*
X7366221Y-6977707D02*
X7375745Y-6930088D01*
X7375745Y-6930088D02*
X7375745Y-6891993D01*
X7375745Y-6891993D02*
X7366221Y-6844373D01*
X7366221Y-6844373D02*
X7356697Y-6815802D01*
X7356697Y-6815802D02*
X7347174Y-6796754D01*
X7347174Y-6796754D02*
X7328126Y-6768183D01*
X7328126Y-6768183D02*
X7318602Y-6758659D01*
X7680507Y-7063421D02*
X7670983Y-7053897D01*
X7670983Y-7053897D02*
X7651936Y-7025326D01*
X7651936Y-7025326D02*
X7642412Y-7006278D01*
X7642412Y-7006278D02*
X7632888Y-6977707D01*
X7632888Y-6977707D02*
X7623364Y-6930088D01*
X7623364Y-6930088D02*
X7623364Y-6891993D01*
X7623364Y-6891993D02*
X7632888Y-6844373D01*
X7632888Y-6844373D02*
X7642412Y-6815802D01*
X7642412Y-6815802D02*
X7651936Y-6796754D01*
X7651936Y-6796754D02*
X7670983Y-6768183D01*
X7670983Y-6768183D02*
X7680507Y-6758659D01*
X7756697Y-6853897D02*
X7756697Y-6987231D01*
X7756697Y-6872945D02*
X7766221Y-6863421D01*
X7766221Y-6863421D02*
X7785269Y-6853897D01*
X7785269Y-6853897D02*
X7813840Y-6853897D01*
X7813840Y-6853897D02*
X7832888Y-6863421D01*
X7832888Y-6863421D02*
X7842412Y-6882469D01*
X7842412Y-6882469D02*
X7842412Y-6987231D01*
X7966221Y-6987231D02*
X7947174Y-6977707D01*
X7947174Y-6977707D02*
X7937650Y-6968183D01*
X7937650Y-6968183D02*
X7928126Y-6949135D01*
X7928126Y-6949135D02*
X7928126Y-6891993D01*
X7928126Y-6891993D02*
X7937650Y-6872945D01*
X7937650Y-6872945D02*
X7947174Y-6863421D01*
X7947174Y-6863421D02*
X7966221Y-6853897D01*
X7966221Y-6853897D02*
X7994793Y-6853897D01*
X7994793Y-6853897D02*
X8013840Y-6863421D01*
X8013840Y-6863421D02*
X8023364Y-6872945D01*
X8023364Y-6872945D02*
X8032888Y-6891993D01*
X8032888Y-6891993D02*
X8032888Y-6949135D01*
X8032888Y-6949135D02*
X8023364Y-6968183D01*
X8023364Y-6968183D02*
X8013840Y-6977707D01*
X8013840Y-6977707D02*
X7994793Y-6987231D01*
X7994793Y-6987231D02*
X7966221Y-6987231D01*
X8090031Y-6853897D02*
X8166221Y-6853897D01*
X8118602Y-6787231D02*
X8118602Y-6958659D01*
X8118602Y-6958659D02*
X8128126Y-6977707D01*
X8128126Y-6977707D02*
X8147174Y-6987231D01*
X8147174Y-6987231D02*
X8166221Y-6987231D01*
X8385269Y-6853897D02*
X8385269Y-7053897D01*
X8385269Y-6863421D02*
X8404317Y-6853897D01*
X8404317Y-6853897D02*
X8442412Y-6853897D01*
X8442412Y-6853897D02*
X8461460Y-6863421D01*
X8461460Y-6863421D02*
X8470983Y-6872945D01*
X8470983Y-6872945D02*
X8480507Y-6891993D01*
X8480507Y-6891993D02*
X8480507Y-6949135D01*
X8480507Y-6949135D02*
X8470983Y-6968183D01*
X8470983Y-6968183D02*
X8461460Y-6977707D01*
X8461460Y-6977707D02*
X8442412Y-6987231D01*
X8442412Y-6987231D02*
X8404317Y-6987231D01*
X8404317Y-6987231D02*
X8385269Y-6977707D01*
X8594793Y-6987231D02*
X8575745Y-6977707D01*
X8575745Y-6977707D02*
X8566221Y-6958659D01*
X8566221Y-6958659D02*
X8566221Y-6787231D01*
X8756698Y-6987231D02*
X8756698Y-6882469D01*
X8756698Y-6882469D02*
X8747174Y-6863421D01*
X8747174Y-6863421D02*
X8728126Y-6853897D01*
X8728126Y-6853897D02*
X8690031Y-6853897D01*
X8690031Y-6853897D02*
X8670983Y-6863421D01*
X8756698Y-6977707D02*
X8737650Y-6987231D01*
X8737650Y-6987231D02*
X8690031Y-6987231D01*
X8690031Y-6987231D02*
X8670983Y-6977707D01*
X8670983Y-6977707D02*
X8661460Y-6958659D01*
X8661460Y-6958659D02*
X8661460Y-6939612D01*
X8661460Y-6939612D02*
X8670983Y-6920564D01*
X8670983Y-6920564D02*
X8690031Y-6911040D01*
X8690031Y-6911040D02*
X8737650Y-6911040D01*
X8737650Y-6911040D02*
X8756698Y-6901516D01*
X8823364Y-6853897D02*
X8899555Y-6853897D01*
X8851936Y-6787231D02*
X8851936Y-6958659D01*
X8851936Y-6958659D02*
X8861460Y-6977707D01*
X8861460Y-6977707D02*
X8880507Y-6987231D01*
X8880507Y-6987231D02*
X8899555Y-6987231D01*
X9042412Y-6977707D02*
X9023364Y-6987231D01*
X9023364Y-6987231D02*
X8985269Y-6987231D01*
X8985269Y-6987231D02*
X8966221Y-6977707D01*
X8966221Y-6977707D02*
X8956698Y-6958659D01*
X8956698Y-6958659D02*
X8956698Y-6882469D01*
X8956698Y-6882469D02*
X8966221Y-6863421D01*
X8966221Y-6863421D02*
X8985269Y-6853897D01*
X8985269Y-6853897D02*
X9023364Y-6853897D01*
X9023364Y-6853897D02*
X9042412Y-6863421D01*
X9042412Y-6863421D02*
X9051936Y-6882469D01*
X9051936Y-6882469D02*
X9051936Y-6901516D01*
X9051936Y-6901516D02*
X8956698Y-6920564D01*
X9223364Y-6987231D02*
X9223364Y-6787231D01*
X9223364Y-6977707D02*
X9204317Y-6987231D01*
X9204317Y-6987231D02*
X9166221Y-6987231D01*
X9166221Y-6987231D02*
X9147174Y-6977707D01*
X9147174Y-6977707D02*
X9137650Y-6968183D01*
X9137650Y-6968183D02*
X9128126Y-6949135D01*
X9128126Y-6949135D02*
X9128126Y-6891993D01*
X9128126Y-6891993D02*
X9137650Y-6872945D01*
X9137650Y-6872945D02*
X9147174Y-6863421D01*
X9147174Y-6863421D02*
X9166221Y-6853897D01*
X9166221Y-6853897D02*
X9204317Y-6853897D01*
X9204317Y-6853897D02*
X9223364Y-6863421D01*
X9299555Y-7063421D02*
X9309079Y-7053897D01*
X9309079Y-7053897D02*
X9328126Y-7025326D01*
X9328126Y-7025326D02*
X9337650Y-7006278D01*
X9337650Y-7006278D02*
X9347174Y-6977707D01*
X9347174Y-6977707D02*
X9356698Y-6930088D01*
X9356698Y-6930088D02*
X9356698Y-6891993D01*
X9356698Y-6891993D02*
X9347174Y-6844373D01*
X9347174Y-6844373D02*
X9337650Y-6815802D01*
X9337650Y-6815802D02*
X9328126Y-6796754D01*
X9328126Y-6796754D02*
X9309079Y-6768183D01*
X9309079Y-6768183D02*
X9299555Y-6758659D01*
M02*
