M48
; DRILL file {KiCad 7.0.5} date Fri Aug 15 19:59:57 2025
; FORMAT={-:-/ absolute / inch / decimal}
; #@! TF.CreationDate,2025-08-15T19:59:57+01:00
; #@! TF.GenerationSoftware,Kicad,Pcbnew,7.0.5
; #@! TF.FileFunction,Plated,1,4,PTH
FMAT,2
INCH
; #@! TA.AperFunction,Plated,PTH,ViaDrill
T1C0.0157
%
G90
G05
T1
X1.0965Y-1.9035
X1.1811Y-1.4417
X1.2098Y-1.8228
X1.2106Y-1.9035
X1.27Y-2.13
X1.3445Y-1.5866
X1.4085Y-1.3899
X1.4114Y-2.0354
X1.4122Y-1.3374
X1.4122Y-1.4374
X1.4724Y-1.6693
X1.4882Y-2.0197
X1.5Y-1.7028
X1.502Y-1.6089
X1.5748Y-1.5374
X1.6969Y-1.9567
X1.6976Y-1.5892
X1.9233Y-1.8106
X1.9665Y-1.5098
X1.9744Y-1.9843
X1.9902Y-1.5472
X2.005Y-1.8106
X2.0227Y-1.3661
X2.0295Y-1.5487
X2.0487Y-1.3144
X2.1012Y-1.3374
X2.1012Y-1.5874
X2.1012Y-1.7374
X2.1012Y-1.9874
X2.1012Y-2.0874
X2.1594Y-2.0217
X2.1954Y-2.2087
X2.2224Y-1.9508
X2.2244Y-1.5059
X2.2244Y-1.8484
X2.2264Y-1.4547
X2.2283Y-1.9016
X2.2913Y-1.9587
X2.3091Y-2.0079
X2.3533Y-2.123
X2.3691Y-1.815
X2.4016Y-1.935
X2.5177Y-1.7874
T0
M30
