%TF.GenerationSoftware,KiCad,Pcbnew,7.0.5*%
%TF.CreationDate,2024-06-06T18:36:07+01:00*%
%TF.ProjectId,smartwatch,736d6172-7477-4617-9463-682e6b696361,rev?*%
%TF.SameCoordinates,Original*%
%TF.FileFunction,Legend,Top*%
%TF.FilePolarity,Positive*%
%FSLAX46Y46*%
G04 Gerber Fmt 4.6, Leading zero omitted, Abs format (unit mm)*
G04 Created by KiCad (PCBNEW 7.0.5) date 2024-06-06 18:36:07*
%MOMM*%
%LPD*%
G01*
G04 APERTURE LIST*
%ADD10C,0.150000*%
%ADD11C,0.100000*%
%ADD12C,0.254000*%
%ADD13C,0.120000*%
%ADD14C,0.200000*%
G04 APERTURE END LIST*
D10*
%TO.C,R4*%
X62263333Y-46914819D02*
X61930000Y-46438628D01*
X61691905Y-46914819D02*
X61691905Y-45914819D01*
X61691905Y-45914819D02*
X62072857Y-45914819D01*
X62072857Y-45914819D02*
X62168095Y-45962438D01*
X62168095Y-45962438D02*
X62215714Y-46010057D01*
X62215714Y-46010057D02*
X62263333Y-46105295D01*
X62263333Y-46105295D02*
X62263333Y-46248152D01*
X62263333Y-46248152D02*
X62215714Y-46343390D01*
X62215714Y-46343390D02*
X62168095Y-46391009D01*
X62168095Y-46391009D02*
X62072857Y-46438628D01*
X62072857Y-46438628D02*
X61691905Y-46438628D01*
X63120476Y-46248152D02*
X63120476Y-46914819D01*
X62882381Y-45867200D02*
X62644286Y-46581485D01*
X62644286Y-46581485D02*
X63263333Y-46581485D01*
D11*
%TO.C,J5*%
X57476666Y-33307419D02*
X57476666Y-34021704D01*
X57476666Y-34021704D02*
X57429047Y-34164561D01*
X57429047Y-34164561D02*
X57333809Y-34259800D01*
X57333809Y-34259800D02*
X57190952Y-34307419D01*
X57190952Y-34307419D02*
X57095714Y-34307419D01*
X58429047Y-33307419D02*
X57952857Y-33307419D01*
X57952857Y-33307419D02*
X57905238Y-33783609D01*
X57905238Y-33783609D02*
X57952857Y-33735990D01*
X57952857Y-33735990D02*
X58048095Y-33688371D01*
X58048095Y-33688371D02*
X58286190Y-33688371D01*
X58286190Y-33688371D02*
X58381428Y-33735990D01*
X58381428Y-33735990D02*
X58429047Y-33783609D01*
X58429047Y-33783609D02*
X58476666Y-33878847D01*
X58476666Y-33878847D02*
X58476666Y-34116942D01*
X58476666Y-34116942D02*
X58429047Y-34212180D01*
X58429047Y-34212180D02*
X58381428Y-34259800D01*
X58381428Y-34259800D02*
X58286190Y-34307419D01*
X58286190Y-34307419D02*
X58048095Y-34307419D01*
X58048095Y-34307419D02*
X57952857Y-34259800D01*
X57952857Y-34259800D02*
X57905238Y-34212180D01*
D10*
%TO.C,U3*%
X29318095Y-38499819D02*
X29318095Y-39309342D01*
X29318095Y-39309342D02*
X29365714Y-39404580D01*
X29365714Y-39404580D02*
X29413333Y-39452200D01*
X29413333Y-39452200D02*
X29508571Y-39499819D01*
X29508571Y-39499819D02*
X29699047Y-39499819D01*
X29699047Y-39499819D02*
X29794285Y-39452200D01*
X29794285Y-39452200D02*
X29841904Y-39404580D01*
X29841904Y-39404580D02*
X29889523Y-39309342D01*
X29889523Y-39309342D02*
X29889523Y-38499819D01*
X30270476Y-38499819D02*
X30889523Y-38499819D01*
X30889523Y-38499819D02*
X30556190Y-38880771D01*
X30556190Y-38880771D02*
X30699047Y-38880771D01*
X30699047Y-38880771D02*
X30794285Y-38928390D01*
X30794285Y-38928390D02*
X30841904Y-38976009D01*
X30841904Y-38976009D02*
X30889523Y-39071247D01*
X30889523Y-39071247D02*
X30889523Y-39309342D01*
X30889523Y-39309342D02*
X30841904Y-39404580D01*
X30841904Y-39404580D02*
X30794285Y-39452200D01*
X30794285Y-39452200D02*
X30699047Y-39499819D01*
X30699047Y-39499819D02*
X30413333Y-39499819D01*
X30413333Y-39499819D02*
X30318095Y-39452200D01*
X30318095Y-39452200D02*
X30270476Y-39404580D01*
D11*
%TO.C,J3*%
X62176666Y-34127419D02*
X62176666Y-34841704D01*
X62176666Y-34841704D02*
X62129047Y-34984561D01*
X62129047Y-34984561D02*
X62033809Y-35079800D01*
X62033809Y-35079800D02*
X61890952Y-35127419D01*
X61890952Y-35127419D02*
X61795714Y-35127419D01*
X62557619Y-34127419D02*
X63176666Y-34127419D01*
X63176666Y-34127419D02*
X62843333Y-34508371D01*
X62843333Y-34508371D02*
X62986190Y-34508371D01*
X62986190Y-34508371D02*
X63081428Y-34555990D01*
X63081428Y-34555990D02*
X63129047Y-34603609D01*
X63129047Y-34603609D02*
X63176666Y-34698847D01*
X63176666Y-34698847D02*
X63176666Y-34936942D01*
X63176666Y-34936942D02*
X63129047Y-35032180D01*
X63129047Y-35032180D02*
X63081428Y-35079800D01*
X63081428Y-35079800D02*
X62986190Y-35127419D01*
X62986190Y-35127419D02*
X62700476Y-35127419D01*
X62700476Y-35127419D02*
X62605238Y-35079800D01*
X62605238Y-35079800D02*
X62557619Y-35032180D01*
%TO.C,J6*%
X57406666Y-55487419D02*
X57406666Y-56201704D01*
X57406666Y-56201704D02*
X57359047Y-56344561D01*
X57359047Y-56344561D02*
X57263809Y-56439800D01*
X57263809Y-56439800D02*
X57120952Y-56487419D01*
X57120952Y-56487419D02*
X57025714Y-56487419D01*
X58311428Y-55487419D02*
X58120952Y-55487419D01*
X58120952Y-55487419D02*
X58025714Y-55535038D01*
X58025714Y-55535038D02*
X57978095Y-55582657D01*
X57978095Y-55582657D02*
X57882857Y-55725514D01*
X57882857Y-55725514D02*
X57835238Y-55915990D01*
X57835238Y-55915990D02*
X57835238Y-56296942D01*
X57835238Y-56296942D02*
X57882857Y-56392180D01*
X57882857Y-56392180D02*
X57930476Y-56439800D01*
X57930476Y-56439800D02*
X58025714Y-56487419D01*
X58025714Y-56487419D02*
X58216190Y-56487419D01*
X58216190Y-56487419D02*
X58311428Y-56439800D01*
X58311428Y-56439800D02*
X58359047Y-56392180D01*
X58359047Y-56392180D02*
X58406666Y-56296942D01*
X58406666Y-56296942D02*
X58406666Y-56058847D01*
X58406666Y-56058847D02*
X58359047Y-55963609D01*
X58359047Y-55963609D02*
X58311428Y-55915990D01*
X58311428Y-55915990D02*
X58216190Y-55868371D01*
X58216190Y-55868371D02*
X58025714Y-55868371D01*
X58025714Y-55868371D02*
X57930476Y-55915990D01*
X57930476Y-55915990D02*
X57882857Y-55963609D01*
X57882857Y-55963609D02*
X57835238Y-56058847D01*
D10*
%TO.C,R5*%
X62624819Y-51416666D02*
X62148628Y-51749999D01*
X62624819Y-51988094D02*
X61624819Y-51988094D01*
X61624819Y-51988094D02*
X61624819Y-51607142D01*
X61624819Y-51607142D02*
X61672438Y-51511904D01*
X61672438Y-51511904D02*
X61720057Y-51464285D01*
X61720057Y-51464285D02*
X61815295Y-51416666D01*
X61815295Y-51416666D02*
X61958152Y-51416666D01*
X61958152Y-51416666D02*
X62053390Y-51464285D01*
X62053390Y-51464285D02*
X62101009Y-51511904D01*
X62101009Y-51511904D02*
X62148628Y-51607142D01*
X62148628Y-51607142D02*
X62148628Y-51988094D01*
X61624819Y-50511904D02*
X61624819Y-50988094D01*
X61624819Y-50988094D02*
X62101009Y-51035713D01*
X62101009Y-51035713D02*
X62053390Y-50988094D01*
X62053390Y-50988094D02*
X62005771Y-50892856D01*
X62005771Y-50892856D02*
X62005771Y-50654761D01*
X62005771Y-50654761D02*
X62053390Y-50559523D01*
X62053390Y-50559523D02*
X62101009Y-50511904D01*
X62101009Y-50511904D02*
X62196247Y-50464285D01*
X62196247Y-50464285D02*
X62434342Y-50464285D01*
X62434342Y-50464285D02*
X62529580Y-50511904D01*
X62529580Y-50511904D02*
X62577200Y-50559523D01*
X62577200Y-50559523D02*
X62624819Y-50654761D01*
X62624819Y-50654761D02*
X62624819Y-50892856D01*
X62624819Y-50892856D02*
X62577200Y-50988094D01*
X62577200Y-50988094D02*
X62529580Y-51035713D01*
%TO.C,C6*%
X27823333Y-35492080D02*
X27775714Y-35539700D01*
X27775714Y-35539700D02*
X27632857Y-35587319D01*
X27632857Y-35587319D02*
X27537619Y-35587319D01*
X27537619Y-35587319D02*
X27394762Y-35539700D01*
X27394762Y-35539700D02*
X27299524Y-35444461D01*
X27299524Y-35444461D02*
X27251905Y-35349223D01*
X27251905Y-35349223D02*
X27204286Y-35158747D01*
X27204286Y-35158747D02*
X27204286Y-35015890D01*
X27204286Y-35015890D02*
X27251905Y-34825414D01*
X27251905Y-34825414D02*
X27299524Y-34730176D01*
X27299524Y-34730176D02*
X27394762Y-34634938D01*
X27394762Y-34634938D02*
X27537619Y-34587319D01*
X27537619Y-34587319D02*
X27632857Y-34587319D01*
X27632857Y-34587319D02*
X27775714Y-34634938D01*
X27775714Y-34634938D02*
X27823333Y-34682557D01*
X28680476Y-34587319D02*
X28490000Y-34587319D01*
X28490000Y-34587319D02*
X28394762Y-34634938D01*
X28394762Y-34634938D02*
X28347143Y-34682557D01*
X28347143Y-34682557D02*
X28251905Y-34825414D01*
X28251905Y-34825414D02*
X28204286Y-35015890D01*
X28204286Y-35015890D02*
X28204286Y-35396842D01*
X28204286Y-35396842D02*
X28251905Y-35492080D01*
X28251905Y-35492080D02*
X28299524Y-35539700D01*
X28299524Y-35539700D02*
X28394762Y-35587319D01*
X28394762Y-35587319D02*
X28585238Y-35587319D01*
X28585238Y-35587319D02*
X28680476Y-35539700D01*
X28680476Y-35539700D02*
X28728095Y-35492080D01*
X28728095Y-35492080D02*
X28775714Y-35396842D01*
X28775714Y-35396842D02*
X28775714Y-35158747D01*
X28775714Y-35158747D02*
X28728095Y-35063509D01*
X28728095Y-35063509D02*
X28680476Y-35015890D01*
X28680476Y-35015890D02*
X28585238Y-34968271D01*
X28585238Y-34968271D02*
X28394762Y-34968271D01*
X28394762Y-34968271D02*
X28299524Y-35015890D01*
X28299524Y-35015890D02*
X28251905Y-35063509D01*
X28251905Y-35063509D02*
X28204286Y-35158747D01*
%TO.C,C7*%
X30893333Y-50362080D02*
X30845714Y-50409700D01*
X30845714Y-50409700D02*
X30702857Y-50457319D01*
X30702857Y-50457319D02*
X30607619Y-50457319D01*
X30607619Y-50457319D02*
X30464762Y-50409700D01*
X30464762Y-50409700D02*
X30369524Y-50314461D01*
X30369524Y-50314461D02*
X30321905Y-50219223D01*
X30321905Y-50219223D02*
X30274286Y-50028747D01*
X30274286Y-50028747D02*
X30274286Y-49885890D01*
X30274286Y-49885890D02*
X30321905Y-49695414D01*
X30321905Y-49695414D02*
X30369524Y-49600176D01*
X30369524Y-49600176D02*
X30464762Y-49504938D01*
X30464762Y-49504938D02*
X30607619Y-49457319D01*
X30607619Y-49457319D02*
X30702857Y-49457319D01*
X30702857Y-49457319D02*
X30845714Y-49504938D01*
X30845714Y-49504938D02*
X30893333Y-49552557D01*
X31226667Y-49457319D02*
X31893333Y-49457319D01*
X31893333Y-49457319D02*
X31464762Y-50457319D01*
%TO.C,U1*%
X43718095Y-24534819D02*
X43718095Y-25344342D01*
X43718095Y-25344342D02*
X43765714Y-25439580D01*
X43765714Y-25439580D02*
X43813333Y-25487200D01*
X43813333Y-25487200D02*
X43908571Y-25534819D01*
X43908571Y-25534819D02*
X44099047Y-25534819D01*
X44099047Y-25534819D02*
X44194285Y-25487200D01*
X44194285Y-25487200D02*
X44241904Y-25439580D01*
X44241904Y-25439580D02*
X44289523Y-25344342D01*
X44289523Y-25344342D02*
X44289523Y-24534819D01*
X45289523Y-25534819D02*
X44718095Y-25534819D01*
X45003809Y-25534819D02*
X45003809Y-24534819D01*
X45003809Y-24534819D02*
X44908571Y-24677676D01*
X44908571Y-24677676D02*
X44813333Y-24772914D01*
X44813333Y-24772914D02*
X44718095Y-24820533D01*
X40358094Y-29599104D02*
X40834284Y-29599104D01*
X40262856Y-29884819D02*
X40596189Y-28884819D01*
X40596189Y-28884819D02*
X40929522Y-29884819D01*
X41262856Y-29218152D02*
X41262856Y-29884819D01*
X41262856Y-29313390D02*
X41310475Y-29265771D01*
X41310475Y-29265771D02*
X41405713Y-29218152D01*
X41405713Y-29218152D02*
X41548570Y-29218152D01*
X41548570Y-29218152D02*
X41643808Y-29265771D01*
X41643808Y-29265771D02*
X41691427Y-29361009D01*
X41691427Y-29361009D02*
X41691427Y-29884819D01*
X42024761Y-29218152D02*
X42405713Y-29218152D01*
X42167618Y-28884819D02*
X42167618Y-29741961D01*
X42167618Y-29741961D02*
X42215237Y-29837200D01*
X42215237Y-29837200D02*
X42310475Y-29884819D01*
X42310475Y-29884819D02*
X42405713Y-29884819D01*
X43119999Y-29837200D02*
X43024761Y-29884819D01*
X43024761Y-29884819D02*
X42834285Y-29884819D01*
X42834285Y-29884819D02*
X42739047Y-29837200D01*
X42739047Y-29837200D02*
X42691428Y-29741961D01*
X42691428Y-29741961D02*
X42691428Y-29361009D01*
X42691428Y-29361009D02*
X42739047Y-29265771D01*
X42739047Y-29265771D02*
X42834285Y-29218152D01*
X42834285Y-29218152D02*
X43024761Y-29218152D01*
X43024761Y-29218152D02*
X43119999Y-29265771D01*
X43119999Y-29265771D02*
X43167618Y-29361009D01*
X43167618Y-29361009D02*
X43167618Y-29456247D01*
X43167618Y-29456247D02*
X42691428Y-29551485D01*
X43596190Y-29218152D02*
X43596190Y-29884819D01*
X43596190Y-29313390D02*
X43643809Y-29265771D01*
X43643809Y-29265771D02*
X43739047Y-29218152D01*
X43739047Y-29218152D02*
X43881904Y-29218152D01*
X43881904Y-29218152D02*
X43977142Y-29265771D01*
X43977142Y-29265771D02*
X44024761Y-29361009D01*
X44024761Y-29361009D02*
X44024761Y-29884819D01*
X44500952Y-29218152D02*
X44500952Y-29884819D01*
X44500952Y-29313390D02*
X44548571Y-29265771D01*
X44548571Y-29265771D02*
X44643809Y-29218152D01*
X44643809Y-29218152D02*
X44786666Y-29218152D01*
X44786666Y-29218152D02*
X44881904Y-29265771D01*
X44881904Y-29265771D02*
X44929523Y-29361009D01*
X44929523Y-29361009D02*
X44929523Y-29884819D01*
X45834285Y-29884819D02*
X45834285Y-29361009D01*
X45834285Y-29361009D02*
X45786666Y-29265771D01*
X45786666Y-29265771D02*
X45691428Y-29218152D01*
X45691428Y-29218152D02*
X45500952Y-29218152D01*
X45500952Y-29218152D02*
X45405714Y-29265771D01*
X45834285Y-29837200D02*
X45739047Y-29884819D01*
X45739047Y-29884819D02*
X45500952Y-29884819D01*
X45500952Y-29884819D02*
X45405714Y-29837200D01*
X45405714Y-29837200D02*
X45358095Y-29741961D01*
X45358095Y-29741961D02*
X45358095Y-29646723D01*
X45358095Y-29646723D02*
X45405714Y-29551485D01*
X45405714Y-29551485D02*
X45500952Y-29503866D01*
X45500952Y-29503866D02*
X45739047Y-29503866D01*
X45739047Y-29503866D02*
X45834285Y-29456247D01*
X47024762Y-29599104D02*
X47500952Y-29599104D01*
X46929524Y-29884819D02*
X47262857Y-28884819D01*
X47262857Y-28884819D02*
X47596190Y-29884819D01*
X47929524Y-29884819D02*
X47929524Y-29218152D01*
X47929524Y-29408628D02*
X47977143Y-29313390D01*
X47977143Y-29313390D02*
X48024762Y-29265771D01*
X48024762Y-29265771D02*
X48120000Y-29218152D01*
X48120000Y-29218152D02*
X48215238Y-29218152D01*
X48929524Y-29837200D02*
X48834286Y-29884819D01*
X48834286Y-29884819D02*
X48643810Y-29884819D01*
X48643810Y-29884819D02*
X48548572Y-29837200D01*
X48548572Y-29837200D02*
X48500953Y-29741961D01*
X48500953Y-29741961D02*
X48500953Y-29361009D01*
X48500953Y-29361009D02*
X48548572Y-29265771D01*
X48548572Y-29265771D02*
X48643810Y-29218152D01*
X48643810Y-29218152D02*
X48834286Y-29218152D01*
X48834286Y-29218152D02*
X48929524Y-29265771D01*
X48929524Y-29265771D02*
X48977143Y-29361009D01*
X48977143Y-29361009D02*
X48977143Y-29456247D01*
X48977143Y-29456247D02*
X48500953Y-29551485D01*
X49834286Y-29884819D02*
X49834286Y-29361009D01*
X49834286Y-29361009D02*
X49786667Y-29265771D01*
X49786667Y-29265771D02*
X49691429Y-29218152D01*
X49691429Y-29218152D02*
X49500953Y-29218152D01*
X49500953Y-29218152D02*
X49405715Y-29265771D01*
X49834286Y-29837200D02*
X49739048Y-29884819D01*
X49739048Y-29884819D02*
X49500953Y-29884819D01*
X49500953Y-29884819D02*
X49405715Y-29837200D01*
X49405715Y-29837200D02*
X49358096Y-29741961D01*
X49358096Y-29741961D02*
X49358096Y-29646723D01*
X49358096Y-29646723D02*
X49405715Y-29551485D01*
X49405715Y-29551485D02*
X49500953Y-29503866D01*
X49500953Y-29503866D02*
X49739048Y-29503866D01*
X49739048Y-29503866D02*
X49834286Y-29456247D01*
%TO.C,C8*%
X28543333Y-50379580D02*
X28495714Y-50427200D01*
X28495714Y-50427200D02*
X28352857Y-50474819D01*
X28352857Y-50474819D02*
X28257619Y-50474819D01*
X28257619Y-50474819D02*
X28114762Y-50427200D01*
X28114762Y-50427200D02*
X28019524Y-50331961D01*
X28019524Y-50331961D02*
X27971905Y-50236723D01*
X27971905Y-50236723D02*
X27924286Y-50046247D01*
X27924286Y-50046247D02*
X27924286Y-49903390D01*
X27924286Y-49903390D02*
X27971905Y-49712914D01*
X27971905Y-49712914D02*
X28019524Y-49617676D01*
X28019524Y-49617676D02*
X28114762Y-49522438D01*
X28114762Y-49522438D02*
X28257619Y-49474819D01*
X28257619Y-49474819D02*
X28352857Y-49474819D01*
X28352857Y-49474819D02*
X28495714Y-49522438D01*
X28495714Y-49522438D02*
X28543333Y-49570057D01*
X29114762Y-49903390D02*
X29019524Y-49855771D01*
X29019524Y-49855771D02*
X28971905Y-49808152D01*
X28971905Y-49808152D02*
X28924286Y-49712914D01*
X28924286Y-49712914D02*
X28924286Y-49665295D01*
X28924286Y-49665295D02*
X28971905Y-49570057D01*
X28971905Y-49570057D02*
X29019524Y-49522438D01*
X29019524Y-49522438D02*
X29114762Y-49474819D01*
X29114762Y-49474819D02*
X29305238Y-49474819D01*
X29305238Y-49474819D02*
X29400476Y-49522438D01*
X29400476Y-49522438D02*
X29448095Y-49570057D01*
X29448095Y-49570057D02*
X29495714Y-49665295D01*
X29495714Y-49665295D02*
X29495714Y-49712914D01*
X29495714Y-49712914D02*
X29448095Y-49808152D01*
X29448095Y-49808152D02*
X29400476Y-49855771D01*
X29400476Y-49855771D02*
X29305238Y-49903390D01*
X29305238Y-49903390D02*
X29114762Y-49903390D01*
X29114762Y-49903390D02*
X29019524Y-49951009D01*
X29019524Y-49951009D02*
X28971905Y-49998628D01*
X28971905Y-49998628D02*
X28924286Y-50093866D01*
X28924286Y-50093866D02*
X28924286Y-50284342D01*
X28924286Y-50284342D02*
X28971905Y-50379580D01*
X28971905Y-50379580D02*
X29019524Y-50427200D01*
X29019524Y-50427200D02*
X29114762Y-50474819D01*
X29114762Y-50474819D02*
X29305238Y-50474819D01*
X29305238Y-50474819D02*
X29400476Y-50427200D01*
X29400476Y-50427200D02*
X29448095Y-50379580D01*
X29448095Y-50379580D02*
X29495714Y-50284342D01*
X29495714Y-50284342D02*
X29495714Y-50093866D01*
X29495714Y-50093866D02*
X29448095Y-49998628D01*
X29448095Y-49998628D02*
X29400476Y-49951009D01*
X29400476Y-49951009D02*
X29305238Y-49903390D01*
D12*
%TO.C,SW1*%
X63663842Y-44283333D02*
X63724318Y-44101904D01*
X63724318Y-44101904D02*
X63724318Y-43799523D01*
X63724318Y-43799523D02*
X63663842Y-43678571D01*
X63663842Y-43678571D02*
X63603365Y-43618095D01*
X63603365Y-43618095D02*
X63482413Y-43557618D01*
X63482413Y-43557618D02*
X63361461Y-43557618D01*
X63361461Y-43557618D02*
X63240508Y-43618095D01*
X63240508Y-43618095D02*
X63180032Y-43678571D01*
X63180032Y-43678571D02*
X63119556Y-43799523D01*
X63119556Y-43799523D02*
X63059080Y-44041428D01*
X63059080Y-44041428D02*
X62998603Y-44162380D01*
X62998603Y-44162380D02*
X62938127Y-44222857D01*
X62938127Y-44222857D02*
X62817175Y-44283333D01*
X62817175Y-44283333D02*
X62696222Y-44283333D01*
X62696222Y-44283333D02*
X62575270Y-44222857D01*
X62575270Y-44222857D02*
X62514794Y-44162380D01*
X62514794Y-44162380D02*
X62454318Y-44041428D01*
X62454318Y-44041428D02*
X62454318Y-43739047D01*
X62454318Y-43739047D02*
X62514794Y-43557618D01*
X62454318Y-43134285D02*
X63724318Y-42831904D01*
X63724318Y-42831904D02*
X62817175Y-42589999D01*
X62817175Y-42589999D02*
X63724318Y-42348094D01*
X63724318Y-42348094D02*
X62454318Y-42045714D01*
X63724318Y-40896665D02*
X63724318Y-41622380D01*
X63724318Y-41259523D02*
X62454318Y-41259523D01*
X62454318Y-41259523D02*
X62635746Y-41380475D01*
X62635746Y-41380475D02*
X62756699Y-41501427D01*
X62756699Y-41501427D02*
X62817175Y-41622380D01*
D11*
%TO.C,J4*%
X57176666Y-50197419D02*
X57176666Y-50911704D01*
X57176666Y-50911704D02*
X57129047Y-51054561D01*
X57129047Y-51054561D02*
X57033809Y-51149800D01*
X57033809Y-51149800D02*
X56890952Y-51197419D01*
X56890952Y-51197419D02*
X56795714Y-51197419D01*
X58081428Y-50530752D02*
X58081428Y-51197419D01*
X57843333Y-50149800D02*
X57605238Y-50864085D01*
X57605238Y-50864085D02*
X58224285Y-50864085D01*
D10*
%TO.C,C5*%
X31853333Y-34239580D02*
X31805714Y-34287200D01*
X31805714Y-34287200D02*
X31662857Y-34334819D01*
X31662857Y-34334819D02*
X31567619Y-34334819D01*
X31567619Y-34334819D02*
X31424762Y-34287200D01*
X31424762Y-34287200D02*
X31329524Y-34191961D01*
X31329524Y-34191961D02*
X31281905Y-34096723D01*
X31281905Y-34096723D02*
X31234286Y-33906247D01*
X31234286Y-33906247D02*
X31234286Y-33763390D01*
X31234286Y-33763390D02*
X31281905Y-33572914D01*
X31281905Y-33572914D02*
X31329524Y-33477676D01*
X31329524Y-33477676D02*
X31424762Y-33382438D01*
X31424762Y-33382438D02*
X31567619Y-33334819D01*
X31567619Y-33334819D02*
X31662857Y-33334819D01*
X31662857Y-33334819D02*
X31805714Y-33382438D01*
X31805714Y-33382438D02*
X31853333Y-33430057D01*
X32758095Y-33334819D02*
X32281905Y-33334819D01*
X32281905Y-33334819D02*
X32234286Y-33811009D01*
X32234286Y-33811009D02*
X32281905Y-33763390D01*
X32281905Y-33763390D02*
X32377143Y-33715771D01*
X32377143Y-33715771D02*
X32615238Y-33715771D01*
X32615238Y-33715771D02*
X32710476Y-33763390D01*
X32710476Y-33763390D02*
X32758095Y-33811009D01*
X32758095Y-33811009D02*
X32805714Y-33906247D01*
X32805714Y-33906247D02*
X32805714Y-34144342D01*
X32805714Y-34144342D02*
X32758095Y-34239580D01*
X32758095Y-34239580D02*
X32710476Y-34287200D01*
X32710476Y-34287200D02*
X32615238Y-34334819D01*
X32615238Y-34334819D02*
X32377143Y-34334819D01*
X32377143Y-34334819D02*
X32281905Y-34287200D01*
X32281905Y-34287200D02*
X32234286Y-34239580D01*
D13*
%TO.C,R4*%
X62202936Y-47375000D02*
X62657064Y-47375000D01*
X62202936Y-48845000D02*
X62657064Y-48845000D01*
D10*
%TO.C,U3*%
X27930000Y-40270000D02*
X28455000Y-40270000D01*
X27930000Y-44570000D02*
X27930000Y-44045000D01*
X27930000Y-44570000D02*
X28455000Y-44570000D01*
X32230000Y-40270000D02*
X31705000Y-40270000D01*
X32230000Y-40270000D02*
X32230000Y-40795000D01*
X32230000Y-44570000D02*
X31705000Y-44570000D01*
X32230000Y-44570000D02*
X32230000Y-44045000D01*
D13*
%TO.C,R5*%
X61255000Y-51022936D02*
X61255000Y-51477064D01*
X59785000Y-51022936D02*
X59785000Y-51477064D01*
%TO.C,C6*%
X27385000Y-37861252D02*
X27385000Y-37338748D01*
X28855000Y-37861252D02*
X28855000Y-37338748D01*
%TO.C,C7*%
X31835000Y-47121248D02*
X31835000Y-47643752D01*
X30365000Y-47121248D02*
X30365000Y-47643752D01*
%TO.C,U1*%
X35620000Y-26530000D02*
X35620000Y-33325000D01*
X35620000Y-32840000D02*
X53620000Y-32840000D01*
X35620000Y-57930000D02*
X35620000Y-57575000D01*
X35620000Y-57930000D02*
X53620000Y-57930000D01*
X53620000Y-26530000D02*
X35620000Y-26530000D01*
X53620000Y-26575000D02*
X53620000Y-33325000D01*
X53620000Y-57930000D02*
X53620000Y-57575000D01*
%TO.C,C8*%
X29375000Y-47128748D02*
X29375000Y-47651252D01*
X27905000Y-47128748D02*
X27905000Y-47651252D01*
D14*
%TO.C,SW1*%
X60900000Y-44940000D02*
X60900000Y-43190000D01*
X64400000Y-44940000D02*
X64400000Y-43190000D01*
X64400000Y-43890000D02*
X65400000Y-43890000D01*
X65400000Y-43890000D02*
X65400000Y-41290000D01*
X60900000Y-41990000D02*
X60900000Y-40240000D01*
X64400000Y-41990000D02*
X64400000Y-40240000D01*
X65400000Y-41290000D02*
X64400000Y-41290000D01*
D13*
%TO.C,C5*%
X32555000Y-36238748D02*
X32555000Y-36761252D01*
X31085000Y-36238748D02*
X31085000Y-36761252D01*
%TD*%
M02*
