%TF.GenerationSoftware,KiCad,Pcbnew,7.0.5*%
%TF.CreationDate,2024-06-09T19:34:58+01:00*%
%TF.ProjectId,smartwatch,736d6172-7477-4617-9463-682e6b696361,rev?*%
%TF.SameCoordinates,Original*%
%TF.FileFunction,Legend,Top*%
%TF.FilePolarity,Positive*%
%FSLAX46Y46*%
G04 Gerber Fmt 4.6, Leading zero omitted, Abs format (unit mm)*
G04 Created by KiCad (PCBNEW 7.0.5) date 2024-06-09 19:34:58*
%MOMM*%
%LPD*%
G01*
G04 APERTURE LIST*
%ADD10C,0.150000*%
%ADD11C,0.100000*%
%ADD12C,0.254000*%
%ADD13C,0.120000*%
%ADD14C,0.200000*%
G04 APERTURE END LIST*
D10*
%TO.C,C13*%
X59109580Y-53170357D02*
X59157200Y-53217976D01*
X59157200Y-53217976D02*
X59204819Y-53360833D01*
X59204819Y-53360833D02*
X59204819Y-53456071D01*
X59204819Y-53456071D02*
X59157200Y-53598928D01*
X59157200Y-53598928D02*
X59061961Y-53694166D01*
X59061961Y-53694166D02*
X58966723Y-53741785D01*
X58966723Y-53741785D02*
X58776247Y-53789404D01*
X58776247Y-53789404D02*
X58633390Y-53789404D01*
X58633390Y-53789404D02*
X58442914Y-53741785D01*
X58442914Y-53741785D02*
X58347676Y-53694166D01*
X58347676Y-53694166D02*
X58252438Y-53598928D01*
X58252438Y-53598928D02*
X58204819Y-53456071D01*
X58204819Y-53456071D02*
X58204819Y-53360833D01*
X58204819Y-53360833D02*
X58252438Y-53217976D01*
X58252438Y-53217976D02*
X58300057Y-53170357D01*
X59204819Y-52217976D02*
X59204819Y-52789404D01*
X59204819Y-52503690D02*
X58204819Y-52503690D01*
X58204819Y-52503690D02*
X58347676Y-52598928D01*
X58347676Y-52598928D02*
X58442914Y-52694166D01*
X58442914Y-52694166D02*
X58490533Y-52789404D01*
X58204819Y-51884642D02*
X58204819Y-51265595D01*
X58204819Y-51265595D02*
X58585771Y-51598928D01*
X58585771Y-51598928D02*
X58585771Y-51456071D01*
X58585771Y-51456071D02*
X58633390Y-51360833D01*
X58633390Y-51360833D02*
X58681009Y-51313214D01*
X58681009Y-51313214D02*
X58776247Y-51265595D01*
X58776247Y-51265595D02*
X59014342Y-51265595D01*
X59014342Y-51265595D02*
X59109580Y-51313214D01*
X59109580Y-51313214D02*
X59157200Y-51360833D01*
X59157200Y-51360833D02*
X59204819Y-51456071D01*
X59204819Y-51456071D02*
X59204819Y-51741785D01*
X59204819Y-51741785D02*
X59157200Y-51837023D01*
X59157200Y-51837023D02*
X59109580Y-51884642D01*
%TO.C,R4*%
X61333333Y-36604819D02*
X61000000Y-36128628D01*
X60761905Y-36604819D02*
X60761905Y-35604819D01*
X60761905Y-35604819D02*
X61142857Y-35604819D01*
X61142857Y-35604819D02*
X61238095Y-35652438D01*
X61238095Y-35652438D02*
X61285714Y-35700057D01*
X61285714Y-35700057D02*
X61333333Y-35795295D01*
X61333333Y-35795295D02*
X61333333Y-35938152D01*
X61333333Y-35938152D02*
X61285714Y-36033390D01*
X61285714Y-36033390D02*
X61238095Y-36081009D01*
X61238095Y-36081009D02*
X61142857Y-36128628D01*
X61142857Y-36128628D02*
X60761905Y-36128628D01*
X62190476Y-35938152D02*
X62190476Y-36604819D01*
X61952381Y-35557200D02*
X61714286Y-36271485D01*
X61714286Y-36271485D02*
X62333333Y-36271485D01*
D11*
%TO.C,J5*%
X57336666Y-39687419D02*
X57336666Y-40401704D01*
X57336666Y-40401704D02*
X57289047Y-40544561D01*
X57289047Y-40544561D02*
X57193809Y-40639800D01*
X57193809Y-40639800D02*
X57050952Y-40687419D01*
X57050952Y-40687419D02*
X56955714Y-40687419D01*
X58289047Y-39687419D02*
X57812857Y-39687419D01*
X57812857Y-39687419D02*
X57765238Y-40163609D01*
X57765238Y-40163609D02*
X57812857Y-40115990D01*
X57812857Y-40115990D02*
X57908095Y-40068371D01*
X57908095Y-40068371D02*
X58146190Y-40068371D01*
X58146190Y-40068371D02*
X58241428Y-40115990D01*
X58241428Y-40115990D02*
X58289047Y-40163609D01*
X58289047Y-40163609D02*
X58336666Y-40258847D01*
X58336666Y-40258847D02*
X58336666Y-40496942D01*
X58336666Y-40496942D02*
X58289047Y-40592180D01*
X58289047Y-40592180D02*
X58241428Y-40639800D01*
X58241428Y-40639800D02*
X58146190Y-40687419D01*
X58146190Y-40687419D02*
X57908095Y-40687419D01*
X57908095Y-40687419D02*
X57812857Y-40639800D01*
X57812857Y-40639800D02*
X57765238Y-40592180D01*
D10*
%TO.C,U3*%
X32909819Y-43181904D02*
X33719342Y-43181904D01*
X33719342Y-43181904D02*
X33814580Y-43134285D01*
X33814580Y-43134285D02*
X33862200Y-43086666D01*
X33862200Y-43086666D02*
X33909819Y-42991428D01*
X33909819Y-42991428D02*
X33909819Y-42800952D01*
X33909819Y-42800952D02*
X33862200Y-42705714D01*
X33862200Y-42705714D02*
X33814580Y-42658095D01*
X33814580Y-42658095D02*
X33719342Y-42610476D01*
X33719342Y-42610476D02*
X32909819Y-42610476D01*
X32909819Y-42229523D02*
X32909819Y-41610476D01*
X32909819Y-41610476D02*
X33290771Y-41943809D01*
X33290771Y-41943809D02*
X33290771Y-41800952D01*
X33290771Y-41800952D02*
X33338390Y-41705714D01*
X33338390Y-41705714D02*
X33386009Y-41658095D01*
X33386009Y-41658095D02*
X33481247Y-41610476D01*
X33481247Y-41610476D02*
X33719342Y-41610476D01*
X33719342Y-41610476D02*
X33814580Y-41658095D01*
X33814580Y-41658095D02*
X33862200Y-41705714D01*
X33862200Y-41705714D02*
X33909819Y-41800952D01*
X33909819Y-41800952D02*
X33909819Y-42086666D01*
X33909819Y-42086666D02*
X33862200Y-42181904D01*
X33862200Y-42181904D02*
X33814580Y-42229523D01*
D11*
%TO.C,J3*%
X55686666Y-27767419D02*
X55686666Y-28481704D01*
X55686666Y-28481704D02*
X55639047Y-28624561D01*
X55639047Y-28624561D02*
X55543809Y-28719800D01*
X55543809Y-28719800D02*
X55400952Y-28767419D01*
X55400952Y-28767419D02*
X55305714Y-28767419D01*
X56067619Y-27767419D02*
X56686666Y-27767419D01*
X56686666Y-27767419D02*
X56353333Y-28148371D01*
X56353333Y-28148371D02*
X56496190Y-28148371D01*
X56496190Y-28148371D02*
X56591428Y-28195990D01*
X56591428Y-28195990D02*
X56639047Y-28243609D01*
X56639047Y-28243609D02*
X56686666Y-28338847D01*
X56686666Y-28338847D02*
X56686666Y-28576942D01*
X56686666Y-28576942D02*
X56639047Y-28672180D01*
X56639047Y-28672180D02*
X56591428Y-28719800D01*
X56591428Y-28719800D02*
X56496190Y-28767419D01*
X56496190Y-28767419D02*
X56210476Y-28767419D01*
X56210476Y-28767419D02*
X56115238Y-28719800D01*
X56115238Y-28719800D02*
X56067619Y-28672180D01*
%TO.C,J6*%
X56246666Y-54072419D02*
X56246666Y-54786704D01*
X56246666Y-54786704D02*
X56199047Y-54929561D01*
X56199047Y-54929561D02*
X56103809Y-55024800D01*
X56103809Y-55024800D02*
X55960952Y-55072419D01*
X55960952Y-55072419D02*
X55865714Y-55072419D01*
X57151428Y-54072419D02*
X56960952Y-54072419D01*
X56960952Y-54072419D02*
X56865714Y-54120038D01*
X56865714Y-54120038D02*
X56818095Y-54167657D01*
X56818095Y-54167657D02*
X56722857Y-54310514D01*
X56722857Y-54310514D02*
X56675238Y-54500990D01*
X56675238Y-54500990D02*
X56675238Y-54881942D01*
X56675238Y-54881942D02*
X56722857Y-54977180D01*
X56722857Y-54977180D02*
X56770476Y-55024800D01*
X56770476Y-55024800D02*
X56865714Y-55072419D01*
X56865714Y-55072419D02*
X57056190Y-55072419D01*
X57056190Y-55072419D02*
X57151428Y-55024800D01*
X57151428Y-55024800D02*
X57199047Y-54977180D01*
X57199047Y-54977180D02*
X57246666Y-54881942D01*
X57246666Y-54881942D02*
X57246666Y-54643847D01*
X57246666Y-54643847D02*
X57199047Y-54548609D01*
X57199047Y-54548609D02*
X57151428Y-54500990D01*
X57151428Y-54500990D02*
X57056190Y-54453371D01*
X57056190Y-54453371D02*
X56865714Y-54453371D01*
X56865714Y-54453371D02*
X56770476Y-54500990D01*
X56770476Y-54500990D02*
X56722857Y-54548609D01*
X56722857Y-54548609D02*
X56675238Y-54643847D01*
D10*
%TO.C,R5*%
X62133333Y-49714819D02*
X61800000Y-49238628D01*
X61561905Y-49714819D02*
X61561905Y-48714819D01*
X61561905Y-48714819D02*
X61942857Y-48714819D01*
X61942857Y-48714819D02*
X62038095Y-48762438D01*
X62038095Y-48762438D02*
X62085714Y-48810057D01*
X62085714Y-48810057D02*
X62133333Y-48905295D01*
X62133333Y-48905295D02*
X62133333Y-49048152D01*
X62133333Y-49048152D02*
X62085714Y-49143390D01*
X62085714Y-49143390D02*
X62038095Y-49191009D01*
X62038095Y-49191009D02*
X61942857Y-49238628D01*
X61942857Y-49238628D02*
X61561905Y-49238628D01*
X63038095Y-48714819D02*
X62561905Y-48714819D01*
X62561905Y-48714819D02*
X62514286Y-49191009D01*
X62514286Y-49191009D02*
X62561905Y-49143390D01*
X62561905Y-49143390D02*
X62657143Y-49095771D01*
X62657143Y-49095771D02*
X62895238Y-49095771D01*
X62895238Y-49095771D02*
X62990476Y-49143390D01*
X62990476Y-49143390D02*
X63038095Y-49191009D01*
X63038095Y-49191009D02*
X63085714Y-49286247D01*
X63085714Y-49286247D02*
X63085714Y-49524342D01*
X63085714Y-49524342D02*
X63038095Y-49619580D01*
X63038095Y-49619580D02*
X62990476Y-49667200D01*
X62990476Y-49667200D02*
X62895238Y-49714819D01*
X62895238Y-49714819D02*
X62657143Y-49714819D01*
X62657143Y-49714819D02*
X62561905Y-49667200D01*
X62561905Y-49667200D02*
X62514286Y-49619580D01*
%TO.C,C6*%
X32733333Y-50449580D02*
X32685714Y-50497200D01*
X32685714Y-50497200D02*
X32542857Y-50544819D01*
X32542857Y-50544819D02*
X32447619Y-50544819D01*
X32447619Y-50544819D02*
X32304762Y-50497200D01*
X32304762Y-50497200D02*
X32209524Y-50401961D01*
X32209524Y-50401961D02*
X32161905Y-50306723D01*
X32161905Y-50306723D02*
X32114286Y-50116247D01*
X32114286Y-50116247D02*
X32114286Y-49973390D01*
X32114286Y-49973390D02*
X32161905Y-49782914D01*
X32161905Y-49782914D02*
X32209524Y-49687676D01*
X32209524Y-49687676D02*
X32304762Y-49592438D01*
X32304762Y-49592438D02*
X32447619Y-49544819D01*
X32447619Y-49544819D02*
X32542857Y-49544819D01*
X32542857Y-49544819D02*
X32685714Y-49592438D01*
X32685714Y-49592438D02*
X32733333Y-49640057D01*
X33590476Y-49544819D02*
X33400000Y-49544819D01*
X33400000Y-49544819D02*
X33304762Y-49592438D01*
X33304762Y-49592438D02*
X33257143Y-49640057D01*
X33257143Y-49640057D02*
X33161905Y-49782914D01*
X33161905Y-49782914D02*
X33114286Y-49973390D01*
X33114286Y-49973390D02*
X33114286Y-50354342D01*
X33114286Y-50354342D02*
X33161905Y-50449580D01*
X33161905Y-50449580D02*
X33209524Y-50497200D01*
X33209524Y-50497200D02*
X33304762Y-50544819D01*
X33304762Y-50544819D02*
X33495238Y-50544819D01*
X33495238Y-50544819D02*
X33590476Y-50497200D01*
X33590476Y-50497200D02*
X33638095Y-50449580D01*
X33638095Y-50449580D02*
X33685714Y-50354342D01*
X33685714Y-50354342D02*
X33685714Y-50116247D01*
X33685714Y-50116247D02*
X33638095Y-50021009D01*
X33638095Y-50021009D02*
X33590476Y-49973390D01*
X33590476Y-49973390D02*
X33495238Y-49925771D01*
X33495238Y-49925771D02*
X33304762Y-49925771D01*
X33304762Y-49925771D02*
X33209524Y-49973390D01*
X33209524Y-49973390D02*
X33161905Y-50021009D01*
X33161905Y-50021009D02*
X33114286Y-50116247D01*
%TO.C,C7*%
X27663333Y-50317080D02*
X27615714Y-50364700D01*
X27615714Y-50364700D02*
X27472857Y-50412319D01*
X27472857Y-50412319D02*
X27377619Y-50412319D01*
X27377619Y-50412319D02*
X27234762Y-50364700D01*
X27234762Y-50364700D02*
X27139524Y-50269461D01*
X27139524Y-50269461D02*
X27091905Y-50174223D01*
X27091905Y-50174223D02*
X27044286Y-49983747D01*
X27044286Y-49983747D02*
X27044286Y-49840890D01*
X27044286Y-49840890D02*
X27091905Y-49650414D01*
X27091905Y-49650414D02*
X27139524Y-49555176D01*
X27139524Y-49555176D02*
X27234762Y-49459938D01*
X27234762Y-49459938D02*
X27377619Y-49412319D01*
X27377619Y-49412319D02*
X27472857Y-49412319D01*
X27472857Y-49412319D02*
X27615714Y-49459938D01*
X27615714Y-49459938D02*
X27663333Y-49507557D01*
X27996667Y-49412319D02*
X28663333Y-49412319D01*
X28663333Y-49412319D02*
X28234762Y-50412319D01*
%TO.C,U1*%
X43718095Y-24534819D02*
X43718095Y-25344342D01*
X43718095Y-25344342D02*
X43765714Y-25439580D01*
X43765714Y-25439580D02*
X43813333Y-25487200D01*
X43813333Y-25487200D02*
X43908571Y-25534819D01*
X43908571Y-25534819D02*
X44099047Y-25534819D01*
X44099047Y-25534819D02*
X44194285Y-25487200D01*
X44194285Y-25487200D02*
X44241904Y-25439580D01*
X44241904Y-25439580D02*
X44289523Y-25344342D01*
X44289523Y-25344342D02*
X44289523Y-24534819D01*
X45289523Y-25534819D02*
X44718095Y-25534819D01*
X45003809Y-25534819D02*
X45003809Y-24534819D01*
X45003809Y-24534819D02*
X44908571Y-24677676D01*
X44908571Y-24677676D02*
X44813333Y-24772914D01*
X44813333Y-24772914D02*
X44718095Y-24820533D01*
X40358094Y-29599104D02*
X40834284Y-29599104D01*
X40262856Y-29884819D02*
X40596189Y-28884819D01*
X40596189Y-28884819D02*
X40929522Y-29884819D01*
X41262856Y-29218152D02*
X41262856Y-29884819D01*
X41262856Y-29313390D02*
X41310475Y-29265771D01*
X41310475Y-29265771D02*
X41405713Y-29218152D01*
X41405713Y-29218152D02*
X41548570Y-29218152D01*
X41548570Y-29218152D02*
X41643808Y-29265771D01*
X41643808Y-29265771D02*
X41691427Y-29361009D01*
X41691427Y-29361009D02*
X41691427Y-29884819D01*
X42024761Y-29218152D02*
X42405713Y-29218152D01*
X42167618Y-28884819D02*
X42167618Y-29741961D01*
X42167618Y-29741961D02*
X42215237Y-29837200D01*
X42215237Y-29837200D02*
X42310475Y-29884819D01*
X42310475Y-29884819D02*
X42405713Y-29884819D01*
X43119999Y-29837200D02*
X43024761Y-29884819D01*
X43024761Y-29884819D02*
X42834285Y-29884819D01*
X42834285Y-29884819D02*
X42739047Y-29837200D01*
X42739047Y-29837200D02*
X42691428Y-29741961D01*
X42691428Y-29741961D02*
X42691428Y-29361009D01*
X42691428Y-29361009D02*
X42739047Y-29265771D01*
X42739047Y-29265771D02*
X42834285Y-29218152D01*
X42834285Y-29218152D02*
X43024761Y-29218152D01*
X43024761Y-29218152D02*
X43119999Y-29265771D01*
X43119999Y-29265771D02*
X43167618Y-29361009D01*
X43167618Y-29361009D02*
X43167618Y-29456247D01*
X43167618Y-29456247D02*
X42691428Y-29551485D01*
X43596190Y-29218152D02*
X43596190Y-29884819D01*
X43596190Y-29313390D02*
X43643809Y-29265771D01*
X43643809Y-29265771D02*
X43739047Y-29218152D01*
X43739047Y-29218152D02*
X43881904Y-29218152D01*
X43881904Y-29218152D02*
X43977142Y-29265771D01*
X43977142Y-29265771D02*
X44024761Y-29361009D01*
X44024761Y-29361009D02*
X44024761Y-29884819D01*
X44500952Y-29218152D02*
X44500952Y-29884819D01*
X44500952Y-29313390D02*
X44548571Y-29265771D01*
X44548571Y-29265771D02*
X44643809Y-29218152D01*
X44643809Y-29218152D02*
X44786666Y-29218152D01*
X44786666Y-29218152D02*
X44881904Y-29265771D01*
X44881904Y-29265771D02*
X44929523Y-29361009D01*
X44929523Y-29361009D02*
X44929523Y-29884819D01*
X45834285Y-29884819D02*
X45834285Y-29361009D01*
X45834285Y-29361009D02*
X45786666Y-29265771D01*
X45786666Y-29265771D02*
X45691428Y-29218152D01*
X45691428Y-29218152D02*
X45500952Y-29218152D01*
X45500952Y-29218152D02*
X45405714Y-29265771D01*
X45834285Y-29837200D02*
X45739047Y-29884819D01*
X45739047Y-29884819D02*
X45500952Y-29884819D01*
X45500952Y-29884819D02*
X45405714Y-29837200D01*
X45405714Y-29837200D02*
X45358095Y-29741961D01*
X45358095Y-29741961D02*
X45358095Y-29646723D01*
X45358095Y-29646723D02*
X45405714Y-29551485D01*
X45405714Y-29551485D02*
X45500952Y-29503866D01*
X45500952Y-29503866D02*
X45739047Y-29503866D01*
X45739047Y-29503866D02*
X45834285Y-29456247D01*
X47024762Y-29599104D02*
X47500952Y-29599104D01*
X46929524Y-29884819D02*
X47262857Y-28884819D01*
X47262857Y-28884819D02*
X47596190Y-29884819D01*
X47929524Y-29884819D02*
X47929524Y-29218152D01*
X47929524Y-29408628D02*
X47977143Y-29313390D01*
X47977143Y-29313390D02*
X48024762Y-29265771D01*
X48024762Y-29265771D02*
X48120000Y-29218152D01*
X48120000Y-29218152D02*
X48215238Y-29218152D01*
X48929524Y-29837200D02*
X48834286Y-29884819D01*
X48834286Y-29884819D02*
X48643810Y-29884819D01*
X48643810Y-29884819D02*
X48548572Y-29837200D01*
X48548572Y-29837200D02*
X48500953Y-29741961D01*
X48500953Y-29741961D02*
X48500953Y-29361009D01*
X48500953Y-29361009D02*
X48548572Y-29265771D01*
X48548572Y-29265771D02*
X48643810Y-29218152D01*
X48643810Y-29218152D02*
X48834286Y-29218152D01*
X48834286Y-29218152D02*
X48929524Y-29265771D01*
X48929524Y-29265771D02*
X48977143Y-29361009D01*
X48977143Y-29361009D02*
X48977143Y-29456247D01*
X48977143Y-29456247D02*
X48500953Y-29551485D01*
X49834286Y-29884819D02*
X49834286Y-29361009D01*
X49834286Y-29361009D02*
X49786667Y-29265771D01*
X49786667Y-29265771D02*
X49691429Y-29218152D01*
X49691429Y-29218152D02*
X49500953Y-29218152D01*
X49500953Y-29218152D02*
X49405715Y-29265771D01*
X49834286Y-29837200D02*
X49739048Y-29884819D01*
X49739048Y-29884819D02*
X49500953Y-29884819D01*
X49500953Y-29884819D02*
X49405715Y-29837200D01*
X49405715Y-29837200D02*
X49358096Y-29741961D01*
X49358096Y-29741961D02*
X49358096Y-29646723D01*
X49358096Y-29646723D02*
X49405715Y-29551485D01*
X49405715Y-29551485D02*
X49500953Y-29503866D01*
X49500953Y-29503866D02*
X49739048Y-29503866D01*
X49739048Y-29503866D02*
X49834286Y-29456247D01*
%TO.C,C8*%
X29843333Y-35589580D02*
X29795714Y-35637200D01*
X29795714Y-35637200D02*
X29652857Y-35684819D01*
X29652857Y-35684819D02*
X29557619Y-35684819D01*
X29557619Y-35684819D02*
X29414762Y-35637200D01*
X29414762Y-35637200D02*
X29319524Y-35541961D01*
X29319524Y-35541961D02*
X29271905Y-35446723D01*
X29271905Y-35446723D02*
X29224286Y-35256247D01*
X29224286Y-35256247D02*
X29224286Y-35113390D01*
X29224286Y-35113390D02*
X29271905Y-34922914D01*
X29271905Y-34922914D02*
X29319524Y-34827676D01*
X29319524Y-34827676D02*
X29414762Y-34732438D01*
X29414762Y-34732438D02*
X29557619Y-34684819D01*
X29557619Y-34684819D02*
X29652857Y-34684819D01*
X29652857Y-34684819D02*
X29795714Y-34732438D01*
X29795714Y-34732438D02*
X29843333Y-34780057D01*
X30414762Y-35113390D02*
X30319524Y-35065771D01*
X30319524Y-35065771D02*
X30271905Y-35018152D01*
X30271905Y-35018152D02*
X30224286Y-34922914D01*
X30224286Y-34922914D02*
X30224286Y-34875295D01*
X30224286Y-34875295D02*
X30271905Y-34780057D01*
X30271905Y-34780057D02*
X30319524Y-34732438D01*
X30319524Y-34732438D02*
X30414762Y-34684819D01*
X30414762Y-34684819D02*
X30605238Y-34684819D01*
X30605238Y-34684819D02*
X30700476Y-34732438D01*
X30700476Y-34732438D02*
X30748095Y-34780057D01*
X30748095Y-34780057D02*
X30795714Y-34875295D01*
X30795714Y-34875295D02*
X30795714Y-34922914D01*
X30795714Y-34922914D02*
X30748095Y-35018152D01*
X30748095Y-35018152D02*
X30700476Y-35065771D01*
X30700476Y-35065771D02*
X30605238Y-35113390D01*
X30605238Y-35113390D02*
X30414762Y-35113390D01*
X30414762Y-35113390D02*
X30319524Y-35161009D01*
X30319524Y-35161009D02*
X30271905Y-35208628D01*
X30271905Y-35208628D02*
X30224286Y-35303866D01*
X30224286Y-35303866D02*
X30224286Y-35494342D01*
X30224286Y-35494342D02*
X30271905Y-35589580D01*
X30271905Y-35589580D02*
X30319524Y-35637200D01*
X30319524Y-35637200D02*
X30414762Y-35684819D01*
X30414762Y-35684819D02*
X30605238Y-35684819D01*
X30605238Y-35684819D02*
X30700476Y-35637200D01*
X30700476Y-35637200D02*
X30748095Y-35589580D01*
X30748095Y-35589580D02*
X30795714Y-35494342D01*
X30795714Y-35494342D02*
X30795714Y-35303866D01*
X30795714Y-35303866D02*
X30748095Y-35208628D01*
X30748095Y-35208628D02*
X30700476Y-35161009D01*
X30700476Y-35161009D02*
X30605238Y-35113390D01*
D12*
%TO.C,SW1*%
X63113842Y-44343333D02*
X63174318Y-44161904D01*
X63174318Y-44161904D02*
X63174318Y-43859523D01*
X63174318Y-43859523D02*
X63113842Y-43738571D01*
X63113842Y-43738571D02*
X63053365Y-43678095D01*
X63053365Y-43678095D02*
X62932413Y-43617618D01*
X62932413Y-43617618D02*
X62811461Y-43617618D01*
X62811461Y-43617618D02*
X62690508Y-43678095D01*
X62690508Y-43678095D02*
X62630032Y-43738571D01*
X62630032Y-43738571D02*
X62569556Y-43859523D01*
X62569556Y-43859523D02*
X62509080Y-44101428D01*
X62509080Y-44101428D02*
X62448603Y-44222380D01*
X62448603Y-44222380D02*
X62388127Y-44282857D01*
X62388127Y-44282857D02*
X62267175Y-44343333D01*
X62267175Y-44343333D02*
X62146222Y-44343333D01*
X62146222Y-44343333D02*
X62025270Y-44282857D01*
X62025270Y-44282857D02*
X61964794Y-44222380D01*
X61964794Y-44222380D02*
X61904318Y-44101428D01*
X61904318Y-44101428D02*
X61904318Y-43799047D01*
X61904318Y-43799047D02*
X61964794Y-43617618D01*
X61904318Y-43194285D02*
X63174318Y-42891904D01*
X63174318Y-42891904D02*
X62267175Y-42649999D01*
X62267175Y-42649999D02*
X63174318Y-42408094D01*
X63174318Y-42408094D02*
X61904318Y-42105714D01*
X63174318Y-40956665D02*
X63174318Y-41682380D01*
X63174318Y-41319523D02*
X61904318Y-41319523D01*
X61904318Y-41319523D02*
X62085746Y-41440475D01*
X62085746Y-41440475D02*
X62206699Y-41561427D01*
X62206699Y-41561427D02*
X62267175Y-41682380D01*
D11*
%TO.C,J4*%
X57176666Y-50197419D02*
X57176666Y-50911704D01*
X57176666Y-50911704D02*
X57129047Y-51054561D01*
X57129047Y-51054561D02*
X57033809Y-51149800D01*
X57033809Y-51149800D02*
X56890952Y-51197419D01*
X56890952Y-51197419D02*
X56795714Y-51197419D01*
X58081428Y-50530752D02*
X58081428Y-51197419D01*
X57843333Y-50149800D02*
X57605238Y-50864085D01*
X57605238Y-50864085D02*
X58224285Y-50864085D01*
D10*
%TO.C,C5*%
X30593333Y-50289580D02*
X30545714Y-50337200D01*
X30545714Y-50337200D02*
X30402857Y-50384819D01*
X30402857Y-50384819D02*
X30307619Y-50384819D01*
X30307619Y-50384819D02*
X30164762Y-50337200D01*
X30164762Y-50337200D02*
X30069524Y-50241961D01*
X30069524Y-50241961D02*
X30021905Y-50146723D01*
X30021905Y-50146723D02*
X29974286Y-49956247D01*
X29974286Y-49956247D02*
X29974286Y-49813390D01*
X29974286Y-49813390D02*
X30021905Y-49622914D01*
X30021905Y-49622914D02*
X30069524Y-49527676D01*
X30069524Y-49527676D02*
X30164762Y-49432438D01*
X30164762Y-49432438D02*
X30307619Y-49384819D01*
X30307619Y-49384819D02*
X30402857Y-49384819D01*
X30402857Y-49384819D02*
X30545714Y-49432438D01*
X30545714Y-49432438D02*
X30593333Y-49480057D01*
X31498095Y-49384819D02*
X31021905Y-49384819D01*
X31021905Y-49384819D02*
X30974286Y-49861009D01*
X30974286Y-49861009D02*
X31021905Y-49813390D01*
X31021905Y-49813390D02*
X31117143Y-49765771D01*
X31117143Y-49765771D02*
X31355238Y-49765771D01*
X31355238Y-49765771D02*
X31450476Y-49813390D01*
X31450476Y-49813390D02*
X31498095Y-49861009D01*
X31498095Y-49861009D02*
X31545714Y-49956247D01*
X31545714Y-49956247D02*
X31545714Y-50194342D01*
X31545714Y-50194342D02*
X31498095Y-50289580D01*
X31498095Y-50289580D02*
X31450476Y-50337200D01*
X31450476Y-50337200D02*
X31355238Y-50384819D01*
X31355238Y-50384819D02*
X31117143Y-50384819D01*
X31117143Y-50384819D02*
X31021905Y-50337200D01*
X31021905Y-50337200D02*
X30974286Y-50289580D01*
D13*
%TO.C,C13*%
X59695000Y-52788752D02*
X59695000Y-52266248D01*
X61165000Y-52788752D02*
X61165000Y-52266248D01*
%TO.C,R4*%
X62667064Y-38405000D02*
X62212936Y-38405000D01*
X62667064Y-36935000D02*
X62212936Y-36935000D01*
D10*
%TO.C,U3*%
X32230000Y-40270000D02*
X32230000Y-40795000D01*
X27930000Y-40270000D02*
X28455000Y-40270000D01*
X27930000Y-40270000D02*
X27930000Y-40795000D01*
X32230000Y-44570000D02*
X32230000Y-44045000D01*
X32230000Y-44570000D02*
X31705000Y-44570000D01*
X27930000Y-44570000D02*
X27930000Y-44045000D01*
X27930000Y-44570000D02*
X28455000Y-44570000D01*
D13*
%TO.C,R5*%
X62527064Y-48345000D02*
X62072936Y-48345000D01*
X62527064Y-46875000D02*
X62072936Y-46875000D01*
%TO.C,C6*%
X33665000Y-47088748D02*
X33665000Y-47611252D01*
X32195000Y-47088748D02*
X32195000Y-47611252D01*
%TO.C,C7*%
X27135000Y-47076248D02*
X27135000Y-47598752D01*
X28605000Y-47076248D02*
X28605000Y-47598752D01*
%TO.C,U1*%
X35620000Y-26530000D02*
X35620000Y-33325000D01*
X35620000Y-32840000D02*
X53620000Y-32840000D01*
X35620000Y-57930000D02*
X35620000Y-57575000D01*
X35620000Y-57930000D02*
X53620000Y-57930000D01*
X53620000Y-26530000D02*
X35620000Y-26530000D01*
X53620000Y-26575000D02*
X53620000Y-33325000D01*
X53620000Y-57930000D02*
X53620000Y-57575000D01*
%TO.C,C8*%
X29265000Y-37918752D02*
X29265000Y-37396248D01*
X30735000Y-37918752D02*
X30735000Y-37396248D01*
D14*
%TO.C,SW1*%
X60900000Y-44940000D02*
X60900000Y-43190000D01*
X64400000Y-44940000D02*
X64400000Y-43190000D01*
X64400000Y-43890000D02*
X65400000Y-43890000D01*
X65400000Y-43890000D02*
X65400000Y-41290000D01*
X60900000Y-41990000D02*
X60900000Y-40240000D01*
X64400000Y-41990000D02*
X64400000Y-40240000D01*
X65400000Y-41290000D02*
X64400000Y-41290000D01*
D13*
%TO.C,C5*%
X31465000Y-47076248D02*
X31465000Y-47598752D01*
X29995000Y-47076248D02*
X29995000Y-47598752D01*
%TD*%
M02*
