%TF.GenerationSoftware,KiCad,Pcbnew,7.0.5*%
%TF.CreationDate,2024-06-06T18:36:07+01:00*%
%TF.ProjectId,smartwatch,736d6172-7477-4617-9463-682e6b696361,rev?*%
%TF.SameCoordinates,Original*%
%TF.FileFunction,Paste,Top*%
%TF.FilePolarity,Positive*%
%FSLAX46Y46*%
G04 Gerber Fmt 4.6, Leading zero omitted, Abs format (unit mm)*
G04 Created by KiCad (PCBNEW 7.0.5) date 2024-06-06 18:36:07*
%MOMM*%
%LPD*%
G01*
G04 APERTURE LIST*
G04 Aperture macros list*
%AMRoundRect*
0 Rectangle with rounded corners*
0 $1 Rounding radius*
0 $2 $3 $4 $5 $6 $7 $8 $9 X,Y pos of 4 corners*
0 Add a 4 corners polygon primitive as box body*
4,1,4,$2,$3,$4,$5,$6,$7,$8,$9,$2,$3,0*
0 Add four circle primitives for the rounded corners*
1,1,$1+$1,$2,$3*
1,1,$1+$1,$4,$5*
1,1,$1+$1,$6,$7*
1,1,$1+$1,$8,$9*
0 Add four rect primitives between the rounded corners*
20,1,$1+$1,$2,$3,$4,$5,0*
20,1,$1+$1,$4,$5,$6,$7,0*
20,1,$1+$1,$6,$7,$8,$9,0*
20,1,$1+$1,$8,$9,$2,$3,0*%
G04 Aperture macros list end*
%ADD10RoundRect,0.250000X-0.350000X-0.450000X0.350000X-0.450000X0.350000X0.450000X-0.350000X0.450000X0*%
%ADD11RoundRect,0.250000X-0.750000X0.250000X-0.750000X-0.250000X0.750000X-0.250000X0.750000X0.250000X0*%
%ADD12RoundRect,0.075000X-0.350000X-0.075000X0.350000X-0.075000X0.350000X0.075000X-0.350000X0.075000X0*%
%ADD13RoundRect,0.075000X0.075000X-0.350000X0.075000X0.350000X-0.075000X0.350000X-0.075000X-0.350000X0*%
%ADD14RoundRect,0.250000X0.750000X-0.250000X0.750000X0.250000X-0.750000X0.250000X-0.750000X-0.250000X0*%
%ADD15RoundRect,0.250000X-0.450000X0.350000X-0.450000X-0.350000X0.450000X-0.350000X0.450000X0.350000X0*%
%ADD16RoundRect,0.250000X0.475000X-0.337500X0.475000X0.337500X-0.475000X0.337500X-0.475000X-0.337500X0*%
%ADD17RoundRect,0.250000X-0.475000X0.337500X-0.475000X-0.337500X0.475000X-0.337500X0.475000X0.337500X0*%
%ADD18R,1.500000X0.900000*%
%ADD19R,0.900000X0.900000*%
%ADD20R,1.000000X1.200000*%
G04 APERTURE END LIST*
D10*
%TO.C,R4*%
X61430000Y-48110000D03*
X63430000Y-48110000D03*
%TD*%
D11*
%TO.C,J5*%
X57740000Y-35140000D03*
X57740000Y-36400000D03*
X57740000Y-37675000D03*
X57740000Y-38940000D03*
%TD*%
D12*
%TO.C,U3*%
X28130000Y-41170000D03*
X28130000Y-41670000D03*
X28130000Y-42170000D03*
X28130000Y-42670000D03*
X28130000Y-43170000D03*
X28130000Y-43670000D03*
D13*
X28830000Y-44370000D03*
X29330000Y-44370000D03*
X29830000Y-44370000D03*
X30330000Y-44370000D03*
X30830000Y-44370000D03*
X31330000Y-44370000D03*
D12*
X32030000Y-43670000D03*
X32030000Y-43170000D03*
X32030000Y-42670000D03*
X32030000Y-42170000D03*
X32030000Y-41670000D03*
X32030000Y-41170000D03*
D13*
X31330000Y-40470000D03*
X30830000Y-40470000D03*
X30330000Y-40470000D03*
X29830000Y-40470000D03*
X29330000Y-40470000D03*
X28830000Y-40470000D03*
%TD*%
D14*
%TO.C,J3*%
X62600000Y-37300000D03*
X62600000Y-36040000D03*
%TD*%
%TO.C,J6*%
X57680000Y-54620000D03*
X57680000Y-53360000D03*
%TD*%
D15*
%TO.C,R5*%
X60520000Y-50250000D03*
X60520000Y-52250000D03*
%TD*%
D16*
%TO.C,C6*%
X28120000Y-38637500D03*
X28120000Y-36562500D03*
%TD*%
D17*
%TO.C,C7*%
X31100000Y-46345000D03*
X31100000Y-48420000D03*
%TD*%
D18*
%TO.C,U1*%
X35870000Y-33970000D03*
X35870000Y-35240000D03*
X35870000Y-36510000D03*
X35870000Y-37780000D03*
X35870000Y-39050000D03*
X35870000Y-40320000D03*
X35870000Y-41590000D03*
X35870000Y-42860000D03*
X35870000Y-44130000D03*
X35870000Y-45400000D03*
X35870000Y-46670000D03*
X35870000Y-47940000D03*
X35870000Y-49210000D03*
X35870000Y-50480000D03*
X35870000Y-51750000D03*
X35870000Y-53020000D03*
X35870000Y-54290000D03*
X35870000Y-55560000D03*
X35870000Y-56830000D03*
X53370000Y-56830000D03*
X53370000Y-55560000D03*
X53370000Y-54290000D03*
X53370000Y-53020000D03*
X53370000Y-51750000D03*
X53370000Y-50480000D03*
X53370000Y-49210000D03*
X53370000Y-47940000D03*
X53370000Y-46670000D03*
X53370000Y-45400000D03*
X53370000Y-44130000D03*
X53370000Y-42860000D03*
X53370000Y-41590000D03*
X53370000Y-40320000D03*
X53370000Y-39050000D03*
X53370000Y-37780000D03*
X53370000Y-36510000D03*
X53370000Y-35240000D03*
X53370000Y-33970000D03*
D19*
X41715000Y-40365000D03*
X41720000Y-41765000D03*
X41720000Y-43165000D03*
X43120000Y-40365000D03*
X43120000Y-41765000D03*
X43120000Y-43165000D03*
X44520000Y-40365000D03*
X44520000Y-41765000D03*
X44520000Y-43165000D03*
%TD*%
D17*
%TO.C,C8*%
X28640000Y-46352500D03*
X28640000Y-48427500D03*
%TD*%
D20*
%TO.C,SW1*%
X61800000Y-45390000D03*
X61800000Y-39790000D03*
X63500000Y-45390000D03*
X63500000Y-39790000D03*
%TD*%
D11*
%TO.C,J4*%
X57640000Y-41680000D03*
X57640000Y-42940000D03*
X57640000Y-44215000D03*
X57640000Y-45480000D03*
X57640000Y-46760000D03*
X57640000Y-48025000D03*
X57640000Y-49295000D03*
%TD*%
D17*
%TO.C,C5*%
X31820000Y-35462500D03*
X31820000Y-37537500D03*
%TD*%
M02*
