%TF.GenerationSoftware,KiCad,Pcbnew,7.0.5*%
%TF.CreationDate,2025-08-15T19:59:52+01:00*%
%TF.ProjectId,smartwatch,736d6172-7477-4617-9463-682e6b696361,rev?*%
%TF.SameCoordinates,Original*%
%TF.FileFunction,Legend,Top*%
%TF.FilePolarity,Positive*%
%FSLAX46Y46*%
G04 Gerber Fmt 4.6, Leading zero omitted, Abs format (unit mm)*
G04 Created by KiCad (PCBNEW 7.0.5) date 2025-08-15 19:59:52*
%MOMM*%
%LPD*%
G01*
G04 APERTURE LIST*
%ADD10C,0.150000*%
%ADD11C,0.127000*%
%ADD12C,0.200000*%
%ADD13C,0.120000*%
G04 APERTURE END LIST*
D10*
%TO.C,J4*%
X52537727Y-51693551D02*
X53253391Y-51693551D01*
X53253391Y-51693551D02*
X53396524Y-51741261D01*
X53396524Y-51741261D02*
X53491946Y-51836683D01*
X53491946Y-51836683D02*
X53539656Y-51979816D01*
X53539656Y-51979816D02*
X53539656Y-52075238D01*
X52871704Y-50787044D02*
X53539656Y-50787044D01*
X52490017Y-51025598D02*
X53205680Y-51264153D01*
X53205680Y-51264153D02*
X53205680Y-50643911D01*
%TO.C,C13*%
X56157142Y-54779580D02*
X56109523Y-54827200D01*
X56109523Y-54827200D02*
X55966666Y-54874819D01*
X55966666Y-54874819D02*
X55871428Y-54874819D01*
X55871428Y-54874819D02*
X55728571Y-54827200D01*
X55728571Y-54827200D02*
X55633333Y-54731961D01*
X55633333Y-54731961D02*
X55585714Y-54636723D01*
X55585714Y-54636723D02*
X55538095Y-54446247D01*
X55538095Y-54446247D02*
X55538095Y-54303390D01*
X55538095Y-54303390D02*
X55585714Y-54112914D01*
X55585714Y-54112914D02*
X55633333Y-54017676D01*
X55633333Y-54017676D02*
X55728571Y-53922438D01*
X55728571Y-53922438D02*
X55871428Y-53874819D01*
X55871428Y-53874819D02*
X55966666Y-53874819D01*
X55966666Y-53874819D02*
X56109523Y-53922438D01*
X56109523Y-53922438D02*
X56157142Y-53970057D01*
X57109523Y-54874819D02*
X56538095Y-54874819D01*
X56823809Y-54874819D02*
X56823809Y-53874819D01*
X56823809Y-53874819D02*
X56728571Y-54017676D01*
X56728571Y-54017676D02*
X56633333Y-54112914D01*
X56633333Y-54112914D02*
X56538095Y-54160533D01*
X57442857Y-53874819D02*
X58061904Y-53874819D01*
X58061904Y-53874819D02*
X57728571Y-54255771D01*
X57728571Y-54255771D02*
X57871428Y-54255771D01*
X57871428Y-54255771D02*
X57966666Y-54303390D01*
X57966666Y-54303390D02*
X58014285Y-54351009D01*
X58014285Y-54351009D02*
X58061904Y-54446247D01*
X58061904Y-54446247D02*
X58061904Y-54684342D01*
X58061904Y-54684342D02*
X58014285Y-54779580D01*
X58014285Y-54779580D02*
X57966666Y-54827200D01*
X57966666Y-54827200D02*
X57871428Y-54874819D01*
X57871428Y-54874819D02*
X57585714Y-54874819D01*
X57585714Y-54874819D02*
X57490476Y-54827200D01*
X57490476Y-54827200D02*
X57442857Y-54779580D01*
%TO.C,U3*%
X32909819Y-43181904D02*
X33719342Y-43181904D01*
X33719342Y-43181904D02*
X33814580Y-43134285D01*
X33814580Y-43134285D02*
X33862200Y-43086666D01*
X33862200Y-43086666D02*
X33909819Y-42991428D01*
X33909819Y-42991428D02*
X33909819Y-42800952D01*
X33909819Y-42800952D02*
X33862200Y-42705714D01*
X33862200Y-42705714D02*
X33814580Y-42658095D01*
X33814580Y-42658095D02*
X33719342Y-42610476D01*
X33719342Y-42610476D02*
X32909819Y-42610476D01*
X32909819Y-42229523D02*
X32909819Y-41610476D01*
X32909819Y-41610476D02*
X33290771Y-41943809D01*
X33290771Y-41943809D02*
X33290771Y-41800952D01*
X33290771Y-41800952D02*
X33338390Y-41705714D01*
X33338390Y-41705714D02*
X33386009Y-41658095D01*
X33386009Y-41658095D02*
X33481247Y-41610476D01*
X33481247Y-41610476D02*
X33719342Y-41610476D01*
X33719342Y-41610476D02*
X33814580Y-41658095D01*
X33814580Y-41658095D02*
X33862200Y-41705714D01*
X33862200Y-41705714D02*
X33909819Y-41800952D01*
X33909819Y-41800952D02*
X33909819Y-42086666D01*
X33909819Y-42086666D02*
X33862200Y-42181904D01*
X33862200Y-42181904D02*
X33814580Y-42229523D01*
%TO.C,C6*%
X32733333Y-50449580D02*
X32685714Y-50497200D01*
X32685714Y-50497200D02*
X32542857Y-50544819D01*
X32542857Y-50544819D02*
X32447619Y-50544819D01*
X32447619Y-50544819D02*
X32304762Y-50497200D01*
X32304762Y-50497200D02*
X32209524Y-50401961D01*
X32209524Y-50401961D02*
X32161905Y-50306723D01*
X32161905Y-50306723D02*
X32114286Y-50116247D01*
X32114286Y-50116247D02*
X32114286Y-49973390D01*
X32114286Y-49973390D02*
X32161905Y-49782914D01*
X32161905Y-49782914D02*
X32209524Y-49687676D01*
X32209524Y-49687676D02*
X32304762Y-49592438D01*
X32304762Y-49592438D02*
X32447619Y-49544819D01*
X32447619Y-49544819D02*
X32542857Y-49544819D01*
X32542857Y-49544819D02*
X32685714Y-49592438D01*
X32685714Y-49592438D02*
X32733333Y-49640057D01*
X33590476Y-49544819D02*
X33400000Y-49544819D01*
X33400000Y-49544819D02*
X33304762Y-49592438D01*
X33304762Y-49592438D02*
X33257143Y-49640057D01*
X33257143Y-49640057D02*
X33161905Y-49782914D01*
X33161905Y-49782914D02*
X33114286Y-49973390D01*
X33114286Y-49973390D02*
X33114286Y-50354342D01*
X33114286Y-50354342D02*
X33161905Y-50449580D01*
X33161905Y-50449580D02*
X33209524Y-50497200D01*
X33209524Y-50497200D02*
X33304762Y-50544819D01*
X33304762Y-50544819D02*
X33495238Y-50544819D01*
X33495238Y-50544819D02*
X33590476Y-50497200D01*
X33590476Y-50497200D02*
X33638095Y-50449580D01*
X33638095Y-50449580D02*
X33685714Y-50354342D01*
X33685714Y-50354342D02*
X33685714Y-50116247D01*
X33685714Y-50116247D02*
X33638095Y-50021009D01*
X33638095Y-50021009D02*
X33590476Y-49973390D01*
X33590476Y-49973390D02*
X33495238Y-49925771D01*
X33495238Y-49925771D02*
X33304762Y-49925771D01*
X33304762Y-49925771D02*
X33209524Y-49973390D01*
X33209524Y-49973390D02*
X33161905Y-50021009D01*
X33161905Y-50021009D02*
X33114286Y-50116247D01*
%TO.C,C7*%
X27663333Y-50317080D02*
X27615714Y-50364700D01*
X27615714Y-50364700D02*
X27472857Y-50412319D01*
X27472857Y-50412319D02*
X27377619Y-50412319D01*
X27377619Y-50412319D02*
X27234762Y-50364700D01*
X27234762Y-50364700D02*
X27139524Y-50269461D01*
X27139524Y-50269461D02*
X27091905Y-50174223D01*
X27091905Y-50174223D02*
X27044286Y-49983747D01*
X27044286Y-49983747D02*
X27044286Y-49840890D01*
X27044286Y-49840890D02*
X27091905Y-49650414D01*
X27091905Y-49650414D02*
X27139524Y-49555176D01*
X27139524Y-49555176D02*
X27234762Y-49459938D01*
X27234762Y-49459938D02*
X27377619Y-49412319D01*
X27377619Y-49412319D02*
X27472857Y-49412319D01*
X27472857Y-49412319D02*
X27615714Y-49459938D01*
X27615714Y-49459938D02*
X27663333Y-49507557D01*
X27996667Y-49412319D02*
X28663333Y-49412319D01*
X28663333Y-49412319D02*
X28234762Y-50412319D01*
%TO.C,U1*%
X43718095Y-24534819D02*
X43718095Y-25344342D01*
X43718095Y-25344342D02*
X43765714Y-25439580D01*
X43765714Y-25439580D02*
X43813333Y-25487200D01*
X43813333Y-25487200D02*
X43908571Y-25534819D01*
X43908571Y-25534819D02*
X44099047Y-25534819D01*
X44099047Y-25534819D02*
X44194285Y-25487200D01*
X44194285Y-25487200D02*
X44241904Y-25439580D01*
X44241904Y-25439580D02*
X44289523Y-25344342D01*
X44289523Y-25344342D02*
X44289523Y-24534819D01*
X45289523Y-25534819D02*
X44718095Y-25534819D01*
X45003809Y-25534819D02*
X45003809Y-24534819D01*
X45003809Y-24534819D02*
X44908571Y-24677676D01*
X44908571Y-24677676D02*
X44813333Y-24772914D01*
X44813333Y-24772914D02*
X44718095Y-24820533D01*
X40358094Y-29599104D02*
X40834284Y-29599104D01*
X40262856Y-29884819D02*
X40596189Y-28884819D01*
X40596189Y-28884819D02*
X40929522Y-29884819D01*
X41262856Y-29218152D02*
X41262856Y-29884819D01*
X41262856Y-29313390D02*
X41310475Y-29265771D01*
X41310475Y-29265771D02*
X41405713Y-29218152D01*
X41405713Y-29218152D02*
X41548570Y-29218152D01*
X41548570Y-29218152D02*
X41643808Y-29265771D01*
X41643808Y-29265771D02*
X41691427Y-29361009D01*
X41691427Y-29361009D02*
X41691427Y-29884819D01*
X42024761Y-29218152D02*
X42405713Y-29218152D01*
X42167618Y-28884819D02*
X42167618Y-29741961D01*
X42167618Y-29741961D02*
X42215237Y-29837200D01*
X42215237Y-29837200D02*
X42310475Y-29884819D01*
X42310475Y-29884819D02*
X42405713Y-29884819D01*
X43119999Y-29837200D02*
X43024761Y-29884819D01*
X43024761Y-29884819D02*
X42834285Y-29884819D01*
X42834285Y-29884819D02*
X42739047Y-29837200D01*
X42739047Y-29837200D02*
X42691428Y-29741961D01*
X42691428Y-29741961D02*
X42691428Y-29361009D01*
X42691428Y-29361009D02*
X42739047Y-29265771D01*
X42739047Y-29265771D02*
X42834285Y-29218152D01*
X42834285Y-29218152D02*
X43024761Y-29218152D01*
X43024761Y-29218152D02*
X43119999Y-29265771D01*
X43119999Y-29265771D02*
X43167618Y-29361009D01*
X43167618Y-29361009D02*
X43167618Y-29456247D01*
X43167618Y-29456247D02*
X42691428Y-29551485D01*
X43596190Y-29218152D02*
X43596190Y-29884819D01*
X43596190Y-29313390D02*
X43643809Y-29265771D01*
X43643809Y-29265771D02*
X43739047Y-29218152D01*
X43739047Y-29218152D02*
X43881904Y-29218152D01*
X43881904Y-29218152D02*
X43977142Y-29265771D01*
X43977142Y-29265771D02*
X44024761Y-29361009D01*
X44024761Y-29361009D02*
X44024761Y-29884819D01*
X44500952Y-29218152D02*
X44500952Y-29884819D01*
X44500952Y-29313390D02*
X44548571Y-29265771D01*
X44548571Y-29265771D02*
X44643809Y-29218152D01*
X44643809Y-29218152D02*
X44786666Y-29218152D01*
X44786666Y-29218152D02*
X44881904Y-29265771D01*
X44881904Y-29265771D02*
X44929523Y-29361009D01*
X44929523Y-29361009D02*
X44929523Y-29884819D01*
X45834285Y-29884819D02*
X45834285Y-29361009D01*
X45834285Y-29361009D02*
X45786666Y-29265771D01*
X45786666Y-29265771D02*
X45691428Y-29218152D01*
X45691428Y-29218152D02*
X45500952Y-29218152D01*
X45500952Y-29218152D02*
X45405714Y-29265771D01*
X45834285Y-29837200D02*
X45739047Y-29884819D01*
X45739047Y-29884819D02*
X45500952Y-29884819D01*
X45500952Y-29884819D02*
X45405714Y-29837200D01*
X45405714Y-29837200D02*
X45358095Y-29741961D01*
X45358095Y-29741961D02*
X45358095Y-29646723D01*
X45358095Y-29646723D02*
X45405714Y-29551485D01*
X45405714Y-29551485D02*
X45500952Y-29503866D01*
X45500952Y-29503866D02*
X45739047Y-29503866D01*
X45739047Y-29503866D02*
X45834285Y-29456247D01*
X47024762Y-29599104D02*
X47500952Y-29599104D01*
X46929524Y-29884819D02*
X47262857Y-28884819D01*
X47262857Y-28884819D02*
X47596190Y-29884819D01*
X47929524Y-29884819D02*
X47929524Y-29218152D01*
X47929524Y-29408628D02*
X47977143Y-29313390D01*
X47977143Y-29313390D02*
X48024762Y-29265771D01*
X48024762Y-29265771D02*
X48120000Y-29218152D01*
X48120000Y-29218152D02*
X48215238Y-29218152D01*
X48929524Y-29837200D02*
X48834286Y-29884819D01*
X48834286Y-29884819D02*
X48643810Y-29884819D01*
X48643810Y-29884819D02*
X48548572Y-29837200D01*
X48548572Y-29837200D02*
X48500953Y-29741961D01*
X48500953Y-29741961D02*
X48500953Y-29361009D01*
X48500953Y-29361009D02*
X48548572Y-29265771D01*
X48548572Y-29265771D02*
X48643810Y-29218152D01*
X48643810Y-29218152D02*
X48834286Y-29218152D01*
X48834286Y-29218152D02*
X48929524Y-29265771D01*
X48929524Y-29265771D02*
X48977143Y-29361009D01*
X48977143Y-29361009D02*
X48977143Y-29456247D01*
X48977143Y-29456247D02*
X48500953Y-29551485D01*
X49834286Y-29884819D02*
X49834286Y-29361009D01*
X49834286Y-29361009D02*
X49786667Y-29265771D01*
X49786667Y-29265771D02*
X49691429Y-29218152D01*
X49691429Y-29218152D02*
X49500953Y-29218152D01*
X49500953Y-29218152D02*
X49405715Y-29265771D01*
X49834286Y-29837200D02*
X49739048Y-29884819D01*
X49739048Y-29884819D02*
X49500953Y-29884819D01*
X49500953Y-29884819D02*
X49405715Y-29837200D01*
X49405715Y-29837200D02*
X49358096Y-29741961D01*
X49358096Y-29741961D02*
X49358096Y-29646723D01*
X49358096Y-29646723D02*
X49405715Y-29551485D01*
X49405715Y-29551485D02*
X49500953Y-29503866D01*
X49500953Y-29503866D02*
X49739048Y-29503866D01*
X49739048Y-29503866D02*
X49834286Y-29456247D01*
%TO.C,C8*%
X29843333Y-35589580D02*
X29795714Y-35637200D01*
X29795714Y-35637200D02*
X29652857Y-35684819D01*
X29652857Y-35684819D02*
X29557619Y-35684819D01*
X29557619Y-35684819D02*
X29414762Y-35637200D01*
X29414762Y-35637200D02*
X29319524Y-35541961D01*
X29319524Y-35541961D02*
X29271905Y-35446723D01*
X29271905Y-35446723D02*
X29224286Y-35256247D01*
X29224286Y-35256247D02*
X29224286Y-35113390D01*
X29224286Y-35113390D02*
X29271905Y-34922914D01*
X29271905Y-34922914D02*
X29319524Y-34827676D01*
X29319524Y-34827676D02*
X29414762Y-34732438D01*
X29414762Y-34732438D02*
X29557619Y-34684819D01*
X29557619Y-34684819D02*
X29652857Y-34684819D01*
X29652857Y-34684819D02*
X29795714Y-34732438D01*
X29795714Y-34732438D02*
X29843333Y-34780057D01*
X30414762Y-35113390D02*
X30319524Y-35065771D01*
X30319524Y-35065771D02*
X30271905Y-35018152D01*
X30271905Y-35018152D02*
X30224286Y-34922914D01*
X30224286Y-34922914D02*
X30224286Y-34875295D01*
X30224286Y-34875295D02*
X30271905Y-34780057D01*
X30271905Y-34780057D02*
X30319524Y-34732438D01*
X30319524Y-34732438D02*
X30414762Y-34684819D01*
X30414762Y-34684819D02*
X30605238Y-34684819D01*
X30605238Y-34684819D02*
X30700476Y-34732438D01*
X30700476Y-34732438D02*
X30748095Y-34780057D01*
X30748095Y-34780057D02*
X30795714Y-34875295D01*
X30795714Y-34875295D02*
X30795714Y-34922914D01*
X30795714Y-34922914D02*
X30748095Y-35018152D01*
X30748095Y-35018152D02*
X30700476Y-35065771D01*
X30700476Y-35065771D02*
X30605238Y-35113390D01*
X30605238Y-35113390D02*
X30414762Y-35113390D01*
X30414762Y-35113390D02*
X30319524Y-35161009D01*
X30319524Y-35161009D02*
X30271905Y-35208628D01*
X30271905Y-35208628D02*
X30224286Y-35303866D01*
X30224286Y-35303866D02*
X30224286Y-35494342D01*
X30224286Y-35494342D02*
X30271905Y-35589580D01*
X30271905Y-35589580D02*
X30319524Y-35637200D01*
X30319524Y-35637200D02*
X30414762Y-35684819D01*
X30414762Y-35684819D02*
X30605238Y-35684819D01*
X30605238Y-35684819D02*
X30700476Y-35637200D01*
X30700476Y-35637200D02*
X30748095Y-35589580D01*
X30748095Y-35589580D02*
X30795714Y-35494342D01*
X30795714Y-35494342D02*
X30795714Y-35303866D01*
X30795714Y-35303866D02*
X30748095Y-35208628D01*
X30748095Y-35208628D02*
X30700476Y-35161009D01*
X30700476Y-35161009D02*
X30605238Y-35113390D01*
%TO.C,C5*%
X30593333Y-50289580D02*
X30545714Y-50337200D01*
X30545714Y-50337200D02*
X30402857Y-50384819D01*
X30402857Y-50384819D02*
X30307619Y-50384819D01*
X30307619Y-50384819D02*
X30164762Y-50337200D01*
X30164762Y-50337200D02*
X30069524Y-50241961D01*
X30069524Y-50241961D02*
X30021905Y-50146723D01*
X30021905Y-50146723D02*
X29974286Y-49956247D01*
X29974286Y-49956247D02*
X29974286Y-49813390D01*
X29974286Y-49813390D02*
X30021905Y-49622914D01*
X30021905Y-49622914D02*
X30069524Y-49527676D01*
X30069524Y-49527676D02*
X30164762Y-49432438D01*
X30164762Y-49432438D02*
X30307619Y-49384819D01*
X30307619Y-49384819D02*
X30402857Y-49384819D01*
X30402857Y-49384819D02*
X30545714Y-49432438D01*
X30545714Y-49432438D02*
X30593333Y-49480057D01*
X31498095Y-49384819D02*
X31021905Y-49384819D01*
X31021905Y-49384819D02*
X30974286Y-49861009D01*
X30974286Y-49861009D02*
X31021905Y-49813390D01*
X31021905Y-49813390D02*
X31117143Y-49765771D01*
X31117143Y-49765771D02*
X31355238Y-49765771D01*
X31355238Y-49765771D02*
X31450476Y-49813390D01*
X31450476Y-49813390D02*
X31498095Y-49861009D01*
X31498095Y-49861009D02*
X31545714Y-49956247D01*
X31545714Y-49956247D02*
X31545714Y-50194342D01*
X31545714Y-50194342D02*
X31498095Y-50289580D01*
X31498095Y-50289580D02*
X31450476Y-50337200D01*
X31450476Y-50337200D02*
X31355238Y-50384819D01*
X31355238Y-50384819D02*
X31117143Y-50384819D01*
X31117143Y-50384819D02*
X31021905Y-50337200D01*
X31021905Y-50337200D02*
X30974286Y-50289580D01*
D11*
%TO.C,J4*%
X56750000Y-54250000D02*
X56750000Y-52620000D01*
X57930000Y-54250000D02*
X56750000Y-54250000D01*
X60800000Y-52975000D02*
X60800000Y-36025000D01*
X56750000Y-34750000D02*
X56750000Y-36380000D01*
X57920000Y-34750000D02*
X56750000Y-34750000D01*
D12*
X56200000Y-52875000D02*
G75*
G03*
X56200000Y-52875000I-100000J0D01*
G01*
D13*
%TO.C,C13*%
X56538748Y-55365000D02*
X57061252Y-55365000D01*
X56538748Y-56835000D02*
X57061252Y-56835000D01*
D10*
%TO.C,U3*%
X32230000Y-40270000D02*
X32230000Y-40795000D01*
X27930000Y-40270000D02*
X28455000Y-40270000D01*
X27930000Y-40270000D02*
X27930000Y-40795000D01*
X32230000Y-44570000D02*
X32230000Y-44045000D01*
X32230000Y-44570000D02*
X31705000Y-44570000D01*
X27930000Y-44570000D02*
X27930000Y-44045000D01*
X27930000Y-44570000D02*
X28455000Y-44570000D01*
D13*
%TO.C,C6*%
X33665000Y-47088748D02*
X33665000Y-47611252D01*
X32195000Y-47088748D02*
X32195000Y-47611252D01*
%TO.C,C7*%
X28605000Y-47076248D02*
X28605000Y-47598752D01*
X27135000Y-47076248D02*
X27135000Y-47598752D01*
%TO.C,U1*%
X35620000Y-26530000D02*
X35620000Y-33325000D01*
X35620000Y-32840000D02*
X53620000Y-32840000D01*
X35620000Y-57930000D02*
X35620000Y-57575000D01*
X35620000Y-57930000D02*
X53620000Y-57930000D01*
X53620000Y-26530000D02*
X35620000Y-26530000D01*
X53620000Y-26575000D02*
X53620000Y-33325000D01*
X53620000Y-57930000D02*
X53620000Y-57575000D01*
%TO.C,C8*%
X29265000Y-37918752D02*
X29265000Y-37396248D01*
X30735000Y-37918752D02*
X30735000Y-37396248D01*
%TO.C,C5*%
X31465000Y-47076248D02*
X31465000Y-47598752D01*
X29995000Y-47076248D02*
X29995000Y-47598752D01*
%TD*%
M02*
