M48
; DRILL file {KiCad 7.0.5} date Sun Jan 26 16:56:56 2025
; FORMAT={-:-/ absolute / inch / decimal}
; #@! TF.CreationDate,2025-01-26T16:56:56+00:00
; #@! TF.GenerationSoftware,Kicad,Pcbnew,7.0.5
; #@! TF.FileFunction,Plated,1,4,PTH
FMAT,2
INCH
; #@! TA.AperFunction,Plated,PTH,ViaDrill
T1C0.0157
%
G90
G05
T1
X1.0965Y-1.9035
X1.1811Y-1.4417
X1.2098Y-1.8228
X1.2106Y-1.9035
X1.2965Y-1.905
X1.3445Y-1.5866
X1.4085Y-1.3899
X1.4114Y-2.0354
X1.4122Y-1.3374
X1.4122Y-1.4374
X1.4921Y-2.1417
X1.5157Y-2.2894
X1.6767Y-2.1358
X1.6929Y-1.4232
X1.6949Y-1.4744
X1.6976Y-1.6443
X1.7596Y-2.3
X1.7631Y-2.0654
X1.7697Y-1.7854
X1.9232Y-2.0335
X1.9233Y-1.8106
X1.9766Y-2.1827
X1.9921Y-2.0039
X2.005Y-1.8106
X2.0445Y-1.6821
X2.1004Y-1.3366
X2.1012Y-1.6874
X2.1012Y-1.9874
X2.1811Y-1.8268
X2.2252Y-2.0451
X2.2717Y-1.6398
X2.3386Y-1.9744
X2.3504Y-1.811
X2.3791Y-2.1089
X2.3799Y-1.9764
X2.4114Y-1.872
X2.4705Y-1.3898
X2.5Y-1.787
T0
M30
