%TF.GenerationSoftware,KiCad,Pcbnew,7.0.5*%
%TF.CreationDate,2024-06-09T19:34:57+01:00*%
%TF.ProjectId,smartwatch,736d6172-7477-4617-9463-682e6b696361,rev?*%
%TF.SameCoordinates,Original*%
%TF.FileFunction,Copper,L2,Inr*%
%TF.FilePolarity,Positive*%
%FSLAX46Y46*%
G04 Gerber Fmt 4.6, Leading zero omitted, Abs format (unit mm)*
G04 Created by KiCad (PCBNEW 7.0.5) date 2024-06-09 19:34:57*
%MOMM*%
%LPD*%
G01*
G04 APERTURE LIST*
%TA.AperFunction,ViaPad*%
%ADD10C,0.800000*%
%TD*%
G04 APERTURE END LIST*
D10*
%TO.N,TOUCH_RST*%
X48850000Y-51650000D03*
X59400000Y-50150000D03*
%TO.N,TOUCH_IRQ*%
X50600000Y-50900000D03*
X60450000Y-50200000D03*
%TO.N,SCR_MISO*%
X51929704Y-42724746D03*
X57700000Y-41650000D03*
%TO.N,TX*%
X53370000Y-37780000D03*
X55550000Y-29700000D03*
%TO.N,RX*%
X53272606Y-39030124D03*
X56150000Y-30950000D03*
%TO.N,DC_GND*%
X62750000Y-35300000D03*
%TO.N,SCR_DC*%
X53370000Y-42860000D03*
X55400000Y-46400000D03*
%TO.N,IO0*%
X53370000Y-50480000D03*
%TO.N,EN*%
X35870000Y-36510000D03*
%TO.N,DC_GND*%
X44950000Y-45350000D03*
X37900000Y-54400000D03*
X44782500Y-52460000D03*
X44695000Y-58420000D03*
X50205000Y-55440000D03*
X35870000Y-33970000D03*
X59700000Y-46000000D03*
X50927500Y-45990000D03*
X63500000Y-45390000D03*
X53350000Y-33950000D03*
X35850000Y-51700000D03*
X43120000Y-41765000D03*
X30000000Y-36620000D03*
X32930000Y-48387500D03*
X30750000Y-48350000D03*
X27850000Y-48350000D03*
X60430000Y-53565000D03*
%TO.N,3V3*%
X56520000Y-51945000D03*
X61250000Y-47550000D03*
X48600000Y-34850000D03*
X35776405Y-35303268D03*
X30730000Y-46300000D03*
%TD*%
%TA.AperFunction,Conductor*%
%TO.N,3V3*%
G36*
X45871797Y-22422579D02*
G01*
X46142243Y-22431620D01*
X46261525Y-22435608D01*
X46759202Y-22457644D01*
X46761184Y-22457764D01*
X47148876Y-22488058D01*
X47609146Y-22528897D01*
X47646200Y-22532185D01*
X47648258Y-22532402D01*
X48033041Y-22579792D01*
X48529026Y-22646020D01*
X48531104Y-22646334D01*
X48912220Y-22710620D01*
X49405994Y-22798938D01*
X49408009Y-22799335D01*
X49784639Y-22880268D01*
X50275268Y-22990621D01*
X50277213Y-22991094D01*
X50648477Y-23088360D01*
X51114382Y-23215042D01*
X51135112Y-23220679D01*
X51137182Y-23221280D01*
X51502131Y-23334487D01*
X51984050Y-23488719D01*
X51986038Y-23489394D01*
X52092225Y-23527598D01*
X52344145Y-23618232D01*
X52820110Y-23794123D01*
X52822153Y-23794921D01*
X52944004Y-23844996D01*
X53172525Y-23938907D01*
X53401365Y-24035182D01*
X53641842Y-24136354D01*
X53643897Y-24137263D01*
X53684750Y-24156220D01*
X53985796Y-24295920D01*
X54447616Y-24514736D01*
X54449627Y-24515735D01*
X54580498Y-24583707D01*
X54782100Y-24688416D01*
X55213493Y-24916705D01*
X55235779Y-24928499D01*
X55237766Y-24929598D01*
X55560250Y-25115784D01*
X56004817Y-25376844D01*
X56006760Y-25378034D01*
X56318482Y-25577030D01*
X56753215Y-25858893D01*
X56755053Y-25860134D01*
X57055528Y-26071362D01*
X57479439Y-26373656D01*
X57481279Y-26375021D01*
X57769636Y-26597563D01*
X58019491Y-26792969D01*
X58182129Y-26920165D01*
X58183963Y-26921657D01*
X58459494Y-27154604D01*
X58859861Y-27497316D01*
X58861628Y-27498888D01*
X59123794Y-27741367D01*
X59359982Y-27962377D01*
X59511338Y-28104007D01*
X59513043Y-28105664D01*
X59647148Y-28241272D01*
X59761179Y-28356581D01*
X60135223Y-28738992D01*
X60136882Y-28740756D01*
X60370560Y-28999123D01*
X60730327Y-29401062D01*
X60731903Y-29402895D01*
X60950466Y-29667331D01*
X61295456Y-30088890D01*
X61296977Y-30090826D01*
X61499859Y-30359851D01*
X61592714Y-30484151D01*
X61829493Y-30801116D01*
X61830938Y-30803133D01*
X62017836Y-31075396D01*
X62331412Y-31536370D01*
X62332755Y-31538431D01*
X62477382Y-31770650D01*
X62502980Y-31811751D01*
X62800197Y-32293171D01*
X62801464Y-32295319D01*
X62862438Y-32403701D01*
X62954521Y-32567378D01*
X62954425Y-32567431D01*
X62954741Y-32567768D01*
X63234931Y-33070036D01*
X63236111Y-33072256D01*
X63293513Y-33185851D01*
X63371858Y-33340891D01*
X63371759Y-33340940D01*
X63372042Y-33341255D01*
X63490901Y-33578408D01*
X63634753Y-33865427D01*
X63635852Y-33867737D01*
X63754017Y-34129988D01*
X63838182Y-34318277D01*
X63998873Y-34677768D01*
X63999876Y-34680143D01*
X64100062Y-34931870D01*
X64326598Y-35505521D01*
X64327501Y-35507956D01*
X64409368Y-35743721D01*
X64617251Y-36346976D01*
X64618042Y-36349438D01*
X64681367Y-36561915D01*
X64870276Y-37200527D01*
X64870969Y-37203070D01*
X64915364Y-37380566D01*
X64915390Y-37380781D01*
X64915416Y-37380775D01*
X65085165Y-38064467D01*
X65085750Y-38067057D01*
X65111078Y-38191663D01*
X65111095Y-38191840D01*
X65111113Y-38191837D01*
X65261492Y-38937070D01*
X65261964Y-38939702D01*
X65268286Y-38979906D01*
X65359215Y-39562338D01*
X65398546Y-39814272D01*
X65398604Y-39814638D01*
X65398965Y-39817345D01*
X65447786Y-40256880D01*
X65496605Y-40696404D01*
X65496847Y-40699136D01*
X65555506Y-41581640D01*
X65555627Y-41584380D01*
X65575194Y-42468629D01*
X65575194Y-42471371D01*
X65555627Y-43355619D01*
X65555506Y-43358359D01*
X65496847Y-44240863D01*
X65496605Y-44243595D01*
X65398967Y-45122641D01*
X65398605Y-45125350D01*
X65392924Y-45161744D01*
X65268286Y-45960094D01*
X65261964Y-46000296D01*
X65261492Y-46002928D01*
X65111198Y-46747741D01*
X65105831Y-46774151D01*
X65085750Y-46872941D01*
X65085165Y-46875531D01*
X64915390Y-47559328D01*
X64870969Y-47736928D01*
X64870276Y-47739471D01*
X64681367Y-48378084D01*
X64618042Y-48590560D01*
X64617242Y-48593051D01*
X64409368Y-49196278D01*
X64327501Y-49432042D01*
X64326598Y-49434477D01*
X64100107Y-50008015D01*
X63999876Y-50259855D01*
X63998873Y-50262230D01*
X63754099Y-50809829D01*
X63635852Y-51072261D01*
X63634753Y-51074572D01*
X63372004Y-51598818D01*
X63236123Y-51867719D01*
X63234931Y-51869962D01*
X62954680Y-52372339D01*
X62801476Y-52644657D01*
X62800197Y-52646827D01*
X62502980Y-53128247D01*
X62332777Y-53401533D01*
X62331412Y-53403628D01*
X62017836Y-53864602D01*
X61830938Y-54136865D01*
X61829493Y-54138882D01*
X61499818Y-54580202D01*
X61296977Y-54849172D01*
X61295456Y-54851108D01*
X60950466Y-55272667D01*
X60731903Y-55537103D01*
X60730311Y-55538954D01*
X60370576Y-55940858D01*
X60136882Y-56199242D01*
X60135223Y-56201006D01*
X59761179Y-56583417D01*
X59513061Y-56834316D01*
X59511338Y-56835991D01*
X59123851Y-57198578D01*
X58861628Y-57441110D01*
X58859847Y-57442694D01*
X58459507Y-57785383D01*
X58183963Y-58018341D01*
X58182129Y-58019833D01*
X57769560Y-58342495D01*
X57481309Y-58564955D01*
X57479426Y-58566352D01*
X57055478Y-58868672D01*
X56755109Y-59079826D01*
X56753182Y-59081127D01*
X56318612Y-59362885D01*
X56006767Y-59561959D01*
X56004801Y-59563163D01*
X55560279Y-59824198D01*
X55237779Y-60010393D01*
X55235779Y-60011499D01*
X54782193Y-60251533D01*
X54449627Y-60424263D01*
X54447597Y-60425271D01*
X53985707Y-60644121D01*
X53916436Y-60676266D01*
X53643897Y-60802735D01*
X53641842Y-60803644D01*
X53172575Y-61001070D01*
X52822153Y-61145077D01*
X52820078Y-61145887D01*
X52344145Y-61321766D01*
X51986050Y-61450599D01*
X51983959Y-61451310D01*
X51502279Y-61605464D01*
X51137214Y-61718708D01*
X51135112Y-61719319D01*
X50648544Y-61851620D01*
X50277294Y-61948884D01*
X50275186Y-61949397D01*
X49784662Y-62059725D01*
X49408026Y-62140659D01*
X49405917Y-62141075D01*
X48912252Y-62229373D01*
X48531109Y-62293663D01*
X48529003Y-62293981D01*
X48033064Y-62360204D01*
X47648300Y-62407591D01*
X47646200Y-62407813D01*
X47148902Y-62451937D01*
X46761273Y-62482228D01*
X46759185Y-62482355D01*
X46261521Y-62504390D01*
X45871796Y-62517421D01*
X45869724Y-62517456D01*
X45372589Y-62517456D01*
X44981682Y-62513100D01*
X44979633Y-62513044D01*
X44483884Y-62491093D01*
X44092595Y-62469274D01*
X44090568Y-62469128D01*
X43597130Y-62425347D01*
X43206364Y-62386035D01*
X43204364Y-62385801D01*
X42714221Y-62320354D01*
X42324689Y-62263542D01*
X42322720Y-62263222D01*
X41836693Y-62176291D01*
X41449338Y-62102041D01*
X41447405Y-62101638D01*
X40966385Y-61993447D01*
X40582015Y-61901846D01*
X40580120Y-61901363D01*
X40104984Y-61772171D01*
X39724449Y-61663360D01*
X39722596Y-61662798D01*
X39254250Y-61512911D01*
X38878308Y-61387046D01*
X38876500Y-61386409D01*
X38415805Y-61216161D01*
X38231240Y-61145077D01*
X38045268Y-61073451D01*
X38043508Y-61072743D01*
X37591294Y-60882491D01*
X37226967Y-60723192D01*
X37225258Y-60722414D01*
X36782363Y-60512565D01*
X36425056Y-60336979D01*
X36423401Y-60336134D01*
X35990623Y-60107114D01*
X35641040Y-59915537D01*
X35639456Y-59914639D01*
X35217614Y-59666922D01*
X35121603Y-59608600D01*
X34876505Y-59459715D01*
X34875013Y-59458778D01*
X34464921Y-59192892D01*
X34132983Y-58970428D01*
X34131503Y-58969405D01*
X33733931Y-58685894D01*
X33411896Y-58448616D01*
X33410478Y-58447539D01*
X33375265Y-58420000D01*
X43789540Y-58420000D01*
X43809326Y-58608256D01*
X43809327Y-58608259D01*
X43867818Y-58788277D01*
X43867821Y-58788284D01*
X43962467Y-58952216D01*
X44050450Y-59049931D01*
X44089129Y-59092888D01*
X44242265Y-59204148D01*
X44242270Y-59204151D01*
X44415192Y-59281142D01*
X44415197Y-59281144D01*
X44600354Y-59320500D01*
X44789644Y-59320500D01*
X44789646Y-59320500D01*
X44974803Y-59281144D01*
X45147730Y-59204151D01*
X45300871Y-59092888D01*
X45427533Y-58952216D01*
X45522179Y-58788284D01*
X45580674Y-58608256D01*
X45600460Y-58420000D01*
X45580674Y-58231744D01*
X45522179Y-58051716D01*
X45427533Y-57887784D01*
X45300871Y-57747112D01*
X45300870Y-57747111D01*
X45147734Y-57635851D01*
X45147729Y-57635848D01*
X44974807Y-57558857D01*
X44974802Y-57558855D01*
X44829001Y-57527865D01*
X44789646Y-57519500D01*
X44789645Y-57519500D01*
X44600355Y-57519500D01*
X44600354Y-57519500D01*
X44567897Y-57526398D01*
X44415197Y-57558855D01*
X44415192Y-57558857D01*
X44242270Y-57635848D01*
X44242265Y-57635851D01*
X44089129Y-57747111D01*
X43962466Y-57887785D01*
X43867821Y-58051715D01*
X43867818Y-58051722D01*
X43809327Y-58231740D01*
X43809326Y-58231744D01*
X43789540Y-58420000D01*
X33375265Y-58420000D01*
X33026153Y-58146968D01*
X32714704Y-57895336D01*
X32713350Y-57894210D01*
X32541504Y-57747111D01*
X32342912Y-57577117D01*
X32322265Y-57558857D01*
X32189127Y-57441110D01*
X32042733Y-57311639D01*
X32041445Y-57310467D01*
X31685675Y-56977560D01*
X31397358Y-56698722D01*
X31396141Y-56697512D01*
X31055640Y-56349394D01*
X30779790Y-56057733D01*
X30778642Y-56056486D01*
X30675146Y-55940858D01*
X30454088Y-55693886D01*
X30234544Y-55440000D01*
X49299540Y-55440000D01*
X49319326Y-55628256D01*
X49319327Y-55628259D01*
X49377818Y-55808277D01*
X49377821Y-55808284D01*
X49472467Y-55972216D01*
X49549467Y-56057733D01*
X49599129Y-56112888D01*
X49752265Y-56224148D01*
X49752270Y-56224151D01*
X49925192Y-56301142D01*
X49925197Y-56301144D01*
X50110354Y-56340500D01*
X50299644Y-56340500D01*
X50299646Y-56340500D01*
X50484803Y-56301144D01*
X50657730Y-56224151D01*
X50810871Y-56112888D01*
X50937533Y-55972216D01*
X51032179Y-55808284D01*
X51090674Y-55628256D01*
X51110460Y-55440000D01*
X51090674Y-55251744D01*
X51032179Y-55071716D01*
X50937533Y-54907784D01*
X50810871Y-54767112D01*
X50810870Y-54767111D01*
X50657734Y-54655851D01*
X50657729Y-54655848D01*
X50484807Y-54578857D01*
X50484802Y-54578855D01*
X50339001Y-54547865D01*
X50299646Y-54539500D01*
X50299645Y-54539500D01*
X50110355Y-54539500D01*
X50110354Y-54539500D01*
X50077897Y-54546398D01*
X49925197Y-54578855D01*
X49925192Y-54578857D01*
X49752270Y-54655848D01*
X49752265Y-54655851D01*
X49599129Y-54767111D01*
X49472466Y-54907785D01*
X49377821Y-55071715D01*
X49377818Y-55071722D01*
X49341289Y-55184148D01*
X49319326Y-55251744D01*
X49299540Y-55440000D01*
X30234544Y-55440000D01*
X30191313Y-55390006D01*
X30190230Y-55388719D01*
X30118034Y-55300500D01*
X29882198Y-55012322D01*
X29633007Y-54696767D01*
X29632057Y-54695530D01*
X29411290Y-54400000D01*
X36994540Y-54400000D01*
X37014326Y-54588256D01*
X37014327Y-54588259D01*
X37072818Y-54768277D01*
X37072821Y-54768284D01*
X37167467Y-54932216D01*
X37293073Y-55071715D01*
X37294129Y-55072888D01*
X37447265Y-55184148D01*
X37447270Y-55184151D01*
X37620192Y-55261142D01*
X37620197Y-55261144D01*
X37805354Y-55300500D01*
X37994644Y-55300500D01*
X37994646Y-55300500D01*
X38179803Y-55261144D01*
X38352730Y-55184151D01*
X38505871Y-55072888D01*
X38632533Y-54932216D01*
X38727179Y-54768284D01*
X38785674Y-54588256D01*
X38805460Y-54400000D01*
X38785674Y-54211744D01*
X38727179Y-54031716D01*
X38632533Y-53867784D01*
X38505871Y-53727112D01*
X38505870Y-53727111D01*
X38352734Y-53615851D01*
X38352729Y-53615848D01*
X38238524Y-53565000D01*
X59524540Y-53565000D01*
X59544326Y-53753256D01*
X59544327Y-53753259D01*
X59602818Y-53933277D01*
X59602821Y-53933284D01*
X59697467Y-54097216D01*
X59800585Y-54211740D01*
X59824129Y-54237888D01*
X59977265Y-54349148D01*
X59977270Y-54349151D01*
X60150192Y-54426142D01*
X60150197Y-54426144D01*
X60335354Y-54465500D01*
X60524644Y-54465500D01*
X60524646Y-54465500D01*
X60709803Y-54426144D01*
X60882730Y-54349151D01*
X61035871Y-54237888D01*
X61162533Y-54097216D01*
X61257179Y-53933284D01*
X61315674Y-53753256D01*
X61335460Y-53565000D01*
X61315674Y-53376744D01*
X61257179Y-53196716D01*
X61162533Y-53032784D01*
X61035871Y-52892112D01*
X61035870Y-52892111D01*
X60882734Y-52780851D01*
X60882729Y-52780848D01*
X60709807Y-52703857D01*
X60709802Y-52703855D01*
X60564001Y-52672865D01*
X60524646Y-52664500D01*
X60524645Y-52664500D01*
X60335355Y-52664500D01*
X60335354Y-52664500D01*
X60302897Y-52671398D01*
X60150197Y-52703855D01*
X60150192Y-52703857D01*
X59977270Y-52780848D01*
X59977265Y-52780851D01*
X59824129Y-52892111D01*
X59697466Y-53032785D01*
X59602821Y-53196715D01*
X59602818Y-53196722D01*
X59549604Y-53360500D01*
X59544326Y-53376744D01*
X59524540Y-53565000D01*
X38238524Y-53565000D01*
X38179807Y-53538857D01*
X38179802Y-53538855D01*
X38034001Y-53507865D01*
X37994646Y-53499500D01*
X37994645Y-53499500D01*
X37805355Y-53499500D01*
X37805354Y-53499500D01*
X37772897Y-53506398D01*
X37620197Y-53538855D01*
X37620192Y-53538857D01*
X37447270Y-53615848D01*
X37447265Y-53615851D01*
X37294129Y-53727111D01*
X37167466Y-53867785D01*
X37072821Y-54031715D01*
X37072818Y-54031722D01*
X37038000Y-54138882D01*
X37014326Y-54211744D01*
X36994540Y-54400000D01*
X29411290Y-54400000D01*
X29341084Y-54306019D01*
X29106099Y-53979540D01*
X29105156Y-53978193D01*
X28831833Y-53576392D01*
X28717445Y-53401533D01*
X28611486Y-53239558D01*
X28610665Y-53238266D01*
X28355478Y-52824923D01*
X28199240Y-52561142D01*
X28150214Y-52478371D01*
X28149474Y-52477084D01*
X27912900Y-52053002D01*
X27724533Y-51700000D01*
X34944540Y-51700000D01*
X34964326Y-51888256D01*
X34964327Y-51888259D01*
X35022818Y-52068277D01*
X35022821Y-52068284D01*
X35117467Y-52232216D01*
X35199109Y-52322888D01*
X35244129Y-52372888D01*
X35397265Y-52484148D01*
X35397270Y-52484151D01*
X35570192Y-52561142D01*
X35570197Y-52561144D01*
X35755354Y-52600500D01*
X35944644Y-52600500D01*
X35944646Y-52600500D01*
X36129803Y-52561144D01*
X36302730Y-52484151D01*
X36335971Y-52460000D01*
X43877040Y-52460000D01*
X43896826Y-52648256D01*
X43896827Y-52648259D01*
X43955318Y-52828277D01*
X43955321Y-52828284D01*
X44049967Y-52992216D01*
X44086495Y-53032784D01*
X44176629Y-53132888D01*
X44329765Y-53244148D01*
X44329770Y-53244151D01*
X44502692Y-53321142D01*
X44502697Y-53321144D01*
X44687854Y-53360500D01*
X44877144Y-53360500D01*
X44877146Y-53360500D01*
X45062303Y-53321144D01*
X45235230Y-53244151D01*
X45388371Y-53132888D01*
X45515033Y-52992216D01*
X45609679Y-52828284D01*
X45668174Y-52648256D01*
X45687960Y-52460000D01*
X45668174Y-52271744D01*
X45609679Y-52091716D01*
X45515033Y-51927784D01*
X45388371Y-51787112D01*
X45388370Y-51787111D01*
X45235234Y-51675851D01*
X45235229Y-51675848D01*
X45177174Y-51650000D01*
X47944540Y-51650000D01*
X47964326Y-51838256D01*
X47964327Y-51838259D01*
X48022818Y-52018277D01*
X48022821Y-52018284D01*
X48117467Y-52182216D01*
X48198075Y-52271740D01*
X48244129Y-52322888D01*
X48397265Y-52434148D01*
X48397270Y-52434151D01*
X48570192Y-52511142D01*
X48570197Y-52511144D01*
X48755354Y-52550500D01*
X48944644Y-52550500D01*
X48944646Y-52550500D01*
X49129803Y-52511144D01*
X49302730Y-52434151D01*
X49455871Y-52322888D01*
X49582533Y-52182216D01*
X49677179Y-52018284D01*
X49735674Y-51838256D01*
X49755460Y-51650000D01*
X49754634Y-51642142D01*
X49767201Y-51573413D01*
X49814931Y-51522388D01*
X49882671Y-51505268D01*
X49948913Y-51527488D01*
X49970103Y-51546205D01*
X49994128Y-51572887D01*
X49994129Y-51572888D01*
X50147265Y-51684148D01*
X50147270Y-51684151D01*
X50320192Y-51761142D01*
X50320197Y-51761144D01*
X50505354Y-51800500D01*
X50694644Y-51800500D01*
X50694646Y-51800500D01*
X50879803Y-51761144D01*
X51052730Y-51684151D01*
X51205871Y-51572888D01*
X51332533Y-51432216D01*
X51427179Y-51268284D01*
X51485674Y-51088256D01*
X51505460Y-50900000D01*
X51485674Y-50711744D01*
X51427179Y-50531716D01*
X51397321Y-50480000D01*
X52464540Y-50480000D01*
X52484326Y-50668256D01*
X52484327Y-50668259D01*
X52542818Y-50848277D01*
X52542821Y-50848284D01*
X52637467Y-51012216D01*
X52732521Y-51117784D01*
X52764129Y-51152888D01*
X52917265Y-51264148D01*
X52917270Y-51264151D01*
X53090192Y-51341142D01*
X53090197Y-51341144D01*
X53275354Y-51380500D01*
X53464644Y-51380500D01*
X53464646Y-51380500D01*
X53649803Y-51341144D01*
X53822730Y-51264151D01*
X53975871Y-51152888D01*
X54102533Y-51012216D01*
X54197179Y-50848284D01*
X54255674Y-50668256D01*
X54275460Y-50480000D01*
X54255674Y-50291744D01*
X54209618Y-50150000D01*
X58494540Y-50150000D01*
X58514326Y-50338256D01*
X58514327Y-50338259D01*
X58572818Y-50518277D01*
X58572821Y-50518284D01*
X58667467Y-50682216D01*
X58763487Y-50788857D01*
X58794129Y-50822888D01*
X58947265Y-50934148D01*
X58947270Y-50934151D01*
X59120192Y-51011142D01*
X59120197Y-51011144D01*
X59305354Y-51050500D01*
X59494644Y-51050500D01*
X59494646Y-51050500D01*
X59679803Y-51011144D01*
X59834276Y-50942367D01*
X59903527Y-50933082D01*
X59957599Y-50955328D01*
X59997271Y-50984152D01*
X60170192Y-51061142D01*
X60170197Y-51061144D01*
X60355354Y-51100500D01*
X60544644Y-51100500D01*
X60544646Y-51100500D01*
X60729803Y-51061144D01*
X60902730Y-50984151D01*
X61055871Y-50872888D01*
X61182533Y-50732216D01*
X61277179Y-50568284D01*
X61335674Y-50388256D01*
X61355460Y-50200000D01*
X61335674Y-50011744D01*
X61277179Y-49831716D01*
X61182533Y-49667784D01*
X61055871Y-49527112D01*
X60987052Y-49477112D01*
X60902734Y-49415851D01*
X60902729Y-49415848D01*
X60729807Y-49338857D01*
X60729802Y-49338855D01*
X60584001Y-49307865D01*
X60544646Y-49299500D01*
X60544645Y-49299500D01*
X60355355Y-49299500D01*
X60355354Y-49299500D01*
X60322897Y-49306398D01*
X60170197Y-49338855D01*
X60170192Y-49338857D01*
X60015722Y-49407633D01*
X59946472Y-49416918D01*
X59892401Y-49394671D01*
X59852730Y-49365849D01*
X59852729Y-49365848D01*
X59679807Y-49288857D01*
X59679802Y-49288855D01*
X59534001Y-49257865D01*
X59494646Y-49249500D01*
X59494645Y-49249500D01*
X59305355Y-49249500D01*
X59305354Y-49249500D01*
X59272897Y-49256398D01*
X59120197Y-49288855D01*
X59120192Y-49288857D01*
X58947270Y-49365848D01*
X58947265Y-49365851D01*
X58794129Y-49477111D01*
X58667466Y-49617785D01*
X58572821Y-49781715D01*
X58572818Y-49781722D01*
X58514327Y-49961740D01*
X58514326Y-49961744D01*
X58494540Y-50150000D01*
X54209618Y-50150000D01*
X54197179Y-50111716D01*
X54102533Y-49947784D01*
X53975871Y-49807112D01*
X53940925Y-49781722D01*
X53822734Y-49695851D01*
X53822729Y-49695848D01*
X53649807Y-49618857D01*
X53649802Y-49618855D01*
X53504000Y-49587865D01*
X53464646Y-49579500D01*
X53464645Y-49579500D01*
X53275355Y-49579500D01*
X53275354Y-49579500D01*
X53242897Y-49586398D01*
X53090197Y-49618855D01*
X53090192Y-49618857D01*
X52917270Y-49695848D01*
X52917265Y-49695851D01*
X52764129Y-49807111D01*
X52637466Y-49947785D01*
X52542821Y-50111715D01*
X52542818Y-50111722D01*
X52484327Y-50291740D01*
X52484326Y-50291744D01*
X52464540Y-50480000D01*
X51397321Y-50480000D01*
X51332533Y-50367784D01*
X51205871Y-50227112D01*
X51205870Y-50227111D01*
X51052734Y-50115851D01*
X51052729Y-50115848D01*
X50879807Y-50038857D01*
X50879802Y-50038855D01*
X50734001Y-50007865D01*
X50694646Y-49999500D01*
X50694645Y-49999500D01*
X50505355Y-49999500D01*
X50505354Y-49999500D01*
X50472897Y-50006398D01*
X50320197Y-50038855D01*
X50320192Y-50038857D01*
X50147270Y-50115848D01*
X50147265Y-50115851D01*
X49994129Y-50227111D01*
X49867466Y-50367785D01*
X49772821Y-50531715D01*
X49772818Y-50531722D01*
X49728456Y-50668256D01*
X49714326Y-50711744D01*
X49694701Y-50898468D01*
X49694540Y-50900002D01*
X49695366Y-50907863D01*
X49682795Y-50976592D01*
X49635061Y-51027615D01*
X49567321Y-51044731D01*
X49501080Y-51022507D01*
X49479896Y-51003794D01*
X49455871Y-50977112D01*
X49455870Y-50977111D01*
X49302734Y-50865851D01*
X49302729Y-50865848D01*
X49129807Y-50788857D01*
X49129802Y-50788855D01*
X48984000Y-50757865D01*
X48944646Y-50749500D01*
X48944645Y-50749500D01*
X48755355Y-50749500D01*
X48755354Y-50749500D01*
X48722897Y-50756398D01*
X48570197Y-50788855D01*
X48570192Y-50788857D01*
X48397270Y-50865848D01*
X48397265Y-50865851D01*
X48244129Y-50977111D01*
X48117466Y-51117785D01*
X48022821Y-51281715D01*
X48022818Y-51281722D01*
X47973921Y-51432214D01*
X47964326Y-51461744D01*
X47944540Y-51650000D01*
X45177174Y-51650000D01*
X45062307Y-51598857D01*
X45062302Y-51598855D01*
X44916501Y-51567865D01*
X44877146Y-51559500D01*
X44877145Y-51559500D01*
X44687855Y-51559500D01*
X44687854Y-51559500D01*
X44655397Y-51566398D01*
X44502697Y-51598855D01*
X44502692Y-51598857D01*
X44329770Y-51675848D01*
X44329765Y-51675851D01*
X44176629Y-51787111D01*
X44049966Y-51927785D01*
X43955321Y-52091715D01*
X43955318Y-52091722D01*
X43896827Y-52271740D01*
X43896826Y-52271744D01*
X43877040Y-52460000D01*
X36335971Y-52460000D01*
X36455871Y-52372888D01*
X36582533Y-52232216D01*
X36677179Y-52068284D01*
X36735674Y-51888256D01*
X36755460Y-51700000D01*
X36735674Y-51511744D01*
X36677179Y-51331716D01*
X36582533Y-51167784D01*
X36455871Y-51027112D01*
X36449533Y-51022507D01*
X36302734Y-50915851D01*
X36302729Y-50915848D01*
X36129807Y-50838857D01*
X36129802Y-50838855D01*
X35984000Y-50807865D01*
X35944646Y-50799500D01*
X35944645Y-50799500D01*
X35755355Y-50799500D01*
X35755354Y-50799500D01*
X35722897Y-50806398D01*
X35570197Y-50838855D01*
X35570192Y-50838857D01*
X35397270Y-50915848D01*
X35397265Y-50915851D01*
X35244129Y-51027111D01*
X35117466Y-51167785D01*
X35022821Y-51331715D01*
X35022818Y-51331722D01*
X34990166Y-51432216D01*
X34964326Y-51511744D01*
X34944540Y-51700000D01*
X27724533Y-51700000D01*
X27723204Y-51697509D01*
X27722504Y-51696158D01*
X27539849Y-51331716D01*
X27505025Y-51262233D01*
X27331268Y-50898468D01*
X27330611Y-50897046D01*
X27304600Y-50838855D01*
X27132599Y-50454065D01*
X26975155Y-50082766D01*
X26974606Y-50081424D01*
X26866279Y-49807111D01*
X26796424Y-49630219D01*
X26655621Y-49252129D01*
X26655137Y-49250780D01*
X26497109Y-48792202D01*
X26485367Y-48755784D01*
X26373271Y-48408156D01*
X26372831Y-48406733D01*
X26367142Y-48387500D01*
X26356049Y-48350000D01*
X26944540Y-48350000D01*
X26964326Y-48538256D01*
X26964327Y-48538259D01*
X27022818Y-48718277D01*
X27022821Y-48718284D01*
X27117467Y-48882216D01*
X27244128Y-49022888D01*
X27244129Y-49022888D01*
X27397265Y-49134148D01*
X27397270Y-49134151D01*
X27570192Y-49211142D01*
X27570197Y-49211144D01*
X27755354Y-49250500D01*
X27944644Y-49250500D01*
X27944646Y-49250500D01*
X28129803Y-49211144D01*
X28302730Y-49134151D01*
X28455871Y-49022888D01*
X28582533Y-48882216D01*
X28677179Y-48718284D01*
X28735674Y-48538256D01*
X28755460Y-48350000D01*
X29844540Y-48350000D01*
X29864326Y-48538256D01*
X29864327Y-48538259D01*
X29922818Y-48718277D01*
X29922821Y-48718284D01*
X30017467Y-48882216D01*
X30144128Y-49022888D01*
X30144129Y-49022888D01*
X30297265Y-49134148D01*
X30297270Y-49134151D01*
X30470192Y-49211142D01*
X30470197Y-49211144D01*
X30655354Y-49250500D01*
X30844644Y-49250500D01*
X30844646Y-49250500D01*
X31029803Y-49211144D01*
X31202730Y-49134151D01*
X31355871Y-49022888D01*
X31482533Y-48882216D01*
X31577179Y-48718284D01*
X31635674Y-48538256D01*
X31651519Y-48387500D01*
X32024540Y-48387500D01*
X32044326Y-48575756D01*
X32044327Y-48575759D01*
X32102818Y-48755777D01*
X32102821Y-48755784D01*
X32197467Y-48919716D01*
X32290364Y-49022888D01*
X32324129Y-49060388D01*
X32477265Y-49171648D01*
X32477270Y-49171651D01*
X32650192Y-49248642D01*
X32650197Y-49248644D01*
X32835354Y-49288000D01*
X33024644Y-49288000D01*
X33024646Y-49288000D01*
X33209803Y-49248644D01*
X33382730Y-49171651D01*
X33535871Y-49060388D01*
X33662533Y-48919716D01*
X33757179Y-48755784D01*
X33815674Y-48575756D01*
X33835460Y-48387500D01*
X33815674Y-48199244D01*
X33757179Y-48019216D01*
X33662533Y-47855284D01*
X33535871Y-47714612D01*
X33535870Y-47714611D01*
X33382734Y-47603351D01*
X33382729Y-47603348D01*
X33209807Y-47526357D01*
X33209802Y-47526355D01*
X33064001Y-47495365D01*
X33024646Y-47487000D01*
X33024645Y-47487000D01*
X32835355Y-47487000D01*
X32835354Y-47487000D01*
X32802897Y-47493898D01*
X32650197Y-47526355D01*
X32650192Y-47526357D01*
X32477270Y-47603348D01*
X32477265Y-47603351D01*
X32324129Y-47714611D01*
X32197466Y-47855285D01*
X32102821Y-48019215D01*
X32102818Y-48019222D01*
X32044327Y-48199240D01*
X32044326Y-48199244D01*
X32024540Y-48387500D01*
X31651519Y-48387500D01*
X31655460Y-48350000D01*
X31635674Y-48161744D01*
X31577179Y-47981716D01*
X31482533Y-47817784D01*
X31355871Y-47677112D01*
X31355870Y-47677111D01*
X31202734Y-47565851D01*
X31202729Y-47565848D01*
X31029807Y-47488857D01*
X31029802Y-47488855D01*
X30884000Y-47457865D01*
X30844646Y-47449500D01*
X30844645Y-47449500D01*
X30655355Y-47449500D01*
X30655354Y-47449500D01*
X30622897Y-47456398D01*
X30470197Y-47488855D01*
X30470192Y-47488857D01*
X30297270Y-47565848D01*
X30297265Y-47565851D01*
X30144129Y-47677111D01*
X30017466Y-47817785D01*
X29922821Y-47981715D01*
X29922818Y-47981722D01*
X29910636Y-48019216D01*
X29864326Y-48161744D01*
X29844540Y-48350000D01*
X28755460Y-48350000D01*
X28735674Y-48161744D01*
X28677179Y-47981716D01*
X28582533Y-47817784D01*
X28455871Y-47677112D01*
X28455870Y-47677111D01*
X28302734Y-47565851D01*
X28302729Y-47565848D01*
X28129807Y-47488857D01*
X28129802Y-47488855D01*
X27984001Y-47457865D01*
X27944646Y-47449500D01*
X27944645Y-47449500D01*
X27755355Y-47449500D01*
X27755354Y-47449500D01*
X27722897Y-47456398D01*
X27570197Y-47488855D01*
X27570192Y-47488857D01*
X27397270Y-47565848D01*
X27397265Y-47565851D01*
X27244129Y-47677111D01*
X27117466Y-47817785D01*
X27022821Y-47981715D01*
X27022818Y-47981722D01*
X27010636Y-48019216D01*
X26964326Y-48161744D01*
X26944540Y-48350000D01*
X26356049Y-48350000D01*
X26235428Y-47942240D01*
X26235138Y-47941219D01*
X26128615Y-47552349D01*
X26128294Y-47551119D01*
X26011576Y-47081019D01*
X26011323Y-47079949D01*
X25922238Y-46686758D01*
X25921930Y-46685321D01*
X25902344Y-46588259D01*
X25826159Y-46210714D01*
X25825954Y-46209639D01*
X25754423Y-45812595D01*
X25754227Y-45811429D01*
X25682190Y-45350000D01*
X44044540Y-45350000D01*
X44064326Y-45538256D01*
X44064327Y-45538259D01*
X44122818Y-45718277D01*
X44122821Y-45718284D01*
X44217467Y-45882216D01*
X44323787Y-46000296D01*
X44344129Y-46022888D01*
X44497265Y-46134148D01*
X44497270Y-46134151D01*
X44670192Y-46211142D01*
X44670197Y-46211144D01*
X44855354Y-46250500D01*
X45044644Y-46250500D01*
X45044646Y-46250500D01*
X45229803Y-46211144D01*
X45402730Y-46134151D01*
X45555871Y-46022888D01*
X45585484Y-45990000D01*
X50022040Y-45990000D01*
X50041826Y-46178256D01*
X50041827Y-46178259D01*
X50100318Y-46358277D01*
X50100321Y-46358284D01*
X50194967Y-46522216D01*
X50254430Y-46588256D01*
X50321629Y-46662888D01*
X50474765Y-46774148D01*
X50474770Y-46774151D01*
X50647692Y-46851142D01*
X50647697Y-46851144D01*
X50832854Y-46890500D01*
X51022144Y-46890500D01*
X51022146Y-46890500D01*
X51207303Y-46851144D01*
X51380230Y-46774151D01*
X51533371Y-46662888D01*
X51660033Y-46522216D01*
X51730594Y-46400000D01*
X54494540Y-46400000D01*
X54514326Y-46588256D01*
X54514327Y-46588259D01*
X54572818Y-46768277D01*
X54572821Y-46768284D01*
X54667467Y-46932216D01*
X54794129Y-47072888D01*
X54947265Y-47184148D01*
X54947270Y-47184151D01*
X55120192Y-47261142D01*
X55120197Y-47261144D01*
X55305354Y-47300500D01*
X55494644Y-47300500D01*
X55494646Y-47300500D01*
X55679803Y-47261144D01*
X55852730Y-47184151D01*
X56005871Y-47072888D01*
X56132533Y-46932216D01*
X56227179Y-46768284D01*
X56285674Y-46588256D01*
X56305460Y-46400000D01*
X56285674Y-46211744D01*
X56227179Y-46031716D01*
X56208868Y-46000000D01*
X58794540Y-46000000D01*
X58814326Y-46188256D01*
X58814327Y-46188259D01*
X58872818Y-46368277D01*
X58872821Y-46368284D01*
X58967467Y-46532216D01*
X59085125Y-46662888D01*
X59094129Y-46672888D01*
X59247265Y-46784148D01*
X59247270Y-46784151D01*
X59420192Y-46861142D01*
X59420197Y-46861144D01*
X59605354Y-46900500D01*
X59794644Y-46900500D01*
X59794646Y-46900500D01*
X59979803Y-46861144D01*
X60152730Y-46784151D01*
X60305871Y-46672888D01*
X60432533Y-46532216D01*
X60527179Y-46368284D01*
X60585674Y-46188256D01*
X60605460Y-46000000D01*
X60585674Y-45811744D01*
X60527179Y-45631716D01*
X60432533Y-45467784D01*
X60362496Y-45390000D01*
X62594540Y-45390000D01*
X62614326Y-45578256D01*
X62614327Y-45578259D01*
X62672818Y-45758277D01*
X62672821Y-45758284D01*
X62767467Y-45922216D01*
X62838972Y-46001630D01*
X62894129Y-46062888D01*
X63047265Y-46174148D01*
X63047270Y-46174151D01*
X63220192Y-46251142D01*
X63220197Y-46251144D01*
X63405354Y-46290500D01*
X63594644Y-46290500D01*
X63594646Y-46290500D01*
X63779803Y-46251144D01*
X63952730Y-46174151D01*
X64105871Y-46062888D01*
X64232533Y-45922216D01*
X64327179Y-45758284D01*
X64385674Y-45578256D01*
X64405460Y-45390000D01*
X64385674Y-45201744D01*
X64327179Y-45021716D01*
X64232533Y-44857784D01*
X64105871Y-44717112D01*
X64050816Y-44677112D01*
X63952734Y-44605851D01*
X63952729Y-44605848D01*
X63779807Y-44528857D01*
X63779802Y-44528855D01*
X63634001Y-44497865D01*
X63594646Y-44489500D01*
X63594645Y-44489500D01*
X63405355Y-44489500D01*
X63405354Y-44489500D01*
X63372897Y-44496398D01*
X63220197Y-44528855D01*
X63220192Y-44528857D01*
X63047270Y-44605848D01*
X63047265Y-44605851D01*
X62894129Y-44717111D01*
X62767466Y-44857785D01*
X62672821Y-45021715D01*
X62672818Y-45021722D01*
X62614327Y-45201740D01*
X62614326Y-45201744D01*
X62594540Y-45390000D01*
X60362496Y-45390000D01*
X60305871Y-45327112D01*
X60305870Y-45327111D01*
X60152734Y-45215851D01*
X60152729Y-45215848D01*
X59979807Y-45138857D01*
X59979802Y-45138855D01*
X59834000Y-45107865D01*
X59794646Y-45099500D01*
X59794645Y-45099500D01*
X59605355Y-45099500D01*
X59605354Y-45099500D01*
X59572897Y-45106398D01*
X59420197Y-45138855D01*
X59420192Y-45138857D01*
X59247270Y-45215848D01*
X59247265Y-45215851D01*
X59094129Y-45327111D01*
X58967466Y-45467785D01*
X58872821Y-45631715D01*
X58872818Y-45631722D01*
X58817575Y-45801744D01*
X58814326Y-45811744D01*
X58794540Y-46000000D01*
X56208868Y-46000000D01*
X56132533Y-45867784D01*
X56005871Y-45727112D01*
X56005870Y-45727111D01*
X55852734Y-45615851D01*
X55852729Y-45615848D01*
X55679807Y-45538857D01*
X55679802Y-45538855D01*
X55534001Y-45507865D01*
X55494646Y-45499500D01*
X55494645Y-45499500D01*
X55305355Y-45499500D01*
X55305354Y-45499500D01*
X55272897Y-45506398D01*
X55120197Y-45538855D01*
X55120192Y-45538857D01*
X54947270Y-45615848D01*
X54947265Y-45615851D01*
X54794129Y-45727111D01*
X54667466Y-45867785D01*
X54572821Y-46031715D01*
X54572818Y-46031722D01*
X54514521Y-46211144D01*
X54514326Y-46211744D01*
X54494540Y-46400000D01*
X51730594Y-46400000D01*
X51754679Y-46358284D01*
X51813174Y-46178256D01*
X51832960Y-45990000D01*
X51813174Y-45801744D01*
X51754679Y-45621716D01*
X51660033Y-45457784D01*
X51533371Y-45317112D01*
X51533370Y-45317111D01*
X51380234Y-45205851D01*
X51380229Y-45205848D01*
X51207307Y-45128857D01*
X51207302Y-45128855D01*
X51061500Y-45097865D01*
X51022146Y-45089500D01*
X51022145Y-45089500D01*
X50832855Y-45089500D01*
X50832854Y-45089500D01*
X50800397Y-45096398D01*
X50647697Y-45128855D01*
X50647692Y-45128857D01*
X50474770Y-45205848D01*
X50474765Y-45205851D01*
X50321629Y-45317111D01*
X50194966Y-45457785D01*
X50100321Y-45621715D01*
X50100318Y-45621722D01*
X50055949Y-45758277D01*
X50041826Y-45801744D01*
X50022040Y-45990000D01*
X45585484Y-45990000D01*
X45682533Y-45882216D01*
X45777179Y-45718284D01*
X45835674Y-45538256D01*
X45855460Y-45350000D01*
X45835674Y-45161744D01*
X45777179Y-44981716D01*
X45682533Y-44817784D01*
X45555871Y-44677112D01*
X45555870Y-44677111D01*
X45402734Y-44565851D01*
X45402729Y-44565848D01*
X45229807Y-44488857D01*
X45229802Y-44488855D01*
X45084000Y-44457865D01*
X45044646Y-44449500D01*
X45044645Y-44449500D01*
X44855355Y-44449500D01*
X44855354Y-44449500D01*
X44822897Y-44456398D01*
X44670197Y-44488855D01*
X44670192Y-44488857D01*
X44497270Y-44565848D01*
X44497265Y-44565851D01*
X44344129Y-44677111D01*
X44217466Y-44817785D01*
X44122821Y-44981715D01*
X44122818Y-44981722D01*
X44071762Y-45138857D01*
X44064326Y-45161744D01*
X44044540Y-45350000D01*
X25682190Y-45350000D01*
X25679549Y-45333082D01*
X25679367Y-45331830D01*
X25625597Y-44932017D01*
X25625451Y-44930827D01*
X25572008Y-44449678D01*
X25571890Y-44448498D01*
X25535987Y-44046717D01*
X25535879Y-44045321D01*
X25531259Y-43975824D01*
X25503773Y-43562304D01*
X25503712Y-43561209D01*
X25485739Y-43158141D01*
X25485698Y-43156912D01*
X25476136Y-42724746D01*
X51024244Y-42724746D01*
X51044030Y-42913002D01*
X51044031Y-42913005D01*
X51102522Y-43093023D01*
X51102525Y-43093030D01*
X51197171Y-43256962D01*
X51288470Y-43358359D01*
X51323833Y-43397634D01*
X51476969Y-43508894D01*
X51476974Y-43508897D01*
X51649896Y-43585888D01*
X51649901Y-43585890D01*
X51835058Y-43625246D01*
X52024348Y-43625246D01*
X52024350Y-43625246D01*
X52209507Y-43585890D01*
X52382434Y-43508897D01*
X52509797Y-43416362D01*
X52575599Y-43392884D01*
X52643653Y-43408709D01*
X52674827Y-43433708D01*
X52742525Y-43508894D01*
X52764129Y-43532888D01*
X52917265Y-43644148D01*
X52917270Y-43644151D01*
X53090192Y-43721142D01*
X53090197Y-43721144D01*
X53275354Y-43760500D01*
X53464644Y-43760500D01*
X53464646Y-43760500D01*
X53649803Y-43721144D01*
X53822730Y-43644151D01*
X53975871Y-43532888D01*
X54102533Y-43392216D01*
X54197179Y-43228284D01*
X54255674Y-43048256D01*
X54275460Y-42860000D01*
X54255674Y-42671744D01*
X54197179Y-42491716D01*
X54102533Y-42327784D01*
X53975871Y-42187112D01*
X53975870Y-42187111D01*
X53822734Y-42075851D01*
X53822729Y-42075848D01*
X53649807Y-41998857D01*
X53649802Y-41998855D01*
X53488169Y-41964500D01*
X53464646Y-41959500D01*
X53464645Y-41959500D01*
X53275355Y-41959500D01*
X53275354Y-41959500D01*
X53251831Y-41964500D01*
X53090197Y-41998855D01*
X53090192Y-41998857D01*
X52917271Y-42075848D01*
X52789909Y-42168381D01*
X52724102Y-42191860D01*
X52656048Y-42176034D01*
X52624874Y-42151034D01*
X52535574Y-42051857D01*
X52382438Y-41940597D01*
X52382433Y-41940594D01*
X52209511Y-41863603D01*
X52209506Y-41863601D01*
X52063705Y-41832611D01*
X52024350Y-41824246D01*
X52024349Y-41824246D01*
X51835059Y-41824246D01*
X51835058Y-41824246D01*
X51802601Y-41831144D01*
X51649901Y-41863601D01*
X51649896Y-41863603D01*
X51476974Y-41940594D01*
X51476969Y-41940597D01*
X51323833Y-42051857D01*
X51197170Y-42192531D01*
X51102525Y-42356461D01*
X51102522Y-42356468D01*
X51058578Y-42491715D01*
X51044030Y-42536490D01*
X51029815Y-42671740D01*
X51025990Y-42708138D01*
X51024244Y-42724746D01*
X25476136Y-42724746D01*
X25475769Y-42708140D01*
X25474991Y-42672993D01*
X25474976Y-42671622D01*
X25474976Y-42268376D01*
X25474991Y-42267005D01*
X25478013Y-42130406D01*
X25485698Y-41783082D01*
X25485739Y-41781863D01*
X25486491Y-41765000D01*
X42214540Y-41765000D01*
X42234326Y-41953256D01*
X42234327Y-41953259D01*
X42292818Y-42133277D01*
X42292821Y-42133284D01*
X42387467Y-42297216D01*
X42510764Y-42434151D01*
X42514129Y-42437888D01*
X42667265Y-42549148D01*
X42667270Y-42549151D01*
X42840192Y-42626142D01*
X42840197Y-42626144D01*
X43025354Y-42665500D01*
X43214644Y-42665500D01*
X43214646Y-42665500D01*
X43399803Y-42626144D01*
X43572730Y-42549151D01*
X43725871Y-42437888D01*
X43852533Y-42297216D01*
X43947179Y-42133284D01*
X44005674Y-41953256D01*
X44025460Y-41765000D01*
X44013373Y-41650000D01*
X56794540Y-41650000D01*
X56814326Y-41838256D01*
X56814327Y-41838259D01*
X56872818Y-42018277D01*
X56872821Y-42018284D01*
X56967467Y-42182216D01*
X57035865Y-42258179D01*
X57094129Y-42322888D01*
X57247265Y-42434148D01*
X57247270Y-42434151D01*
X57420192Y-42511142D01*
X57420197Y-42511144D01*
X57605354Y-42550500D01*
X57794644Y-42550500D01*
X57794646Y-42550500D01*
X57795046Y-42550415D01*
X60645773Y-42550415D01*
X60655696Y-42708137D01*
X60655696Y-42708140D01*
X60680614Y-42784828D01*
X60704533Y-42858441D01*
X60789214Y-42991877D01*
X60904418Y-43100062D01*
X60904420Y-43100063D01*
X60904422Y-43100065D01*
X61042904Y-43176195D01*
X61042908Y-43176197D01*
X61195981Y-43215500D01*
X61314348Y-43215500D01*
X61314350Y-43215500D01*
X61314355Y-43215499D01*
X61314359Y-43215499D01*
X61327088Y-43213890D01*
X61431792Y-43200664D01*
X61578732Y-43142486D01*
X61637124Y-43100062D01*
X61706583Y-43049597D01*
X61706584Y-43049596D01*
X61706583Y-43049596D01*
X61706587Y-43049594D01*
X61807324Y-42927823D01*
X61874614Y-42784826D01*
X61904227Y-42629588D01*
X61899246Y-42550415D01*
X63395773Y-42550415D01*
X63405696Y-42708137D01*
X63405696Y-42708140D01*
X63430614Y-42784828D01*
X63454533Y-42858441D01*
X63539214Y-42991877D01*
X63654418Y-43100062D01*
X63654420Y-43100063D01*
X63654422Y-43100065D01*
X63792904Y-43176195D01*
X63792908Y-43176197D01*
X63945981Y-43215500D01*
X64064348Y-43215500D01*
X64064350Y-43215500D01*
X64064355Y-43215499D01*
X64064359Y-43215499D01*
X64077088Y-43213890D01*
X64181792Y-43200664D01*
X64328732Y-43142486D01*
X64387124Y-43100062D01*
X64456583Y-43049597D01*
X64456584Y-43049596D01*
X64456583Y-43049596D01*
X64456587Y-43049594D01*
X64557324Y-42927823D01*
X64624614Y-42784826D01*
X64654227Y-42629588D01*
X64644304Y-42471862D01*
X64595467Y-42321559D01*
X64510786Y-42188123D01*
X64395582Y-42079938D01*
X64395579Y-42079936D01*
X64395577Y-42079934D01*
X64257095Y-42003804D01*
X64257087Y-42003801D01*
X64104021Y-41964500D01*
X64104019Y-41964500D01*
X63985650Y-41964500D01*
X63985640Y-41964500D01*
X63868208Y-41979336D01*
X63868206Y-41979336D01*
X63721269Y-42037513D01*
X63721260Y-42037518D01*
X63593416Y-42130402D01*
X63593415Y-42130403D01*
X63492674Y-42252178D01*
X63425387Y-42395171D01*
X63425385Y-42395174D01*
X63410757Y-42471862D01*
X63395773Y-42550412D01*
X63395773Y-42550414D01*
X63395773Y-42550415D01*
X61899246Y-42550415D01*
X61894304Y-42471862D01*
X61845467Y-42321559D01*
X61760786Y-42188123D01*
X61645582Y-42079938D01*
X61645579Y-42079936D01*
X61645577Y-42079934D01*
X61507095Y-42003804D01*
X61507087Y-42003801D01*
X61354021Y-41964500D01*
X61354019Y-41964500D01*
X61235650Y-41964500D01*
X61235640Y-41964500D01*
X61118208Y-41979336D01*
X61118206Y-41979336D01*
X60971269Y-42037513D01*
X60971260Y-42037518D01*
X60843416Y-42130402D01*
X60843415Y-42130403D01*
X60742674Y-42252178D01*
X60675387Y-42395171D01*
X60675385Y-42395174D01*
X60660757Y-42471862D01*
X60645773Y-42550412D01*
X60645773Y-42550414D01*
X60645773Y-42550415D01*
X57795046Y-42550415D01*
X57979803Y-42511144D01*
X58152730Y-42434151D01*
X58305871Y-42322888D01*
X58432533Y-42182216D01*
X58527179Y-42018284D01*
X58585674Y-41838256D01*
X58605460Y-41650000D01*
X58585674Y-41461744D01*
X58527179Y-41281716D01*
X58432533Y-41117784D01*
X58305871Y-40977112D01*
X58305870Y-40977111D01*
X58152734Y-40865851D01*
X58152729Y-40865848D01*
X57979807Y-40788857D01*
X57979802Y-40788855D01*
X57834000Y-40757865D01*
X57794646Y-40749500D01*
X57794645Y-40749500D01*
X57605355Y-40749500D01*
X57605354Y-40749500D01*
X57572897Y-40756398D01*
X57420197Y-40788855D01*
X57420192Y-40788857D01*
X57247270Y-40865848D01*
X57247265Y-40865851D01*
X57094129Y-40977111D01*
X56967466Y-41117785D01*
X56872821Y-41281715D01*
X56872818Y-41281722D01*
X56814327Y-41461740D01*
X56814326Y-41461744D01*
X56794540Y-41650000D01*
X44013373Y-41650000D01*
X44005674Y-41576744D01*
X43947179Y-41396716D01*
X43852533Y-41232784D01*
X43725871Y-41092112D01*
X43725870Y-41092111D01*
X43572734Y-40980851D01*
X43572729Y-40980848D01*
X43399807Y-40903857D01*
X43399802Y-40903855D01*
X43254001Y-40872865D01*
X43214646Y-40864500D01*
X43214645Y-40864500D01*
X43025355Y-40864500D01*
X43025354Y-40864500D01*
X42992897Y-40871398D01*
X42840197Y-40903855D01*
X42840192Y-40903857D01*
X42667270Y-40980848D01*
X42667265Y-40980851D01*
X42514129Y-41092111D01*
X42387466Y-41232785D01*
X42292821Y-41396715D01*
X42292818Y-41396722D01*
X42234327Y-41576740D01*
X42234326Y-41576744D01*
X42214540Y-41765000D01*
X25486491Y-41765000D01*
X25503713Y-41378780D01*
X25503773Y-41377700D01*
X25535879Y-40894677D01*
X25535988Y-40893271D01*
X25571892Y-40491483D01*
X25572007Y-40490339D01*
X25625454Y-40009145D01*
X25625594Y-40008002D01*
X25679375Y-39608109D01*
X25679544Y-39606948D01*
X25754232Y-39128539D01*
X25754418Y-39127432D01*
X25771949Y-39030124D01*
X52367146Y-39030124D01*
X52386932Y-39218380D01*
X52386933Y-39218383D01*
X52445424Y-39398401D01*
X52445427Y-39398408D01*
X52540073Y-39562340D01*
X52581284Y-39608109D01*
X52666735Y-39703012D01*
X52819871Y-39814272D01*
X52819876Y-39814275D01*
X52992798Y-39891266D01*
X52992803Y-39891268D01*
X53177960Y-39930624D01*
X53367250Y-39930624D01*
X53367252Y-39930624D01*
X53552409Y-39891268D01*
X53725336Y-39814275D01*
X53878477Y-39703012D01*
X54005139Y-39562340D01*
X54099785Y-39398408D01*
X54158280Y-39218380D01*
X54178066Y-39030124D01*
X54158280Y-38841868D01*
X54099785Y-38661840D01*
X54022911Y-38528691D01*
X54006439Y-38460792D01*
X54029292Y-38394765D01*
X54038140Y-38383731D01*
X54102533Y-38312216D01*
X54197179Y-38148284D01*
X54255674Y-37968256D01*
X54275460Y-37780000D01*
X54255674Y-37591744D01*
X54197179Y-37411716D01*
X54102533Y-37247784D01*
X53975871Y-37107112D01*
X53975870Y-37107111D01*
X53822734Y-36995851D01*
X53822729Y-36995848D01*
X53649807Y-36918857D01*
X53649802Y-36918855D01*
X53504001Y-36887865D01*
X53464646Y-36879500D01*
X53464645Y-36879500D01*
X53275355Y-36879500D01*
X53275354Y-36879500D01*
X53242897Y-36886398D01*
X53090197Y-36918855D01*
X53090192Y-36918857D01*
X52917270Y-36995848D01*
X52917265Y-36995851D01*
X52764129Y-37107111D01*
X52637466Y-37247785D01*
X52542821Y-37411715D01*
X52542818Y-37411722D01*
X52484327Y-37591740D01*
X52484326Y-37591744D01*
X52464540Y-37780000D01*
X52484326Y-37968256D01*
X52484327Y-37968259D01*
X52542818Y-38148277D01*
X52542821Y-38148284D01*
X52619693Y-38281431D01*
X52636166Y-38349332D01*
X52613313Y-38415358D01*
X52604456Y-38426403D01*
X52540072Y-38497909D01*
X52445427Y-38661839D01*
X52445424Y-38661846D01*
X52423174Y-38730326D01*
X52386932Y-38841868D01*
X52367146Y-39030124D01*
X25771949Y-39030124D01*
X25825960Y-38730326D01*
X25826151Y-38729324D01*
X25921939Y-38254632D01*
X25922238Y-38253240D01*
X26011333Y-37860005D01*
X26011565Y-37859027D01*
X26128305Y-37388837D01*
X26128604Y-37387691D01*
X26235153Y-36998724D01*
X26235411Y-36997817D01*
X26347174Y-36620000D01*
X29094540Y-36620000D01*
X29114326Y-36808256D01*
X29114327Y-36808259D01*
X29172818Y-36988277D01*
X29172821Y-36988284D01*
X29267467Y-37152216D01*
X29353517Y-37247784D01*
X29394129Y-37292888D01*
X29547265Y-37404148D01*
X29547270Y-37404151D01*
X29720192Y-37481142D01*
X29720197Y-37481144D01*
X29905354Y-37520500D01*
X30094644Y-37520500D01*
X30094646Y-37520500D01*
X30279803Y-37481144D01*
X30452730Y-37404151D01*
X30605871Y-37292888D01*
X30732533Y-37152216D01*
X30827179Y-36988284D01*
X30885674Y-36808256D01*
X30905460Y-36620000D01*
X30893899Y-36510000D01*
X34964540Y-36510000D01*
X34984326Y-36698256D01*
X34984327Y-36698259D01*
X35042818Y-36878277D01*
X35042821Y-36878284D01*
X35137467Y-37042216D01*
X35195899Y-37107111D01*
X35264129Y-37182888D01*
X35417265Y-37294148D01*
X35417270Y-37294151D01*
X35590192Y-37371142D01*
X35590197Y-37371144D01*
X35775354Y-37410500D01*
X35964644Y-37410500D01*
X35964646Y-37410500D01*
X36149803Y-37371144D01*
X36322730Y-37294151D01*
X36475871Y-37182888D01*
X36602533Y-37042216D01*
X36697179Y-36878284D01*
X36755674Y-36698256D01*
X36775460Y-36510000D01*
X36755674Y-36321744D01*
X36697179Y-36141716D01*
X36602533Y-35977784D01*
X36475871Y-35837112D01*
X36475870Y-35837111D01*
X36322734Y-35725851D01*
X36322729Y-35725848D01*
X36149807Y-35648857D01*
X36149802Y-35648855D01*
X36004001Y-35617865D01*
X35964646Y-35609500D01*
X35964645Y-35609500D01*
X35775355Y-35609500D01*
X35775354Y-35609500D01*
X35742897Y-35616398D01*
X35590197Y-35648855D01*
X35590192Y-35648857D01*
X35417270Y-35725848D01*
X35417265Y-35725851D01*
X35264129Y-35837111D01*
X35137466Y-35977785D01*
X35042821Y-36141715D01*
X35042818Y-36141722D01*
X34984327Y-36321740D01*
X34984326Y-36321744D01*
X34964540Y-36510000D01*
X30893899Y-36510000D01*
X30885674Y-36431744D01*
X30827179Y-36251716D01*
X30732533Y-36087784D01*
X30605871Y-35947112D01*
X30605870Y-35947111D01*
X30452734Y-35835851D01*
X30452729Y-35835848D01*
X30279807Y-35758857D01*
X30279802Y-35758855D01*
X30124511Y-35725848D01*
X30094646Y-35719500D01*
X30094645Y-35719500D01*
X29905355Y-35719500D01*
X29905354Y-35719500D01*
X29875489Y-35725848D01*
X29720197Y-35758855D01*
X29720192Y-35758857D01*
X29547270Y-35835848D01*
X29547265Y-35835851D01*
X29394129Y-35947111D01*
X29267466Y-36087785D01*
X29172821Y-36251715D01*
X29172818Y-36251722D01*
X29114327Y-36431740D01*
X29114326Y-36431744D01*
X29094540Y-36620000D01*
X26347174Y-36620000D01*
X26372852Y-36533196D01*
X26373256Y-36531890D01*
X26497101Y-36147822D01*
X26655155Y-35689164D01*
X26655606Y-35687909D01*
X26796424Y-35309779D01*
X26800286Y-35300000D01*
X61844540Y-35300000D01*
X61864326Y-35488256D01*
X61864327Y-35488259D01*
X61922818Y-35668277D01*
X61922821Y-35668284D01*
X62017467Y-35832216D01*
X62120919Y-35947111D01*
X62144129Y-35972888D01*
X62297265Y-36084148D01*
X62297270Y-36084151D01*
X62470192Y-36161142D01*
X62470197Y-36161144D01*
X62655354Y-36200500D01*
X62844644Y-36200500D01*
X62844646Y-36200500D01*
X63029803Y-36161144D01*
X63202730Y-36084151D01*
X63355871Y-35972888D01*
X63482533Y-35832216D01*
X63577179Y-35668284D01*
X63635674Y-35488256D01*
X63655460Y-35300000D01*
X63635674Y-35111744D01*
X63577179Y-34931716D01*
X63482533Y-34767784D01*
X63355871Y-34627112D01*
X63355870Y-34627111D01*
X63202734Y-34515851D01*
X63202729Y-34515848D01*
X63029807Y-34438857D01*
X63029802Y-34438855D01*
X62884001Y-34407865D01*
X62844646Y-34399500D01*
X62844645Y-34399500D01*
X62655355Y-34399500D01*
X62655354Y-34399500D01*
X62622897Y-34406398D01*
X62470197Y-34438855D01*
X62470192Y-34438857D01*
X62297270Y-34515848D01*
X62297265Y-34515851D01*
X62144129Y-34627111D01*
X62017466Y-34767785D01*
X61922821Y-34931715D01*
X61922818Y-34931722D01*
X61864327Y-35111740D01*
X61864326Y-35111744D01*
X61844540Y-35300000D01*
X26800286Y-35300000D01*
X26974628Y-34858519D01*
X26975132Y-34857289D01*
X27132591Y-34485953D01*
X27330639Y-34042890D01*
X27331236Y-34041598D01*
X27365436Y-33970000D01*
X34964540Y-33970000D01*
X34984326Y-34158256D01*
X34984327Y-34158259D01*
X35042818Y-34338277D01*
X35042821Y-34338284D01*
X35137467Y-34502216D01*
X35246121Y-34622888D01*
X35264129Y-34642888D01*
X35417265Y-34754148D01*
X35417270Y-34754151D01*
X35590192Y-34831142D01*
X35590197Y-34831144D01*
X35775354Y-34870500D01*
X35964644Y-34870500D01*
X35964646Y-34870500D01*
X36149803Y-34831144D01*
X36322730Y-34754151D01*
X36475871Y-34642888D01*
X36602533Y-34502216D01*
X36697179Y-34338284D01*
X36755674Y-34158256D01*
X36775460Y-33970000D01*
X36755674Y-33781744D01*
X36697179Y-33601716D01*
X36602533Y-33437784D01*
X36475871Y-33297112D01*
X36475870Y-33297111D01*
X36322734Y-33185851D01*
X36322729Y-33185848D01*
X36149807Y-33108857D01*
X36149802Y-33108855D01*
X36026509Y-33082649D01*
X35991884Y-33075289D01*
X35930403Y-33042098D01*
X35896627Y-32980935D01*
X35901279Y-32911220D01*
X35942883Y-32855088D01*
X36008231Y-32830359D01*
X36017666Y-32830000D01*
X53108239Y-32830000D01*
X53175278Y-32849685D01*
X53221033Y-32902489D01*
X53230977Y-32971647D01*
X53201952Y-33035203D01*
X53143174Y-33072977D01*
X53134020Y-33075290D01*
X53070197Y-33088855D01*
X53070192Y-33088857D01*
X52897270Y-33165848D01*
X52897265Y-33165851D01*
X52744129Y-33277111D01*
X52617466Y-33417785D01*
X52522821Y-33581715D01*
X52522818Y-33581722D01*
X52464327Y-33761740D01*
X52464326Y-33761744D01*
X52444540Y-33950000D01*
X52464326Y-34138256D01*
X52464327Y-34138259D01*
X52522818Y-34318277D01*
X52522821Y-34318284D01*
X52617467Y-34482216D01*
X52744128Y-34622888D01*
X52744129Y-34622888D01*
X52897265Y-34734148D01*
X52897270Y-34734151D01*
X53070192Y-34811142D01*
X53070197Y-34811144D01*
X53255354Y-34850500D01*
X53444644Y-34850500D01*
X53444646Y-34850500D01*
X53629803Y-34811144D01*
X53802730Y-34734151D01*
X53955871Y-34622888D01*
X54082533Y-34482216D01*
X54177179Y-34318284D01*
X54235674Y-34138256D01*
X54255460Y-33950000D01*
X54235674Y-33761744D01*
X54177179Y-33581716D01*
X54082533Y-33417784D01*
X53955871Y-33277112D01*
X53908309Y-33242556D01*
X53802734Y-33165851D01*
X53802729Y-33165848D01*
X53629807Y-33088857D01*
X53629802Y-33088855D01*
X53565980Y-33075290D01*
X53504498Y-33042098D01*
X53470722Y-32980935D01*
X53475374Y-32911220D01*
X53516979Y-32855088D01*
X53582326Y-32830359D01*
X53591761Y-32830000D01*
X53620000Y-32830000D01*
X53620000Y-29700000D01*
X54644540Y-29700000D01*
X54664326Y-29888256D01*
X54664327Y-29888259D01*
X54722818Y-30068277D01*
X54722821Y-30068284D01*
X54817467Y-30232216D01*
X54828536Y-30244509D01*
X54944129Y-30372888D01*
X55097265Y-30484148D01*
X55097270Y-30484151D01*
X55220012Y-30538800D01*
X55273249Y-30584050D01*
X55293570Y-30650899D01*
X55287507Y-30690396D01*
X55264327Y-30761738D01*
X55264327Y-30761740D01*
X55264326Y-30761744D01*
X55244540Y-30950000D01*
X55264326Y-31138256D01*
X55264327Y-31138259D01*
X55322818Y-31318277D01*
X55322821Y-31318284D01*
X55417467Y-31482216D01*
X55544128Y-31622888D01*
X55544129Y-31622888D01*
X55697265Y-31734148D01*
X55697270Y-31734151D01*
X55870192Y-31811142D01*
X55870197Y-31811144D01*
X56055354Y-31850500D01*
X56244644Y-31850500D01*
X56244646Y-31850500D01*
X56429803Y-31811144D01*
X56602730Y-31734151D01*
X56755871Y-31622888D01*
X56882533Y-31482216D01*
X56977179Y-31318284D01*
X57035674Y-31138256D01*
X57055460Y-30950000D01*
X57035674Y-30761744D01*
X56977179Y-30581716D01*
X56882533Y-30417784D01*
X56755871Y-30277112D01*
X56694077Y-30232216D01*
X56602734Y-30165851D01*
X56602729Y-30165848D01*
X56479986Y-30111199D01*
X56426749Y-30065949D01*
X56406428Y-29999100D01*
X56412491Y-29959604D01*
X56435674Y-29888256D01*
X56455460Y-29700000D01*
X56435674Y-29511744D01*
X56377179Y-29331716D01*
X56282533Y-29167784D01*
X56155871Y-29027112D01*
X56117371Y-28999140D01*
X56002734Y-28915851D01*
X56002729Y-28915848D01*
X55829807Y-28838857D01*
X55829802Y-28838855D01*
X55684001Y-28807865D01*
X55644646Y-28799500D01*
X55644645Y-28799500D01*
X55455355Y-28799500D01*
X55455354Y-28799500D01*
X55422897Y-28806398D01*
X55270197Y-28838855D01*
X55270192Y-28838857D01*
X55097270Y-28915848D01*
X55097265Y-28915851D01*
X54944129Y-29027111D01*
X54817466Y-29167785D01*
X54722821Y-29331715D01*
X54722818Y-29331722D01*
X54690830Y-29430173D01*
X54664326Y-29511744D01*
X54644540Y-29700000D01*
X53620000Y-29700000D01*
X53620000Y-26530000D01*
X35620000Y-26530000D01*
X35620000Y-32830000D01*
X35722334Y-32830000D01*
X35789373Y-32849685D01*
X35835128Y-32902489D01*
X35845072Y-32971647D01*
X35816047Y-33035203D01*
X35757269Y-33072977D01*
X35748120Y-33075288D01*
X35719516Y-33081368D01*
X35590197Y-33108855D01*
X35590192Y-33108857D01*
X35417270Y-33185848D01*
X35417265Y-33185851D01*
X35264129Y-33297111D01*
X35137466Y-33437785D01*
X35042821Y-33601715D01*
X35042818Y-33601722D01*
X34990824Y-33761744D01*
X34984326Y-33781744D01*
X34964540Y-33970000D01*
X27365436Y-33970000D01*
X27505025Y-33677765D01*
X27722537Y-33243777D01*
X27723169Y-33242556D01*
X27912898Y-32887000D01*
X28149512Y-32462847D01*
X28150175Y-32461695D01*
X28355454Y-32115114D01*
X28610710Y-31701660D01*
X28611441Y-31700510D01*
X28831805Y-31363647D01*
X29105218Y-30961715D01*
X29106061Y-30960511D01*
X29341070Y-30633998D01*
X29632115Y-30244391D01*
X29632951Y-30243303D01*
X29882176Y-29927705D01*
X30190294Y-29551202D01*
X30191264Y-29550049D01*
X30454062Y-29246142D01*
X30778717Y-28883430D01*
X30779722Y-28882337D01*
X31055591Y-28590655D01*
X31396216Y-28242410D01*
X31397284Y-28241348D01*
X31685608Y-27962502D01*
X32041508Y-27629473D01*
X32042682Y-27628404D01*
X32342891Y-27362900D01*
X32713425Y-27045724D01*
X32714624Y-27044728D01*
X33026124Y-26793054D01*
X33410518Y-26492428D01*
X33411834Y-26491428D01*
X33733893Y-26254133D01*
X34131573Y-25970544D01*
X34132943Y-25969597D01*
X34464879Y-25747135D01*
X34875076Y-25481179D01*
X34876436Y-25480326D01*
X35217588Y-25273092D01*
X35639500Y-25025335D01*
X35640971Y-25024500D01*
X35990586Y-24832905D01*
X36423426Y-24603851D01*
X36424964Y-24603065D01*
X36782364Y-24427433D01*
X37225330Y-24217550D01*
X37226906Y-24216833D01*
X37591303Y-24057503D01*
X38043628Y-23867206D01*
X38045169Y-23866586D01*
X38415763Y-23723854D01*
X38876580Y-23553560D01*
X38878219Y-23552983D01*
X39254196Y-23427104D01*
X39722632Y-23277188D01*
X39724400Y-23276652D01*
X40104967Y-23167832D01*
X40580178Y-23038620D01*
X40581955Y-23038167D01*
X40966388Y-22946551D01*
X41447471Y-22838346D01*
X41449245Y-22837976D01*
X41836667Y-22763713D01*
X42322763Y-22676769D01*
X42324632Y-22676465D01*
X42714149Y-22619655D01*
X43204414Y-22554191D01*
X43206314Y-22553968D01*
X43597155Y-22514649D01*
X44090587Y-22470868D01*
X44092595Y-22470724D01*
X44218274Y-22463715D01*
X44483882Y-22448905D01*
X44979710Y-22426951D01*
X44981563Y-22426900D01*
X45372589Y-22422544D01*
X45869725Y-22422544D01*
X45871797Y-22422579D01*
G37*
%TD.AperFunction*%
%TD*%
M02*
