%TF.GenerationSoftware,KiCad,Pcbnew,7.0.5*%
%TF.CreationDate,2024-09-29T13:01:46+01:00*%
%TF.ProjectId,smartwatch,736d6172-7477-4617-9463-682e6b696361,rev?*%
%TF.SameCoordinates,Original*%
%TF.FileFunction,Paste,Bot*%
%TF.FilePolarity,Positive*%
%FSLAX46Y46*%
G04 Gerber Fmt 4.6, Leading zero omitted, Abs format (unit mm)*
G04 Created by KiCad (PCBNEW 7.0.5) date 2024-09-29 13:01:46*
%MOMM*%
%LPD*%
G01*
G04 APERTURE LIST*
G04 Aperture macros list*
%AMRoundRect*
0 Rectangle with rounded corners*
0 $1 Rounding radius*
0 $2 $3 $4 $5 $6 $7 $8 $9 X,Y pos of 4 corners*
0 Add a 4 corners polygon primitive as box body*
4,1,4,$2,$3,$4,$5,$6,$7,$8,$9,$2,$3,0*
0 Add four circle primitives for the rounded corners*
1,1,$1+$1,$2,$3*
1,1,$1+$1,$4,$5*
1,1,$1+$1,$6,$7*
1,1,$1+$1,$8,$9*
0 Add four rect primitives between the rounded corners*
20,1,$1+$1,$2,$3,$4,$5,0*
20,1,$1+$1,$4,$5,$6,$7,0*
20,1,$1+$1,$6,$7,$8,$9,0*
20,1,$1+$1,$8,$9,$2,$3,0*%
G04 Aperture macros list end*
%ADD10R,1.500000X2.000000*%
%ADD11R,3.800000X2.000000*%
%ADD12RoundRect,0.250000X-0.450000X0.350000X-0.450000X-0.350000X0.450000X-0.350000X0.450000X0.350000X0*%
%ADD13RoundRect,0.250000X-0.350000X-0.450000X0.350000X-0.450000X0.350000X0.450000X-0.350000X0.450000X0*%
%ADD14RoundRect,0.150000X0.512500X0.150000X-0.512500X0.150000X-0.512500X-0.150000X0.512500X-0.150000X0*%
%ADD15R,1.600000X1.400000*%
%ADD16RoundRect,0.250000X0.350000X0.450000X-0.350000X0.450000X-0.350000X-0.450000X0.350000X-0.450000X0*%
%ADD17RoundRect,0.250000X0.275000X-0.400000X0.275000X0.400000X-0.275000X0.400000X-0.275000X-0.400000X0*%
%ADD18RoundRect,0.250000X0.337500X0.475000X-0.337500X0.475000X-0.337500X-0.475000X0.337500X-0.475000X0*%
%ADD19RoundRect,0.250000X0.750000X-0.250000X0.750000X0.250000X-0.750000X0.250000X-0.750000X-0.250000X0*%
%ADD20RoundRect,0.250000X-0.475000X0.337500X-0.475000X-0.337500X0.475000X-0.337500X0.475000X0.337500X0*%
%ADD21RoundRect,0.250000X0.325000X0.450000X-0.325000X0.450000X-0.325000X-0.450000X0.325000X-0.450000X0*%
%ADD22RoundRect,0.250000X-0.325000X-0.450000X0.325000X-0.450000X0.325000X0.450000X-0.325000X0.450000X0*%
%ADD23RoundRect,0.250000X0.475000X-0.337500X0.475000X0.337500X-0.475000X0.337500X-0.475000X-0.337500X0*%
%ADD24RoundRect,0.250000X-0.400000X-0.275000X0.400000X-0.275000X0.400000X0.275000X-0.400000X0.275000X0*%
%ADD25RoundRect,0.250000X0.250000X0.750000X-0.250000X0.750000X-0.250000X-0.750000X0.250000X-0.750000X0*%
G04 APERTURE END LIST*
D10*
%TO.C,U4*%
X50890000Y-41180000D03*
X48590000Y-41180000D03*
D11*
X48590000Y-34880000D03*
D10*
X46290000Y-41180000D03*
%TD*%
D12*
%TO.C,R1*%
X37912500Y-52350000D03*
X37912500Y-54350000D03*
%TD*%
D13*
%TO.C,R3*%
X42937500Y-45360000D03*
X44937500Y-45360000D03*
%TD*%
D14*
%TO.C,U2*%
X42587500Y-52350000D03*
X42587500Y-53300000D03*
X42587500Y-54250000D03*
X40312500Y-54250000D03*
X40312500Y-52350000D03*
%TD*%
D15*
%TO.C,BOOT/FLASH1*%
X54660000Y-39850000D03*
X62660000Y-39850000D03*
X54660000Y-35350000D03*
X62660000Y-35350000D03*
%TD*%
D16*
%TO.C,R6*%
X34200000Y-51200000D03*
X32200000Y-51200000D03*
%TD*%
D17*
%TO.C,C11*%
X44782500Y-54410000D03*
X44782500Y-52460000D03*
%TD*%
D18*
%TO.C,C1*%
X50205000Y-57660000D03*
X48130000Y-57660000D03*
%TD*%
D16*
%TO.C,R7*%
X34200000Y-54150000D03*
X32200000Y-54150000D03*
%TD*%
D19*
%TO.C,J3*%
X43050000Y-37400000D03*
X43050000Y-36140000D03*
%TD*%
D20*
%TO.C,C10*%
X39300000Y-34800000D03*
X39300000Y-36875000D03*
%TD*%
D18*
%TO.C,C3*%
X50927500Y-45990000D03*
X48852500Y-45990000D03*
%TD*%
D21*
%TO.C,GREEN1*%
X40277500Y-45390000D03*
X38227500Y-45390000D03*
%TD*%
D15*
%TO.C,RST1*%
X29020000Y-38700000D03*
X37020000Y-38700000D03*
X29020000Y-34200000D03*
X37020000Y-34200000D03*
%TD*%
D18*
%TO.C,C4*%
X50945000Y-43750000D03*
X48870000Y-43750000D03*
%TD*%
D16*
%TO.C,R2*%
X44867500Y-48840000D03*
X42867500Y-48840000D03*
%TD*%
D22*
%TO.C,RED1*%
X38192500Y-48870000D03*
X40242500Y-48870000D03*
%TD*%
D18*
%TO.C,C2*%
X50175000Y-55410000D03*
X48100000Y-55410000D03*
%TD*%
D23*
%TO.C,C9*%
X59740000Y-45997500D03*
X59740000Y-43922500D03*
%TD*%
D24*
%TO.C,C12*%
X42745000Y-58420000D03*
X44695000Y-58420000D03*
%TD*%
D25*
%TO.C,J1*%
X49700000Y-60110000D03*
X48440000Y-60110000D03*
%TD*%
%TO.C,J2*%
X44345000Y-60810000D03*
X43085000Y-60810000D03*
%TD*%
M02*
