%TF.GenerationSoftware,KiCad,Pcbnew,7.0.5*%
%TF.CreationDate,2024-09-29T13:01:45+01:00*%
%TF.ProjectId,smartwatch,736d6172-7477-4617-9463-682e6b696361,rev?*%
%TF.SameCoordinates,Original*%
%TF.FileFunction,Copper,L3,Inr*%
%TF.FilePolarity,Positive*%
%FSLAX46Y46*%
G04 Gerber Fmt 4.6, Leading zero omitted, Abs format (unit mm)*
G04 Created by KiCad (PCBNEW 7.0.5) date 2024-09-29 13:01:45*
%MOMM*%
%LPD*%
G01*
G04 APERTURE LIST*
%TA.AperFunction,ViaPad*%
%ADD10C,0.800000*%
%TD*%
G04 APERTURE END LIST*
D10*
%TO.N,IO0*%
X53370000Y-50480000D03*
%TO.N,DC_GND*%
X50927500Y-45990000D03*
X44782500Y-52460000D03*
X60430000Y-53565000D03*
X50205000Y-55440000D03*
X30750000Y-48350000D03*
X30000000Y-36620000D03*
X44950000Y-45350000D03*
X32930000Y-48387500D03*
X37900000Y-54400000D03*
X59700000Y-46000000D03*
X62750000Y-35300000D03*
X53350000Y-33950000D03*
X27850000Y-48350000D03*
X44695000Y-58420000D03*
X35870000Y-33970000D03*
X63500000Y-45390000D03*
X35850000Y-51700000D03*
X43120000Y-41765000D03*
%TO.N,BAT_VDD*%
X38500000Y-58150000D03*
X42587500Y-54250000D03*
%TO.N,3V3*%
X56520000Y-51945000D03*
X61250000Y-47550000D03*
X30730000Y-46300000D03*
X35776405Y-35303268D03*
X48852500Y-45990000D03*
%TO.N,EN*%
X35870000Y-36510000D03*
%TO.N,RX*%
X43050000Y-37450000D03*
%TO.N,TX*%
X43000000Y-36150000D03*
%TO.N,SCR_MISO*%
X51929704Y-42724746D03*
X57700000Y-41650000D03*
%TO.N,SCR_DC*%
X55400000Y-46400000D03*
X53370000Y-42860000D03*
%TO.N,BAT_MEASURE*%
X34150000Y-40300000D03*
%TO.N,TOUCH_RST*%
X48850000Y-51650000D03*
X59400000Y-50150000D03*
%TO.N,TOUCH_IRQ*%
X50600000Y-50900000D03*
X60450000Y-50200000D03*
%TD*%
%TA.AperFunction,Conductor*%
%TO.N,DC_GND*%
G36*
X63091349Y-32870189D02*
G01*
X63134427Y-32917419D01*
X63505625Y-33632629D01*
X63506830Y-33635081D01*
X63877451Y-34433337D01*
X63878547Y-34435840D01*
X64177513Y-35161895D01*
X64214573Y-35252201D01*
X64215529Y-35254681D01*
X64450453Y-35905229D01*
X64466701Y-35950456D01*
X64515764Y-36087031D01*
X64516600Y-36089523D01*
X64707010Y-36699703D01*
X64707050Y-36699968D01*
X64707089Y-36699957D01*
X64779679Y-36934332D01*
X64780395Y-36936831D01*
X64935278Y-37522779D01*
X65005828Y-37792530D01*
X65006427Y-37795030D01*
X65130310Y-38364095D01*
X65130270Y-38364103D01*
X65130392Y-38364469D01*
X65193747Y-38659875D01*
X65194229Y-38662370D01*
X65290091Y-39219856D01*
X65343075Y-39534679D01*
X65343441Y-39537164D01*
X65413051Y-40085707D01*
X65453519Y-40415233D01*
X65453772Y-40417703D01*
X65498300Y-40958445D01*
X65524865Y-41299844D01*
X65525007Y-41302293D01*
X65545354Y-41836177D01*
X65556967Y-42186679D01*
X65557000Y-42189102D01*
X65553850Y-42716749D01*
X65549770Y-43074092D01*
X65549697Y-43076485D01*
X65523594Y-43597748D01*
X65503284Y-43960335D01*
X65503107Y-43962693D01*
X65454529Y-44477412D01*
X65417604Y-44843605D01*
X65417326Y-44845924D01*
X65346687Y-45353949D01*
X65292902Y-45722197D01*
X65292526Y-45724472D01*
X65200220Y-46225396D01*
X65129410Y-46594437D01*
X65128940Y-46596665D01*
X65015339Y-47090085D01*
X64927470Y-47458539D01*
X64926909Y-47460716D01*
X64792407Y-47946032D01*
X64687465Y-48312848D01*
X64686817Y-48314969D01*
X64531811Y-48791611D01*
X64409859Y-49155725D01*
X64409127Y-49157787D01*
X64234068Y-49625018D01*
X64095217Y-49985439D01*
X64094406Y-49987440D01*
X63899685Y-50444749D01*
X63744148Y-50800406D01*
X63743261Y-50802343D01*
X63529294Y-51249149D01*
X63357341Y-51599024D01*
X63356383Y-51600893D01*
X63123699Y-52036421D01*
X62935552Y-52379732D01*
X62934526Y-52381532D01*
X62683591Y-52805192D01*
X62479605Y-53141005D01*
X62478516Y-53142732D01*
X62209868Y-53553846D01*
X61990439Y-53881278D01*
X61989292Y-53882931D01*
X61703414Y-54280952D01*
X61468950Y-54599203D01*
X61467749Y-54600781D01*
X61165259Y-54985006D01*
X60916174Y-55293350D01*
X60914922Y-55294850D01*
X60596456Y-55664613D01*
X60333245Y-55962292D01*
X60331948Y-55963714D01*
X59998120Y-56318436D01*
X59721253Y-56604784D01*
X59719916Y-56606126D01*
X59371372Y-56945231D01*
X59081397Y-57219568D01*
X59080023Y-57220829D01*
X58717423Y-57543764D01*
X58415030Y-57805344D01*
X58413624Y-57806524D01*
X58037583Y-58112824D01*
X57723358Y-58361063D01*
X57721924Y-58362162D01*
X57333180Y-58651284D01*
X57007781Y-58885599D01*
X57006324Y-58886617D01*
X56605623Y-59158063D01*
X56269637Y-59377969D01*
X56268161Y-59378906D01*
X55856377Y-59632138D01*
X55510459Y-59837150D01*
X55508968Y-59838006D01*
X55086766Y-60072665D01*
X54731735Y-60262247D01*
X54730234Y-60263022D01*
X54298427Y-60478696D01*
X53934914Y-60652470D01*
X53933407Y-60653166D01*
X53492820Y-60849475D01*
X53121634Y-61007018D01*
X53120125Y-61007635D01*
X52671614Y-61184229D01*
X52293465Y-61325207D01*
X52291958Y-61325747D01*
X51836389Y-61482314D01*
X51451954Y-61606440D01*
X51450453Y-61606904D01*
X50988741Y-61743159D01*
X50598955Y-61850103D01*
X50597463Y-61850492D01*
X50130270Y-61966259D01*
X49735977Y-62055772D01*
X49734498Y-62056089D01*
X49263389Y-62151016D01*
X49262163Y-62151250D01*
X48864786Y-62223027D01*
X48863323Y-62223273D01*
X48388599Y-62297339D01*
X48387334Y-62297523D01*
X47986985Y-62351559D01*
X47985541Y-62351737D01*
X47508122Y-62404807D01*
X47506821Y-62404938D01*
X47104441Y-62441096D01*
X47103020Y-62441207D01*
X46623784Y-62473193D01*
X46622449Y-62473268D01*
X46218722Y-62491482D01*
X46217327Y-62491530D01*
X45737275Y-62502371D01*
X45735909Y-62502387D01*
X45331719Y-62502607D01*
X45330353Y-62502593D01*
X44850271Y-62492277D01*
X44848878Y-62492232D01*
X44826623Y-62491252D01*
X44445158Y-62474460D01*
X44443823Y-62474386D01*
X43964548Y-62442925D01*
X43963127Y-62442815D01*
X43560681Y-62407094D01*
X43559380Y-62406964D01*
X43081907Y-62354415D01*
X43080464Y-62354239D01*
X42680095Y-62300648D01*
X42678830Y-62300465D01*
X42203991Y-62226912D01*
X42202527Y-62226667D01*
X41805101Y-62155330D01*
X41803875Y-62155097D01*
X41332621Y-62060677D01*
X41331141Y-62060362D01*
X40936764Y-61971283D01*
X40469476Y-61856036D01*
X40467983Y-61855648D01*
X40078068Y-61749127D01*
X39616132Y-61613353D01*
X39614630Y-61612891D01*
X39230171Y-61489222D01*
X38774402Y-61333141D01*
X38772894Y-61332603D01*
X38394548Y-61192023D01*
X37945847Y-61015921D01*
X37944387Y-61015326D01*
X37572973Y-60858164D01*
X37132212Y-60662355D01*
X37130704Y-60661661D01*
X36766947Y-60488257D01*
X36409080Y-60310005D01*
X36334981Y-60273096D01*
X36333501Y-60272333D01*
X35978164Y-60083087D01*
X35555732Y-59848902D01*
X35554241Y-59848049D01*
X35208124Y-59643431D01*
X34796064Y-59390650D01*
X34794587Y-59389716D01*
X34458290Y-59170129D01*
X34057339Y-58899154D01*
X34055969Y-58898199D01*
X33919607Y-58800233D01*
X33730177Y-58664140D01*
X33341194Y-58375501D01*
X33339759Y-58374404D01*
X33055066Y-58150000D01*
X37594540Y-58150000D01*
X37614326Y-58338256D01*
X37614327Y-58338259D01*
X37672818Y-58518277D01*
X37672821Y-58518284D01*
X37767467Y-58682216D01*
X37873730Y-58800233D01*
X37894129Y-58822888D01*
X38047265Y-58934148D01*
X38047270Y-58934151D01*
X38220192Y-59011142D01*
X38220197Y-59011144D01*
X38405354Y-59050500D01*
X38405355Y-59050500D01*
X38594644Y-59050500D01*
X38594646Y-59050500D01*
X38779803Y-59011144D01*
X38952730Y-58934151D01*
X39105871Y-58822888D01*
X39232533Y-58682216D01*
X39327179Y-58518284D01*
X39385674Y-58338256D01*
X39405460Y-58150000D01*
X39385674Y-57961744D01*
X39327179Y-57781716D01*
X39232533Y-57617784D01*
X39105871Y-57477112D01*
X39105870Y-57477111D01*
X38952734Y-57365851D01*
X38952729Y-57365848D01*
X38779807Y-57288857D01*
X38779802Y-57288855D01*
X38634000Y-57257865D01*
X38594646Y-57249500D01*
X38405354Y-57249500D01*
X38372897Y-57256398D01*
X38220197Y-57288855D01*
X38220192Y-57288857D01*
X38047270Y-57365848D01*
X38047265Y-57365851D01*
X37894129Y-57477111D01*
X37767466Y-57617785D01*
X37672821Y-57781715D01*
X37672818Y-57781722D01*
X37660184Y-57820607D01*
X37614326Y-57961744D01*
X37594540Y-58150000D01*
X33055066Y-58150000D01*
X33025273Y-58126516D01*
X32648871Y-57820607D01*
X32647464Y-57819428D01*
X32344787Y-57558181D01*
X31981823Y-57235631D01*
X31980447Y-57234371D01*
X31690202Y-56960379D01*
X31541718Y-56816233D01*
X31341215Y-56621586D01*
X31339960Y-56620330D01*
X31062822Y-56334327D01*
X30728498Y-55979856D01*
X30727229Y-55978467D01*
X30714155Y-55963714D01*
X30463739Y-55681130D01*
X30144810Y-55311645D01*
X30143581Y-55310175D01*
X29920105Y-55034151D01*
X29894138Y-55002078D01*
X29720656Y-54782216D01*
X29591234Y-54618193D01*
X29590072Y-54616670D01*
X29355224Y-54298626D01*
X29320218Y-54250000D01*
X41682040Y-54250000D01*
X41701826Y-54438256D01*
X41701827Y-54438259D01*
X41760318Y-54618277D01*
X41760321Y-54618284D01*
X41854967Y-54782216D01*
X41932261Y-54868059D01*
X41981629Y-54922888D01*
X42134765Y-55034148D01*
X42134770Y-55034151D01*
X42307692Y-55111142D01*
X42307697Y-55111144D01*
X42492854Y-55150500D01*
X42492855Y-55150500D01*
X42682144Y-55150500D01*
X42682146Y-55150500D01*
X42867303Y-55111144D01*
X43040230Y-55034151D01*
X43193371Y-54922888D01*
X43320033Y-54782216D01*
X43414679Y-54618284D01*
X43473174Y-54438256D01*
X43492960Y-54250000D01*
X43473174Y-54061744D01*
X43414679Y-53881716D01*
X43320033Y-53717784D01*
X43193371Y-53577112D01*
X43186323Y-53571991D01*
X43040234Y-53465851D01*
X43040229Y-53465848D01*
X42867307Y-53388857D01*
X42867302Y-53388855D01*
X42721501Y-53357865D01*
X42682146Y-53349500D01*
X42492854Y-53349500D01*
X42460397Y-53356398D01*
X42307697Y-53388855D01*
X42307692Y-53388857D01*
X42134770Y-53465848D01*
X42134765Y-53465851D01*
X41981629Y-53577111D01*
X41854966Y-53717785D01*
X41760321Y-53881715D01*
X41760318Y-53881722D01*
X41701827Y-54061740D01*
X41701826Y-54061744D01*
X41682040Y-54250000D01*
X29320218Y-54250000D01*
X29068942Y-53900960D01*
X29067792Y-53899308D01*
X28847944Y-53572025D01*
X28578849Y-53161207D01*
X28577814Y-53159569D01*
X28373440Y-52823947D01*
X28122042Y-52400561D01*
X28121047Y-52398822D01*
X27932489Y-52055653D01*
X27715196Y-51650000D01*
X47944540Y-51650000D01*
X47964326Y-51838256D01*
X47964327Y-51838259D01*
X48022818Y-52018277D01*
X48022821Y-52018284D01*
X48117467Y-52182216D01*
X48239725Y-52317997D01*
X48244129Y-52322888D01*
X48397265Y-52434148D01*
X48397270Y-52434151D01*
X48570192Y-52511142D01*
X48570197Y-52511144D01*
X48755354Y-52550500D01*
X48755355Y-52550500D01*
X48944644Y-52550500D01*
X48944646Y-52550500D01*
X49129803Y-52511144D01*
X49302730Y-52434151D01*
X49455871Y-52322888D01*
X49582533Y-52182216D01*
X49677179Y-52018284D01*
X49700991Y-51945000D01*
X55614540Y-51945000D01*
X55634326Y-52133256D01*
X55634327Y-52133259D01*
X55692818Y-52313277D01*
X55692821Y-52313284D01*
X55787467Y-52477216D01*
X55914128Y-52617888D01*
X55914129Y-52617888D01*
X56067265Y-52729148D01*
X56067270Y-52729151D01*
X56240192Y-52806142D01*
X56240197Y-52806144D01*
X56425354Y-52845500D01*
X56425355Y-52845500D01*
X56614644Y-52845500D01*
X56614646Y-52845500D01*
X56799803Y-52806144D01*
X56972730Y-52729151D01*
X57125871Y-52617888D01*
X57252533Y-52477216D01*
X57347179Y-52313284D01*
X57405674Y-52133256D01*
X57425460Y-51945000D01*
X57405674Y-51756744D01*
X57347179Y-51576716D01*
X57252533Y-51412784D01*
X57125871Y-51272112D01*
X57121066Y-51268621D01*
X56972734Y-51160851D01*
X56972729Y-51160848D01*
X56799807Y-51083857D01*
X56799802Y-51083855D01*
X56642874Y-51050500D01*
X56614646Y-51044500D01*
X56425354Y-51044500D01*
X56397126Y-51050500D01*
X56240197Y-51083855D01*
X56240192Y-51083857D01*
X56067270Y-51160848D01*
X56067265Y-51160851D01*
X55914129Y-51272111D01*
X55787466Y-51412785D01*
X55692821Y-51576715D01*
X55692818Y-51576722D01*
X55634327Y-51756740D01*
X55634326Y-51756744D01*
X55614540Y-51945000D01*
X49700991Y-51945000D01*
X49735674Y-51838256D01*
X49755460Y-51650000D01*
X49754634Y-51642142D01*
X49767201Y-51573413D01*
X49814931Y-51522388D01*
X49882671Y-51505268D01*
X49948913Y-51527488D01*
X49970103Y-51546205D01*
X49994128Y-51572887D01*
X49994129Y-51572888D01*
X50147265Y-51684148D01*
X50147270Y-51684151D01*
X50320192Y-51761142D01*
X50320197Y-51761144D01*
X50505354Y-51800500D01*
X50505355Y-51800500D01*
X50694644Y-51800500D01*
X50694646Y-51800500D01*
X50879803Y-51761144D01*
X51052730Y-51684151D01*
X51205871Y-51572888D01*
X51332533Y-51432216D01*
X51427179Y-51268284D01*
X51485674Y-51088256D01*
X51505460Y-50900000D01*
X51485674Y-50711744D01*
X51427179Y-50531716D01*
X51397321Y-50480000D01*
X52464540Y-50480000D01*
X52484326Y-50668256D01*
X52484327Y-50668259D01*
X52542818Y-50848277D01*
X52542821Y-50848284D01*
X52637467Y-51012216D01*
X52732521Y-51117784D01*
X52764129Y-51152888D01*
X52917265Y-51264148D01*
X52917270Y-51264151D01*
X53090192Y-51341142D01*
X53090197Y-51341144D01*
X53275354Y-51380500D01*
X53275355Y-51380500D01*
X53464644Y-51380500D01*
X53464646Y-51380500D01*
X53649803Y-51341144D01*
X53822730Y-51264151D01*
X53975871Y-51152888D01*
X54102533Y-51012216D01*
X54197179Y-50848284D01*
X54255674Y-50668256D01*
X54275460Y-50480000D01*
X54255674Y-50291744D01*
X54209618Y-50150000D01*
X58494540Y-50150000D01*
X58514326Y-50338256D01*
X58514327Y-50338259D01*
X58572818Y-50518277D01*
X58572821Y-50518284D01*
X58667467Y-50682216D01*
X58763487Y-50788857D01*
X58794129Y-50822888D01*
X58947265Y-50934148D01*
X58947270Y-50934151D01*
X59120192Y-51011142D01*
X59120197Y-51011144D01*
X59305354Y-51050500D01*
X59305355Y-51050500D01*
X59494644Y-51050500D01*
X59494646Y-51050500D01*
X59679803Y-51011144D01*
X59834276Y-50942367D01*
X59903527Y-50933082D01*
X59957599Y-50955328D01*
X59997271Y-50984152D01*
X60170192Y-51061142D01*
X60170197Y-51061144D01*
X60355354Y-51100500D01*
X60355355Y-51100500D01*
X60544644Y-51100500D01*
X60544646Y-51100500D01*
X60729803Y-51061144D01*
X60902730Y-50984151D01*
X61055871Y-50872888D01*
X61182533Y-50732216D01*
X61277179Y-50568284D01*
X61335674Y-50388256D01*
X61355460Y-50200000D01*
X61335674Y-50011744D01*
X61277179Y-49831716D01*
X61182533Y-49667784D01*
X61055871Y-49527112D01*
X61055870Y-49527111D01*
X60902734Y-49415851D01*
X60902729Y-49415848D01*
X60729807Y-49338857D01*
X60729802Y-49338855D01*
X60584001Y-49307865D01*
X60544646Y-49299500D01*
X60355354Y-49299500D01*
X60322897Y-49306398D01*
X60170197Y-49338855D01*
X60170192Y-49338857D01*
X60015722Y-49407633D01*
X59946472Y-49416918D01*
X59892401Y-49394671D01*
X59852730Y-49365849D01*
X59852729Y-49365848D01*
X59679807Y-49288857D01*
X59679802Y-49288855D01*
X59534001Y-49257865D01*
X59494646Y-49249500D01*
X59305354Y-49249500D01*
X59272897Y-49256398D01*
X59120197Y-49288855D01*
X59120192Y-49288857D01*
X58947270Y-49365848D01*
X58947265Y-49365851D01*
X58794129Y-49477111D01*
X58667466Y-49617785D01*
X58572821Y-49781715D01*
X58572818Y-49781722D01*
X58514327Y-49961740D01*
X58514326Y-49961744D01*
X58494540Y-50150000D01*
X54209618Y-50150000D01*
X54197179Y-50111716D01*
X54102533Y-49947784D01*
X53975871Y-49807112D01*
X53940925Y-49781722D01*
X53822734Y-49695851D01*
X53822729Y-49695848D01*
X53649807Y-49618857D01*
X53649802Y-49618855D01*
X53504000Y-49587865D01*
X53464646Y-49579500D01*
X53275354Y-49579500D01*
X53242897Y-49586398D01*
X53090197Y-49618855D01*
X53090192Y-49618857D01*
X52917270Y-49695848D01*
X52917265Y-49695851D01*
X52764129Y-49807111D01*
X52637466Y-49947785D01*
X52542821Y-50111715D01*
X52542818Y-50111722D01*
X52505326Y-50227112D01*
X52484326Y-50291744D01*
X52464540Y-50480000D01*
X51397321Y-50480000D01*
X51332533Y-50367784D01*
X51205871Y-50227112D01*
X51205870Y-50227111D01*
X51052734Y-50115851D01*
X51052729Y-50115848D01*
X50879807Y-50038857D01*
X50879802Y-50038855D01*
X50724078Y-50005756D01*
X50694646Y-49999500D01*
X50505354Y-49999500D01*
X50475922Y-50005756D01*
X50320197Y-50038855D01*
X50320192Y-50038857D01*
X50147270Y-50115848D01*
X50147265Y-50115851D01*
X49994129Y-50227111D01*
X49867466Y-50367785D01*
X49772821Y-50531715D01*
X49772818Y-50531722D01*
X49728456Y-50668256D01*
X49714326Y-50711744D01*
X49698129Y-50865851D01*
X49694540Y-50900002D01*
X49695366Y-50907863D01*
X49682795Y-50976592D01*
X49635061Y-51027615D01*
X49567321Y-51044731D01*
X49501080Y-51022507D01*
X49479896Y-51003794D01*
X49455871Y-50977112D01*
X49455870Y-50977111D01*
X49302734Y-50865851D01*
X49302729Y-50865848D01*
X49129807Y-50788857D01*
X49129802Y-50788855D01*
X48984000Y-50757865D01*
X48944646Y-50749500D01*
X48755354Y-50749500D01*
X48722897Y-50756398D01*
X48570197Y-50788855D01*
X48570192Y-50788857D01*
X48397270Y-50865848D01*
X48397265Y-50865851D01*
X48244129Y-50977111D01*
X48117466Y-51117785D01*
X48022821Y-51281715D01*
X48022818Y-51281722D01*
X47973921Y-51432214D01*
X47964326Y-51461744D01*
X47944540Y-51650000D01*
X27715196Y-51650000D01*
X27699309Y-51620342D01*
X27698403Y-51618580D01*
X27526012Y-51268777D01*
X27311576Y-50822247D01*
X27310700Y-50820340D01*
X27154757Y-50464810D01*
X26959552Y-50007756D01*
X26958739Y-50005756D01*
X26819501Y-49645505D01*
X26733169Y-49415849D01*
X26643900Y-49178381D01*
X26643200Y-49176415D01*
X26520836Y-48812392D01*
X26473873Y-48668519D01*
X26365299Y-48335894D01*
X26364680Y-48333878D01*
X26259311Y-47967088D01*
X26245728Y-47918284D01*
X26143228Y-47550000D01*
X60344540Y-47550000D01*
X60364326Y-47738256D01*
X60364327Y-47738259D01*
X60422818Y-47918277D01*
X60422821Y-47918284D01*
X60517467Y-48082216D01*
X60644128Y-48222888D01*
X60644129Y-48222888D01*
X60797265Y-48334148D01*
X60797270Y-48334151D01*
X60970192Y-48411142D01*
X60970197Y-48411144D01*
X61155354Y-48450500D01*
X61155355Y-48450500D01*
X61344644Y-48450500D01*
X61344646Y-48450500D01*
X61529803Y-48411144D01*
X61702730Y-48334151D01*
X61855871Y-48222888D01*
X61982533Y-48082216D01*
X62077179Y-47918284D01*
X62135674Y-47738256D01*
X62155460Y-47550000D01*
X62135674Y-47361744D01*
X62077179Y-47181716D01*
X61982533Y-47017784D01*
X61855871Y-46877112D01*
X61855870Y-46877111D01*
X61702734Y-46765851D01*
X61702729Y-46765848D01*
X61529807Y-46688857D01*
X61529802Y-46688855D01*
X61384000Y-46657865D01*
X61344646Y-46649500D01*
X61155354Y-46649500D01*
X61122897Y-46656398D01*
X60970197Y-46688855D01*
X60970192Y-46688857D01*
X60797270Y-46765848D01*
X60797265Y-46765851D01*
X60644129Y-46877111D01*
X60517466Y-47017785D01*
X60422821Y-47181715D01*
X60422818Y-47181722D01*
X60364327Y-47361740D01*
X60364326Y-47361744D01*
X60344540Y-47550000D01*
X26143228Y-47550000D01*
X26124268Y-47481875D01*
X26123725Y-47479777D01*
X26035434Y-47111340D01*
X25921295Y-46618055D01*
X25920840Y-46615911D01*
X25859866Y-46300000D01*
X29824540Y-46300000D01*
X29844326Y-46488256D01*
X29844327Y-46488259D01*
X29902818Y-46668277D01*
X29902821Y-46668284D01*
X29997467Y-46832216D01*
X30087506Y-46932214D01*
X30124129Y-46972888D01*
X30277265Y-47084148D01*
X30277270Y-47084151D01*
X30450192Y-47161142D01*
X30450197Y-47161144D01*
X30635354Y-47200500D01*
X30635355Y-47200500D01*
X30824644Y-47200500D01*
X30824646Y-47200500D01*
X31009803Y-47161144D01*
X31182730Y-47084151D01*
X31335871Y-46972888D01*
X31462533Y-46832216D01*
X31557179Y-46668284D01*
X31615674Y-46488256D01*
X31635460Y-46300000D01*
X31615674Y-46111744D01*
X31576117Y-45990000D01*
X47947040Y-45990000D01*
X47966826Y-46178256D01*
X47966827Y-46178259D01*
X48025318Y-46358277D01*
X48025321Y-46358284D01*
X48119967Y-46522216D01*
X48234574Y-46649500D01*
X48246629Y-46662888D01*
X48399765Y-46774148D01*
X48399770Y-46774151D01*
X48572692Y-46851142D01*
X48572697Y-46851144D01*
X48757854Y-46890500D01*
X48757855Y-46890500D01*
X48947144Y-46890500D01*
X48947146Y-46890500D01*
X49132303Y-46851144D01*
X49305230Y-46774151D01*
X49458371Y-46662888D01*
X49585033Y-46522216D01*
X49655594Y-46400000D01*
X54494540Y-46400000D01*
X54514326Y-46588256D01*
X54514327Y-46588259D01*
X54572818Y-46768277D01*
X54572821Y-46768284D01*
X54667467Y-46932216D01*
X54744513Y-47017784D01*
X54794129Y-47072888D01*
X54947265Y-47184148D01*
X54947270Y-47184151D01*
X55120192Y-47261142D01*
X55120197Y-47261144D01*
X55305354Y-47300500D01*
X55305355Y-47300500D01*
X55494644Y-47300500D01*
X55494646Y-47300500D01*
X55679803Y-47261144D01*
X55852730Y-47184151D01*
X56005871Y-47072888D01*
X56132533Y-46932216D01*
X56227179Y-46768284D01*
X56285674Y-46588256D01*
X56305460Y-46400000D01*
X56285674Y-46211744D01*
X56227179Y-46031716D01*
X56132533Y-45867784D01*
X56005871Y-45727112D01*
X56005870Y-45727111D01*
X55852734Y-45615851D01*
X55852729Y-45615848D01*
X55679807Y-45538857D01*
X55679802Y-45538855D01*
X55534001Y-45507865D01*
X55494646Y-45499500D01*
X55305354Y-45499500D01*
X55272897Y-45506398D01*
X55120197Y-45538855D01*
X55120192Y-45538857D01*
X54947270Y-45615848D01*
X54947265Y-45615851D01*
X54794129Y-45727111D01*
X54667466Y-45867785D01*
X54572821Y-46031715D01*
X54572818Y-46031722D01*
X54542935Y-46123694D01*
X54514326Y-46211744D01*
X54494540Y-46400000D01*
X49655594Y-46400000D01*
X49679679Y-46358284D01*
X49738174Y-46178256D01*
X49757960Y-45990000D01*
X49738174Y-45801744D01*
X49679679Y-45621716D01*
X49585033Y-45457784D01*
X49458371Y-45317112D01*
X49458370Y-45317111D01*
X49305234Y-45205851D01*
X49305229Y-45205848D01*
X49132307Y-45128857D01*
X49132302Y-45128855D01*
X48986501Y-45097865D01*
X48947146Y-45089500D01*
X48757854Y-45089500D01*
X48725397Y-45096398D01*
X48572697Y-45128855D01*
X48572692Y-45128857D01*
X48399770Y-45205848D01*
X48399765Y-45205851D01*
X48246629Y-45317111D01*
X48119966Y-45457785D01*
X48025321Y-45621715D01*
X48025318Y-45621722D01*
X47977860Y-45767784D01*
X47966826Y-45801744D01*
X47947040Y-45990000D01*
X31576117Y-45990000D01*
X31557179Y-45931716D01*
X31462533Y-45767784D01*
X31335871Y-45627112D01*
X31335870Y-45627111D01*
X31182734Y-45515851D01*
X31182729Y-45515848D01*
X31009807Y-45438857D01*
X31009802Y-45438855D01*
X30864001Y-45407865D01*
X30824646Y-45399500D01*
X30635354Y-45399500D01*
X30602897Y-45406398D01*
X30450197Y-45438855D01*
X30450192Y-45438857D01*
X30277270Y-45515848D01*
X30277265Y-45515851D01*
X30124129Y-45627111D01*
X29997466Y-45767785D01*
X29902821Y-45931715D01*
X29902818Y-45931722D01*
X29844327Y-46111740D01*
X29844326Y-46111744D01*
X29824540Y-46300000D01*
X25859866Y-46300000D01*
X25849633Y-46246983D01*
X25756764Y-45746071D01*
X25756401Y-45743891D01*
X25702204Y-45375643D01*
X25630992Y-44867580D01*
X25630729Y-44865402D01*
X25593397Y-44499171D01*
X25591319Y-44477412D01*
X25544257Y-43984508D01*
X25544082Y-43982213D01*
X25523368Y-43619524D01*
X25496697Y-43098323D01*
X25496626Y-43096070D01*
X25492152Y-42738512D01*
X25492055Y-42724746D01*
X51024244Y-42724746D01*
X51044030Y-42913002D01*
X51044031Y-42913005D01*
X51102522Y-43093023D01*
X51102525Y-43093030D01*
X51197171Y-43256962D01*
X51259843Y-43326566D01*
X51323833Y-43397634D01*
X51476969Y-43508894D01*
X51476974Y-43508897D01*
X51649896Y-43585888D01*
X51649901Y-43585890D01*
X51835058Y-43625246D01*
X51835059Y-43625246D01*
X52024348Y-43625246D01*
X52024350Y-43625246D01*
X52209507Y-43585890D01*
X52382434Y-43508897D01*
X52509797Y-43416362D01*
X52575599Y-43392884D01*
X52643653Y-43408709D01*
X52674827Y-43433708D01*
X52709661Y-43472395D01*
X52764129Y-43532888D01*
X52917265Y-43644148D01*
X52917270Y-43644151D01*
X53090192Y-43721142D01*
X53090197Y-43721144D01*
X53275354Y-43760500D01*
X53275355Y-43760500D01*
X53464644Y-43760500D01*
X53464646Y-43760500D01*
X53649803Y-43721144D01*
X53822730Y-43644151D01*
X53975871Y-43532888D01*
X54102533Y-43392216D01*
X54197179Y-43228284D01*
X54255674Y-43048256D01*
X54275460Y-42860000D01*
X54255674Y-42671744D01*
X54197179Y-42491716D01*
X54102533Y-42327784D01*
X53975871Y-42187112D01*
X53975275Y-42186679D01*
X53822734Y-42075851D01*
X53822729Y-42075848D01*
X53649807Y-41998857D01*
X53649802Y-41998855D01*
X53488169Y-41964500D01*
X53464646Y-41959500D01*
X53275354Y-41959500D01*
X53251831Y-41964500D01*
X53090197Y-41998855D01*
X53090192Y-41998857D01*
X52917271Y-42075848D01*
X52789909Y-42168381D01*
X52724102Y-42191860D01*
X52656048Y-42176034D01*
X52624874Y-42151034D01*
X52535574Y-42051857D01*
X52382438Y-41940597D01*
X52382433Y-41940594D01*
X52209511Y-41863603D01*
X52209506Y-41863601D01*
X52063705Y-41832611D01*
X52024350Y-41824246D01*
X51835058Y-41824246D01*
X51802601Y-41831144D01*
X51649901Y-41863601D01*
X51649896Y-41863603D01*
X51476974Y-41940594D01*
X51476969Y-41940597D01*
X51323833Y-42051857D01*
X51197170Y-42192531D01*
X51102525Y-42356461D01*
X51102522Y-42356468D01*
X51058578Y-42491715D01*
X51044030Y-42536490D01*
X51042558Y-42550500D01*
X51025990Y-42708138D01*
X51024244Y-42724746D01*
X25492055Y-42724746D01*
X25488427Y-42211007D01*
X25488456Y-42208645D01*
X25499683Y-41858182D01*
X25507389Y-41650000D01*
X56794540Y-41650000D01*
X56814326Y-41838256D01*
X56814327Y-41838259D01*
X56872818Y-42018277D01*
X56872821Y-42018284D01*
X56967467Y-42182216D01*
X57035865Y-42258179D01*
X57094129Y-42322888D01*
X57247265Y-42434148D01*
X57247270Y-42434151D01*
X57420192Y-42511142D01*
X57420197Y-42511144D01*
X57605354Y-42550500D01*
X57605355Y-42550500D01*
X57794644Y-42550500D01*
X57794646Y-42550500D01*
X57795046Y-42550415D01*
X60645773Y-42550415D01*
X60655696Y-42708137D01*
X60655696Y-42708140D01*
X60680614Y-42784828D01*
X60704533Y-42858441D01*
X60789214Y-42991877D01*
X60904418Y-43100062D01*
X60904420Y-43100063D01*
X60904422Y-43100065D01*
X60981578Y-43142481D01*
X61042908Y-43176197D01*
X61195981Y-43215500D01*
X61195984Y-43215500D01*
X61314348Y-43215500D01*
X61314350Y-43215500D01*
X61314355Y-43215499D01*
X61314359Y-43215499D01*
X61327088Y-43213890D01*
X61431792Y-43200664D01*
X61578732Y-43142486D01*
X61642618Y-43096070D01*
X61706583Y-43049597D01*
X61706584Y-43049596D01*
X61706583Y-43049596D01*
X61706587Y-43049594D01*
X61807324Y-42927823D01*
X61874614Y-42784826D01*
X61904227Y-42629588D01*
X61899246Y-42550415D01*
X63395773Y-42550415D01*
X63405696Y-42708137D01*
X63405696Y-42708140D01*
X63430614Y-42784828D01*
X63454533Y-42858441D01*
X63539214Y-42991877D01*
X63654418Y-43100062D01*
X63654420Y-43100063D01*
X63654422Y-43100065D01*
X63731578Y-43142481D01*
X63792908Y-43176197D01*
X63945981Y-43215500D01*
X63945984Y-43215500D01*
X64064348Y-43215500D01*
X64064350Y-43215500D01*
X64064355Y-43215499D01*
X64064359Y-43215499D01*
X64077088Y-43213890D01*
X64181792Y-43200664D01*
X64328732Y-43142486D01*
X64392618Y-43096070D01*
X64456583Y-43049597D01*
X64456584Y-43049596D01*
X64456583Y-43049596D01*
X64456587Y-43049594D01*
X64557324Y-42927823D01*
X64624614Y-42784826D01*
X64654227Y-42629588D01*
X64644304Y-42471862D01*
X64595467Y-42321559D01*
X64510786Y-42188123D01*
X64395582Y-42079938D01*
X64395579Y-42079936D01*
X64395577Y-42079934D01*
X64257095Y-42003804D01*
X64257087Y-42003801D01*
X64104021Y-41964500D01*
X64104019Y-41964500D01*
X63985650Y-41964500D01*
X63985640Y-41964500D01*
X63868208Y-41979336D01*
X63868206Y-41979336D01*
X63721269Y-42037513D01*
X63721260Y-42037518D01*
X63593416Y-42130402D01*
X63593415Y-42130403D01*
X63492674Y-42252178D01*
X63425387Y-42395171D01*
X63425385Y-42395174D01*
X63410757Y-42471862D01*
X63395773Y-42550412D01*
X63395773Y-42550414D01*
X63395773Y-42550415D01*
X61899246Y-42550415D01*
X61894304Y-42471862D01*
X61845467Y-42321559D01*
X61760786Y-42188123D01*
X61645582Y-42079938D01*
X61645579Y-42079936D01*
X61645577Y-42079934D01*
X61507095Y-42003804D01*
X61507087Y-42003801D01*
X61354021Y-41964500D01*
X61354019Y-41964500D01*
X61235650Y-41964500D01*
X61235640Y-41964500D01*
X61118208Y-41979336D01*
X61118206Y-41979336D01*
X60971269Y-42037513D01*
X60971260Y-42037518D01*
X60843416Y-42130402D01*
X60843415Y-42130403D01*
X60742674Y-42252178D01*
X60675387Y-42395171D01*
X60675385Y-42395174D01*
X60660757Y-42471862D01*
X60645773Y-42550412D01*
X60645773Y-42550414D01*
X60645773Y-42550415D01*
X57795046Y-42550415D01*
X57979803Y-42511144D01*
X58152730Y-42434151D01*
X58305871Y-42322888D01*
X58432533Y-42182216D01*
X58527179Y-42018284D01*
X58585674Y-41838256D01*
X58605460Y-41650000D01*
X58585674Y-41461744D01*
X58527179Y-41281716D01*
X58432533Y-41117784D01*
X58305871Y-40977112D01*
X58305870Y-40977111D01*
X58152734Y-40865851D01*
X58152729Y-40865848D01*
X57979807Y-40788857D01*
X57979802Y-40788855D01*
X57834000Y-40757865D01*
X57794646Y-40749500D01*
X57605354Y-40749500D01*
X57572897Y-40756398D01*
X57420197Y-40788855D01*
X57420192Y-40788857D01*
X57247270Y-40865848D01*
X57247265Y-40865851D01*
X57094129Y-40977111D01*
X56967466Y-41117785D01*
X56872821Y-41281715D01*
X56872818Y-41281722D01*
X56814327Y-41461740D01*
X56814326Y-41461744D01*
X56794540Y-41650000D01*
X25507389Y-41650000D01*
X25519455Y-41324060D01*
X25519583Y-41321807D01*
X25545789Y-40980216D01*
X25589718Y-40439513D01*
X25589968Y-40437043D01*
X25606646Y-40300000D01*
X33244540Y-40300000D01*
X33264326Y-40488256D01*
X33264327Y-40488259D01*
X33322818Y-40668277D01*
X33322821Y-40668284D01*
X33417467Y-40832216D01*
X33544129Y-40972888D01*
X33697265Y-41084148D01*
X33697270Y-41084151D01*
X33870192Y-41161142D01*
X33870197Y-41161144D01*
X34055354Y-41200500D01*
X34055355Y-41200500D01*
X34244644Y-41200500D01*
X34244646Y-41200500D01*
X34429803Y-41161144D01*
X34602730Y-41084151D01*
X34755871Y-40972888D01*
X34882533Y-40832216D01*
X34977179Y-40668284D01*
X35035674Y-40488256D01*
X35055460Y-40300000D01*
X35035674Y-40111744D01*
X34977179Y-39931716D01*
X34882533Y-39767784D01*
X34755871Y-39627112D01*
X34755870Y-39627111D01*
X34602734Y-39515851D01*
X34602729Y-39515848D01*
X34429807Y-39438857D01*
X34429802Y-39438855D01*
X34284000Y-39407865D01*
X34244646Y-39399500D01*
X34055354Y-39399500D01*
X34022897Y-39406398D01*
X33870197Y-39438855D01*
X33870192Y-39438857D01*
X33697270Y-39515848D01*
X33697265Y-39515851D01*
X33544129Y-39627111D01*
X33417466Y-39767785D01*
X33322821Y-39931715D01*
X33322818Y-39931722D01*
X33272786Y-40085707D01*
X33264326Y-40111744D01*
X33244540Y-40300000D01*
X25606646Y-40300000D01*
X25606646Y-40299999D01*
X25630101Y-40107261D01*
X25699095Y-39558764D01*
X25699434Y-39556449D01*
X25752063Y-39241628D01*
X25847345Y-38683862D01*
X25847819Y-38681394D01*
X25910839Y-38385978D01*
X26034207Y-37816284D01*
X26034773Y-37813911D01*
X26105176Y-37543519D01*
X26150539Y-37371142D01*
X26259287Y-36957894D01*
X26259999Y-36955404D01*
X26266500Y-36934332D01*
X26332285Y-36721100D01*
X26522191Y-36110191D01*
X26522973Y-36107852D01*
X26587777Y-35926838D01*
X26587924Y-35926428D01*
X26587978Y-35926447D01*
X26587991Y-35926241D01*
X26812189Y-35303268D01*
X34870945Y-35303268D01*
X34890731Y-35491524D01*
X34890732Y-35491527D01*
X34949223Y-35671545D01*
X34949226Y-35671552D01*
X35043872Y-35835484D01*
X35083879Y-35879916D01*
X35090676Y-35887465D01*
X35120906Y-35950456D01*
X35112281Y-36019792D01*
X35105913Y-36032437D01*
X35042821Y-36141715D01*
X35042818Y-36141722D01*
X34984327Y-36321740D01*
X34984326Y-36321744D01*
X34964540Y-36510000D01*
X34984326Y-36698256D01*
X34984327Y-36698259D01*
X35042818Y-36878277D01*
X35042821Y-36878284D01*
X35137467Y-37042216D01*
X35264129Y-37182888D01*
X35417265Y-37294148D01*
X35417270Y-37294151D01*
X35590192Y-37371142D01*
X35590197Y-37371144D01*
X35775354Y-37410500D01*
X35775355Y-37410500D01*
X35964644Y-37410500D01*
X35964646Y-37410500D01*
X36149803Y-37371144D01*
X36322730Y-37294151D01*
X36475871Y-37182888D01*
X36602533Y-37042216D01*
X36697179Y-36878284D01*
X36755674Y-36698256D01*
X36775460Y-36510000D01*
X36755674Y-36321744D01*
X36699871Y-36150000D01*
X42094540Y-36150000D01*
X42114326Y-36338256D01*
X42114327Y-36338259D01*
X42172818Y-36518277D01*
X42172821Y-36518284D01*
X42267466Y-36682215D01*
X42323811Y-36744793D01*
X42354041Y-36807785D01*
X42345415Y-36877120D01*
X42323815Y-36910732D01*
X42317472Y-36917776D01*
X42317464Y-36917787D01*
X42222821Y-37081715D01*
X42222818Y-37081722D01*
X42164327Y-37261740D01*
X42164326Y-37261744D01*
X42144540Y-37450000D01*
X42164326Y-37638256D01*
X42164327Y-37638259D01*
X42222818Y-37818277D01*
X42222821Y-37818284D01*
X42317467Y-37982216D01*
X42444128Y-38122888D01*
X42444129Y-38122888D01*
X42597265Y-38234148D01*
X42597270Y-38234151D01*
X42770192Y-38311142D01*
X42770197Y-38311144D01*
X42955354Y-38350500D01*
X42955355Y-38350500D01*
X43144644Y-38350500D01*
X43144646Y-38350500D01*
X43329803Y-38311144D01*
X43502730Y-38234151D01*
X43655871Y-38122888D01*
X43782533Y-37982216D01*
X43877179Y-37818284D01*
X43935674Y-37638256D01*
X43955460Y-37450000D01*
X43935674Y-37261744D01*
X43877179Y-37081716D01*
X43792087Y-36934332D01*
X43782535Y-36917787D01*
X43782534Y-36917786D01*
X43782533Y-36917784D01*
X43726185Y-36855204D01*
X43695957Y-36792215D01*
X43704582Y-36722880D01*
X43726191Y-36689258D01*
X43732533Y-36682216D01*
X43827179Y-36518284D01*
X43885674Y-36338256D01*
X43905460Y-36150000D01*
X43885674Y-35961744D01*
X43827179Y-35781716D01*
X43732533Y-35617784D01*
X43605871Y-35477112D01*
X43605870Y-35477111D01*
X43452734Y-35365851D01*
X43452729Y-35365848D01*
X43279807Y-35288857D01*
X43279802Y-35288855D01*
X43107353Y-35252201D01*
X43094646Y-35249500D01*
X42905354Y-35249500D01*
X42892647Y-35252201D01*
X42720197Y-35288855D01*
X42720192Y-35288857D01*
X42547270Y-35365848D01*
X42547265Y-35365851D01*
X42394129Y-35477111D01*
X42267466Y-35617785D01*
X42172821Y-35781715D01*
X42172818Y-35781722D01*
X42115345Y-35958607D01*
X42114326Y-35961744D01*
X42094540Y-36150000D01*
X36699871Y-36150000D01*
X36697179Y-36141716D01*
X36602533Y-35977784D01*
X36556292Y-35926428D01*
X36555729Y-35925803D01*
X36525499Y-35862812D01*
X36534124Y-35793476D01*
X36540492Y-35780831D01*
X36548103Y-35767647D01*
X36603584Y-35671552D01*
X36662079Y-35491524D01*
X36681865Y-35303268D01*
X36662079Y-35115012D01*
X36603584Y-34934984D01*
X36508938Y-34771052D01*
X36382276Y-34630380D01*
X36382275Y-34630379D01*
X36229139Y-34519119D01*
X36229134Y-34519116D01*
X36056212Y-34442125D01*
X36056207Y-34442123D01*
X35910405Y-34411133D01*
X35871051Y-34402768D01*
X35681759Y-34402768D01*
X35649302Y-34409666D01*
X35496602Y-34442123D01*
X35496597Y-34442125D01*
X35323675Y-34519116D01*
X35323670Y-34519119D01*
X35170534Y-34630379D01*
X35043871Y-34771053D01*
X34949226Y-34934983D01*
X34949223Y-34934990D01*
X34890732Y-35115008D01*
X34890731Y-35115012D01*
X34870945Y-35303268D01*
X26812189Y-35303268D01*
X26822352Y-35275027D01*
X26823251Y-35272686D01*
X26859778Y-35183399D01*
X26860023Y-35182802D01*
X26860114Y-35182690D01*
X26860076Y-35182675D01*
X27158409Y-34455901D01*
X27159502Y-34453397D01*
X27529273Y-33654686D01*
X27530426Y-33652333D01*
X27900863Y-32936677D01*
X27949161Y-32886191D01*
X28010913Y-32869680D01*
X63024299Y-32850541D01*
X63091349Y-32870189D01*
G37*
%TD.AperFunction*%
%TD*%
M02*
