%TF.GenerationSoftware,KiCad,Pcbnew,7.0.5*%
%TF.CreationDate,2025-08-15T19:59:52+01:00*%
%TF.ProjectId,smartwatch,736d6172-7477-4617-9463-682e6b696361,rev?*%
%TF.SameCoordinates,Original*%
%TF.FileFunction,Copper,L4,Bot*%
%TF.FilePolarity,Positive*%
%FSLAX46Y46*%
G04 Gerber Fmt 4.6, Leading zero omitted, Abs format (unit mm)*
G04 Created by KiCad (PCBNEW 7.0.5) date 2025-08-15 19:59:52*
%MOMM*%
%LPD*%
G01*
G04 APERTURE LIST*
G04 Aperture macros list*
%AMRoundRect*
0 Rectangle with rounded corners*
0 $1 Rounding radius*
0 $2 $3 $4 $5 $6 $7 $8 $9 X,Y pos of 4 corners*
0 Add a 4 corners polygon primitive as box body*
4,1,4,$2,$3,$4,$5,$6,$7,$8,$9,$2,$3,0*
0 Add four circle primitives for the rounded corners*
1,1,$1+$1,$2,$3*
1,1,$1+$1,$4,$5*
1,1,$1+$1,$6,$7*
1,1,$1+$1,$8,$9*
0 Add four rect primitives between the rounded corners*
20,1,$1+$1,$2,$3,$4,$5,0*
20,1,$1+$1,$4,$5,$6,$7,0*
20,1,$1+$1,$6,$7,$8,$9,0*
20,1,$1+$1,$8,$9,$2,$3,0*%
G04 Aperture macros list end*
%TA.AperFunction,SMDPad,CuDef*%
%ADD10RoundRect,0.250000X-0.275000X0.400000X-0.275000X-0.400000X0.275000X-0.400000X0.275000X0.400000X0*%
%TD*%
%TA.AperFunction,SMDPad,CuDef*%
%ADD11RoundRect,0.150000X0.150000X0.700000X-0.150000X0.700000X-0.150000X-0.700000X0.150000X-0.700000X0*%
%TD*%
%TA.AperFunction,SMDPad,CuDef*%
%ADD12RoundRect,0.250000X0.250000X1.100000X-0.250000X1.100000X-0.250000X-1.100000X0.250000X-1.100000X0*%
%TD*%
%TA.AperFunction,SMDPad,CuDef*%
%ADD13RoundRect,0.150000X-0.150000X-0.700000X0.150000X-0.700000X0.150000X0.700000X-0.150000X0.700000X0*%
%TD*%
%TA.AperFunction,SMDPad,CuDef*%
%ADD14RoundRect,0.250000X-0.250000X-1.100000X0.250000X-1.100000X0.250000X1.100000X-0.250000X1.100000X0*%
%TD*%
%TA.AperFunction,SMDPad,CuDef*%
%ADD15R,1.500000X2.000000*%
%TD*%
%TA.AperFunction,SMDPad,CuDef*%
%ADD16R,3.800000X2.000000*%
%TD*%
%TA.AperFunction,SMDPad,CuDef*%
%ADD17RoundRect,0.250000X0.450000X-0.350000X0.450000X0.350000X-0.450000X0.350000X-0.450000X-0.350000X0*%
%TD*%
%TA.AperFunction,SMDPad,CuDef*%
%ADD18RoundRect,0.250000X-0.350000X-0.450000X0.350000X-0.450000X0.350000X0.450000X-0.350000X0.450000X0*%
%TD*%
%TA.AperFunction,SMDPad,CuDef*%
%ADD19RoundRect,0.250000X-0.450000X0.350000X-0.450000X-0.350000X0.450000X-0.350000X0.450000X0.350000X0*%
%TD*%
%TA.AperFunction,SMDPad,CuDef*%
%ADD20RoundRect,0.150000X-0.512500X-0.150000X0.512500X-0.150000X0.512500X0.150000X-0.512500X0.150000X0*%
%TD*%
%TA.AperFunction,SMDPad,CuDef*%
%ADD21R,1.600000X1.400000*%
%TD*%
%TA.AperFunction,SMDPad,CuDef*%
%ADD22RoundRect,0.250000X0.350000X0.450000X-0.350000X0.450000X-0.350000X-0.450000X0.350000X-0.450000X0*%
%TD*%
%TA.AperFunction,SMDPad,CuDef*%
%ADD23RoundRect,0.250000X0.337500X0.475000X-0.337500X0.475000X-0.337500X-0.475000X0.337500X-0.475000X0*%
%TD*%
%TA.AperFunction,SMDPad,CuDef*%
%ADD24RoundRect,0.250000X-0.475000X0.337500X-0.475000X-0.337500X0.475000X-0.337500X0.475000X0.337500X0*%
%TD*%
%TA.AperFunction,SMDPad,CuDef*%
%ADD25RoundRect,0.250000X0.325000X0.450000X-0.325000X0.450000X-0.325000X-0.450000X0.325000X-0.450000X0*%
%TD*%
%TA.AperFunction,SMDPad,CuDef*%
%ADD26RoundRect,0.250000X-0.325000X-0.450000X0.325000X-0.450000X0.325000X0.450000X-0.325000X0.450000X0*%
%TD*%
%TA.AperFunction,SMDPad,CuDef*%
%ADD27R,1.000000X1.200000*%
%TD*%
%TA.AperFunction,ViaPad*%
%ADD28C,0.800000*%
%TD*%
%TA.AperFunction,Conductor*%
%ADD29C,0.250000*%
%TD*%
%TA.AperFunction,Conductor*%
%ADD30C,0.500000*%
%TD*%
G04 APERTURE END LIST*
D10*
%TO.P,C12,1*%
%TO.N,DC_5V_IN*%
X36800000Y-54750000D03*
%TO.P,C12,2*%
%TO.N,DC_GND*%
X36800000Y-56700000D03*
%TD*%
D11*
%TO.P,J6,1,1*%
%TO.N,TX*%
X57850000Y-34400000D03*
%TO.P,J6,2,2*%
%TO.N,RX*%
X56600000Y-34400000D03*
D12*
%TO.P,J6,MP*%
%TO.N,N/C*%
X54750000Y-37600000D03*
X59700000Y-37600000D03*
%TD*%
D13*
%TO.P,J5,1,1*%
%TO.N,DC_5V_IN*%
X42500000Y-58300000D03*
%TO.P,J5,2,2*%
%TO.N,DC_GND*%
X43750000Y-58300000D03*
%TO.P,J5,3,3*%
%TO.N,BAT_VDD*%
X45000000Y-58300000D03*
%TO.P,J5,4,4*%
%TO.N,DC_GND*%
X46250000Y-58300000D03*
D14*
%TO.P,J5,MP*%
%TO.N,N/C*%
X48100000Y-55100000D03*
X40650000Y-55100000D03*
%TD*%
D15*
%TO.P,U4,1,GND*%
%TO.N,DC_GND*%
X50890000Y-41180000D03*
%TO.P,U4,2,VO*%
%TO.N,3V3*%
X48590000Y-41180000D03*
D16*
X48590000Y-34880000D03*
D15*
%TO.P,U4,3,VI*%
%TO.N,BAT_VDD*%
X46290000Y-41180000D03*
%TD*%
D17*
%TO.P,R1,1*%
%TO.N,Net-(U2-PROG)*%
X43200000Y-51700000D03*
%TO.P,R1,2*%
%TO.N,DC_GND*%
X43200000Y-49700000D03*
%TD*%
D18*
%TO.P,R3,1*%
%TO.N,Net-(GREEN1-K)*%
X38300000Y-45100000D03*
%TO.P,R3,2*%
%TO.N,DC_GND*%
X40300000Y-45100000D03*
%TD*%
D19*
%TO.P,R9,1*%
%TO.N,EN*%
X29300000Y-41800000D03*
%TO.P,R9,2*%
%TO.N,3V3*%
X29300000Y-43800000D03*
%TD*%
D20*
%TO.P,U2,1,STAT*%
%TO.N,MCP_1*%
X37725000Y-52200000D03*
%TO.P,U2,2,V_{SS}*%
%TO.N,DC_GND*%
X37725000Y-51250000D03*
%TO.P,U2,3,V_{BAT}*%
%TO.N,BAT_VDD*%
X37725000Y-50300000D03*
%TO.P,U2,4,V_{DD}*%
%TO.N,DC_5V_IN*%
X40000000Y-50300000D03*
%TO.P,U2,5,PROG*%
%TO.N,Net-(U2-PROG)*%
X40000000Y-52200000D03*
%TD*%
D21*
%TO.P,BOOT/FLASH1,1,1*%
%TO.N,IO0*%
X50550000Y-52800000D03*
X58550000Y-52800000D03*
%TO.P,BOOT/FLASH1,2,2*%
%TO.N,DC_GND*%
X50550000Y-48300000D03*
X58550000Y-48300000D03*
%TD*%
D17*
%TO.P,R4,1*%
%TO.N,Net-(R4-Pad1)*%
X56400000Y-43900000D03*
%TO.P,R4,2*%
%TO.N,BTN_INP*%
X56400000Y-41900000D03*
%TD*%
D22*
%TO.P,R6,1*%
%TO.N,BAT_VDD*%
X34200000Y-51200000D03*
%TO.P,R6,2*%
%TO.N,BAT_MEASURE*%
X32200000Y-51200000D03*
%TD*%
D10*
%TO.P,C11,1*%
%TO.N,BAT_VDD*%
X46300000Y-43750000D03*
%TO.P,C11,2*%
%TO.N,DC_GND*%
X46300000Y-45700000D03*
%TD*%
D19*
%TO.P,R8,1*%
%TO.N,3V3*%
X60950000Y-49200000D03*
%TO.P,R8,2*%
%TO.N,IO0*%
X60950000Y-51200000D03*
%TD*%
D23*
%TO.P,C1,1*%
%TO.N,DC_GND*%
X53937500Y-58400000D03*
%TO.P,C1,2*%
%TO.N,BAT_VDD*%
X51862500Y-58400000D03*
%TD*%
D22*
%TO.P,R7,1*%
%TO.N,BAT_MEASURE*%
X34200000Y-54150000D03*
%TO.P,R7,2*%
%TO.N,DC_GND*%
X32200000Y-54150000D03*
%TD*%
D19*
%TO.P,R5,1*%
%TO.N,Net-(R4-Pad1)*%
X58450000Y-43350000D03*
%TO.P,R5,2*%
%TO.N,3V3*%
X58450000Y-45350000D03*
%TD*%
D24*
%TO.P,C10,1*%
%TO.N,DC_GND*%
X39300000Y-34800000D03*
%TO.P,C10,2*%
%TO.N,EN*%
X39300000Y-36875000D03*
%TD*%
D23*
%TO.P,C3,1*%
%TO.N,DC_GND*%
X50927500Y-45990000D03*
%TO.P,C3,2*%
%TO.N,3V3*%
X48852500Y-45990000D03*
%TD*%
D25*
%TO.P,GREEN1,1,K*%
%TO.N,Net-(GREEN1-K)*%
X35950000Y-45100000D03*
%TO.P,GREEN1,2,A*%
%TO.N,MCP_1*%
X33900000Y-45100000D03*
%TD*%
D21*
%TO.P,RST1,1,1*%
%TO.N,EN*%
X29020000Y-38700000D03*
X37020000Y-38700000D03*
%TO.P,RST1,2,2*%
%TO.N,DC_GND*%
X29020000Y-34200000D03*
X37020000Y-34200000D03*
%TD*%
D23*
%TO.P,C4,1*%
%TO.N,DC_GND*%
X50945000Y-43750000D03*
%TO.P,C4,2*%
%TO.N,3V3*%
X48870000Y-43750000D03*
%TD*%
D22*
%TO.P,R2,1*%
%TO.N,DC_5V_IN*%
X40200000Y-47900000D03*
%TO.P,R2,2*%
%TO.N,Net-(RED1-A)*%
X38200000Y-47900000D03*
%TD*%
D26*
%TO.P,RED1,1,K*%
%TO.N,MCP_1*%
X34000000Y-47900000D03*
%TO.P,RED1,2,A*%
%TO.N,Net-(RED1-A)*%
X36050000Y-47900000D03*
%TD*%
D23*
%TO.P,C2,1*%
%TO.N,DC_GND*%
X53900000Y-56200000D03*
%TO.P,C2,2*%
%TO.N,BAT_VDD*%
X51825000Y-56200000D03*
%TD*%
D24*
%TO.P,C9,1*%
%TO.N,DC_GND*%
X47850000Y-49362500D03*
%TO.P,C9,2*%
%TO.N,IO0*%
X47850000Y-51437500D03*
%TD*%
D27*
%TO.P,SW1,1,1*%
%TO.N,Net-(R4-Pad1)*%
X62250000Y-39800000D03*
X62250000Y-45400000D03*
%TO.P,SW1,2,2*%
%TO.N,DC_GND*%
X63950000Y-39800000D03*
X63950000Y-45400000D03*
%TD*%
D28*
%TO.N,BTN_INP*%
X51548790Y-39337733D03*
%TO.N,DC_GND*%
X53370000Y-33970000D03*
%TO.N,RX*%
X51375500Y-34700000D03*
%TO.N,TX*%
X52035851Y-33385196D03*
%TO.N,DC_GND*%
X43100000Y-49700000D03*
X37800000Y-51300000D03*
X43120000Y-40365000D03*
%TO.N,IO0*%
X53370000Y-50480000D03*
%TO.N,DC_GND*%
X59773912Y-53923912D03*
X50927500Y-45990000D03*
X30750000Y-48350000D03*
X30000000Y-36620000D03*
X27850000Y-48350000D03*
X63950000Y-45400000D03*
X35870000Y-33970000D03*
X35850000Y-51700000D03*
X32258000Y-54102000D03*
%TO.N,3V3*%
X55762500Y-56100000D03*
X61000000Y-49150000D03*
X60174500Y-46100000D03*
X30730000Y-46300000D03*
X35776405Y-35303268D03*
X48852500Y-45990000D03*
%TO.N,EN*%
X35870000Y-36510000D03*
%TO.N,SCR_SCLK*%
X53370000Y-44130000D03*
X56500000Y-46950000D03*
%TO.N,SCR_MISO*%
X56450000Y-49550000D03*
X50150000Y-50400000D03*
%TO.N,SCR_MOSI*%
X56600000Y-48300000D03*
X53370000Y-40320000D03*
%TO.N,BAT_MEASURE*%
X34150000Y-40300000D03*
%TO.N,SCR_RST*%
X54850000Y-51350000D03*
X58200000Y-49750000D03*
%TO.N,TOUCH_RST*%
X38100000Y-43250000D03*
X40000000Y-39050000D03*
X56550000Y-36950000D03*
X49950000Y-38350000D03*
%TO.N,TOUCH_IRQ*%
X37400000Y-42400000D03*
X38150000Y-40865500D03*
X50550000Y-39300000D03*
X56500000Y-38250000D03*
%TO.N,SCR_BL*%
X58650000Y-51000000D03*
X53370000Y-53020000D03*
%TD*%
D29*
%TO.N,BTN_INP*%
X55975305Y-41900000D02*
X53413038Y-39337733D01*
X53413038Y-39337733D02*
X51548790Y-39337733D01*
X56400000Y-41900000D02*
X55975305Y-41900000D01*
%TO.N,RX*%
X56300000Y-34700000D02*
X56600000Y-34400000D01*
X51375500Y-34700000D02*
X56300000Y-34700000D01*
%TO.N,TX*%
X57850000Y-33950000D02*
X57850000Y-34400000D01*
X57125000Y-33225000D02*
X57850000Y-33950000D01*
X52196047Y-33225000D02*
X57125000Y-33225000D01*
X52035851Y-33385196D02*
X52196047Y-33225000D01*
%TO.N,Net-(R4-Pad1)*%
X56400000Y-43900000D02*
X57900000Y-43900000D01*
X57900000Y-43900000D02*
X58450000Y-43350000D01*
%TO.N,TOUCH_RST*%
X49950000Y-38100000D02*
X49950000Y-38350000D01*
X51100000Y-36950000D02*
X49950000Y-38100000D01*
X53925000Y-36261827D02*
X53925000Y-36950000D01*
X54261827Y-35925000D02*
X53925000Y-36261827D01*
X53925000Y-36950000D02*
X51100000Y-36950000D01*
X55238173Y-35925000D02*
X54261827Y-35925000D01*
X55575000Y-36950000D02*
X55575000Y-36261827D01*
X55575000Y-36261827D02*
X55238173Y-35925000D01*
X56550000Y-36950000D02*
X55575000Y-36950000D01*
%TO.N,TOUCH_IRQ*%
X51600000Y-38250000D02*
X50550000Y-39300000D01*
X53924999Y-38250000D02*
X51600000Y-38250000D01*
X55238173Y-39275000D02*
X54261827Y-39275000D01*
X54261827Y-39275000D02*
X53925000Y-38938173D01*
X55575000Y-38938173D02*
X55238173Y-39275000D01*
X55575000Y-38250000D02*
X55575000Y-38938173D01*
X56500000Y-38250000D02*
X55575000Y-38250000D01*
X53925000Y-38938173D02*
X53924999Y-38250000D01*
%TO.N,DC_GND*%
X52887500Y-59450000D02*
X53937500Y-58400000D01*
X47400000Y-59450000D02*
X52887500Y-59450000D01*
X46250000Y-58300000D02*
X47400000Y-59450000D01*
%TO.N,BAT_VDD*%
X45000000Y-58028249D02*
X45000000Y-58300000D01*
X44096751Y-57125000D02*
X45000000Y-58028249D01*
X43375000Y-57125000D02*
X44096751Y-57125000D01*
X43125000Y-57375000D02*
X43375000Y-57125000D01*
X43125000Y-59196751D02*
X43125000Y-57375000D01*
X42846751Y-59475000D02*
X43125000Y-59196751D01*
X41675000Y-59475000D02*
X42846751Y-59475000D01*
X37925000Y-55725000D02*
X41675000Y-59475000D01*
X36125000Y-55725000D02*
X37925000Y-55725000D01*
X35950000Y-55550000D02*
X36125000Y-55725000D01*
X35950000Y-52950000D02*
X35950000Y-55550000D01*
X34200000Y-51200000D02*
X35950000Y-52950000D01*
D30*
%TO.N,DC_5V_IN*%
X37850000Y-54750000D02*
X41400000Y-58300000D01*
X36800000Y-54750000D02*
X37850000Y-54750000D01*
X41400000Y-58300000D02*
X42500000Y-58300000D01*
D29*
%TO.N,DC_GND*%
X43200000Y-49700000D02*
X43100000Y-49700000D01*
%TO.N,BAT_VDD*%
X43175000Y-46875000D02*
X46300000Y-43750000D01*
X39275000Y-47211827D02*
X39611827Y-46875000D01*
X39275000Y-48750000D02*
X39275000Y-47211827D01*
X37725000Y-50300000D02*
X39275000Y-48750000D01*
X39611827Y-46875000D02*
X43175000Y-46875000D01*
X45400000Y-44650000D02*
X46300000Y-43750000D01*
X46350000Y-52350000D02*
X45400000Y-51400000D01*
X47975000Y-52350000D02*
X46350000Y-52350000D01*
X51825000Y-56200000D02*
X47975000Y-52350000D01*
X45400000Y-51400000D02*
X45400000Y-44650000D01*
%TO.N,DC_GND*%
X43750000Y-58571751D02*
X43750000Y-58300000D01*
X44678249Y-59500000D02*
X43750000Y-58571751D01*
X45321751Y-59500000D02*
X44678249Y-59500000D01*
X46250000Y-58571751D02*
X45321751Y-59500000D01*
X46250000Y-58300000D02*
X46250000Y-58571751D01*
%TO.N,BAT_VDD*%
X51250000Y-56775000D02*
X51825000Y-56200000D01*
X46253249Y-56775000D02*
X51250000Y-56775000D01*
X45000000Y-58028249D02*
X46253249Y-56775000D01*
%TO.N,DC_GND*%
X59502824Y-54195000D02*
X59773912Y-53923912D01*
X55905000Y-54195000D02*
X59502824Y-54195000D01*
X53900000Y-56200000D02*
X55905000Y-54195000D01*
X36800000Y-56700000D02*
X34856000Y-56700000D01*
X34856000Y-56700000D02*
X32258000Y-54102000D01*
X37750000Y-51250000D02*
X37800000Y-51300000D01*
X37725000Y-51250000D02*
X37750000Y-51250000D01*
X53937500Y-56237500D02*
X53900000Y-56200000D01*
X53937500Y-58400000D02*
X53937500Y-56237500D01*
%TO.N,BAT_VDD*%
X51862500Y-56237500D02*
X51825000Y-56200000D01*
X51862500Y-58400000D02*
X51862500Y-56237500D01*
%TO.N,DC_GND*%
X40300000Y-41900000D02*
X41835000Y-40365000D01*
X41835000Y-40365000D02*
X43120000Y-40365000D01*
X40300000Y-45100000D02*
X40300000Y-41900000D01*
X46300000Y-47812500D02*
X47850000Y-49362500D01*
X46300000Y-45700000D02*
X46300000Y-47812500D01*
%TO.N,BAT_VDD*%
X46290000Y-43740000D02*
X46290000Y-41180000D01*
X46300000Y-43750000D02*
X46290000Y-43740000D01*
%TO.N,Net-(U2-PROG)*%
X42700000Y-52200000D02*
X43200000Y-51700000D01*
X40000000Y-52200000D02*
X42700000Y-52200000D01*
%TO.N,MCP_1*%
X33900000Y-47800000D02*
X34000000Y-47900000D01*
X33900000Y-45100000D02*
X33900000Y-47800000D01*
%TO.N,Net-(GREEN1-K)*%
X35950000Y-45100000D02*
X38300000Y-45100000D01*
%TO.N,Net-(RED1-A)*%
X36050000Y-47900000D02*
X38200000Y-47900000D01*
%TO.N,MCP_1*%
X36700000Y-51559251D02*
X36700000Y-50600000D01*
X37340749Y-52200000D02*
X36700000Y-51559251D01*
X37725000Y-52200000D02*
X37340749Y-52200000D01*
X36700000Y-50600000D02*
X34000000Y-47900000D01*
D30*
%TO.N,DC_5V_IN*%
X38837500Y-52712500D02*
X36800000Y-54750000D01*
X38837500Y-51462500D02*
X38837500Y-52712500D01*
X40000000Y-50300000D02*
X38837500Y-51462500D01*
X40200000Y-50100000D02*
X40000000Y-50300000D01*
X40200000Y-47900000D02*
X40200000Y-50100000D01*
D29*
%TO.N,IO0*%
X60950000Y-51200000D02*
X59350000Y-52800000D01*
X50550000Y-52800000D02*
X52870000Y-50480000D01*
X59350000Y-52800000D02*
X58550000Y-52800000D01*
X47850000Y-51437500D02*
X49212500Y-52800000D01*
X52870000Y-50480000D02*
X53370000Y-50480000D01*
X50550000Y-52800000D02*
X51495000Y-53745000D01*
X49212500Y-52800000D02*
X50550000Y-52800000D01*
X51495000Y-53745000D02*
X57605000Y-53745000D01*
X57605000Y-53745000D02*
X58550000Y-52800000D01*
%TO.N,DC_GND*%
X50550000Y-48300000D02*
X48912500Y-48300000D01*
X59786827Y-47063173D02*
X62286827Y-47063173D01*
X50945000Y-45972500D02*
X50927500Y-45990000D01*
X63725000Y-45175000D02*
X63725000Y-40025000D01*
X62286827Y-47063173D02*
X63950000Y-45400000D01*
X63725000Y-40025000D02*
X63950000Y-39800000D01*
X50890000Y-41180000D02*
X50890000Y-43695000D01*
X37020000Y-34200000D02*
X29020000Y-34200000D01*
X32210000Y-54150000D02*
X32258000Y-54102000D01*
X39300000Y-34800000D02*
X38700000Y-34200000D01*
X58550000Y-48300000D02*
X59786827Y-47063173D01*
X63950000Y-45400000D02*
X63725000Y-45175000D01*
X50550000Y-46367500D02*
X50927500Y-45990000D01*
X50550000Y-48300000D02*
X50550000Y-46367500D01*
X50890000Y-43695000D02*
X50945000Y-43750000D01*
X36100000Y-34200000D02*
X35870000Y-33970000D01*
X48912500Y-48300000D02*
X47850000Y-49362500D01*
X32200000Y-54150000D02*
X32210000Y-54150000D01*
X38700000Y-34200000D02*
X37020000Y-34200000D01*
X37020000Y-34200000D02*
X36100000Y-34200000D01*
X50945000Y-43750000D02*
X50945000Y-45972500D01*
%TO.N,3V3*%
X29300000Y-44870000D02*
X30730000Y-46300000D01*
X48590000Y-41180000D02*
X48590000Y-34880000D01*
X48590000Y-41180000D02*
X48590000Y-43470000D01*
X58450000Y-45350000D02*
X59424500Y-45350000D01*
X59424500Y-45350000D02*
X60174500Y-46100000D01*
X48590000Y-43470000D02*
X48870000Y-43750000D01*
X60950000Y-49200000D02*
X61000000Y-49150000D01*
X48852500Y-43767500D02*
X48870000Y-43750000D01*
X48852500Y-45990000D02*
X48852500Y-43767500D01*
X29300000Y-43800000D02*
X29300000Y-44870000D01*
%TO.N,EN*%
X39300000Y-36875000D02*
X38845000Y-36875000D01*
X29020000Y-38700000D02*
X29020000Y-41520000D01*
X29020000Y-38700000D02*
X37020000Y-38700000D01*
X37020000Y-38700000D02*
X37020000Y-37660000D01*
X37020000Y-37660000D02*
X35870000Y-36510000D01*
X38845000Y-36875000D02*
X37020000Y-38700000D01*
X29020000Y-41520000D02*
X29300000Y-41800000D01*
%TO.N,SCR_SCLK*%
X53680000Y-44130000D02*
X53370000Y-44130000D01*
X56500000Y-46950000D02*
X53680000Y-44130000D01*
%TO.N,SCR_MISO*%
X56450000Y-49550000D02*
X56430000Y-49530000D01*
X56430000Y-49530000D02*
X51020000Y-49530000D01*
X51020000Y-49530000D02*
X50150000Y-50400000D01*
%TO.N,SCR_MOSI*%
X54450000Y-41400000D02*
X53370000Y-40320000D01*
X56600000Y-48300000D02*
X57225000Y-47675000D01*
X54450000Y-43850000D02*
X54450000Y-41400000D01*
X57225000Y-46625000D02*
X54450000Y-43850000D01*
X57225000Y-47675000D02*
X57225000Y-46625000D01*
%TO.N,BAT_MEASURE*%
X34200000Y-54150000D02*
X32200000Y-52150000D01*
X32200000Y-51200000D02*
X32200000Y-42250000D01*
X32200000Y-52150000D02*
X32200000Y-51200000D01*
X32200000Y-42250000D02*
X34150000Y-40300000D01*
%TO.N,SCR_RST*%
X58200000Y-49750000D02*
X56600000Y-51350000D01*
X56600000Y-51350000D02*
X54850000Y-51350000D01*
%TO.N,TOUCH_RST*%
X40000000Y-39050000D02*
X40000000Y-41350000D01*
X40000000Y-41350000D02*
X38100000Y-43250000D01*
%TO.N,TOUCH_IRQ*%
X38150000Y-41650000D02*
X37400000Y-42400000D01*
X38150000Y-40865500D02*
X38150000Y-41650000D01*
%TO.N,SCR_BL*%
X56180000Y-53020000D02*
X53370000Y-53020000D01*
X58650000Y-51000000D02*
X58200000Y-51000000D01*
X58200000Y-51000000D02*
X56180000Y-53020000D01*
%TO.N,Net-(R4-Pad1)*%
X58400000Y-41200000D02*
X58400000Y-43300000D01*
X62250000Y-45400000D02*
X62475000Y-45175000D01*
X62475000Y-45175000D02*
X62475000Y-40025000D01*
X62250000Y-39800000D02*
X59800000Y-39800000D01*
X62250000Y-45400000D02*
X60500000Y-45400000D01*
X60500000Y-45400000D02*
X58450000Y-43350000D01*
X58400000Y-43300000D02*
X58450000Y-43350000D01*
X59800000Y-39800000D02*
X58400000Y-41200000D01*
X62475000Y-40025000D02*
X62250000Y-39800000D01*
%TD*%
M02*
