%TF.GenerationSoftware,KiCad,Pcbnew,7.0.5*%
%TF.CreationDate,2024-09-29T13:01:45+01:00*%
%TF.ProjectId,smartwatch,736d6172-7477-4617-9463-682e6b696361,rev?*%
%TF.SameCoordinates,Original*%
%TF.FileFunction,Copper,L2,Inr*%
%TF.FilePolarity,Positive*%
%FSLAX46Y46*%
G04 Gerber Fmt 4.6, Leading zero omitted, Abs format (unit mm)*
G04 Created by KiCad (PCBNEW 7.0.5) date 2024-09-29 13:01:45*
%MOMM*%
%LPD*%
G01*
G04 APERTURE LIST*
%TA.AperFunction,ViaPad*%
%ADD10C,0.800000*%
%TD*%
G04 APERTURE END LIST*
D10*
%TO.N,IO0*%
X53370000Y-50480000D03*
%TO.N,DC_GND*%
X50927500Y-45990000D03*
X44782500Y-52460000D03*
X60430000Y-53565000D03*
X50205000Y-55440000D03*
X30750000Y-48350000D03*
X30000000Y-36620000D03*
X44950000Y-45350000D03*
X32930000Y-48387500D03*
X37900000Y-54400000D03*
X59700000Y-46000000D03*
X62750000Y-35300000D03*
X53350000Y-33950000D03*
X27850000Y-48350000D03*
X44695000Y-58420000D03*
X35870000Y-33970000D03*
X63500000Y-45390000D03*
X35850000Y-51700000D03*
X43120000Y-41765000D03*
%TO.N,BAT_VDD*%
X38500000Y-58150000D03*
X42587500Y-54250000D03*
%TO.N,3V3*%
X56520000Y-51945000D03*
X61250000Y-47550000D03*
X30730000Y-46300000D03*
X35776405Y-35303268D03*
X48852500Y-45990000D03*
%TO.N,EN*%
X35870000Y-36510000D03*
%TO.N,RX*%
X43050000Y-37450000D03*
%TO.N,TX*%
X43000000Y-36150000D03*
%TO.N,SCR_MISO*%
X51929704Y-42724746D03*
X57700000Y-41650000D03*
%TO.N,SCR_DC*%
X55400000Y-46400000D03*
X53370000Y-42860000D03*
%TO.N,BAT_MEASURE*%
X34150000Y-40300000D03*
%TO.N,TOUCH_RST*%
X48850000Y-51650000D03*
X59400000Y-50150000D03*
%TO.N,TOUCH_IRQ*%
X50600000Y-50900000D03*
X60450000Y-50200000D03*
%TD*%
%TA.AperFunction,Conductor*%
%TO.N,3V3*%
G36*
X63091349Y-32870189D02*
G01*
X63134427Y-32917419D01*
X63505625Y-33632629D01*
X63506830Y-33635081D01*
X63877451Y-34433337D01*
X63878547Y-34435840D01*
X64177513Y-35161895D01*
X64214573Y-35252201D01*
X64215529Y-35254681D01*
X64450453Y-35905229D01*
X64465500Y-35947111D01*
X64515764Y-36087031D01*
X64516600Y-36089523D01*
X64707010Y-36699703D01*
X64707050Y-36699968D01*
X64707089Y-36699957D01*
X64779679Y-36934332D01*
X64780395Y-36936831D01*
X64935278Y-37522779D01*
X65005828Y-37792530D01*
X65006427Y-37795030D01*
X65130310Y-38364095D01*
X65130270Y-38364103D01*
X65130392Y-38364469D01*
X65193747Y-38659875D01*
X65194229Y-38662370D01*
X65290091Y-39219856D01*
X65343075Y-39534679D01*
X65343441Y-39537164D01*
X65413051Y-40085707D01*
X65453519Y-40415233D01*
X65453772Y-40417703D01*
X65498300Y-40958445D01*
X65524865Y-41299844D01*
X65525007Y-41302293D01*
X65545354Y-41836177D01*
X65556967Y-42186679D01*
X65557000Y-42189102D01*
X65553850Y-42716749D01*
X65549770Y-43074092D01*
X65549697Y-43076485D01*
X65523594Y-43597748D01*
X65503284Y-43960335D01*
X65503107Y-43962693D01*
X65454529Y-44477412D01*
X65417604Y-44843605D01*
X65417326Y-44845924D01*
X65346687Y-45353949D01*
X65292902Y-45722197D01*
X65292526Y-45724472D01*
X65200220Y-46225396D01*
X65129410Y-46594437D01*
X65128940Y-46596665D01*
X65015339Y-47090085D01*
X64927470Y-47458539D01*
X64926909Y-47460716D01*
X64792407Y-47946032D01*
X64687465Y-48312848D01*
X64686817Y-48314969D01*
X64531811Y-48791611D01*
X64409859Y-49155725D01*
X64409127Y-49157787D01*
X64234068Y-49625018D01*
X64095217Y-49985439D01*
X64094406Y-49987440D01*
X63899685Y-50444749D01*
X63744148Y-50800406D01*
X63743261Y-50802343D01*
X63529294Y-51249149D01*
X63357341Y-51599024D01*
X63356383Y-51600893D01*
X63123699Y-52036421D01*
X62935552Y-52379732D01*
X62934526Y-52381532D01*
X62683591Y-52805192D01*
X62479605Y-53141005D01*
X62478516Y-53142732D01*
X62209868Y-53553846D01*
X61990439Y-53881278D01*
X61989292Y-53882931D01*
X61703414Y-54280952D01*
X61468950Y-54599203D01*
X61467749Y-54600781D01*
X61165259Y-54985006D01*
X60916174Y-55293350D01*
X60914922Y-55294850D01*
X60596456Y-55664613D01*
X60333245Y-55962292D01*
X60331948Y-55963714D01*
X59998120Y-56318436D01*
X59721253Y-56604784D01*
X59719916Y-56606126D01*
X59371372Y-56945231D01*
X59081397Y-57219568D01*
X59080023Y-57220829D01*
X58717423Y-57543764D01*
X58415030Y-57805344D01*
X58413624Y-57806524D01*
X58037583Y-58112824D01*
X57723358Y-58361063D01*
X57721924Y-58362162D01*
X57333180Y-58651284D01*
X57007781Y-58885599D01*
X57006324Y-58886617D01*
X56605623Y-59158063D01*
X56269637Y-59377969D01*
X56268161Y-59378906D01*
X55856377Y-59632138D01*
X55510459Y-59837150D01*
X55508968Y-59838006D01*
X55086766Y-60072665D01*
X54731735Y-60262247D01*
X54730234Y-60263022D01*
X54298427Y-60478696D01*
X53934914Y-60652470D01*
X53933407Y-60653166D01*
X53492820Y-60849475D01*
X53121634Y-61007018D01*
X53120125Y-61007635D01*
X52671614Y-61184229D01*
X52293465Y-61325207D01*
X52291958Y-61325747D01*
X51836389Y-61482314D01*
X51451954Y-61606440D01*
X51450453Y-61606904D01*
X50988741Y-61743159D01*
X50598955Y-61850103D01*
X50597463Y-61850492D01*
X50130270Y-61966259D01*
X49735977Y-62055772D01*
X49734498Y-62056089D01*
X49263389Y-62151016D01*
X49262163Y-62151250D01*
X48864786Y-62223027D01*
X48863323Y-62223273D01*
X48388599Y-62297339D01*
X48387334Y-62297523D01*
X47986985Y-62351559D01*
X47985541Y-62351737D01*
X47508122Y-62404807D01*
X47506821Y-62404938D01*
X47104441Y-62441096D01*
X47103020Y-62441207D01*
X46623784Y-62473193D01*
X46622449Y-62473268D01*
X46218722Y-62491482D01*
X46217327Y-62491530D01*
X45737275Y-62502371D01*
X45735909Y-62502387D01*
X45331719Y-62502607D01*
X45330353Y-62502593D01*
X44850271Y-62492277D01*
X44848878Y-62492232D01*
X44826623Y-62491252D01*
X44445158Y-62474460D01*
X44443823Y-62474386D01*
X43964548Y-62442925D01*
X43963127Y-62442815D01*
X43560681Y-62407094D01*
X43559380Y-62406964D01*
X43081907Y-62354415D01*
X43080464Y-62354239D01*
X42680095Y-62300648D01*
X42678830Y-62300465D01*
X42203991Y-62226912D01*
X42202527Y-62226667D01*
X41805101Y-62155330D01*
X41803875Y-62155097D01*
X41332621Y-62060677D01*
X41331141Y-62060362D01*
X40936764Y-61971283D01*
X40469476Y-61856036D01*
X40467983Y-61855648D01*
X40078068Y-61749127D01*
X39616132Y-61613353D01*
X39614630Y-61612891D01*
X39230171Y-61489222D01*
X38774402Y-61333141D01*
X38772894Y-61332603D01*
X38394548Y-61192023D01*
X37945847Y-61015921D01*
X37944387Y-61015326D01*
X37572973Y-60858164D01*
X37132212Y-60662355D01*
X37130704Y-60661661D01*
X36766947Y-60488257D01*
X36409080Y-60310005D01*
X36334981Y-60273096D01*
X36333501Y-60272333D01*
X35978164Y-60083087D01*
X35555732Y-59848902D01*
X35554241Y-59848049D01*
X35208124Y-59643431D01*
X34796064Y-59390650D01*
X34794587Y-59389716D01*
X34458290Y-59170129D01*
X34057339Y-58899154D01*
X34055969Y-58898199D01*
X33902965Y-58788277D01*
X33730177Y-58664140D01*
X33341194Y-58375501D01*
X33339759Y-58374404D01*
X33055066Y-58150000D01*
X37594540Y-58150000D01*
X37614326Y-58338256D01*
X37614327Y-58338259D01*
X37672818Y-58518277D01*
X37672821Y-58518284D01*
X37767467Y-58682216D01*
X37880129Y-58807339D01*
X37894129Y-58822888D01*
X38047265Y-58934148D01*
X38047270Y-58934151D01*
X38220192Y-59011142D01*
X38220197Y-59011144D01*
X38405354Y-59050500D01*
X38405355Y-59050500D01*
X38594644Y-59050500D01*
X38594646Y-59050500D01*
X38779803Y-59011144D01*
X38952730Y-58934151D01*
X39105871Y-58822888D01*
X39232533Y-58682216D01*
X39327179Y-58518284D01*
X39359114Y-58420000D01*
X43789540Y-58420000D01*
X43809326Y-58608256D01*
X43809327Y-58608259D01*
X43867818Y-58788277D01*
X43867821Y-58788284D01*
X43962467Y-58952216D01*
X44050963Y-59050500D01*
X44089129Y-59092888D01*
X44242265Y-59204148D01*
X44242270Y-59204151D01*
X44415192Y-59281142D01*
X44415197Y-59281144D01*
X44600354Y-59320500D01*
X44600355Y-59320500D01*
X44789644Y-59320500D01*
X44789646Y-59320500D01*
X44974803Y-59281144D01*
X45147730Y-59204151D01*
X45300871Y-59092888D01*
X45427533Y-58952216D01*
X45522179Y-58788284D01*
X45580674Y-58608256D01*
X45600460Y-58420000D01*
X45580674Y-58231744D01*
X45522179Y-58051716D01*
X45427533Y-57887784D01*
X45300871Y-57747112D01*
X45300870Y-57747111D01*
X45147734Y-57635851D01*
X45147729Y-57635848D01*
X44974807Y-57558857D01*
X44974802Y-57558855D01*
X44829001Y-57527865D01*
X44789646Y-57519500D01*
X44600354Y-57519500D01*
X44567897Y-57526398D01*
X44415197Y-57558855D01*
X44415192Y-57558857D01*
X44242270Y-57635848D01*
X44242265Y-57635851D01*
X44089129Y-57747111D01*
X43962466Y-57887785D01*
X43867821Y-58051715D01*
X43867818Y-58051722D01*
X43835886Y-58150000D01*
X43809326Y-58231744D01*
X43789540Y-58420000D01*
X39359114Y-58420000D01*
X39385674Y-58338256D01*
X39405460Y-58150000D01*
X39385674Y-57961744D01*
X39327179Y-57781716D01*
X39232533Y-57617784D01*
X39105871Y-57477112D01*
X39105870Y-57477111D01*
X38952734Y-57365851D01*
X38952729Y-57365848D01*
X38779807Y-57288857D01*
X38779802Y-57288855D01*
X38634000Y-57257865D01*
X38594646Y-57249500D01*
X38405354Y-57249500D01*
X38372897Y-57256398D01*
X38220197Y-57288855D01*
X38220192Y-57288857D01*
X38047270Y-57365848D01*
X38047265Y-57365851D01*
X37894129Y-57477111D01*
X37767466Y-57617785D01*
X37672821Y-57781715D01*
X37672818Y-57781722D01*
X37614327Y-57961740D01*
X37614326Y-57961744D01*
X37594540Y-58150000D01*
X33055066Y-58150000D01*
X33025273Y-58126516D01*
X32648871Y-57820607D01*
X32647464Y-57819428D01*
X32344787Y-57558181D01*
X31981823Y-57235631D01*
X31980447Y-57234371D01*
X31690202Y-56960379D01*
X31541718Y-56816233D01*
X31341215Y-56621586D01*
X31339960Y-56620330D01*
X31062822Y-56334327D01*
X30728498Y-55979856D01*
X30727229Y-55978467D01*
X30714155Y-55963714D01*
X30463739Y-55681130D01*
X30255602Y-55440000D01*
X49299540Y-55440000D01*
X49319326Y-55628256D01*
X49319327Y-55628259D01*
X49377818Y-55808277D01*
X49377821Y-55808284D01*
X49472467Y-55972216D01*
X49599129Y-56112888D01*
X49752265Y-56224148D01*
X49752270Y-56224151D01*
X49925192Y-56301142D01*
X49925197Y-56301144D01*
X50110354Y-56340500D01*
X50110355Y-56340500D01*
X50299644Y-56340500D01*
X50299646Y-56340500D01*
X50484803Y-56301144D01*
X50657730Y-56224151D01*
X50810871Y-56112888D01*
X50937533Y-55972216D01*
X51032179Y-55808284D01*
X51090674Y-55628256D01*
X51110460Y-55440000D01*
X51090674Y-55251744D01*
X51032179Y-55071716D01*
X50937533Y-54907784D01*
X50810871Y-54767112D01*
X50810870Y-54767111D01*
X50657734Y-54655851D01*
X50657729Y-54655848D01*
X50484807Y-54578857D01*
X50484802Y-54578855D01*
X50339001Y-54547865D01*
X50299646Y-54539500D01*
X50110354Y-54539500D01*
X50077897Y-54546398D01*
X49925197Y-54578855D01*
X49925192Y-54578857D01*
X49752270Y-54655848D01*
X49752265Y-54655851D01*
X49599129Y-54767111D01*
X49472466Y-54907785D01*
X49377821Y-55071715D01*
X49377818Y-55071722D01*
X49352222Y-55150500D01*
X49319326Y-55251744D01*
X49299540Y-55440000D01*
X30255602Y-55440000D01*
X30144810Y-55311645D01*
X30143581Y-55310175D01*
X29950523Y-55071722D01*
X29894138Y-55002078D01*
X29720656Y-54782216D01*
X29591234Y-54618193D01*
X29590072Y-54616670D01*
X29430080Y-54400000D01*
X36994540Y-54400000D01*
X37014326Y-54588256D01*
X37014327Y-54588259D01*
X37072818Y-54768277D01*
X37072821Y-54768284D01*
X37167467Y-54932216D01*
X37259247Y-55034148D01*
X37294129Y-55072888D01*
X37447265Y-55184148D01*
X37447270Y-55184151D01*
X37620192Y-55261142D01*
X37620197Y-55261144D01*
X37805354Y-55300500D01*
X37805355Y-55300500D01*
X37994644Y-55300500D01*
X37994646Y-55300500D01*
X38179803Y-55261144D01*
X38352730Y-55184151D01*
X38505871Y-55072888D01*
X38632533Y-54932216D01*
X38727179Y-54768284D01*
X38785674Y-54588256D01*
X38805460Y-54400000D01*
X38789695Y-54250000D01*
X41682040Y-54250000D01*
X41701826Y-54438256D01*
X41701827Y-54438259D01*
X41760318Y-54618277D01*
X41760321Y-54618284D01*
X41854967Y-54782216D01*
X41932261Y-54868059D01*
X41981629Y-54922888D01*
X42134765Y-55034148D01*
X42134770Y-55034151D01*
X42307692Y-55111142D01*
X42307697Y-55111144D01*
X42492854Y-55150500D01*
X42492855Y-55150500D01*
X42682144Y-55150500D01*
X42682146Y-55150500D01*
X42867303Y-55111144D01*
X43040230Y-55034151D01*
X43193371Y-54922888D01*
X43320033Y-54782216D01*
X43414679Y-54618284D01*
X43473174Y-54438256D01*
X43492960Y-54250000D01*
X43473174Y-54061744D01*
X43414679Y-53881716D01*
X43320033Y-53717784D01*
X43193371Y-53577112D01*
X43186323Y-53571991D01*
X43176701Y-53565000D01*
X59524540Y-53565000D01*
X59544326Y-53753256D01*
X59544327Y-53753259D01*
X59602818Y-53933277D01*
X59602821Y-53933284D01*
X59697467Y-54097216D01*
X59756088Y-54162321D01*
X59824129Y-54237888D01*
X59977265Y-54349148D01*
X59977270Y-54349151D01*
X60150192Y-54426142D01*
X60150197Y-54426144D01*
X60335354Y-54465500D01*
X60335355Y-54465500D01*
X60524644Y-54465500D01*
X60524646Y-54465500D01*
X60709803Y-54426144D01*
X60882730Y-54349151D01*
X61035871Y-54237888D01*
X61162533Y-54097216D01*
X61257179Y-53933284D01*
X61315674Y-53753256D01*
X61335460Y-53565000D01*
X61315674Y-53376744D01*
X61257179Y-53196716D01*
X61162533Y-53032784D01*
X61035871Y-52892112D01*
X61035870Y-52892111D01*
X60882734Y-52780851D01*
X60882729Y-52780848D01*
X60709807Y-52703857D01*
X60709802Y-52703855D01*
X60564001Y-52672865D01*
X60524646Y-52664500D01*
X60335354Y-52664500D01*
X60302897Y-52671398D01*
X60150197Y-52703855D01*
X60150192Y-52703857D01*
X59977270Y-52780848D01*
X59977265Y-52780851D01*
X59824129Y-52892111D01*
X59697466Y-53032785D01*
X59602821Y-53196715D01*
X59602818Y-53196722D01*
X59553178Y-53349500D01*
X59544326Y-53376744D01*
X59524540Y-53565000D01*
X43176701Y-53565000D01*
X43040234Y-53465851D01*
X43040229Y-53465848D01*
X42867307Y-53388857D01*
X42867302Y-53388855D01*
X42721501Y-53357865D01*
X42682146Y-53349500D01*
X42492854Y-53349500D01*
X42460397Y-53356398D01*
X42307697Y-53388855D01*
X42307692Y-53388857D01*
X42134770Y-53465848D01*
X42134765Y-53465851D01*
X41981629Y-53577111D01*
X41854966Y-53717785D01*
X41760321Y-53881715D01*
X41760318Y-53881722D01*
X41701827Y-54061740D01*
X41701826Y-54061744D01*
X41682040Y-54250000D01*
X38789695Y-54250000D01*
X38785674Y-54211744D01*
X38727179Y-54031716D01*
X38632533Y-53867784D01*
X38505871Y-53727112D01*
X38505870Y-53727111D01*
X38352734Y-53615851D01*
X38352729Y-53615848D01*
X38179807Y-53538857D01*
X38179802Y-53538855D01*
X38034001Y-53507865D01*
X37994646Y-53499500D01*
X37805354Y-53499500D01*
X37772897Y-53506398D01*
X37620197Y-53538855D01*
X37620192Y-53538857D01*
X37447270Y-53615848D01*
X37447265Y-53615851D01*
X37294129Y-53727111D01*
X37167466Y-53867785D01*
X37072821Y-54031715D01*
X37072818Y-54031722D01*
X37014327Y-54211740D01*
X37014326Y-54211744D01*
X36994540Y-54400000D01*
X29430080Y-54400000D01*
X29355224Y-54298626D01*
X29068942Y-53900960D01*
X29067792Y-53899308D01*
X28847944Y-53572025D01*
X28578849Y-53161207D01*
X28577814Y-53159569D01*
X28373440Y-52823947D01*
X28122042Y-52400561D01*
X28121047Y-52398822D01*
X27932489Y-52055653D01*
X27741979Y-51700000D01*
X34944540Y-51700000D01*
X34964326Y-51888256D01*
X34964327Y-51888259D01*
X35022818Y-52068277D01*
X35022821Y-52068284D01*
X35117467Y-52232216D01*
X35194705Y-52317997D01*
X35244129Y-52372888D01*
X35397265Y-52484148D01*
X35397270Y-52484151D01*
X35570192Y-52561142D01*
X35570197Y-52561144D01*
X35755354Y-52600500D01*
X35755355Y-52600500D01*
X35944644Y-52600500D01*
X35944646Y-52600500D01*
X36129803Y-52561144D01*
X36302730Y-52484151D01*
X36335971Y-52460000D01*
X43877040Y-52460000D01*
X43896826Y-52648256D01*
X43896827Y-52648259D01*
X43955318Y-52828277D01*
X43955321Y-52828284D01*
X44049967Y-52992216D01*
X44126400Y-53077103D01*
X44176629Y-53132888D01*
X44329765Y-53244148D01*
X44329770Y-53244151D01*
X44502692Y-53321142D01*
X44502697Y-53321144D01*
X44687854Y-53360500D01*
X44687855Y-53360500D01*
X44877144Y-53360500D01*
X44877146Y-53360500D01*
X45062303Y-53321144D01*
X45235230Y-53244151D01*
X45388371Y-53132888D01*
X45515033Y-52992216D01*
X45609679Y-52828284D01*
X45668174Y-52648256D01*
X45687960Y-52460000D01*
X45668174Y-52271744D01*
X45609679Y-52091716D01*
X45515033Y-51927784D01*
X45388371Y-51787112D01*
X45388370Y-51787111D01*
X45235234Y-51675851D01*
X45235229Y-51675848D01*
X45177174Y-51650000D01*
X47944540Y-51650000D01*
X47964326Y-51838256D01*
X47964327Y-51838259D01*
X48022818Y-52018277D01*
X48022821Y-52018284D01*
X48117467Y-52182216D01*
X48198075Y-52271740D01*
X48244129Y-52322888D01*
X48397265Y-52434148D01*
X48397270Y-52434151D01*
X48570192Y-52511142D01*
X48570197Y-52511144D01*
X48755354Y-52550500D01*
X48755355Y-52550500D01*
X48944644Y-52550500D01*
X48944646Y-52550500D01*
X49129803Y-52511144D01*
X49302730Y-52434151D01*
X49455871Y-52322888D01*
X49582533Y-52182216D01*
X49677179Y-52018284D01*
X49735674Y-51838256D01*
X49755460Y-51650000D01*
X49754634Y-51642142D01*
X49767201Y-51573413D01*
X49814931Y-51522388D01*
X49882671Y-51505268D01*
X49948913Y-51527488D01*
X49970103Y-51546205D01*
X49994128Y-51572887D01*
X49994129Y-51572888D01*
X50147265Y-51684148D01*
X50147270Y-51684151D01*
X50320192Y-51761142D01*
X50320197Y-51761144D01*
X50505354Y-51800500D01*
X50505355Y-51800500D01*
X50694644Y-51800500D01*
X50694646Y-51800500D01*
X50879803Y-51761144D01*
X51052730Y-51684151D01*
X51205871Y-51572888D01*
X51332533Y-51432216D01*
X51427179Y-51268284D01*
X51485674Y-51088256D01*
X51505460Y-50900000D01*
X51485674Y-50711744D01*
X51427179Y-50531716D01*
X51397321Y-50480000D01*
X52464540Y-50480000D01*
X52484326Y-50668256D01*
X52484327Y-50668259D01*
X52542818Y-50848277D01*
X52542821Y-50848284D01*
X52637467Y-51012216D01*
X52732521Y-51117784D01*
X52764129Y-51152888D01*
X52917265Y-51264148D01*
X52917270Y-51264151D01*
X53090192Y-51341142D01*
X53090197Y-51341144D01*
X53275354Y-51380500D01*
X53275355Y-51380500D01*
X53464644Y-51380500D01*
X53464646Y-51380500D01*
X53649803Y-51341144D01*
X53822730Y-51264151D01*
X53975871Y-51152888D01*
X54102533Y-51012216D01*
X54197179Y-50848284D01*
X54255674Y-50668256D01*
X54275460Y-50480000D01*
X54255674Y-50291744D01*
X54209618Y-50150000D01*
X58494540Y-50150000D01*
X58514326Y-50338256D01*
X58514327Y-50338259D01*
X58572818Y-50518277D01*
X58572821Y-50518284D01*
X58667467Y-50682216D01*
X58763487Y-50788857D01*
X58794129Y-50822888D01*
X58947265Y-50934148D01*
X58947270Y-50934151D01*
X59120192Y-51011142D01*
X59120197Y-51011144D01*
X59305354Y-51050500D01*
X59305355Y-51050500D01*
X59494644Y-51050500D01*
X59494646Y-51050500D01*
X59679803Y-51011144D01*
X59834276Y-50942367D01*
X59903527Y-50933082D01*
X59957599Y-50955328D01*
X59997271Y-50984152D01*
X60170192Y-51061142D01*
X60170197Y-51061144D01*
X60355354Y-51100500D01*
X60355355Y-51100500D01*
X60544644Y-51100500D01*
X60544646Y-51100500D01*
X60729803Y-51061144D01*
X60902730Y-50984151D01*
X61055871Y-50872888D01*
X61182533Y-50732216D01*
X61277179Y-50568284D01*
X61335674Y-50388256D01*
X61355460Y-50200000D01*
X61335674Y-50011744D01*
X61277179Y-49831716D01*
X61182533Y-49667784D01*
X61055871Y-49527112D01*
X61055870Y-49527111D01*
X60902734Y-49415851D01*
X60902729Y-49415848D01*
X60729807Y-49338857D01*
X60729802Y-49338855D01*
X60584001Y-49307865D01*
X60544646Y-49299500D01*
X60355354Y-49299500D01*
X60322897Y-49306398D01*
X60170197Y-49338855D01*
X60170192Y-49338857D01*
X60015722Y-49407633D01*
X59946472Y-49416918D01*
X59892401Y-49394671D01*
X59852730Y-49365849D01*
X59852729Y-49365848D01*
X59679807Y-49288857D01*
X59679802Y-49288855D01*
X59534001Y-49257865D01*
X59494646Y-49249500D01*
X59305354Y-49249500D01*
X59272897Y-49256398D01*
X59120197Y-49288855D01*
X59120192Y-49288857D01*
X58947270Y-49365848D01*
X58947265Y-49365851D01*
X58794129Y-49477111D01*
X58667466Y-49617785D01*
X58572821Y-49781715D01*
X58572818Y-49781722D01*
X58514327Y-49961740D01*
X58514326Y-49961744D01*
X58494540Y-50150000D01*
X54209618Y-50150000D01*
X54197179Y-50111716D01*
X54102533Y-49947784D01*
X53975871Y-49807112D01*
X53940925Y-49781722D01*
X53822734Y-49695851D01*
X53822729Y-49695848D01*
X53649807Y-49618857D01*
X53649802Y-49618855D01*
X53504000Y-49587865D01*
X53464646Y-49579500D01*
X53275354Y-49579500D01*
X53242897Y-49586398D01*
X53090197Y-49618855D01*
X53090192Y-49618857D01*
X52917270Y-49695848D01*
X52917265Y-49695851D01*
X52764129Y-49807111D01*
X52637466Y-49947785D01*
X52542821Y-50111715D01*
X52542818Y-50111722D01*
X52505326Y-50227112D01*
X52484326Y-50291744D01*
X52464540Y-50480000D01*
X51397321Y-50480000D01*
X51332533Y-50367784D01*
X51205871Y-50227112D01*
X51205870Y-50227111D01*
X51052734Y-50115851D01*
X51052729Y-50115848D01*
X50879807Y-50038857D01*
X50879802Y-50038855D01*
X50724078Y-50005756D01*
X50694646Y-49999500D01*
X50505354Y-49999500D01*
X50475922Y-50005756D01*
X50320197Y-50038855D01*
X50320192Y-50038857D01*
X50147270Y-50115848D01*
X50147265Y-50115851D01*
X49994129Y-50227111D01*
X49867466Y-50367785D01*
X49772821Y-50531715D01*
X49772818Y-50531722D01*
X49728456Y-50668256D01*
X49714326Y-50711744D01*
X49698129Y-50865851D01*
X49694540Y-50900002D01*
X49695366Y-50907863D01*
X49682795Y-50976592D01*
X49635061Y-51027615D01*
X49567321Y-51044731D01*
X49501080Y-51022507D01*
X49479896Y-51003794D01*
X49455871Y-50977112D01*
X49455870Y-50977111D01*
X49302734Y-50865851D01*
X49302729Y-50865848D01*
X49129807Y-50788857D01*
X49129802Y-50788855D01*
X48984000Y-50757865D01*
X48944646Y-50749500D01*
X48755354Y-50749500D01*
X48722897Y-50756398D01*
X48570197Y-50788855D01*
X48570192Y-50788857D01*
X48397270Y-50865848D01*
X48397265Y-50865851D01*
X48244129Y-50977111D01*
X48117466Y-51117785D01*
X48022821Y-51281715D01*
X48022818Y-51281722D01*
X47973921Y-51432214D01*
X47964326Y-51461744D01*
X47944540Y-51650000D01*
X45177174Y-51650000D01*
X45062307Y-51598857D01*
X45062302Y-51598855D01*
X44916501Y-51567865D01*
X44877146Y-51559500D01*
X44687854Y-51559500D01*
X44655397Y-51566398D01*
X44502697Y-51598855D01*
X44502692Y-51598857D01*
X44329770Y-51675848D01*
X44329765Y-51675851D01*
X44176629Y-51787111D01*
X44049966Y-51927785D01*
X43955321Y-52091715D01*
X43955318Y-52091722D01*
X43896827Y-52271740D01*
X43896826Y-52271744D01*
X43877040Y-52460000D01*
X36335971Y-52460000D01*
X36455871Y-52372888D01*
X36582533Y-52232216D01*
X36677179Y-52068284D01*
X36735674Y-51888256D01*
X36755460Y-51700000D01*
X36735674Y-51511744D01*
X36677179Y-51331716D01*
X36582533Y-51167784D01*
X36455871Y-51027112D01*
X36449533Y-51022507D01*
X36302734Y-50915851D01*
X36302729Y-50915848D01*
X36129807Y-50838857D01*
X36129802Y-50838855D01*
X35948908Y-50800406D01*
X35944646Y-50799500D01*
X35755354Y-50799500D01*
X35751092Y-50800406D01*
X35570197Y-50838855D01*
X35570192Y-50838857D01*
X35397270Y-50915848D01*
X35397265Y-50915851D01*
X35244129Y-51027111D01*
X35117466Y-51167785D01*
X35022821Y-51331715D01*
X35022818Y-51331722D01*
X34990166Y-51432216D01*
X34964326Y-51511744D01*
X34944540Y-51700000D01*
X27741979Y-51700000D01*
X27699309Y-51620342D01*
X27698403Y-51618580D01*
X27526012Y-51268777D01*
X27311576Y-50822247D01*
X27310700Y-50820340D01*
X27154757Y-50464810D01*
X26959552Y-50007756D01*
X26958739Y-50005756D01*
X26819501Y-49645505D01*
X26733169Y-49415849D01*
X26643900Y-49178381D01*
X26643200Y-49176415D01*
X26520836Y-48812392D01*
X26502356Y-48755777D01*
X26369903Y-48350000D01*
X26944540Y-48350000D01*
X26964326Y-48538256D01*
X26964327Y-48538259D01*
X27022818Y-48718277D01*
X27022821Y-48718284D01*
X27117467Y-48882216D01*
X27244128Y-49022888D01*
X27244129Y-49022888D01*
X27397265Y-49134148D01*
X27397270Y-49134151D01*
X27570192Y-49211142D01*
X27570197Y-49211144D01*
X27755354Y-49250500D01*
X27755355Y-49250500D01*
X27944644Y-49250500D01*
X27944646Y-49250500D01*
X28129803Y-49211144D01*
X28302730Y-49134151D01*
X28455871Y-49022888D01*
X28582533Y-48882216D01*
X28677179Y-48718284D01*
X28735674Y-48538256D01*
X28755460Y-48350000D01*
X29844540Y-48350000D01*
X29864326Y-48538256D01*
X29864327Y-48538259D01*
X29922818Y-48718277D01*
X29922821Y-48718284D01*
X30017467Y-48882216D01*
X30144128Y-49022888D01*
X30144129Y-49022888D01*
X30297265Y-49134148D01*
X30297270Y-49134151D01*
X30470192Y-49211142D01*
X30470197Y-49211144D01*
X30655354Y-49250500D01*
X30655355Y-49250500D01*
X30844644Y-49250500D01*
X30844646Y-49250500D01*
X31029803Y-49211144D01*
X31202730Y-49134151D01*
X31355871Y-49022888D01*
X31482533Y-48882216D01*
X31577179Y-48718284D01*
X31635674Y-48538256D01*
X31651519Y-48387500D01*
X32024540Y-48387500D01*
X32044326Y-48575756D01*
X32044327Y-48575759D01*
X32102818Y-48755777D01*
X32102821Y-48755784D01*
X32197467Y-48919716D01*
X32290364Y-49022888D01*
X32324129Y-49060388D01*
X32477265Y-49171648D01*
X32477270Y-49171651D01*
X32650192Y-49248642D01*
X32650197Y-49248644D01*
X32835354Y-49288000D01*
X32835355Y-49288000D01*
X33024644Y-49288000D01*
X33024646Y-49288000D01*
X33209803Y-49248644D01*
X33382730Y-49171651D01*
X33535871Y-49060388D01*
X33662533Y-48919716D01*
X33757179Y-48755784D01*
X33815674Y-48575756D01*
X33835460Y-48387500D01*
X33815674Y-48199244D01*
X33757179Y-48019216D01*
X33662533Y-47855284D01*
X33535871Y-47714612D01*
X33535870Y-47714611D01*
X33382734Y-47603351D01*
X33382729Y-47603348D01*
X33209807Y-47526357D01*
X33209802Y-47526355D01*
X33064001Y-47495365D01*
X33024646Y-47487000D01*
X32835354Y-47487000D01*
X32802897Y-47493898D01*
X32650197Y-47526355D01*
X32650192Y-47526357D01*
X32477270Y-47603348D01*
X32477265Y-47603351D01*
X32324129Y-47714611D01*
X32197466Y-47855285D01*
X32102821Y-48019215D01*
X32102818Y-48019222D01*
X32044327Y-48199240D01*
X32044326Y-48199244D01*
X32024540Y-48387500D01*
X31651519Y-48387500D01*
X31655460Y-48350000D01*
X31635674Y-48161744D01*
X31577179Y-47981716D01*
X31482533Y-47817784D01*
X31355871Y-47677112D01*
X31355870Y-47677111D01*
X31202734Y-47565851D01*
X31202729Y-47565848D01*
X31029807Y-47488857D01*
X31029802Y-47488855D01*
X30884000Y-47457865D01*
X30844646Y-47449500D01*
X30655354Y-47449500D01*
X30622897Y-47456398D01*
X30470197Y-47488855D01*
X30470192Y-47488857D01*
X30297270Y-47565848D01*
X30297265Y-47565851D01*
X30144129Y-47677111D01*
X30017466Y-47817785D01*
X29922821Y-47981715D01*
X29922818Y-47981722D01*
X29910636Y-48019216D01*
X29864326Y-48161744D01*
X29844540Y-48350000D01*
X28755460Y-48350000D01*
X28735674Y-48161744D01*
X28677179Y-47981716D01*
X28582533Y-47817784D01*
X28455871Y-47677112D01*
X28455870Y-47677111D01*
X28302734Y-47565851D01*
X28302729Y-47565848D01*
X28129807Y-47488857D01*
X28129802Y-47488855D01*
X27984001Y-47457865D01*
X27944646Y-47449500D01*
X27755354Y-47449500D01*
X27722897Y-47456398D01*
X27570197Y-47488855D01*
X27570192Y-47488857D01*
X27397270Y-47565848D01*
X27397265Y-47565851D01*
X27244129Y-47677111D01*
X27117466Y-47817785D01*
X27022821Y-47981715D01*
X27022818Y-47981722D01*
X27010636Y-48019216D01*
X26964326Y-48161744D01*
X26944540Y-48350000D01*
X26369903Y-48350000D01*
X26365299Y-48335894D01*
X26364680Y-48333878D01*
X26259311Y-47967088D01*
X26253451Y-47946032D01*
X26124268Y-47481875D01*
X26123725Y-47479777D01*
X26035434Y-47111340D01*
X25921295Y-46618055D01*
X25920840Y-46615911D01*
X25849633Y-46246983D01*
X25756764Y-45746071D01*
X25756401Y-45743891D01*
X25702204Y-45375643D01*
X25698610Y-45350000D01*
X44044540Y-45350000D01*
X44064326Y-45538256D01*
X44064327Y-45538259D01*
X44122818Y-45718277D01*
X44122821Y-45718284D01*
X44217467Y-45882216D01*
X44344129Y-46022888D01*
X44497265Y-46134148D01*
X44497270Y-46134151D01*
X44670192Y-46211142D01*
X44670197Y-46211144D01*
X44855354Y-46250500D01*
X44855355Y-46250500D01*
X45044644Y-46250500D01*
X45044646Y-46250500D01*
X45229803Y-46211144D01*
X45402730Y-46134151D01*
X45555871Y-46022888D01*
X45585484Y-45990000D01*
X50022040Y-45990000D01*
X50041826Y-46178256D01*
X50041827Y-46178259D01*
X50100318Y-46358277D01*
X50100321Y-46358284D01*
X50194967Y-46522216D01*
X50321628Y-46662888D01*
X50321629Y-46662888D01*
X50474765Y-46774148D01*
X50474770Y-46774151D01*
X50647692Y-46851142D01*
X50647697Y-46851144D01*
X50832854Y-46890500D01*
X50832855Y-46890500D01*
X51022144Y-46890500D01*
X51022146Y-46890500D01*
X51207303Y-46851144D01*
X51380230Y-46774151D01*
X51533371Y-46662888D01*
X51660033Y-46522216D01*
X51730594Y-46400000D01*
X54494540Y-46400000D01*
X54514326Y-46588256D01*
X54514327Y-46588259D01*
X54572818Y-46768277D01*
X54572821Y-46768284D01*
X54667467Y-46932216D01*
X54794129Y-47072888D01*
X54947265Y-47184148D01*
X54947270Y-47184151D01*
X55120192Y-47261142D01*
X55120197Y-47261144D01*
X55305354Y-47300500D01*
X55305355Y-47300500D01*
X55494644Y-47300500D01*
X55494646Y-47300500D01*
X55679803Y-47261144D01*
X55852730Y-47184151D01*
X56005871Y-47072888D01*
X56132533Y-46932216D01*
X56227179Y-46768284D01*
X56285674Y-46588256D01*
X56305460Y-46400000D01*
X56285674Y-46211744D01*
X56227179Y-46031716D01*
X56208868Y-46000000D01*
X58794540Y-46000000D01*
X58814326Y-46188256D01*
X58814327Y-46188259D01*
X58872818Y-46368277D01*
X58872821Y-46368284D01*
X58967467Y-46532216D01*
X59085125Y-46662888D01*
X59094129Y-46672888D01*
X59247265Y-46784148D01*
X59247270Y-46784151D01*
X59420192Y-46861142D01*
X59420197Y-46861144D01*
X59605354Y-46900500D01*
X59605355Y-46900500D01*
X59794644Y-46900500D01*
X59794646Y-46900500D01*
X59979803Y-46861144D01*
X60152730Y-46784151D01*
X60305871Y-46672888D01*
X60432533Y-46532216D01*
X60527179Y-46368284D01*
X60585674Y-46188256D01*
X60605460Y-46000000D01*
X60585674Y-45811744D01*
X60527179Y-45631716D01*
X60432533Y-45467784D01*
X60362496Y-45390000D01*
X62594540Y-45390000D01*
X62614326Y-45578256D01*
X62614327Y-45578259D01*
X62672818Y-45758277D01*
X62672821Y-45758284D01*
X62767467Y-45922216D01*
X62858113Y-46022888D01*
X62894129Y-46062888D01*
X63047265Y-46174148D01*
X63047270Y-46174151D01*
X63220192Y-46251142D01*
X63220197Y-46251144D01*
X63405354Y-46290500D01*
X63405355Y-46290500D01*
X63594644Y-46290500D01*
X63594646Y-46290500D01*
X63779803Y-46251144D01*
X63952730Y-46174151D01*
X64105871Y-46062888D01*
X64232533Y-45922216D01*
X64327179Y-45758284D01*
X64385674Y-45578256D01*
X64405460Y-45390000D01*
X64385674Y-45201744D01*
X64327179Y-45021716D01*
X64232533Y-44857784D01*
X64105871Y-44717112D01*
X64050816Y-44677112D01*
X63952734Y-44605851D01*
X63952729Y-44605848D01*
X63779807Y-44528857D01*
X63779802Y-44528855D01*
X63634001Y-44497865D01*
X63594646Y-44489500D01*
X63405354Y-44489500D01*
X63372897Y-44496398D01*
X63220197Y-44528855D01*
X63220192Y-44528857D01*
X63047270Y-44605848D01*
X63047265Y-44605851D01*
X62894129Y-44717111D01*
X62767466Y-44857785D01*
X62672821Y-45021715D01*
X62672818Y-45021722D01*
X62614327Y-45201740D01*
X62614326Y-45201744D01*
X62594540Y-45390000D01*
X60362496Y-45390000D01*
X60305871Y-45327112D01*
X60305870Y-45327111D01*
X60152734Y-45215851D01*
X60152729Y-45215848D01*
X59979807Y-45138857D01*
X59979802Y-45138855D01*
X59834000Y-45107865D01*
X59794646Y-45099500D01*
X59605354Y-45099500D01*
X59572897Y-45106398D01*
X59420197Y-45138855D01*
X59420192Y-45138857D01*
X59247270Y-45215848D01*
X59247265Y-45215851D01*
X59094129Y-45327111D01*
X58967466Y-45467785D01*
X58872821Y-45631715D01*
X58872818Y-45631722D01*
X58817575Y-45801744D01*
X58814326Y-45811744D01*
X58794540Y-46000000D01*
X56208868Y-46000000D01*
X56132533Y-45867784D01*
X56005871Y-45727112D01*
X56005870Y-45727111D01*
X55852734Y-45615851D01*
X55852729Y-45615848D01*
X55679807Y-45538857D01*
X55679802Y-45538855D01*
X55534001Y-45507865D01*
X55494646Y-45499500D01*
X55305354Y-45499500D01*
X55272897Y-45506398D01*
X55120197Y-45538855D01*
X55120192Y-45538857D01*
X54947270Y-45615848D01*
X54947265Y-45615851D01*
X54794129Y-45727111D01*
X54667466Y-45867785D01*
X54572821Y-46031715D01*
X54572818Y-46031722D01*
X54514521Y-46211144D01*
X54514326Y-46211744D01*
X54494540Y-46400000D01*
X51730594Y-46400000D01*
X51754679Y-46358284D01*
X51813174Y-46178256D01*
X51832960Y-45990000D01*
X51813174Y-45801744D01*
X51754679Y-45621716D01*
X51660033Y-45457784D01*
X51533371Y-45317112D01*
X51533370Y-45317111D01*
X51380234Y-45205851D01*
X51380229Y-45205848D01*
X51207307Y-45128857D01*
X51207302Y-45128855D01*
X51061500Y-45097865D01*
X51022146Y-45089500D01*
X50832854Y-45089500D01*
X50800397Y-45096398D01*
X50647697Y-45128855D01*
X50647692Y-45128857D01*
X50474770Y-45205848D01*
X50474765Y-45205851D01*
X50321629Y-45317111D01*
X50194966Y-45457785D01*
X50100321Y-45621715D01*
X50100318Y-45621722D01*
X50055949Y-45758277D01*
X50041826Y-45801744D01*
X50022040Y-45990000D01*
X45585484Y-45990000D01*
X45682533Y-45882216D01*
X45777179Y-45718284D01*
X45835674Y-45538256D01*
X45855460Y-45350000D01*
X45835674Y-45161744D01*
X45777179Y-44981716D01*
X45682533Y-44817784D01*
X45555871Y-44677112D01*
X45555870Y-44677111D01*
X45402734Y-44565851D01*
X45402729Y-44565848D01*
X45229807Y-44488857D01*
X45229802Y-44488855D01*
X45084000Y-44457865D01*
X45044646Y-44449500D01*
X44855354Y-44449500D01*
X44822897Y-44456398D01*
X44670197Y-44488855D01*
X44670192Y-44488857D01*
X44497270Y-44565848D01*
X44497265Y-44565851D01*
X44344129Y-44677111D01*
X44217466Y-44817785D01*
X44122821Y-44981715D01*
X44122818Y-44981722D01*
X44071762Y-45138857D01*
X44064326Y-45161744D01*
X44044540Y-45350000D01*
X25698610Y-45350000D01*
X25630992Y-44867580D01*
X25630729Y-44865402D01*
X25593397Y-44499171D01*
X25591319Y-44477412D01*
X25544257Y-43984508D01*
X25544082Y-43982213D01*
X25523368Y-43619524D01*
X25496697Y-43098323D01*
X25496626Y-43096070D01*
X25492152Y-42738512D01*
X25492055Y-42724746D01*
X51024244Y-42724746D01*
X51044030Y-42913002D01*
X51044031Y-42913005D01*
X51102522Y-43093023D01*
X51102525Y-43093030D01*
X51197171Y-43256962D01*
X51259843Y-43326566D01*
X51323833Y-43397634D01*
X51476969Y-43508894D01*
X51476974Y-43508897D01*
X51649896Y-43585888D01*
X51649901Y-43585890D01*
X51835058Y-43625246D01*
X51835059Y-43625246D01*
X52024348Y-43625246D01*
X52024350Y-43625246D01*
X52209507Y-43585890D01*
X52382434Y-43508897D01*
X52509797Y-43416362D01*
X52575599Y-43392884D01*
X52643653Y-43408709D01*
X52674827Y-43433708D01*
X52709661Y-43472395D01*
X52764129Y-43532888D01*
X52917265Y-43644148D01*
X52917270Y-43644151D01*
X53090192Y-43721142D01*
X53090197Y-43721144D01*
X53275354Y-43760500D01*
X53275355Y-43760500D01*
X53464644Y-43760500D01*
X53464646Y-43760500D01*
X53649803Y-43721144D01*
X53822730Y-43644151D01*
X53975871Y-43532888D01*
X54102533Y-43392216D01*
X54197179Y-43228284D01*
X54255674Y-43048256D01*
X54275460Y-42860000D01*
X54255674Y-42671744D01*
X54197179Y-42491716D01*
X54102533Y-42327784D01*
X53975871Y-42187112D01*
X53975275Y-42186679D01*
X53822734Y-42075851D01*
X53822729Y-42075848D01*
X53649807Y-41998857D01*
X53649802Y-41998855D01*
X53488169Y-41964500D01*
X53464646Y-41959500D01*
X53275354Y-41959500D01*
X53251831Y-41964500D01*
X53090197Y-41998855D01*
X53090192Y-41998857D01*
X52917271Y-42075848D01*
X52789909Y-42168381D01*
X52724102Y-42191860D01*
X52656048Y-42176034D01*
X52624874Y-42151034D01*
X52535574Y-42051857D01*
X52382438Y-41940597D01*
X52382433Y-41940594D01*
X52209511Y-41863603D01*
X52209506Y-41863601D01*
X52063705Y-41832611D01*
X52024350Y-41824246D01*
X51835058Y-41824246D01*
X51802601Y-41831144D01*
X51649901Y-41863601D01*
X51649896Y-41863603D01*
X51476974Y-41940594D01*
X51476969Y-41940597D01*
X51323833Y-42051857D01*
X51197170Y-42192531D01*
X51102525Y-42356461D01*
X51102522Y-42356468D01*
X51058578Y-42491715D01*
X51044030Y-42536490D01*
X51034607Y-42626144D01*
X51025990Y-42708138D01*
X51024244Y-42724746D01*
X25492055Y-42724746D01*
X25488427Y-42211007D01*
X25488456Y-42208645D01*
X25499683Y-41858182D01*
X25503132Y-41765000D01*
X42214540Y-41765000D01*
X42234326Y-41953256D01*
X42234327Y-41953259D01*
X42292818Y-42133277D01*
X42292821Y-42133284D01*
X42387467Y-42297216D01*
X42510764Y-42434151D01*
X42514129Y-42437888D01*
X42667265Y-42549148D01*
X42667270Y-42549151D01*
X42840192Y-42626142D01*
X42840197Y-42626144D01*
X43025354Y-42665500D01*
X43025355Y-42665500D01*
X43214644Y-42665500D01*
X43214646Y-42665500D01*
X43399803Y-42626144D01*
X43572730Y-42549151D01*
X43725871Y-42437888D01*
X43852533Y-42297216D01*
X43947179Y-42133284D01*
X44005674Y-41953256D01*
X44025460Y-41765000D01*
X44013373Y-41650000D01*
X56794540Y-41650000D01*
X56814326Y-41838256D01*
X56814327Y-41838259D01*
X56872818Y-42018277D01*
X56872821Y-42018284D01*
X56967467Y-42182216D01*
X57035865Y-42258179D01*
X57094129Y-42322888D01*
X57247265Y-42434148D01*
X57247270Y-42434151D01*
X57420192Y-42511142D01*
X57420197Y-42511144D01*
X57605354Y-42550500D01*
X57605355Y-42550500D01*
X57794644Y-42550500D01*
X57794646Y-42550500D01*
X57795046Y-42550415D01*
X60645773Y-42550415D01*
X60655696Y-42708137D01*
X60655696Y-42708140D01*
X60680614Y-42784828D01*
X60704533Y-42858441D01*
X60789214Y-42991877D01*
X60904418Y-43100062D01*
X60904420Y-43100063D01*
X60904422Y-43100065D01*
X60981578Y-43142481D01*
X61042908Y-43176197D01*
X61195981Y-43215500D01*
X61195984Y-43215500D01*
X61314348Y-43215500D01*
X61314350Y-43215500D01*
X61314355Y-43215499D01*
X61314359Y-43215499D01*
X61327088Y-43213890D01*
X61431792Y-43200664D01*
X61578732Y-43142486D01*
X61642618Y-43096070D01*
X61706583Y-43049597D01*
X61706584Y-43049596D01*
X61706583Y-43049596D01*
X61706587Y-43049594D01*
X61807324Y-42927823D01*
X61874614Y-42784826D01*
X61904227Y-42629588D01*
X61899246Y-42550415D01*
X63395773Y-42550415D01*
X63405696Y-42708137D01*
X63405696Y-42708140D01*
X63430614Y-42784828D01*
X63454533Y-42858441D01*
X63539214Y-42991877D01*
X63654418Y-43100062D01*
X63654420Y-43100063D01*
X63654422Y-43100065D01*
X63731578Y-43142481D01*
X63792908Y-43176197D01*
X63945981Y-43215500D01*
X63945984Y-43215500D01*
X64064348Y-43215500D01*
X64064350Y-43215500D01*
X64064355Y-43215499D01*
X64064359Y-43215499D01*
X64077088Y-43213890D01*
X64181792Y-43200664D01*
X64328732Y-43142486D01*
X64392618Y-43096070D01*
X64456583Y-43049597D01*
X64456584Y-43049596D01*
X64456583Y-43049596D01*
X64456587Y-43049594D01*
X64557324Y-42927823D01*
X64624614Y-42784826D01*
X64654227Y-42629588D01*
X64644304Y-42471862D01*
X64595467Y-42321559D01*
X64510786Y-42188123D01*
X64395582Y-42079938D01*
X64395579Y-42079936D01*
X64395577Y-42079934D01*
X64257095Y-42003804D01*
X64257087Y-42003801D01*
X64104021Y-41964500D01*
X64104019Y-41964500D01*
X63985650Y-41964500D01*
X63985640Y-41964500D01*
X63868208Y-41979336D01*
X63868206Y-41979336D01*
X63721269Y-42037513D01*
X63721260Y-42037518D01*
X63593416Y-42130402D01*
X63593415Y-42130403D01*
X63492674Y-42252178D01*
X63425387Y-42395171D01*
X63425385Y-42395174D01*
X63410757Y-42471862D01*
X63395773Y-42550412D01*
X63395773Y-42550414D01*
X63395773Y-42550415D01*
X61899246Y-42550415D01*
X61894304Y-42471862D01*
X61845467Y-42321559D01*
X61760786Y-42188123D01*
X61645582Y-42079938D01*
X61645579Y-42079936D01*
X61645577Y-42079934D01*
X61507095Y-42003804D01*
X61507087Y-42003801D01*
X61354021Y-41964500D01*
X61354019Y-41964500D01*
X61235650Y-41964500D01*
X61235640Y-41964500D01*
X61118208Y-41979336D01*
X61118206Y-41979336D01*
X60971269Y-42037513D01*
X60971260Y-42037518D01*
X60843416Y-42130402D01*
X60843415Y-42130403D01*
X60742674Y-42252178D01*
X60675387Y-42395171D01*
X60675385Y-42395174D01*
X60660757Y-42471862D01*
X60645773Y-42550412D01*
X60645773Y-42550414D01*
X60645773Y-42550415D01*
X57795046Y-42550415D01*
X57979803Y-42511144D01*
X58152730Y-42434151D01*
X58305871Y-42322888D01*
X58432533Y-42182216D01*
X58527179Y-42018284D01*
X58585674Y-41838256D01*
X58605460Y-41650000D01*
X58585674Y-41461744D01*
X58527179Y-41281716D01*
X58432533Y-41117784D01*
X58305871Y-40977112D01*
X58305870Y-40977111D01*
X58152734Y-40865851D01*
X58152729Y-40865848D01*
X57979807Y-40788857D01*
X57979802Y-40788855D01*
X57834000Y-40757865D01*
X57794646Y-40749500D01*
X57605354Y-40749500D01*
X57572897Y-40756398D01*
X57420197Y-40788855D01*
X57420192Y-40788857D01*
X57247270Y-40865848D01*
X57247265Y-40865851D01*
X57094129Y-40977111D01*
X56967466Y-41117785D01*
X56872821Y-41281715D01*
X56872818Y-41281722D01*
X56814327Y-41461740D01*
X56814326Y-41461744D01*
X56794540Y-41650000D01*
X44013373Y-41650000D01*
X44005674Y-41576744D01*
X43947179Y-41396716D01*
X43852533Y-41232784D01*
X43725871Y-41092112D01*
X43714914Y-41084151D01*
X43572734Y-40980851D01*
X43572729Y-40980848D01*
X43399807Y-40903857D01*
X43399802Y-40903855D01*
X43254001Y-40872865D01*
X43214646Y-40864500D01*
X43025354Y-40864500D01*
X42992897Y-40871398D01*
X42840197Y-40903855D01*
X42840192Y-40903857D01*
X42667270Y-40980848D01*
X42667265Y-40980851D01*
X42514129Y-41092111D01*
X42387466Y-41232785D01*
X42292821Y-41396715D01*
X42292818Y-41396722D01*
X42234327Y-41576740D01*
X42234326Y-41576744D01*
X42214540Y-41765000D01*
X25503132Y-41765000D01*
X25519455Y-41324060D01*
X25519583Y-41321807D01*
X25545740Y-40980851D01*
X25545789Y-40980216D01*
X25589718Y-40439513D01*
X25589968Y-40437043D01*
X25606646Y-40300000D01*
X33244540Y-40300000D01*
X33264326Y-40488256D01*
X33264327Y-40488259D01*
X33322818Y-40668277D01*
X33322821Y-40668284D01*
X33417467Y-40832216D01*
X33544129Y-40972888D01*
X33697265Y-41084148D01*
X33697270Y-41084151D01*
X33870192Y-41161142D01*
X33870197Y-41161144D01*
X34055354Y-41200500D01*
X34055355Y-41200500D01*
X34244644Y-41200500D01*
X34244646Y-41200500D01*
X34429803Y-41161144D01*
X34602730Y-41084151D01*
X34755871Y-40972888D01*
X34882533Y-40832216D01*
X34977179Y-40668284D01*
X35035674Y-40488256D01*
X35055460Y-40300000D01*
X35035674Y-40111744D01*
X34977179Y-39931716D01*
X34882533Y-39767784D01*
X34755871Y-39627112D01*
X34755870Y-39627111D01*
X34602734Y-39515851D01*
X34602729Y-39515848D01*
X34429807Y-39438857D01*
X34429802Y-39438855D01*
X34284000Y-39407865D01*
X34244646Y-39399500D01*
X34055354Y-39399500D01*
X34022897Y-39406398D01*
X33870197Y-39438855D01*
X33870192Y-39438857D01*
X33697270Y-39515848D01*
X33697265Y-39515851D01*
X33544129Y-39627111D01*
X33417466Y-39767785D01*
X33322821Y-39931715D01*
X33322818Y-39931722D01*
X33272786Y-40085707D01*
X33264326Y-40111744D01*
X33244540Y-40300000D01*
X25606646Y-40300000D01*
X25606646Y-40299999D01*
X25630101Y-40107261D01*
X25699095Y-39558764D01*
X25699434Y-39556449D01*
X25752063Y-39241628D01*
X25847345Y-38683862D01*
X25847819Y-38681394D01*
X25910839Y-38385978D01*
X26034207Y-37816284D01*
X26034773Y-37813911D01*
X26105176Y-37543519D01*
X26121591Y-37481144D01*
X26259287Y-36957894D01*
X26259999Y-36955404D01*
X26266500Y-36934332D01*
X26332285Y-36721100D01*
X26363713Y-36620000D01*
X29094540Y-36620000D01*
X29114326Y-36808256D01*
X29114327Y-36808259D01*
X29172818Y-36988277D01*
X29172821Y-36988284D01*
X29267467Y-37152216D01*
X29366083Y-37261740D01*
X29394129Y-37292888D01*
X29547265Y-37404148D01*
X29547270Y-37404151D01*
X29720192Y-37481142D01*
X29720197Y-37481144D01*
X29905354Y-37520500D01*
X29905355Y-37520500D01*
X30094644Y-37520500D01*
X30094646Y-37520500D01*
X30279803Y-37481144D01*
X30452730Y-37404151D01*
X30605871Y-37292888D01*
X30732533Y-37152216D01*
X30827179Y-36988284D01*
X30885674Y-36808256D01*
X30905460Y-36620000D01*
X30893899Y-36510000D01*
X34964540Y-36510000D01*
X34984326Y-36698256D01*
X34984327Y-36698259D01*
X35042818Y-36878277D01*
X35042821Y-36878284D01*
X35137467Y-37042216D01*
X35236510Y-37152214D01*
X35264129Y-37182888D01*
X35417265Y-37294148D01*
X35417270Y-37294151D01*
X35590192Y-37371142D01*
X35590197Y-37371144D01*
X35775354Y-37410500D01*
X35775355Y-37410500D01*
X35964644Y-37410500D01*
X35964646Y-37410500D01*
X36149803Y-37371144D01*
X36322730Y-37294151D01*
X36475871Y-37182888D01*
X36602533Y-37042216D01*
X36697179Y-36878284D01*
X36755674Y-36698256D01*
X36775460Y-36510000D01*
X36755674Y-36321744D01*
X36699871Y-36150000D01*
X42094540Y-36150000D01*
X42114326Y-36338256D01*
X42114327Y-36338259D01*
X42172818Y-36518277D01*
X42172821Y-36518284D01*
X42267466Y-36682215D01*
X42323811Y-36744793D01*
X42354041Y-36807785D01*
X42345415Y-36877120D01*
X42323815Y-36910732D01*
X42317472Y-36917776D01*
X42317464Y-36917787D01*
X42222821Y-37081715D01*
X42222818Y-37081722D01*
X42164327Y-37261740D01*
X42164326Y-37261744D01*
X42144540Y-37450000D01*
X42164326Y-37638256D01*
X42164327Y-37638259D01*
X42222818Y-37818277D01*
X42222821Y-37818284D01*
X42317467Y-37982216D01*
X42444128Y-38122888D01*
X42444129Y-38122888D01*
X42597265Y-38234148D01*
X42597270Y-38234151D01*
X42770192Y-38311142D01*
X42770197Y-38311144D01*
X42955354Y-38350500D01*
X42955355Y-38350500D01*
X43144644Y-38350500D01*
X43144646Y-38350500D01*
X43329803Y-38311144D01*
X43502730Y-38234151D01*
X43655871Y-38122888D01*
X43782533Y-37982216D01*
X43877179Y-37818284D01*
X43935674Y-37638256D01*
X43955460Y-37450000D01*
X43935674Y-37261744D01*
X43877179Y-37081716D01*
X43792087Y-36934332D01*
X43782535Y-36917787D01*
X43782534Y-36917786D01*
X43782533Y-36917784D01*
X43726185Y-36855204D01*
X43695957Y-36792215D01*
X43704582Y-36722880D01*
X43726191Y-36689258D01*
X43732533Y-36682216D01*
X43827179Y-36518284D01*
X43885674Y-36338256D01*
X43905460Y-36150000D01*
X43885674Y-35961744D01*
X43827179Y-35781716D01*
X43732533Y-35617784D01*
X43605871Y-35477112D01*
X43605870Y-35477111D01*
X43452734Y-35365851D01*
X43452729Y-35365848D01*
X43304834Y-35300000D01*
X61844540Y-35300000D01*
X61864326Y-35488256D01*
X61864327Y-35488259D01*
X61922818Y-35668277D01*
X61922821Y-35668284D01*
X62017467Y-35832216D01*
X62102125Y-35926238D01*
X62144129Y-35972888D01*
X62297265Y-36084148D01*
X62297270Y-36084151D01*
X62470192Y-36161142D01*
X62470197Y-36161144D01*
X62655354Y-36200500D01*
X62655355Y-36200500D01*
X62844644Y-36200500D01*
X62844646Y-36200500D01*
X63029803Y-36161144D01*
X63202730Y-36084151D01*
X63355871Y-35972888D01*
X63482533Y-35832216D01*
X63577179Y-35668284D01*
X63635674Y-35488256D01*
X63655460Y-35300000D01*
X63635674Y-35111744D01*
X63577179Y-34931716D01*
X63482533Y-34767784D01*
X63355871Y-34627112D01*
X63355870Y-34627111D01*
X63202734Y-34515851D01*
X63202729Y-34515848D01*
X63029807Y-34438857D01*
X63029802Y-34438855D01*
X62884001Y-34407865D01*
X62844646Y-34399500D01*
X62655354Y-34399500D01*
X62622897Y-34406398D01*
X62470197Y-34438855D01*
X62470192Y-34438857D01*
X62297270Y-34515848D01*
X62297265Y-34515851D01*
X62144129Y-34627111D01*
X62017466Y-34767785D01*
X61922821Y-34931715D01*
X61922818Y-34931722D01*
X61864327Y-35111740D01*
X61864326Y-35111744D01*
X61844540Y-35300000D01*
X43304834Y-35300000D01*
X43279807Y-35288857D01*
X43279802Y-35288855D01*
X43107353Y-35252201D01*
X43094646Y-35249500D01*
X42905354Y-35249500D01*
X42892647Y-35252201D01*
X42720197Y-35288855D01*
X42720192Y-35288857D01*
X42547270Y-35365848D01*
X42547265Y-35365851D01*
X42394129Y-35477111D01*
X42267466Y-35617785D01*
X42172821Y-35781715D01*
X42172818Y-35781722D01*
X42119080Y-35947112D01*
X42114326Y-35961744D01*
X42094540Y-36150000D01*
X36699871Y-36150000D01*
X36697179Y-36141716D01*
X36602533Y-35977784D01*
X36475871Y-35837112D01*
X36475870Y-35837111D01*
X36322734Y-35725851D01*
X36322729Y-35725848D01*
X36149807Y-35648857D01*
X36149802Y-35648855D01*
X36003619Y-35617784D01*
X35964646Y-35609500D01*
X35775354Y-35609500D01*
X35742897Y-35616398D01*
X35590197Y-35648855D01*
X35590192Y-35648857D01*
X35417270Y-35725848D01*
X35417265Y-35725851D01*
X35264129Y-35837111D01*
X35137466Y-35977785D01*
X35042821Y-36141715D01*
X35042818Y-36141722D01*
X34984327Y-36321740D01*
X34984326Y-36321744D01*
X34964540Y-36510000D01*
X30893899Y-36510000D01*
X30885674Y-36431744D01*
X30827179Y-36251716D01*
X30732533Y-36087784D01*
X30605871Y-35947112D01*
X30577402Y-35926428D01*
X30452734Y-35835851D01*
X30452729Y-35835848D01*
X30279807Y-35758857D01*
X30279802Y-35758855D01*
X30124511Y-35725848D01*
X30094646Y-35719500D01*
X29905354Y-35719500D01*
X29875489Y-35725848D01*
X29720197Y-35758855D01*
X29720192Y-35758857D01*
X29547270Y-35835848D01*
X29547265Y-35835851D01*
X29394129Y-35947111D01*
X29267466Y-36087785D01*
X29172821Y-36251715D01*
X29172818Y-36251722D01*
X29150067Y-36321744D01*
X29114326Y-36431744D01*
X29094540Y-36620000D01*
X26363713Y-36620000D01*
X26522191Y-36110191D01*
X26522973Y-36107852D01*
X26587777Y-35926838D01*
X26587924Y-35926428D01*
X26587978Y-35926447D01*
X26587991Y-35926241D01*
X26822352Y-35275027D01*
X26823251Y-35272686D01*
X26859778Y-35183399D01*
X26860023Y-35182802D01*
X26860114Y-35182690D01*
X26860076Y-35182675D01*
X26889193Y-35111744D01*
X26964838Y-34927461D01*
X27158409Y-34455901D01*
X27159502Y-34453397D01*
X27529273Y-33654686D01*
X27530426Y-33652333D01*
X27900863Y-32936677D01*
X27949161Y-32886191D01*
X28010913Y-32869680D01*
X35556024Y-32865556D01*
X35623073Y-32885204D01*
X35668857Y-32937983D01*
X35678838Y-33007136D01*
X35649848Y-33070707D01*
X35594410Y-33107487D01*
X35590192Y-33108857D01*
X35417270Y-33185848D01*
X35417265Y-33185851D01*
X35264129Y-33297111D01*
X35137466Y-33437785D01*
X35042821Y-33601715D01*
X35042818Y-33601722D01*
X34990824Y-33761744D01*
X34984326Y-33781744D01*
X34964540Y-33970000D01*
X34984326Y-34158256D01*
X34984327Y-34158259D01*
X35042818Y-34338277D01*
X35042821Y-34338284D01*
X35137467Y-34502216D01*
X35246121Y-34622888D01*
X35264129Y-34642888D01*
X35417265Y-34754148D01*
X35417270Y-34754151D01*
X35590192Y-34831142D01*
X35590197Y-34831144D01*
X35775354Y-34870500D01*
X35775355Y-34870500D01*
X35964644Y-34870500D01*
X35964646Y-34870500D01*
X36149803Y-34831144D01*
X36322730Y-34754151D01*
X36475871Y-34642888D01*
X36602533Y-34502216D01*
X36697179Y-34338284D01*
X36755674Y-34158256D01*
X36775460Y-33970000D01*
X36755674Y-33781744D01*
X36697179Y-33601716D01*
X36602533Y-33437784D01*
X36475871Y-33297112D01*
X36475870Y-33297111D01*
X36322734Y-33185851D01*
X36322729Y-33185848D01*
X36149803Y-33108855D01*
X36144533Y-33107143D01*
X36086858Y-33067704D01*
X36059662Y-33003345D01*
X36071578Y-32934499D01*
X36118823Y-32883024D01*
X36182783Y-32865213D01*
X53009723Y-32856015D01*
X53076772Y-32875663D01*
X53122556Y-32928442D01*
X53132537Y-32997595D01*
X53103547Y-33061166D01*
X53060227Y-33093294D01*
X52897267Y-33165850D01*
X52897265Y-33165851D01*
X52744129Y-33277111D01*
X52617466Y-33417785D01*
X52522821Y-33581715D01*
X52522818Y-33581722D01*
X52464327Y-33761740D01*
X52464326Y-33761744D01*
X52444540Y-33950000D01*
X52464326Y-34138256D01*
X52464327Y-34138259D01*
X52522818Y-34318277D01*
X52522821Y-34318284D01*
X52617467Y-34482216D01*
X52744128Y-34622888D01*
X52744129Y-34622888D01*
X52897265Y-34734148D01*
X52897270Y-34734151D01*
X53070192Y-34811142D01*
X53070197Y-34811144D01*
X53255354Y-34850500D01*
X53255355Y-34850500D01*
X53444644Y-34850500D01*
X53444646Y-34850500D01*
X53629803Y-34811144D01*
X53802730Y-34734151D01*
X53955871Y-34622888D01*
X54082533Y-34482216D01*
X54177179Y-34318284D01*
X54235674Y-34138256D01*
X54255460Y-33950000D01*
X54235674Y-33761744D01*
X54177179Y-33581716D01*
X54082533Y-33417784D01*
X53955871Y-33277112D01*
X53955870Y-33277111D01*
X53802734Y-33165851D01*
X53802729Y-33165848D01*
X53638938Y-33092923D01*
X53585701Y-33047673D01*
X53565380Y-32980824D01*
X53584425Y-32913600D01*
X53636792Y-32867345D01*
X53689305Y-32855644D01*
X63024299Y-32850541D01*
X63091349Y-32870189D01*
G37*
%TD.AperFunction*%
%TD*%
M02*
