%TF.GenerationSoftware,KiCad,Pcbnew,7.0.5*%
%TF.CreationDate,2025-08-15T19:59:52+01:00*%
%TF.ProjectId,smartwatch,736d6172-7477-4617-9463-682e6b696361,rev?*%
%TF.SameCoordinates,Original*%
%TF.FileFunction,Copper,L3,Inr*%
%TF.FilePolarity,Positive*%
%FSLAX46Y46*%
G04 Gerber Fmt 4.6, Leading zero omitted, Abs format (unit mm)*
G04 Created by KiCad (PCBNEW 7.0.5) date 2025-08-15 19:59:52*
%MOMM*%
%LPD*%
G01*
G04 APERTURE LIST*
%TA.AperFunction,ViaPad*%
%ADD10C,0.800000*%
%TD*%
G04 APERTURE END LIST*
D10*
%TO.N,BTN_INP*%
X51548790Y-39337733D03*
%TO.N,DC_GND*%
X53370000Y-33970000D03*
%TO.N,RX*%
X51375500Y-34700000D03*
%TO.N,TX*%
X52035851Y-33385196D03*
%TO.N,DC_GND*%
X43100000Y-49700000D03*
X37800000Y-51300000D03*
X43120000Y-40365000D03*
%TO.N,IO0*%
X53370000Y-50480000D03*
%TO.N,DC_GND*%
X59773912Y-53923912D03*
X50927500Y-45990000D03*
X30750000Y-48350000D03*
X30000000Y-36620000D03*
X27850000Y-48350000D03*
X63950000Y-45400000D03*
X35870000Y-33970000D03*
X35850000Y-51700000D03*
X32258000Y-54102000D03*
%TO.N,3V3*%
X55762500Y-56100000D03*
X61000000Y-49150000D03*
X60174500Y-46100000D03*
X30730000Y-46300000D03*
X35776405Y-35303268D03*
X48852500Y-45990000D03*
%TO.N,EN*%
X35870000Y-36510000D03*
%TO.N,SCR_SCLK*%
X53370000Y-44130000D03*
X56500000Y-46950000D03*
%TO.N,SCR_MISO*%
X56450000Y-49550000D03*
X50150000Y-50400000D03*
%TO.N,SCR_MOSI*%
X56600000Y-48300000D03*
X53370000Y-40320000D03*
%TO.N,BAT_MEASURE*%
X34150000Y-40300000D03*
%TO.N,SCR_RST*%
X54850000Y-51350000D03*
X58200000Y-49750000D03*
%TO.N,TOUCH_RST*%
X38100000Y-43250000D03*
X40000000Y-39050000D03*
X56550000Y-36950000D03*
X49950000Y-38350000D03*
%TO.N,TOUCH_IRQ*%
X37400000Y-42400000D03*
X38150000Y-40865500D03*
X50550000Y-39300000D03*
X56500000Y-38250000D03*
%TO.N,SCR_BL*%
X58650000Y-51000000D03*
X53370000Y-53020000D03*
%TD*%
%TA.AperFunction,Conductor*%
%TO.N,DC_GND*%
G36*
X63091349Y-32870189D02*
G01*
X63134427Y-32917419D01*
X63505625Y-33632629D01*
X63506830Y-33635081D01*
X63877451Y-34433337D01*
X63878547Y-34435840D01*
X64177513Y-35161895D01*
X64214573Y-35252201D01*
X64215529Y-35254681D01*
X64450453Y-35905229D01*
X64466701Y-35950456D01*
X64515764Y-36087031D01*
X64516600Y-36089523D01*
X64707010Y-36699703D01*
X64707050Y-36699968D01*
X64707089Y-36699957D01*
X64779679Y-36934332D01*
X64780395Y-36936831D01*
X64935262Y-37522720D01*
X64946542Y-37565848D01*
X65005828Y-37792530D01*
X65006427Y-37795030D01*
X65130310Y-38364095D01*
X65130270Y-38364103D01*
X65130392Y-38364469D01*
X65193747Y-38659875D01*
X65194229Y-38662370D01*
X65290091Y-39219856D01*
X65343075Y-39534679D01*
X65343441Y-39537164D01*
X65413042Y-40085642D01*
X65426949Y-40198875D01*
X65453519Y-40415233D01*
X65453772Y-40417703D01*
X65498300Y-40958445D01*
X65524865Y-41299844D01*
X65525007Y-41302293D01*
X65545354Y-41836177D01*
X65556967Y-42186679D01*
X65557000Y-42189102D01*
X65553850Y-42716749D01*
X65549770Y-43074092D01*
X65549697Y-43076485D01*
X65523594Y-43597748D01*
X65503284Y-43960335D01*
X65503107Y-43962693D01*
X65454529Y-44477412D01*
X65417604Y-44843605D01*
X65417326Y-44845924D01*
X65346687Y-45353949D01*
X65292902Y-45722197D01*
X65292526Y-45724472D01*
X65200220Y-46225396D01*
X65129410Y-46594437D01*
X65128940Y-46596665D01*
X65015339Y-47090085D01*
X64927470Y-47458539D01*
X64926909Y-47460716D01*
X64792407Y-47946032D01*
X64687465Y-48312848D01*
X64686817Y-48314969D01*
X64531811Y-48791611D01*
X64409859Y-49155725D01*
X64409127Y-49157787D01*
X64234068Y-49625018D01*
X64095217Y-49985439D01*
X64094406Y-49987440D01*
X63899685Y-50444749D01*
X63744148Y-50800406D01*
X63743261Y-50802343D01*
X63529294Y-51249149D01*
X63357341Y-51599024D01*
X63356383Y-51600893D01*
X63123699Y-52036421D01*
X62935552Y-52379732D01*
X62934526Y-52381532D01*
X62683591Y-52805192D01*
X62479605Y-53141005D01*
X62478516Y-53142732D01*
X62209868Y-53553846D01*
X61990439Y-53881278D01*
X61989292Y-53882931D01*
X61703414Y-54280952D01*
X61468950Y-54599203D01*
X61467749Y-54600781D01*
X61165259Y-54985006D01*
X60916174Y-55293350D01*
X60914922Y-55294850D01*
X60596456Y-55664613D01*
X60333245Y-55962292D01*
X60331948Y-55963714D01*
X59998120Y-56318436D01*
X59721253Y-56604784D01*
X59719916Y-56606126D01*
X59371372Y-56945231D01*
X59081397Y-57219568D01*
X59080023Y-57220829D01*
X58717423Y-57543764D01*
X58415030Y-57805344D01*
X58413624Y-57806524D01*
X58037583Y-58112824D01*
X57723358Y-58361063D01*
X57721924Y-58362162D01*
X57333180Y-58651284D01*
X57007781Y-58885599D01*
X57006324Y-58886617D01*
X56605623Y-59158063D01*
X56269637Y-59377969D01*
X56268161Y-59378906D01*
X55856377Y-59632138D01*
X55510459Y-59837150D01*
X55508968Y-59838006D01*
X55086766Y-60072665D01*
X54731735Y-60262247D01*
X54730234Y-60263022D01*
X54298427Y-60478696D01*
X53934914Y-60652470D01*
X53933407Y-60653166D01*
X53492820Y-60849475D01*
X53121634Y-61007018D01*
X53120125Y-61007635D01*
X52671614Y-61184229D01*
X52293465Y-61325207D01*
X52291958Y-61325747D01*
X51836389Y-61482314D01*
X51451954Y-61606440D01*
X51450453Y-61606904D01*
X50988741Y-61743159D01*
X50598955Y-61850103D01*
X50597463Y-61850492D01*
X50130270Y-61966259D01*
X49735977Y-62055772D01*
X49734498Y-62056089D01*
X49263389Y-62151016D01*
X49262163Y-62151250D01*
X48864786Y-62223027D01*
X48863323Y-62223273D01*
X48388599Y-62297339D01*
X48387334Y-62297523D01*
X47986985Y-62351559D01*
X47985541Y-62351737D01*
X47508122Y-62404807D01*
X47506821Y-62404938D01*
X47104441Y-62441096D01*
X47103020Y-62441207D01*
X46623784Y-62473193D01*
X46622449Y-62473268D01*
X46218722Y-62491482D01*
X46217327Y-62491530D01*
X45737275Y-62502371D01*
X45735909Y-62502387D01*
X45331719Y-62502607D01*
X45330353Y-62502593D01*
X44850271Y-62492277D01*
X44848878Y-62492232D01*
X44826623Y-62491252D01*
X44445158Y-62474460D01*
X44443823Y-62474386D01*
X43964548Y-62442925D01*
X43963127Y-62442815D01*
X43560681Y-62407094D01*
X43559380Y-62406964D01*
X43081907Y-62354415D01*
X43080464Y-62354239D01*
X42680095Y-62300648D01*
X42678830Y-62300465D01*
X42203991Y-62226912D01*
X42202527Y-62226667D01*
X41805101Y-62155330D01*
X41803875Y-62155097D01*
X41332621Y-62060677D01*
X41331141Y-62060362D01*
X40936764Y-61971283D01*
X40469476Y-61856036D01*
X40467983Y-61855648D01*
X40078068Y-61749127D01*
X39616132Y-61613353D01*
X39614630Y-61612891D01*
X39230171Y-61489222D01*
X38774402Y-61333141D01*
X38772894Y-61332603D01*
X38394548Y-61192023D01*
X37945847Y-61015921D01*
X37944387Y-61015326D01*
X37572973Y-60858164D01*
X37132212Y-60662355D01*
X37130704Y-60661661D01*
X36766947Y-60488257D01*
X36409080Y-60310005D01*
X36334981Y-60273096D01*
X36333501Y-60272333D01*
X35978164Y-60083087D01*
X35555732Y-59848902D01*
X35554241Y-59848049D01*
X35208124Y-59643431D01*
X34796064Y-59390650D01*
X34794587Y-59389716D01*
X34458290Y-59170129D01*
X34057339Y-58899154D01*
X34055969Y-58898199D01*
X33919607Y-58800233D01*
X33730177Y-58664140D01*
X33341194Y-58375501D01*
X33339759Y-58374404D01*
X33025273Y-58126516D01*
X32648871Y-57820607D01*
X32647464Y-57819428D01*
X32344787Y-57558181D01*
X31981823Y-57235631D01*
X31980447Y-57234371D01*
X31690202Y-56960379D01*
X31497069Y-56772888D01*
X31341215Y-56621586D01*
X31339960Y-56620330D01*
X31062822Y-56334327D01*
X30841813Y-56100000D01*
X54857040Y-56100000D01*
X54876826Y-56288256D01*
X54876827Y-56288259D01*
X54935318Y-56468277D01*
X54935321Y-56468284D01*
X55029967Y-56632216D01*
X55156629Y-56772888D01*
X55309765Y-56884148D01*
X55309770Y-56884151D01*
X55482692Y-56961142D01*
X55482697Y-56961144D01*
X55667854Y-57000500D01*
X55667855Y-57000500D01*
X55857144Y-57000500D01*
X55857146Y-57000500D01*
X56042303Y-56961144D01*
X56215230Y-56884151D01*
X56368371Y-56772888D01*
X56495033Y-56632216D01*
X56589679Y-56468284D01*
X56648174Y-56288256D01*
X56667960Y-56100000D01*
X56648174Y-55911744D01*
X56589679Y-55731716D01*
X56495033Y-55567784D01*
X56368371Y-55427112D01*
X56368370Y-55427111D01*
X56215234Y-55315851D01*
X56215229Y-55315848D01*
X56042307Y-55238857D01*
X56042302Y-55238855D01*
X55896501Y-55207865D01*
X55857146Y-55199500D01*
X55667854Y-55199500D01*
X55635397Y-55206398D01*
X55482697Y-55238855D01*
X55482692Y-55238857D01*
X55309770Y-55315848D01*
X55309765Y-55315851D01*
X55156629Y-55427111D01*
X55029966Y-55567785D01*
X54935321Y-55731715D01*
X54935318Y-55731722D01*
X54882758Y-55893486D01*
X54876826Y-55911744D01*
X54857040Y-56100000D01*
X30841813Y-56100000D01*
X30728498Y-55979856D01*
X30727229Y-55978467D01*
X30714155Y-55963714D01*
X30463739Y-55681130D01*
X30144810Y-55311645D01*
X30143581Y-55310175D01*
X29894138Y-55002078D01*
X29757827Y-54829324D01*
X29591234Y-54618193D01*
X29590072Y-54616670D01*
X29355224Y-54298626D01*
X29068942Y-53900960D01*
X29067792Y-53899308D01*
X28847944Y-53572025D01*
X28578849Y-53161207D01*
X28577814Y-53159569D01*
X28492825Y-53020000D01*
X52464540Y-53020000D01*
X52484326Y-53208256D01*
X52484327Y-53208259D01*
X52542818Y-53388277D01*
X52542821Y-53388284D01*
X52637467Y-53552216D01*
X52638935Y-53553846D01*
X52764129Y-53692888D01*
X52917265Y-53804148D01*
X52917270Y-53804151D01*
X53090192Y-53881142D01*
X53090197Y-53881144D01*
X53275354Y-53920500D01*
X53275355Y-53920500D01*
X53464644Y-53920500D01*
X53464646Y-53920500D01*
X53649803Y-53881144D01*
X53822730Y-53804151D01*
X53975871Y-53692888D01*
X54102533Y-53552216D01*
X54197179Y-53388284D01*
X54255674Y-53208256D01*
X54275460Y-53020000D01*
X54255674Y-52831744D01*
X54197179Y-52651716D01*
X54102533Y-52487784D01*
X53975871Y-52347112D01*
X53975870Y-52347111D01*
X53822734Y-52235851D01*
X53822729Y-52235848D01*
X53649807Y-52158857D01*
X53649802Y-52158855D01*
X53504000Y-52127865D01*
X53464646Y-52119500D01*
X53275354Y-52119500D01*
X53242897Y-52126398D01*
X53090197Y-52158855D01*
X53090192Y-52158857D01*
X52917270Y-52235848D01*
X52917265Y-52235851D01*
X52764129Y-52347111D01*
X52637466Y-52487785D01*
X52542821Y-52651715D01*
X52542818Y-52651722D01*
X52526153Y-52703013D01*
X52484326Y-52831744D01*
X52464540Y-53020000D01*
X28492825Y-53020000D01*
X28373440Y-52823947D01*
X28122042Y-52400561D01*
X28121047Y-52398822D01*
X27932489Y-52055653D01*
X27699309Y-51620342D01*
X27698403Y-51618580D01*
X27526012Y-51268777D01*
X27311576Y-50822247D01*
X27310700Y-50820340D01*
X27309579Y-50817785D01*
X27249928Y-50681788D01*
X27154757Y-50464810D01*
X27127077Y-50400000D01*
X49244540Y-50400000D01*
X49264326Y-50588256D01*
X49264327Y-50588259D01*
X49322818Y-50768277D01*
X49322821Y-50768284D01*
X49417467Y-50932216D01*
X49489498Y-51012214D01*
X49544129Y-51072888D01*
X49697265Y-51184148D01*
X49697270Y-51184151D01*
X49870192Y-51261142D01*
X49870197Y-51261144D01*
X50055354Y-51300500D01*
X50055355Y-51300500D01*
X50244644Y-51300500D01*
X50244646Y-51300500D01*
X50429803Y-51261144D01*
X50602730Y-51184151D01*
X50755871Y-51072888D01*
X50882533Y-50932216D01*
X50977179Y-50768284D01*
X51035674Y-50588256D01*
X51047052Y-50480000D01*
X52464540Y-50480000D01*
X52484326Y-50668256D01*
X52484327Y-50668259D01*
X52542818Y-50848277D01*
X52542821Y-50848284D01*
X52637467Y-51012216D01*
X52740576Y-51126730D01*
X52764129Y-51152888D01*
X52917265Y-51264148D01*
X52917270Y-51264151D01*
X53090192Y-51341142D01*
X53090197Y-51341144D01*
X53275354Y-51380500D01*
X53275355Y-51380500D01*
X53464644Y-51380500D01*
X53464646Y-51380500D01*
X53649803Y-51341144D01*
X53774561Y-51285597D01*
X53843807Y-51276312D01*
X53907084Y-51305940D01*
X53944298Y-51365075D01*
X53948314Y-51385911D01*
X53964326Y-51538256D01*
X53964327Y-51538259D01*
X54022818Y-51718277D01*
X54022821Y-51718284D01*
X54117467Y-51882216D01*
X54164037Y-51933937D01*
X54244129Y-52022888D01*
X54397265Y-52134148D01*
X54397270Y-52134151D01*
X54570192Y-52211142D01*
X54570197Y-52211144D01*
X54755354Y-52250500D01*
X54755355Y-52250500D01*
X54944644Y-52250500D01*
X54944646Y-52250500D01*
X55129803Y-52211144D01*
X55302730Y-52134151D01*
X55455871Y-52022888D01*
X55582533Y-51882216D01*
X55677179Y-51718284D01*
X55735674Y-51538256D01*
X55755460Y-51350000D01*
X55735674Y-51161744D01*
X55677179Y-50981716D01*
X55582533Y-50817784D01*
X55455871Y-50677112D01*
X55455870Y-50677111D01*
X55302734Y-50565851D01*
X55302729Y-50565848D01*
X55129807Y-50488857D01*
X55129802Y-50488855D01*
X54984000Y-50457865D01*
X54944646Y-50449500D01*
X54755354Y-50449500D01*
X54722897Y-50456398D01*
X54570197Y-50488855D01*
X54570192Y-50488857D01*
X54445441Y-50544401D01*
X54376191Y-50553686D01*
X54312914Y-50524058D01*
X54275701Y-50464923D01*
X54271686Y-50444095D01*
X54255674Y-50291744D01*
X54197179Y-50111716D01*
X54102533Y-49947784D01*
X53975871Y-49807112D01*
X53975870Y-49807111D01*
X53822734Y-49695851D01*
X53822729Y-49695848D01*
X53649807Y-49618857D01*
X53649802Y-49618855D01*
X53504000Y-49587865D01*
X53464646Y-49579500D01*
X53275354Y-49579500D01*
X53242897Y-49586398D01*
X53090197Y-49618855D01*
X53090192Y-49618857D01*
X52917270Y-49695848D01*
X52917265Y-49695851D01*
X52764129Y-49807111D01*
X52637466Y-49947785D01*
X52542824Y-50111711D01*
X52542818Y-50111722D01*
X52487422Y-50282216D01*
X52484326Y-50291744D01*
X52464540Y-50480000D01*
X51047052Y-50480000D01*
X51055460Y-50400000D01*
X51035674Y-50211744D01*
X50977179Y-50031716D01*
X50882533Y-49867784D01*
X50755871Y-49727112D01*
X50712844Y-49695851D01*
X50602734Y-49615851D01*
X50602729Y-49615848D01*
X50454834Y-49550000D01*
X55544540Y-49550000D01*
X55564326Y-49738256D01*
X55564327Y-49738259D01*
X55622818Y-49918277D01*
X55622821Y-49918284D01*
X55717467Y-50082216D01*
X55834580Y-50212283D01*
X55844129Y-50222888D01*
X55997265Y-50334148D01*
X55997270Y-50334151D01*
X56170192Y-50411142D01*
X56170197Y-50411144D01*
X56355354Y-50450500D01*
X56355355Y-50450500D01*
X56544644Y-50450500D01*
X56544646Y-50450500D01*
X56729803Y-50411144D01*
X56902730Y-50334151D01*
X57055871Y-50222888D01*
X57171588Y-50094371D01*
X57231074Y-50057723D01*
X57300931Y-50059054D01*
X57358979Y-50097940D01*
X57371124Y-50115344D01*
X57372820Y-50118282D01*
X57372821Y-50118284D01*
X57467467Y-50282216D01*
X57594129Y-50422888D01*
X57747270Y-50534151D01*
X57747280Y-50534155D01*
X57750611Y-50536079D01*
X57752163Y-50537706D01*
X57752527Y-50537971D01*
X57752478Y-50538037D01*
X57798830Y-50586643D01*
X57812058Y-50655249D01*
X57806550Y-50681788D01*
X57764327Y-50811739D01*
X57764327Y-50811740D01*
X57764326Y-50811744D01*
X57744540Y-51000000D01*
X57764326Y-51188256D01*
X57764327Y-51188259D01*
X57822818Y-51368277D01*
X57822821Y-51368284D01*
X57917467Y-51532216D01*
X57995230Y-51618580D01*
X58044129Y-51672888D01*
X58197265Y-51784148D01*
X58197270Y-51784151D01*
X58370192Y-51861142D01*
X58370197Y-51861144D01*
X58555354Y-51900500D01*
X58555355Y-51900500D01*
X58744644Y-51900500D01*
X58744646Y-51900500D01*
X58929803Y-51861144D01*
X59102730Y-51784151D01*
X59255871Y-51672888D01*
X59382533Y-51532216D01*
X59477179Y-51368284D01*
X59535674Y-51188256D01*
X59555460Y-51000000D01*
X59535674Y-50811744D01*
X59477179Y-50631716D01*
X59382533Y-50467784D01*
X59255871Y-50327112D01*
X59207191Y-50291744D01*
X59102728Y-50215847D01*
X59099375Y-50213911D01*
X59097823Y-50212283D01*
X59097473Y-50212029D01*
X59097519Y-50211964D01*
X59051162Y-50163342D01*
X59037942Y-50094734D01*
X59043447Y-50068214D01*
X59085674Y-49938256D01*
X59105460Y-49750000D01*
X59085674Y-49561744D01*
X59027179Y-49381716D01*
X58932533Y-49217784D01*
X58871500Y-49150000D01*
X60094540Y-49150000D01*
X60114326Y-49338256D01*
X60114327Y-49338259D01*
X60172818Y-49518277D01*
X60172821Y-49518284D01*
X60267467Y-49682216D01*
X60379923Y-49807111D01*
X60394129Y-49822888D01*
X60547265Y-49934148D01*
X60547270Y-49934151D01*
X60720192Y-50011142D01*
X60720197Y-50011144D01*
X60905354Y-50050500D01*
X60905355Y-50050500D01*
X61094644Y-50050500D01*
X61094646Y-50050500D01*
X61279803Y-50011144D01*
X61452730Y-49934151D01*
X61605871Y-49822888D01*
X61732533Y-49682216D01*
X61827179Y-49518284D01*
X61885674Y-49338256D01*
X61905460Y-49150000D01*
X61885674Y-48961744D01*
X61827179Y-48781716D01*
X61732533Y-48617784D01*
X61605871Y-48477112D01*
X61605870Y-48477111D01*
X61452734Y-48365851D01*
X61452729Y-48365848D01*
X61279807Y-48288857D01*
X61279802Y-48288855D01*
X61134001Y-48257865D01*
X61094646Y-48249500D01*
X60905354Y-48249500D01*
X60872897Y-48256398D01*
X60720197Y-48288855D01*
X60720192Y-48288857D01*
X60547270Y-48365848D01*
X60547265Y-48365851D01*
X60394129Y-48477111D01*
X60267466Y-48617785D01*
X60172821Y-48781715D01*
X60172818Y-48781722D01*
X60118040Y-48950314D01*
X60114326Y-48961744D01*
X60094540Y-49150000D01*
X58871500Y-49150000D01*
X58805871Y-49077112D01*
X58805870Y-49077111D01*
X58652734Y-48965851D01*
X58652729Y-48965848D01*
X58479807Y-48888857D01*
X58479802Y-48888855D01*
X58334000Y-48857865D01*
X58294646Y-48849500D01*
X58105354Y-48849500D01*
X58072897Y-48856398D01*
X57920197Y-48888855D01*
X57920192Y-48888857D01*
X57747270Y-48965848D01*
X57747265Y-48965851D01*
X57594129Y-49077111D01*
X57594128Y-49077112D01*
X57478411Y-49205628D01*
X57418925Y-49242276D01*
X57349068Y-49240945D01*
X57291020Y-49202058D01*
X57278874Y-49184654D01*
X57277180Y-49181720D01*
X57277179Y-49181716D01*
X57220902Y-49084241D01*
X57204431Y-49016340D01*
X57227283Y-48950314D01*
X57236125Y-48939286D01*
X57332533Y-48832216D01*
X57427179Y-48668284D01*
X57485674Y-48488256D01*
X57505460Y-48300000D01*
X57485674Y-48111744D01*
X57427179Y-47931716D01*
X57332533Y-47767784D01*
X57228676Y-47652440D01*
X57198447Y-47589450D01*
X57207072Y-47520115D01*
X57228680Y-47486494D01*
X57232533Y-47482216D01*
X57327179Y-47318284D01*
X57385674Y-47138256D01*
X57405460Y-46950000D01*
X57385674Y-46761744D01*
X57327179Y-46581716D01*
X57232533Y-46417784D01*
X57105871Y-46277112D01*
X57064025Y-46246709D01*
X56952734Y-46165851D01*
X56952729Y-46165848D01*
X56804834Y-46100000D01*
X59269040Y-46100000D01*
X59288826Y-46288256D01*
X59288827Y-46288259D01*
X59347318Y-46468277D01*
X59347321Y-46468284D01*
X59441967Y-46632216D01*
X59474437Y-46668277D01*
X59568629Y-46772888D01*
X59721765Y-46884148D01*
X59721770Y-46884151D01*
X59894692Y-46961142D01*
X59894697Y-46961144D01*
X60079854Y-47000500D01*
X60079855Y-47000500D01*
X60269144Y-47000500D01*
X60269146Y-47000500D01*
X60454303Y-46961144D01*
X60627230Y-46884151D01*
X60780371Y-46772888D01*
X60907033Y-46632216D01*
X61001679Y-46468284D01*
X61060174Y-46288256D01*
X61079960Y-46100000D01*
X61060174Y-45911744D01*
X61001679Y-45731716D01*
X60907033Y-45567784D01*
X60780371Y-45427112D01*
X60780370Y-45427111D01*
X60627234Y-45315851D01*
X60627229Y-45315848D01*
X60454307Y-45238857D01*
X60454302Y-45238855D01*
X60299011Y-45205848D01*
X60269146Y-45199500D01*
X60079854Y-45199500D01*
X60049989Y-45205848D01*
X59894697Y-45238855D01*
X59894692Y-45238857D01*
X59721770Y-45315848D01*
X59721765Y-45315851D01*
X59568629Y-45427111D01*
X59441966Y-45567785D01*
X59347321Y-45731715D01*
X59347318Y-45731722D01*
X59324567Y-45801744D01*
X59288826Y-45911744D01*
X59269040Y-46100000D01*
X56804834Y-46100000D01*
X56779807Y-46088857D01*
X56779802Y-46088855D01*
X56634000Y-46057865D01*
X56594646Y-46049500D01*
X56405354Y-46049500D01*
X56372897Y-46056398D01*
X56220197Y-46088855D01*
X56220192Y-46088857D01*
X56047270Y-46165848D01*
X56047265Y-46165851D01*
X55894129Y-46277111D01*
X55767466Y-46417785D01*
X55672821Y-46581715D01*
X55672818Y-46581722D01*
X55614327Y-46761740D01*
X55614326Y-46761744D01*
X55594540Y-46950000D01*
X55614326Y-47138256D01*
X55614327Y-47138259D01*
X55672818Y-47318277D01*
X55672821Y-47318284D01*
X55767467Y-47482216D01*
X55801592Y-47520115D01*
X55871321Y-47597557D01*
X55901551Y-47660548D01*
X55892926Y-47729883D01*
X55871328Y-47763493D01*
X55867474Y-47767773D01*
X55867465Y-47767785D01*
X55772821Y-47931715D01*
X55772818Y-47931722D01*
X55714327Y-48111740D01*
X55714326Y-48111744D01*
X55694540Y-48300000D01*
X55714326Y-48488256D01*
X55714327Y-48488259D01*
X55772818Y-48668277D01*
X55772820Y-48668281D01*
X55772821Y-48668284D01*
X55805449Y-48724798D01*
X55829097Y-48765758D01*
X55845568Y-48833658D01*
X55822716Y-48899685D01*
X55813859Y-48910729D01*
X55717466Y-49017784D01*
X55622821Y-49181715D01*
X55622818Y-49181722D01*
X55564327Y-49361740D01*
X55564326Y-49361744D01*
X55544540Y-49550000D01*
X50454834Y-49550000D01*
X50429807Y-49538857D01*
X50429802Y-49538855D01*
X50284001Y-49507865D01*
X50244646Y-49499500D01*
X50055354Y-49499500D01*
X50022897Y-49506398D01*
X49870197Y-49538855D01*
X49870192Y-49538857D01*
X49697270Y-49615848D01*
X49697265Y-49615851D01*
X49544129Y-49727111D01*
X49417466Y-49867785D01*
X49322821Y-50031715D01*
X49322818Y-50031722D01*
X49264327Y-50211740D01*
X49264326Y-50211744D01*
X49244540Y-50400000D01*
X27127077Y-50400000D01*
X26996545Y-50094372D01*
X26959548Y-50007746D01*
X26958739Y-50005756D01*
X26819501Y-49645505D01*
X26704000Y-49338256D01*
X26643900Y-49178381D01*
X26643200Y-49176415D01*
X26520836Y-48812392D01*
X26457313Y-48617785D01*
X26365299Y-48335894D01*
X26364680Y-48333878D01*
X26259311Y-47967088D01*
X26249468Y-47931722D01*
X26124268Y-47481875D01*
X26123725Y-47479777D01*
X26035434Y-47111340D01*
X25921295Y-46618055D01*
X25920840Y-46615911D01*
X25859866Y-46300000D01*
X29824540Y-46300000D01*
X29844326Y-46488256D01*
X29844327Y-46488259D01*
X29902818Y-46668277D01*
X29902821Y-46668284D01*
X29997467Y-46832216D01*
X30113553Y-46961142D01*
X30124129Y-46972888D01*
X30277265Y-47084148D01*
X30277270Y-47084151D01*
X30450192Y-47161142D01*
X30450197Y-47161144D01*
X30635354Y-47200500D01*
X30635355Y-47200500D01*
X30824644Y-47200500D01*
X30824646Y-47200500D01*
X31009803Y-47161144D01*
X31182730Y-47084151D01*
X31335871Y-46972888D01*
X31462533Y-46832216D01*
X31557179Y-46668284D01*
X31615674Y-46488256D01*
X31635460Y-46300000D01*
X31615674Y-46111744D01*
X31576117Y-45990000D01*
X47947040Y-45990000D01*
X47966826Y-46178256D01*
X47966827Y-46178259D01*
X48025318Y-46358277D01*
X48025321Y-46358284D01*
X48119967Y-46522216D01*
X48219010Y-46632214D01*
X48246629Y-46662888D01*
X48399765Y-46774148D01*
X48399770Y-46774151D01*
X48572692Y-46851142D01*
X48572697Y-46851144D01*
X48757854Y-46890500D01*
X48757855Y-46890500D01*
X48947144Y-46890500D01*
X48947146Y-46890500D01*
X49132303Y-46851144D01*
X49305230Y-46774151D01*
X49458371Y-46662888D01*
X49585033Y-46522216D01*
X49679679Y-46358284D01*
X49738174Y-46178256D01*
X49757960Y-45990000D01*
X49738174Y-45801744D01*
X49679679Y-45621716D01*
X49585033Y-45457784D01*
X49458371Y-45317112D01*
X49458370Y-45317111D01*
X49305234Y-45205851D01*
X49305229Y-45205848D01*
X49132307Y-45128857D01*
X49132302Y-45128855D01*
X48986501Y-45097865D01*
X48947146Y-45089500D01*
X48757854Y-45089500D01*
X48725397Y-45096398D01*
X48572697Y-45128855D01*
X48572692Y-45128857D01*
X48399770Y-45205848D01*
X48399765Y-45205851D01*
X48246629Y-45317111D01*
X48119966Y-45457785D01*
X48025321Y-45621715D01*
X48025318Y-45621722D01*
X47977860Y-45767784D01*
X47966826Y-45801744D01*
X47947040Y-45990000D01*
X31576117Y-45990000D01*
X31557179Y-45931716D01*
X31462533Y-45767784D01*
X31335871Y-45627112D01*
X31335870Y-45627111D01*
X31182734Y-45515851D01*
X31182729Y-45515848D01*
X31009807Y-45438857D01*
X31009802Y-45438855D01*
X30864001Y-45407865D01*
X30824646Y-45399500D01*
X30635354Y-45399500D01*
X30602897Y-45406398D01*
X30450197Y-45438855D01*
X30450192Y-45438857D01*
X30277270Y-45515848D01*
X30277265Y-45515851D01*
X30124129Y-45627111D01*
X29997466Y-45767785D01*
X29902821Y-45931715D01*
X29902818Y-45931722D01*
X29844327Y-46111740D01*
X29844326Y-46111744D01*
X29824540Y-46300000D01*
X25859866Y-46300000D01*
X25849633Y-46246983D01*
X25756764Y-45746071D01*
X25756401Y-45743891D01*
X25702204Y-45375643D01*
X25630992Y-44867580D01*
X25630729Y-44865402D01*
X25593397Y-44499171D01*
X25593312Y-44498284D01*
X25544257Y-43984508D01*
X25544082Y-43982213D01*
X25523368Y-43619524D01*
X25496697Y-43098323D01*
X25496626Y-43096070D01*
X25492152Y-42738512D01*
X25489762Y-42400000D01*
X36494540Y-42400000D01*
X36514326Y-42588256D01*
X36514327Y-42588259D01*
X36572818Y-42768277D01*
X36572821Y-42768284D01*
X36667467Y-42932216D01*
X36756405Y-43030991D01*
X36794129Y-43072888D01*
X36947265Y-43184148D01*
X36947270Y-43184151D01*
X37120197Y-43261144D01*
X37120203Y-43261145D01*
X37121788Y-43261661D01*
X37122593Y-43262211D01*
X37126134Y-43263788D01*
X37125845Y-43264435D01*
X37179466Y-43301094D01*
X37206668Y-43365451D01*
X37206793Y-43366588D01*
X37214326Y-43438256D01*
X37214327Y-43438258D01*
X37214327Y-43438260D01*
X37272818Y-43618277D01*
X37272821Y-43618284D01*
X37367467Y-43782216D01*
X37484982Y-43912729D01*
X37494129Y-43922888D01*
X37647265Y-44034148D01*
X37647270Y-44034151D01*
X37820192Y-44111142D01*
X37820197Y-44111144D01*
X38005354Y-44150500D01*
X38005355Y-44150500D01*
X38194644Y-44150500D01*
X38194646Y-44150500D01*
X38291092Y-44130000D01*
X52464540Y-44130000D01*
X52484326Y-44318256D01*
X52484327Y-44318259D01*
X52542818Y-44498277D01*
X52542821Y-44498284D01*
X52637467Y-44662216D01*
X52754025Y-44791666D01*
X52764129Y-44802888D01*
X52917265Y-44914148D01*
X52917270Y-44914151D01*
X53090192Y-44991142D01*
X53090197Y-44991144D01*
X53275354Y-45030500D01*
X53275355Y-45030500D01*
X53464644Y-45030500D01*
X53464646Y-45030500D01*
X53649803Y-44991144D01*
X53822730Y-44914151D01*
X53975871Y-44802888D01*
X54102533Y-44662216D01*
X54197179Y-44498284D01*
X54255674Y-44318256D01*
X54275460Y-44130000D01*
X54255674Y-43941744D01*
X54197179Y-43761716D01*
X54102533Y-43597784D01*
X53975871Y-43457112D01*
X53975870Y-43457111D01*
X53822734Y-43345851D01*
X53822729Y-43345848D01*
X53649807Y-43268857D01*
X53649802Y-43268855D01*
X53504000Y-43237865D01*
X53464646Y-43229500D01*
X53275354Y-43229500D01*
X53242897Y-43236398D01*
X53090197Y-43268855D01*
X53090192Y-43268857D01*
X52917270Y-43345848D01*
X52917265Y-43345851D01*
X52764129Y-43457111D01*
X52637466Y-43597785D01*
X52542821Y-43761715D01*
X52542818Y-43761722D01*
X52486654Y-43934578D01*
X52484326Y-43941744D01*
X52464540Y-44130000D01*
X38291092Y-44130000D01*
X38379803Y-44111144D01*
X38552730Y-44034151D01*
X38705871Y-43922888D01*
X38832533Y-43782216D01*
X38927179Y-43618284D01*
X38985674Y-43438256D01*
X39005460Y-43250000D01*
X38985674Y-43061744D01*
X38927179Y-42881716D01*
X38832533Y-42717784D01*
X38705871Y-42577112D01*
X38705870Y-42577111D01*
X38682890Y-42560415D01*
X61095773Y-42560415D01*
X61105696Y-42718137D01*
X61105696Y-42718140D01*
X61130614Y-42794828D01*
X61154533Y-42868441D01*
X61239214Y-43001877D01*
X61354418Y-43110062D01*
X61354420Y-43110063D01*
X61354422Y-43110065D01*
X61489186Y-43184151D01*
X61492908Y-43186197D01*
X61645981Y-43225500D01*
X61645984Y-43225500D01*
X61764348Y-43225500D01*
X61764350Y-43225500D01*
X61764355Y-43225499D01*
X61764359Y-43225499D01*
X61777088Y-43223890D01*
X61881792Y-43210664D01*
X62028732Y-43152486D01*
X62156587Y-43059594D01*
X62257324Y-42937823D01*
X62324614Y-42794826D01*
X62354227Y-42639588D01*
X62349246Y-42560415D01*
X63845773Y-42560415D01*
X63855696Y-42718137D01*
X63855696Y-42718140D01*
X63880614Y-42794828D01*
X63904533Y-42868441D01*
X63989214Y-43001877D01*
X64104418Y-43110062D01*
X64104420Y-43110063D01*
X64104422Y-43110065D01*
X64239186Y-43184151D01*
X64242908Y-43186197D01*
X64395981Y-43225500D01*
X64395984Y-43225500D01*
X64514348Y-43225500D01*
X64514350Y-43225500D01*
X64514355Y-43225499D01*
X64514359Y-43225499D01*
X64527088Y-43223890D01*
X64631792Y-43210664D01*
X64778732Y-43152486D01*
X64906587Y-43059594D01*
X65007324Y-42937823D01*
X65074614Y-42794826D01*
X65104227Y-42639588D01*
X65094304Y-42481862D01*
X65045467Y-42331559D01*
X64960786Y-42198123D01*
X64845582Y-42089938D01*
X64845579Y-42089936D01*
X64845577Y-42089934D01*
X64707095Y-42013804D01*
X64707087Y-42013801D01*
X64554021Y-41974500D01*
X64554019Y-41974500D01*
X64435650Y-41974500D01*
X64435640Y-41974500D01*
X64318208Y-41989336D01*
X64318206Y-41989336D01*
X64171269Y-42047513D01*
X64171260Y-42047518D01*
X64043416Y-42140402D01*
X64043415Y-42140403D01*
X63942674Y-42262178D01*
X63875387Y-42405171D01*
X63875385Y-42405174D01*
X63860757Y-42481862D01*
X63845773Y-42560412D01*
X63845773Y-42560414D01*
X63845773Y-42560415D01*
X62349246Y-42560415D01*
X62344304Y-42481862D01*
X62295467Y-42331559D01*
X62210786Y-42198123D01*
X62095582Y-42089938D01*
X62095579Y-42089936D01*
X62095577Y-42089934D01*
X61957095Y-42013804D01*
X61957087Y-42013801D01*
X61804021Y-41974500D01*
X61804019Y-41974500D01*
X61685650Y-41974500D01*
X61685640Y-41974500D01*
X61568208Y-41989336D01*
X61568206Y-41989336D01*
X61421269Y-42047513D01*
X61421260Y-42047518D01*
X61293416Y-42140402D01*
X61293415Y-42140403D01*
X61192674Y-42262178D01*
X61125387Y-42405171D01*
X61125385Y-42405174D01*
X61110757Y-42481862D01*
X61095773Y-42560412D01*
X61095773Y-42560414D01*
X61095773Y-42560415D01*
X38682890Y-42560415D01*
X38552734Y-42465851D01*
X38552729Y-42465848D01*
X38379801Y-42388854D01*
X38378202Y-42388335D01*
X38377395Y-42387783D01*
X38373866Y-42386212D01*
X38374153Y-42385566D01*
X38320527Y-42348897D01*
X38293330Y-42284538D01*
X38293201Y-42283366D01*
X38285674Y-42211744D01*
X38227179Y-42031716D01*
X38177780Y-41946155D01*
X38161308Y-41878255D01*
X38184161Y-41812229D01*
X38239082Y-41769038D01*
X38259382Y-41762867D01*
X38429803Y-41726644D01*
X38602730Y-41649651D01*
X38755871Y-41538388D01*
X38882533Y-41397716D01*
X38977179Y-41233784D01*
X39035674Y-41053756D01*
X39055460Y-40865500D01*
X39035674Y-40677244D01*
X38977179Y-40497216D01*
X38882533Y-40333284D01*
X38870572Y-40320000D01*
X52464540Y-40320000D01*
X52484326Y-40508256D01*
X52484327Y-40508259D01*
X52542818Y-40688277D01*
X52542821Y-40688284D01*
X52637467Y-40852216D01*
X52733116Y-40958445D01*
X52764129Y-40992888D01*
X52917265Y-41104148D01*
X52917270Y-41104151D01*
X53090192Y-41181142D01*
X53090197Y-41181144D01*
X53275354Y-41220500D01*
X53275355Y-41220500D01*
X53464644Y-41220500D01*
X53464646Y-41220500D01*
X53649803Y-41181144D01*
X53822730Y-41104151D01*
X53975871Y-40992888D01*
X54102533Y-40852216D01*
X54197179Y-40688284D01*
X54255674Y-40508256D01*
X54275460Y-40320000D01*
X54255674Y-40131744D01*
X54197179Y-39951716D01*
X54102533Y-39787784D01*
X53975871Y-39647112D01*
X53975870Y-39647111D01*
X53822734Y-39535851D01*
X53822729Y-39535848D01*
X53649807Y-39458857D01*
X53649802Y-39458855D01*
X53504001Y-39427865D01*
X53464646Y-39419500D01*
X53275354Y-39419500D01*
X53242897Y-39426398D01*
X53090197Y-39458855D01*
X53090192Y-39458857D01*
X52917270Y-39535848D01*
X52917265Y-39535851D01*
X52764129Y-39647111D01*
X52637466Y-39787785D01*
X52542821Y-39951715D01*
X52542818Y-39951722D01*
X52484327Y-40131740D01*
X52484326Y-40131744D01*
X52464540Y-40320000D01*
X38870572Y-40320000D01*
X38755871Y-40192612D01*
X38712559Y-40161144D01*
X38602734Y-40081351D01*
X38602729Y-40081348D01*
X38429807Y-40004357D01*
X38429802Y-40004355D01*
X38281756Y-39972888D01*
X38244646Y-39965000D01*
X38055354Y-39965000D01*
X38022897Y-39971898D01*
X37870197Y-40004355D01*
X37870192Y-40004357D01*
X37697270Y-40081348D01*
X37697265Y-40081351D01*
X37544129Y-40192611D01*
X37417466Y-40333285D01*
X37322821Y-40497215D01*
X37322818Y-40497222D01*
X37267237Y-40668284D01*
X37264326Y-40677244D01*
X37244540Y-40865500D01*
X37264326Y-41053756D01*
X37264327Y-41053759D01*
X37322818Y-41233777D01*
X37322820Y-41233781D01*
X37322821Y-41233784D01*
X37341400Y-41265963D01*
X37372219Y-41319344D01*
X37388691Y-41387244D01*
X37365838Y-41453271D01*
X37310916Y-41496461D01*
X37290612Y-41502633D01*
X37120197Y-41538855D01*
X37120192Y-41538857D01*
X36947270Y-41615848D01*
X36947265Y-41615851D01*
X36794129Y-41727111D01*
X36667466Y-41867785D01*
X36572821Y-42031715D01*
X36572818Y-42031722D01*
X36514327Y-42211740D01*
X36514326Y-42211744D01*
X36494540Y-42400000D01*
X25489762Y-42400000D01*
X25488427Y-42211007D01*
X25488456Y-42208645D01*
X25499683Y-41858182D01*
X25519455Y-41324060D01*
X25519583Y-41321807D01*
X25545789Y-40980216D01*
X25589718Y-40439513D01*
X25589968Y-40437043D01*
X25606646Y-40300000D01*
X33244540Y-40300000D01*
X33264326Y-40488256D01*
X33264327Y-40488259D01*
X33322818Y-40668277D01*
X33322821Y-40668284D01*
X33417467Y-40832216D01*
X33544129Y-40972888D01*
X33697265Y-41084148D01*
X33697270Y-41084151D01*
X33870192Y-41161142D01*
X33870197Y-41161144D01*
X34055354Y-41200500D01*
X34055355Y-41200500D01*
X34244644Y-41200500D01*
X34244646Y-41200500D01*
X34429803Y-41161144D01*
X34602730Y-41084151D01*
X34755871Y-40972888D01*
X34882533Y-40832216D01*
X34977179Y-40668284D01*
X35035674Y-40488256D01*
X35055460Y-40300000D01*
X35035674Y-40111744D01*
X34977179Y-39931716D01*
X34882533Y-39767784D01*
X34755871Y-39627112D01*
X34694077Y-39582216D01*
X34602734Y-39515851D01*
X34602729Y-39515848D01*
X34429807Y-39438857D01*
X34429802Y-39438855D01*
X34284000Y-39407865D01*
X34244646Y-39399500D01*
X34055354Y-39399500D01*
X34022897Y-39406398D01*
X33870197Y-39438855D01*
X33870192Y-39438857D01*
X33697270Y-39515848D01*
X33697265Y-39515851D01*
X33544129Y-39627111D01*
X33417466Y-39767785D01*
X33322821Y-39931715D01*
X33322818Y-39931722D01*
X33272807Y-40085642D01*
X33264326Y-40111744D01*
X33244540Y-40300000D01*
X25606646Y-40300000D01*
X25606646Y-40299999D01*
X25630101Y-40107261D01*
X25699095Y-39558764D01*
X25699434Y-39556449D01*
X25752063Y-39241628D01*
X25784798Y-39050000D01*
X39094540Y-39050000D01*
X39114326Y-39238256D01*
X39114327Y-39238259D01*
X39172818Y-39418277D01*
X39172821Y-39418284D01*
X39267467Y-39582216D01*
X39378932Y-39706010D01*
X39394129Y-39722888D01*
X39547265Y-39834148D01*
X39547270Y-39834151D01*
X39720192Y-39911142D01*
X39720197Y-39911144D01*
X39905354Y-39950500D01*
X39905355Y-39950500D01*
X40094644Y-39950500D01*
X40094646Y-39950500D01*
X40279803Y-39911144D01*
X40452730Y-39834151D01*
X40605871Y-39722888D01*
X40732533Y-39582216D01*
X40827179Y-39418284D01*
X40885674Y-39238256D01*
X40905460Y-39050000D01*
X40885674Y-38861744D01*
X40827179Y-38681716D01*
X40732533Y-38517784D01*
X40605871Y-38377112D01*
X40596549Y-38370339D01*
X40568555Y-38350000D01*
X49044540Y-38350000D01*
X49064326Y-38538256D01*
X49064327Y-38538259D01*
X49122818Y-38718277D01*
X49122821Y-38718284D01*
X49217467Y-38882216D01*
X49296012Y-38969449D01*
X49344129Y-39022888D01*
X49497265Y-39134148D01*
X49497267Y-39134149D01*
X49497270Y-39134151D01*
X49572307Y-39167560D01*
X49625542Y-39212808D01*
X49645864Y-39279657D01*
X49645192Y-39293790D01*
X49644540Y-39299997D01*
X49644540Y-39300000D01*
X49664326Y-39488256D01*
X49664327Y-39488259D01*
X49722818Y-39668277D01*
X49722821Y-39668284D01*
X49817467Y-39832216D01*
X49907063Y-39931722D01*
X49944129Y-39972888D01*
X50097265Y-40084148D01*
X50097270Y-40084151D01*
X50270192Y-40161142D01*
X50270197Y-40161144D01*
X50455354Y-40200500D01*
X50455355Y-40200500D01*
X50644644Y-40200500D01*
X50644646Y-40200500D01*
X50829803Y-40161144D01*
X50962993Y-40101842D01*
X51032242Y-40092558D01*
X51086313Y-40114803D01*
X51096056Y-40121881D01*
X51096060Y-40121884D01*
X51268982Y-40198875D01*
X51268987Y-40198877D01*
X51454144Y-40238233D01*
X51454145Y-40238233D01*
X51643434Y-40238233D01*
X51643436Y-40238233D01*
X51828593Y-40198877D01*
X52001520Y-40121884D01*
X52154661Y-40010621D01*
X52281323Y-39869949D01*
X52375969Y-39706017D01*
X52434464Y-39525989D01*
X52454250Y-39337733D01*
X52434464Y-39149477D01*
X52375969Y-38969449D01*
X52281323Y-38805517D01*
X52154661Y-38664845D01*
X52154660Y-38664844D01*
X52001524Y-38553584D01*
X52001519Y-38553581D01*
X51828597Y-38476590D01*
X51828592Y-38476588D01*
X51682790Y-38445598D01*
X51643436Y-38437233D01*
X51454144Y-38437233D01*
X51421687Y-38444131D01*
X51268987Y-38476588D01*
X51135794Y-38535890D01*
X51066544Y-38545174D01*
X51012473Y-38522928D01*
X51002729Y-38515848D01*
X50927692Y-38482439D01*
X50874456Y-38437188D01*
X50854135Y-38370339D01*
X50854809Y-38356196D01*
X50855460Y-38350003D01*
X50855460Y-38350002D01*
X50855460Y-38349999D01*
X50844950Y-38250000D01*
X55594540Y-38250000D01*
X55614326Y-38438256D01*
X55614327Y-38438259D01*
X55672818Y-38618277D01*
X55672821Y-38618284D01*
X55767467Y-38782216D01*
X55839071Y-38861740D01*
X55894129Y-38922888D01*
X56047265Y-39034148D01*
X56047270Y-39034151D01*
X56220192Y-39111142D01*
X56220197Y-39111144D01*
X56405354Y-39150500D01*
X56405355Y-39150500D01*
X56594644Y-39150500D01*
X56594646Y-39150500D01*
X56779803Y-39111144D01*
X56952730Y-39034151D01*
X57105871Y-38922888D01*
X57232533Y-38782216D01*
X57327179Y-38618284D01*
X57385674Y-38438256D01*
X57405460Y-38250000D01*
X57385674Y-38061744D01*
X57327179Y-37881716D01*
X57232533Y-37717784D01*
X57226188Y-37710737D01*
X57195958Y-37647750D01*
X57204581Y-37578415D01*
X57226185Y-37544796D01*
X57282533Y-37482216D01*
X57377179Y-37318284D01*
X57435674Y-37138256D01*
X57455460Y-36950000D01*
X57435674Y-36761744D01*
X57377179Y-36581716D01*
X57282533Y-36417784D01*
X57155871Y-36277112D01*
X57155870Y-36277111D01*
X57002734Y-36165851D01*
X57002729Y-36165848D01*
X56829807Y-36088857D01*
X56829802Y-36088855D01*
X56684000Y-36057865D01*
X56644646Y-36049500D01*
X56455354Y-36049500D01*
X56422897Y-36056398D01*
X56270197Y-36088855D01*
X56270192Y-36088857D01*
X56097270Y-36165848D01*
X56097265Y-36165851D01*
X55944129Y-36277111D01*
X55817466Y-36417785D01*
X55722821Y-36581715D01*
X55722818Y-36581722D01*
X55664327Y-36761740D01*
X55664326Y-36761744D01*
X55647577Y-36921101D01*
X55645056Y-36945095D01*
X55644540Y-36950000D01*
X55664326Y-37138256D01*
X55664327Y-37138259D01*
X55722818Y-37318277D01*
X55722821Y-37318284D01*
X55817467Y-37482216D01*
X55823445Y-37488855D01*
X55823809Y-37489259D01*
X55854041Y-37552249D01*
X55845418Y-37621585D01*
X55823812Y-37655206D01*
X55767466Y-37717784D01*
X55672821Y-37881715D01*
X55672818Y-37881722D01*
X55614327Y-38061740D01*
X55614326Y-38061744D01*
X55594540Y-38250000D01*
X50844950Y-38250000D01*
X50835674Y-38161744D01*
X50777179Y-37981716D01*
X50682533Y-37817784D01*
X50555871Y-37677112D01*
X50515458Y-37647750D01*
X50402734Y-37565851D01*
X50402729Y-37565848D01*
X50229807Y-37488857D01*
X50229802Y-37488855D01*
X50084001Y-37457865D01*
X50044646Y-37449500D01*
X49855354Y-37449500D01*
X49822897Y-37456398D01*
X49670197Y-37488855D01*
X49670192Y-37488857D01*
X49497270Y-37565848D01*
X49497265Y-37565851D01*
X49344129Y-37677111D01*
X49217466Y-37817785D01*
X49122821Y-37981715D01*
X49122818Y-37981722D01*
X49068304Y-38149500D01*
X49064326Y-38161744D01*
X49044540Y-38350000D01*
X40568555Y-38350000D01*
X40452734Y-38265851D01*
X40452729Y-38265848D01*
X40279807Y-38188857D01*
X40279802Y-38188855D01*
X40134001Y-38157865D01*
X40094646Y-38149500D01*
X39905354Y-38149500D01*
X39872897Y-38156398D01*
X39720197Y-38188855D01*
X39720192Y-38188857D01*
X39547270Y-38265848D01*
X39547265Y-38265851D01*
X39394129Y-38377111D01*
X39267466Y-38517785D01*
X39172821Y-38681715D01*
X39172818Y-38681722D01*
X39140166Y-38782216D01*
X39114326Y-38861744D01*
X39094540Y-39050000D01*
X25784798Y-39050000D01*
X25847345Y-38683862D01*
X25847819Y-38681394D01*
X25851350Y-38664844D01*
X25910839Y-38385978D01*
X26034207Y-37816284D01*
X26034773Y-37813911D01*
X26102903Y-37552249D01*
X26105176Y-37543519D01*
X26110650Y-37522720D01*
X26259287Y-36957894D01*
X26259999Y-36955404D01*
X26319748Y-36761740D01*
X26332285Y-36721100D01*
X26522191Y-36110191D01*
X26522973Y-36107852D01*
X26587777Y-35926838D01*
X26587924Y-35926428D01*
X26587978Y-35926447D01*
X26587991Y-35926241D01*
X26812189Y-35303268D01*
X34870945Y-35303268D01*
X34890731Y-35491524D01*
X34890732Y-35491527D01*
X34949223Y-35671545D01*
X34949226Y-35671552D01*
X35043872Y-35835484D01*
X35083879Y-35879916D01*
X35090676Y-35887465D01*
X35120906Y-35950456D01*
X35112281Y-36019792D01*
X35105913Y-36032437D01*
X35042821Y-36141715D01*
X35042818Y-36141722D01*
X34984327Y-36321740D01*
X34984326Y-36321744D01*
X34964540Y-36510000D01*
X34984326Y-36698256D01*
X34984327Y-36698259D01*
X35042818Y-36878277D01*
X35042821Y-36878284D01*
X35137467Y-37042216D01*
X35223942Y-37138256D01*
X35264129Y-37182888D01*
X35417265Y-37294148D01*
X35417270Y-37294151D01*
X35590192Y-37371142D01*
X35590197Y-37371144D01*
X35775354Y-37410500D01*
X35775355Y-37410500D01*
X35964644Y-37410500D01*
X35964646Y-37410500D01*
X36149803Y-37371144D01*
X36322730Y-37294151D01*
X36475871Y-37182888D01*
X36602533Y-37042216D01*
X36697179Y-36878284D01*
X36755674Y-36698256D01*
X36775460Y-36510000D01*
X36755674Y-36321744D01*
X36697179Y-36141716D01*
X36602533Y-35977784D01*
X36556292Y-35926428D01*
X36555729Y-35925803D01*
X36525499Y-35862812D01*
X36534124Y-35793476D01*
X36540492Y-35780831D01*
X36548103Y-35767647D01*
X36603584Y-35671552D01*
X36662079Y-35491524D01*
X36681865Y-35303268D01*
X36662079Y-35115012D01*
X36603584Y-34934984D01*
X36508938Y-34771052D01*
X36382276Y-34630380D01*
X36382275Y-34630379D01*
X36229139Y-34519119D01*
X36229134Y-34519116D01*
X36056212Y-34442125D01*
X36056207Y-34442123D01*
X35882930Y-34405293D01*
X35871051Y-34402768D01*
X35681759Y-34402768D01*
X35669880Y-34405293D01*
X35496602Y-34442123D01*
X35496597Y-34442125D01*
X35323675Y-34519116D01*
X35323670Y-34519119D01*
X35170534Y-34630379D01*
X35043871Y-34771053D01*
X34949226Y-34934983D01*
X34949223Y-34934990D01*
X34890732Y-35115008D01*
X34890731Y-35115012D01*
X34870945Y-35303268D01*
X26812189Y-35303268D01*
X26822352Y-35275027D01*
X26823251Y-35272686D01*
X26859778Y-35183399D01*
X26860023Y-35182802D01*
X26860114Y-35182690D01*
X26860076Y-35182675D01*
X27158409Y-34455901D01*
X27159502Y-34453397D01*
X27529273Y-33654686D01*
X27530426Y-33652333D01*
X27900863Y-32936677D01*
X27949161Y-32886191D01*
X28010913Y-32869680D01*
X51089870Y-32857064D01*
X51156919Y-32876712D01*
X51202703Y-32929491D01*
X51212684Y-32998644D01*
X51207868Y-33019381D01*
X51150178Y-33196935D01*
X51150178Y-33196936D01*
X51150177Y-33196940D01*
X51130391Y-33385196D01*
X51150177Y-33573452D01*
X51169795Y-33633831D01*
X51184765Y-33679902D01*
X51186760Y-33749743D01*
X51150680Y-33809576D01*
X51101288Y-33835047D01*
X51101874Y-33836849D01*
X51095692Y-33838857D01*
X50922770Y-33915848D01*
X50922765Y-33915851D01*
X50769629Y-34027111D01*
X50642966Y-34167785D01*
X50548321Y-34331715D01*
X50548318Y-34331722D01*
X50489827Y-34511740D01*
X50489826Y-34511744D01*
X50470040Y-34700000D01*
X50489826Y-34888256D01*
X50489827Y-34888259D01*
X50548318Y-35068277D01*
X50548321Y-35068284D01*
X50642967Y-35232216D01*
X50706943Y-35303268D01*
X50769629Y-35372888D01*
X50922765Y-35484148D01*
X50922770Y-35484151D01*
X51095692Y-35561142D01*
X51095697Y-35561144D01*
X51280854Y-35600500D01*
X51280855Y-35600500D01*
X51470144Y-35600500D01*
X51470146Y-35600500D01*
X51655303Y-35561144D01*
X51828230Y-35484151D01*
X51981371Y-35372888D01*
X52108033Y-35232216D01*
X52202679Y-35068284D01*
X52261174Y-34888256D01*
X52280960Y-34700000D01*
X52261174Y-34511744D01*
X52226584Y-34405290D01*
X52224590Y-34335452D01*
X52260670Y-34275619D01*
X52310068Y-34250161D01*
X52309479Y-34248346D01*
X52315650Y-34246340D01*
X52315654Y-34246340D01*
X52315657Y-34246338D01*
X52315659Y-34246338D01*
X52373909Y-34220402D01*
X52488581Y-34169347D01*
X52641722Y-34058084D01*
X52768384Y-33917412D01*
X52863030Y-33753480D01*
X52921525Y-33573452D01*
X52941311Y-33385196D01*
X52921525Y-33196940D01*
X52885005Y-33084544D01*
X52863497Y-33018348D01*
X52861502Y-32948507D01*
X52897582Y-32888674D01*
X52960283Y-32857846D01*
X52981353Y-32856030D01*
X63024299Y-32850541D01*
X63091349Y-32870189D01*
G37*
%TD.AperFunction*%
%TD*%
M02*
