%TF.GenerationSoftware,KiCad,Pcbnew,7.0.5*%
%TF.CreationDate,2024-06-06T18:36:07+01:00*%
%TF.ProjectId,smartwatch,736d6172-7477-4617-9463-682e6b696361,rev?*%
%TF.SameCoordinates,Original*%
%TF.FileFunction,Copper,L3,Inr*%
%TF.FilePolarity,Positive*%
%FSLAX46Y46*%
G04 Gerber Fmt 4.6, Leading zero omitted, Abs format (unit mm)*
G04 Created by KiCad (PCBNEW 7.0.5) date 2024-06-06 18:36:07*
%MOMM*%
%LPD*%
G01*
G04 APERTURE LIST*
%TA.AperFunction,ViaPad*%
%ADD10C,0.800000*%
%TD*%
%TA.AperFunction,Conductor*%
%ADD11C,0.250000*%
%TD*%
G04 APERTURE END LIST*
D10*
%TO.N,IO0*%
X50500000Y-33660000D03*
%TO.N,DC_GND*%
X52310000Y-34000000D03*
X57678750Y-55208750D03*
X29095000Y-37537500D03*
X61907500Y-38540498D03*
X46790000Y-44730000D03*
%TO.N,BAT_VDD*%
X45500000Y-54620000D03*
X49470000Y-55165000D03*
X47110000Y-60650000D03*
%TO.N,3V3*%
X57640000Y-51970000D03*
X33310000Y-46835000D03*
%TO.N,EN*%
X39380000Y-35562500D03*
%TO.N,DC_5V_IN*%
X41940000Y-60690000D03*
X43230000Y-54620000D03*
X44720000Y-48210000D03*
%TO.N,MCP_1*%
X40080000Y-44760000D03*
X42095000Y-48240000D03*
%TO.N,RX*%
X62650000Y-37280000D03*
X53370000Y-39015500D03*
%TO.N,TX*%
X53370000Y-37780000D03*
X62690000Y-36020000D03*
%TO.N,SCR_MISO*%
X35877299Y-41582701D03*
X57660000Y-41710000D03*
%TO.N,SD_SS*%
X35870000Y-47940000D03*
%TO.N,SD_MOSI*%
X35870000Y-53020000D03*
X33270000Y-48100000D03*
%TO.N,SD_SCLK*%
X31802330Y-47475829D03*
%TO.N,SD_MISO*%
X35870000Y-50480000D03*
X33180000Y-43070000D03*
%TO.N,Net-(RED1-A)*%
X40040000Y-48280000D03*
X46720000Y-48210000D03*
%TO.N,BTN_INP*%
X35870000Y-40320000D03*
X63430000Y-48130000D03*
%TO.N,MPU_SDA*%
X28190000Y-40030000D03*
X35870000Y-42860000D03*
%TO.N,MPU_SCL*%
X35870000Y-44130000D03*
X32585500Y-41670000D03*
%TO.N,TOUCH_IRQ*%
X57740000Y-36430000D03*
X49650000Y-36460000D03*
%TD*%
D11*
%TO.N,BAT_VDD*%
X47000000Y-55165000D02*
X49470000Y-55165000D01*
X45500000Y-54620000D02*
X46045000Y-55165000D01*
X46045000Y-55165000D02*
X47000000Y-55165000D01*
X47000000Y-55165000D02*
X47110000Y-55275000D01*
X47110000Y-55275000D02*
X47110000Y-60650000D01*
%TO.N,DC_5V_IN*%
X43230000Y-59400000D02*
X43230000Y-54620000D01*
X43230000Y-49700000D02*
X44720000Y-48210000D01*
X43230000Y-54620000D02*
X43230000Y-49700000D01*
X41940000Y-60690000D02*
X43230000Y-59400000D01*
%TO.N,MCP_1*%
X42095000Y-48240000D02*
X42095000Y-46775000D01*
X42095000Y-46775000D02*
X40080000Y-44760000D01*
%TO.N,RX*%
X61240000Y-37280000D02*
X59504500Y-39015500D01*
X59504500Y-39015500D02*
X53370000Y-39015500D01*
X62650000Y-37280000D02*
X61240000Y-37280000D01*
%TO.N,TX*%
X53420000Y-37730000D02*
X53370000Y-37780000D01*
X62690000Y-36020000D02*
X61080000Y-36020000D01*
X59370000Y-37730000D02*
X53420000Y-37730000D01*
X61080000Y-36020000D02*
X59370000Y-37730000D01*
%TO.N,SCR_MISO*%
X57660000Y-41710000D02*
X36004598Y-41710000D01*
X36004598Y-41710000D02*
X35877299Y-41582701D01*
%TO.N,SD_MOSI*%
X33270000Y-50420000D02*
X35870000Y-53020000D01*
X33270000Y-48100000D02*
X33270000Y-50420000D01*
%TO.N,SD_MISO*%
X34035000Y-48645000D02*
X35870000Y-50480000D01*
X33180000Y-43070000D02*
X34035000Y-43925000D01*
X34035000Y-43925000D02*
X34035000Y-48645000D01*
%TO.N,BTN_INP*%
X60560000Y-48130000D02*
X59500000Y-47070000D01*
X58490000Y-40320000D02*
X35870000Y-40320000D01*
X59500000Y-41330000D02*
X58490000Y-40320000D01*
X59500000Y-47070000D02*
X59500000Y-41330000D01*
X63430000Y-48130000D02*
X60560000Y-48130000D01*
%TO.N,MPU_SDA*%
X33300000Y-40030000D02*
X35870000Y-42600000D01*
X35870000Y-42600000D02*
X35870000Y-42860000D01*
X28190000Y-40030000D02*
X33300000Y-40030000D01*
%TO.N,MPU_SCL*%
X32585500Y-41670000D02*
X33410000Y-41670000D01*
X33410000Y-41670000D02*
X35870000Y-44130000D01*
%TO.N,TOUCH_IRQ*%
X57740000Y-36430000D02*
X49680000Y-36430000D01*
X49680000Y-36430000D02*
X49650000Y-36460000D01*
%TD*%
M02*
