%TF.GenerationSoftware,KiCad,Pcbnew,7.0.5*%
%TF.CreationDate,2024-06-06T18:36:07+01:00*%
%TF.ProjectId,smartwatch,736d6172-7477-4617-9463-682e6b696361,rev?*%
%TF.SameCoordinates,Original*%
%TF.FileFunction,Copper,L2,Inr*%
%TF.FilePolarity,Positive*%
%FSLAX46Y46*%
G04 Gerber Fmt 4.6, Leading zero omitted, Abs format (unit mm)*
G04 Created by KiCad (PCBNEW 7.0.5) date 2024-06-06 18:36:07*
%MOMM*%
%LPD*%
G01*
G04 APERTURE LIST*
%TA.AperFunction,ViaPad*%
%ADD10C,0.800000*%
%TD*%
%TA.AperFunction,Conductor*%
%ADD11C,0.250000*%
%TD*%
G04 APERTURE END LIST*
D10*
%TO.N,IO0*%
X50500000Y-33660000D03*
%TO.N,DC_GND*%
X52310000Y-34000000D03*
X57678750Y-55208750D03*
X29095000Y-37537500D03*
X61907500Y-38540498D03*
X46790000Y-44730000D03*
%TO.N,3V3*%
X32870000Y-39290000D03*
X57640000Y-51970000D03*
X33310000Y-46835000D03*
%TO.N,EN*%
X39380000Y-35562500D03*
%TO.N,RX*%
X62650000Y-37280000D03*
X53370000Y-39015500D03*
%TO.N,TX*%
X53370000Y-37780000D03*
X62690000Y-36020000D03*
%TO.N,SCR_MISO*%
X35877299Y-41582701D03*
X57660000Y-41710000D03*
%TO.N,SCR_MOSI*%
X53370000Y-35240000D03*
X57650000Y-42940000D03*
%TO.N,SD_SS*%
X35870000Y-47940000D03*
%TO.N,SD_MOSI*%
X35870000Y-53020000D03*
%TO.N,SD_SCLK*%
X35870000Y-49210000D03*
X31802330Y-47475829D03*
%TO.N,SD_MISO*%
X35870000Y-50480000D03*
%TO.N,SCR_DC*%
X53370000Y-42860000D03*
X57650000Y-46770000D03*
%TO.N,Net-(RED1-A)*%
X40040000Y-48280000D03*
X46720000Y-48210000D03*
%TO.N,BTN_INP*%
X35870000Y-40320000D03*
X63430000Y-48130000D03*
%TO.N,MPU_SDA*%
X28190000Y-40030000D03*
X35870000Y-42860000D03*
%TO.N,MPU_SCL*%
X35870000Y-44130000D03*
X29320058Y-39588326D03*
X32585500Y-41670000D03*
%TO.N,TOUCH_RST*%
X35870000Y-46670000D03*
X57740000Y-35080000D03*
%TO.N,TOUCH_IRQ*%
X35870000Y-45400000D03*
X57740000Y-36430000D03*
X49650000Y-36460000D03*
%TO.N,SCR_BL*%
X53370000Y-49210000D03*
X57670000Y-49320000D03*
%TD*%
D11*
%TO.N,3V3*%
X33310000Y-39730000D02*
X32870000Y-39290000D01*
X33310000Y-46835000D02*
X33310000Y-39730000D01*
%TO.N,SCR_MOSI*%
X54300000Y-35240000D02*
X53370000Y-35240000D01*
X55710000Y-41000000D02*
X55710000Y-36650000D01*
X57650000Y-42940000D02*
X55710000Y-41000000D01*
X55710000Y-36650000D02*
X54300000Y-35240000D01*
%TO.N,SD_SCLK*%
X33536501Y-49210000D02*
X35870000Y-49210000D01*
X31802330Y-47475829D02*
X33536501Y-49210000D01*
%TO.N,SCR_DC*%
X57280000Y-46770000D02*
X53370000Y-42860000D01*
X57650000Y-46770000D02*
X57280000Y-46770000D01*
%TO.N,Net-(RED1-A)*%
X40040000Y-48280000D02*
X46650000Y-48280000D01*
X46650000Y-48280000D02*
X46720000Y-48210000D01*
%TO.N,MPU_SCL*%
X30503826Y-39588326D02*
X32585500Y-41670000D01*
X29320058Y-39588326D02*
X30503826Y-39588326D01*
%TO.N,TOUCH_RST*%
X57740000Y-35080000D02*
X57175000Y-34515000D01*
X52855000Y-34515000D02*
X40700000Y-46670000D01*
X57175000Y-34515000D02*
X52855000Y-34515000D01*
X40700000Y-46670000D02*
X35870000Y-46670000D01*
%TO.N,TOUCH_IRQ*%
X49650000Y-36460000D02*
X40710000Y-45400000D01*
X40710000Y-45400000D02*
X35870000Y-45400000D01*
%TO.N,SCR_BL*%
X53480000Y-49320000D02*
X53370000Y-49210000D01*
X57670000Y-49320000D02*
X53480000Y-49320000D01*
%TD*%
M02*
